<svg width="107" height="107" viewBox="0 0 107 107" fill="none" xmlns="http://www.w3.org/2000/svg">
<path d="M82.101 12.3853C61.5421 12.3853 47.4241 1.73584 37.5176 1.73584C27.6112 1.73584 6.80566 7.43062 6.80566 53.0037C6.80566 98.5768 34.7951 105.264 45.6912 105.264C96.7154 105.267 118.511 12.3853 82.101 12.3853Z" fill="#2A2D31"/>
<path d="M28.6074 9.65967H31.5796V15.6041H28.6074V9.65967Z" fill="#A4AFC1"/>
<path d="M18.2051 18.5764H24.1495V21.5486H18.2051V18.5764Z" fill="#A4AFC1"/>
<path d="M35.2949 18.5764H41.2394V21.5486H35.2949V18.5764Z" fill="#A4AFC1"/>
<path d="M53.5001 57.2153C60.4765 57.2153 66.1321 51.5598 66.1321 44.5834C66.1321 37.6069 60.4765 31.9514 53.5001 31.9514C46.5237 31.9514 40.8682 37.6069 40.8682 44.5834C40.8682 51.5598 46.5237 57.2153 53.5001 57.2153Z" fill="#F3F3F1"/>
<path d="M70.5897 34.9236H63.1592V27.4931L70.5897 20.0625V27.4931H78.0203L70.5897 34.9236Z" fill="#F3F3F1"/>
<path d="M83.9653 32.6946H72.8194L70.5903 34.9237H63.1597V32.6946H57.6136C62.5593 34.4066 66.1319 39.0551 66.1319 44.5835C66.1319 51.5593 60.4758 57.2154 53.5 57.2154C46.5242 57.2154 40.8681 51.5593 40.8681 44.5835C40.8681 39.0551 44.4407 34.4066 49.3864 32.6946H23.0347C21.3941 32.6946 20.0625 34.0261 20.0625 35.6668V67.6182H86.9375V35.6668C86.9375 34.0261 85.6059 32.6946 83.9653 32.6946Z" fill="#C5351C"/>
<path d="M58.7019 78.021C58.7019 78.021 59.4301 83.267 63.1008 86.9377H63.1603H43.8408C47.5561 83.2224 48.2397 78.021 48.2397 78.021H58.7019Z" fill="#C5351C"/>
<path d="M83.9653 78.0207H23.0347C21.3941 78.0207 20.0625 76.6891 20.0625 75.0485V67.6179H86.9375V75.0485C86.9375 76.6891 85.6059 78.0207 83.9653 78.0207Z" fill="#F3F3F1"/>
<path d="M29.7222 32.6946H23.0347C21.3941 32.6946 20.0625 34.0261 20.0625 35.6668V67.6182H26.75V35.6668C26.75 34.0261 28.0815 32.6946 29.7222 32.6946Z" fill="#FF5700"/>
<path d="M48.2397 78.021C48.2397 78.021 47.5561 83.2224 43.8408 86.9377H50.5283C54.2436 83.2224 54.9272 78.021 54.9272 78.021H48.2397Z" fill="#FF5700"/>
<path d="M47.1841 44.5834C47.1841 38.7043 51.2204 33.8061 56.6596 32.3972C55.6461 32.1357 54.5998 31.9514 53.5001 31.9514C46.5243 31.9514 40.8682 37.6076 40.8682 44.5834C40.8682 51.5592 46.5243 57.2153 53.5001 57.2153C54.5969 57.2153 55.6431 57.031 56.6596 56.7695C51.2204 55.3606 47.1841 50.4624 47.1841 44.5834Z" fill="#D5DBE1"/>
<path d="M70.5897 26.3785V20.0625L63.1592 27.4931V34.9236H69.4752V27.4931L70.5897 26.3785Z" fill="#D5DBE1"/>
<path d="M26.3785 75.0485V67.6179H20.0625V75.0485C20.0625 76.6891 21.3941 78.0207 23.0347 78.0207H29.3507C27.71 78.0207 26.3785 76.6891 26.3785 75.0485Z" fill="#D5DBE1"/>
<path d="M53.4998 59.4444C45.3054 59.4444 38.6387 52.7777 38.6387 44.5833C38.6387 36.3889 45.3054 29.7222 53.4998 29.7222V34.1805C47.7634 34.1805 43.097 38.8469 43.097 44.5833C43.097 50.3197 47.7634 54.9861 53.4998 54.9861C59.2362 54.9861 63.9026 50.3197 63.9026 44.5833H68.3609C68.3609 52.7777 61.6942 59.4444 53.4998 59.4444Z" fill="#FF5700"/>
<path d="M51.9131 43.009L60.8305 34.0916L63.983 37.2441L55.0656 46.1615L51.9131 43.009Z" fill="#FF5700"/>
<path d="M70.5904 37.1528H63.1598C61.9293 37.1528 60.9307 36.1541 60.9307 34.9236V27.493C60.9307 26.9016 61.1655 26.3339 61.5846 25.9178L69.0151 18.4872C69.6512 17.8511 70.6142 17.658 71.4434 18.0027C72.2756 18.3475 72.8195 19.1619 72.8195 20.0625V25.2639H78.0209C78.9215 25.2639 79.7359 25.8078 80.0807 26.64C80.4255 27.4722 80.2352 28.4323 79.5962 29.0683L72.1657 36.4989C71.7495 36.918 71.1819 37.1528 70.5904 37.1528ZM65.389 32.6944H69.666L72.6382 29.7222H70.5904C69.3599 29.7222 68.3612 28.7235 68.3612 27.493V25.4452L65.389 28.4174V32.6944Z" fill="#FF5700"/>
<path d="M83.9659 80.25H23.0354C20.1672 80.25 17.834 77.9168 17.834 75.0486V34.9236C17.834 32.0554 20.1672 29.7222 23.0354 29.7222H35.6673V34.1805H23.0354C22.6252 34.1805 22.2923 34.5134 22.2923 34.9236V75.0486C22.2923 75.4587 22.6252 75.7916 23.0354 75.7916H83.9659C84.3761 75.7916 84.709 75.4587 84.709 75.0486V34.9236C84.709 34.5134 84.3761 34.1805 83.9659 34.1805H81.7368V29.7222H83.9659C86.8341 29.7222 89.1673 32.0554 89.1673 34.9236V75.0486C89.1673 77.9168 86.8341 80.25 83.9659 80.25Z" fill="#FF5700"/>
<path d="M20.0625 65.3889H86.9375V69.8472H20.0625V65.3889Z" fill="#FF5700"/>
<path d="M63.1592 89.1667H43.8397C42.9392 89.1667 42.1248 88.6227 41.78 87.7905C41.4352 86.9583 41.6254 85.9983 42.2645 85.3622C45.3586 82.2681 46.0243 77.7771 46.0303 77.7325L50.45 78.3121C50.4262 78.4875 50.013 81.4805 48.2386 84.7083H58.7098C56.9532 81.4954 56.5163 78.5023 56.4925 78.327L60.9062 77.7087C60.9122 77.7533 61.5631 82.0422 64.4254 85.1066C65.0079 85.5079 65.3884 86.1766 65.3884 86.9375C65.3884 88.168 64.3897 89.1667 63.1592 89.1667Z" fill="#FF5700"/>
<path d="M5.94434 84.7085H101.055V89.1668H5.94434V84.7085Z" fill="#FF5700"/>
</svg>
