<svg width="107" height="107" viewBox="0 0 107 107" fill="none" xmlns="http://www.w3.org/2000/svg">
<path d="M24.8984 94.6149C45.4573 94.6149 59.5754 105.264 69.4818 105.264C79.3882 105.264 100.194 99.5696 100.194 53.9965C100.194 8.42338 72.2043 1.73291 61.3082 1.73291C10.284 1.73291 -11.5113 94.6149 24.8984 94.6149Z" fill="#2A2D31"/>
<path d="M9.16016 13.7087L11.2618 11.6071L15.4652 15.8104L13.3635 17.9121L9.16016 13.7087Z" fill="#A4AFC1"/>
<path d="M8.63574 27.8977L12.8391 23.6943L14.9408 25.796L10.7374 29.9994L8.63574 27.8977Z" fill="#A4AFC1"/>
<path d="M20.7207 15.8147L24.9241 11.6113L27.0257 13.713L22.8224 17.9164L20.7207 15.8147Z" fill="#A4AFC1"/>
<path d="M92.14 96.5971C89.6819 96.5971 87.6816 94.5968 87.6816 92.1388C87.6816 89.6807 89.6819 87.6804 92.14 87.6804C94.598 87.6804 96.5983 89.6807 96.5983 92.1388C96.5983 94.5968 94.598 96.5971 92.14 96.5971ZM92.14 90.6526C91.3226 90.6526 90.6539 91.3184 90.6539 92.1388C90.6539 92.9591 91.3226 93.6249 92.14 93.6249C92.9573 93.6249 93.6261 92.9591 93.6261 92.1388C93.6261 91.3184 92.9573 90.6526 92.14 90.6526Z" fill="#A4AFC1"/>
<path d="M53.9171 56.814C52.3002 58.4309 43.9482 60.9305 43.9482 60.9305C43.9482 60.9305 46.4508 52.5756 48.0648 50.9617C49.6817 49.3448 52.3002 49.3448 53.9171 50.9617C55.534 52.5786 55.534 55.1971 53.9171 56.814Z" fill="#F3F3F1"/>
<path d="M79.1115 35.1435C77.5481 37.6075 74.4333 41.0285 74.4333 41.0285C74.3381 46.3696 74.0379 53.1136 70.2394 57.9643L47.2047 34.9236H28.9791C27.3384 34.9236 26.0068 36.2551 26.0068 37.8958V71.3333H80.993V37.8958C80.993 36.6415 80.2113 35.5804 79.1115 35.1435ZM53.919 56.814C52.3021 58.4309 43.9501 60.9305 43.9501 60.9305C43.9501 60.9305 46.4528 52.5786 48.0667 50.9617C49.6836 49.3448 52.3021 49.3448 53.919 50.9617C55.5329 52.5786 55.5329 55.1971 53.919 56.814Z" fill="#C5351C"/>
<path d="M86.3011 20.1043C86.313 19.4979 86.0782 18.9154 85.6472 18.4874C85.2192 18.0564 84.5089 17.8246 84.0304 17.8335C76.6028 17.9732 68.3816 21.6498 62.2856 27.3892C56.359 27.52 49.7398 28.0877 44.693 32.0407C44.1907 32.4331 43.8816 33.0245 43.8429 33.6636C43.8043 34.3026 44.0421 34.9238 44.4968 35.3756L68.661 59.5368C69.0801 59.9588 69.6478 60.1936 70.2392 60.1936C70.2838 60.1936 70.3254 60.1936 70.373 60.1907C71.009 60.152 71.6005 59.8429 71.9958 59.3406C75.9043 54.3473 76.4987 47.8262 76.6384 41.9531C82.4462 35.8244 86.1644 27.5675 86.3011 20.1043Z" fill="#F3F3F1"/>
<path d="M35.6666 34.9236H28.9791C27.3384 34.9236 26.0068 36.2551 26.0068 37.8958V71.3333H32.6943V37.8958C32.6943 36.2551 34.0259 34.9236 35.6666 34.9236Z" fill="#FF5700"/>
<path d="M54.1251 51.2738C54.0449 51.1757 54.0092 51.0538 53.9171 50.9617C52.3002 49.3448 49.6817 49.3448 48.0648 50.9617C46.4479 52.5786 43.9482 60.9305 43.9482 60.9305C43.9482 60.9305 48.0618 59.6971 51.0727 58.4041C51.8752 56.0145 53.1235 52.6142 54.1251 51.2738Z" fill="#D5DBE1"/>
<path d="M57.7619 35.3756C57.3101 34.9238 57.0723 34.3026 57.108 33.6636C57.1436 33.0245 57.4557 32.4331 57.958 32.0407C63.0049 28.0877 69.624 27.5229 75.5506 27.3892C78.6952 24.4289 82.4045 22.0333 86.2774 20.3748C86.2803 20.2856 86.2952 20.1934 86.2982 20.1043C86.31 19.4979 86.0752 18.9154 85.6443 18.4874C85.2192 18.0564 84.5089 17.8246 84.0304 17.8335C76.6028 17.9732 68.3816 21.6498 62.2856 27.3892C56.359 27.52 49.7398 28.0877 44.693 32.0407C44.1907 32.4331 43.8816 33.0245 43.8429 33.6636C43.8043 34.3026 44.0421 34.9238 44.4968 35.3756L68.661 59.5368C69.0801 59.9588 69.6478 60.1936 70.2392 60.1936C70.2838 60.1936 70.3254 60.1936 70.373 60.1907C71.009 60.152 71.6005 59.8429 71.9958 59.3406C73.5384 57.37 74.5519 55.1587 75.2355 52.8463L57.7619 35.3756Z" fill="#D5DBE1"/>
<path d="M17.834 69.8472H89.1673V74.3055H17.834V69.8472Z" fill="#FF5700"/>
<path d="M78.7637 49.7847H83.222V72.0763H78.7637V49.7847Z" fill="#FF5700"/>
<path d="M28.2367 72.0765H23.7783V37.896C23.7783 35.0278 26.1115 32.6946 28.9797 32.6946H36.4103V37.1529H28.9797C28.5695 37.1529 28.2367 37.4858 28.2367 37.896V72.0765Z" fill="#FF5700"/>
<path d="M63.3655 53.2859C62.7949 53.2859 62.2242 53.066 61.7902 52.6321L51.5034 42.3452C50.6652 41.507 50.6296 40.1576 51.4231 39.2779L59.8494 29.9243C66.0584 22.7523 75.5606 17.9938 84.0314 17.8333C84.498 17.8303 85.2173 18.0562 85.6483 18.4872C86.0792 18.9152 86.314 19.4977 86.3022 20.1041C86.1446 28.5749 81.3861 38.0771 74.1785 44.3158L64.8576 52.7123C64.4355 53.0957 63.9005 53.2859 63.3655 53.2859ZM56.1549 40.6897L63.4487 47.9835L71.2271 40.975C76.7524 36.1927 80.7233 29.0386 81.6447 22.4908C75.0999 23.4121 67.9487 27.3801 63.1931 32.8757L56.1549 40.6897Z" fill="#FF5700"/>
<path d="M70.2391 60.1933C69.6477 60.1933 69.077 59.9585 68.6609 59.5365L61.7861 52.629L64.9456 49.4844L69.8617 54.4242C71.853 50.5306 72.1235 45.6859 72.2038 40.9868L76.6621 41.0641C76.5551 47.1542 76.1003 54.0943 71.9957 59.3343C71.6004 59.8366 71.0089 60.1458 70.3729 60.1844C70.3253 60.1903 70.2807 60.1933 70.2391 60.1933Z" fill="#FF5700"/>
<path d="M51.4047 42.2503L44.4972 35.3755C44.0455 34.9238 43.8077 34.3026 43.8433 33.6635C43.879 33.0245 44.1911 32.433 44.6934 32.0407C49.9334 27.939 56.8736 27.4783 62.9637 27.3713L63.0439 31.8297C58.3448 31.9129 53.4971 32.1834 49.6065 34.1748L54.5463 39.0908L51.4047 42.2503Z" fill="#FF5700"/>
<path d="M43.9478 63.1597C43.3652 63.1597 42.7945 62.9309 42.3725 62.5058C41.7929 61.9262 41.5759 61.0762 41.8137 60.2886C42.6162 57.6165 44.676 51.2025 46.492 49.3835C48.8965 46.9819 53.0874 46.976 55.4949 49.3835C56.6986 50.5872 57.3614 52.1863 57.3614 53.8864C57.3614 55.5865 56.6986 57.1856 55.4949 58.3893C53.6759 60.2053 47.2588 62.2651 44.5868 63.0646C44.3787 63.13 44.1618 63.1597 43.9478 63.1597ZM50.9919 51.9782C50.4807 51.9782 50.0022 52.1774 49.6426 52.537C49.167 53.0482 48.305 55.0693 47.455 57.4263C49.809 56.5762 51.8301 55.7143 52.3473 55.2358C52.7069 54.8761 52.9061 54.3976 52.9061 53.8894C52.9061 53.3811 52.7069 52.8996 52.3473 52.54C51.9817 52.1774 51.5002 51.9782 50.9919 51.9782Z" fill="#FF5700"/>
<path d="M5.94434 69.8472H101.055V74.3055H5.94434V69.8472Z" fill="#FF5700"/>
</svg>
