<svg width="107" height="107" viewBox="0 0 107 107" fill="none" xmlns="http://www.w3.org/2000/svg">
<path d="M82.102 12.3853C61.5431 12.3853 47.425 1.73584 37.5186 1.73584C27.6122 1.73584 6.80664 7.43062 6.80664 53.0037C6.80664 98.5768 34.7961 105.264 45.6922 105.264C96.7164 105.267 118.512 12.3853 82.102 12.3853Z" fill="#2A2D31"/>
<path d="M3.71582 45.6978H9.66027V48.67H3.71582V45.6978Z" fill="#A4AFC1"/>
<path d="M12.6309 53.1284H15.6031V59.0728H12.6309V53.1284Z" fill="#A4AFC1"/>
<path d="M12.6309 36.0383H15.6031V41.9828H12.6309V36.0383Z" fill="#A4AFC1"/>
<path d="M25.2639 30.4653C28.1365 30.4653 30.4653 28.1365 30.4653 25.2639C30.4653 22.3912 28.1365 20.0625 25.2639 20.0625C22.3912 20.0625 20.0625 22.3912 20.0625 25.2639C20.0625 28.1365 22.3912 30.4653 25.2639 30.4653Z" fill="#F3F3F1"/>
<path d="M25.2639 86.9374C28.1365 86.9374 30.4653 84.6087 30.4653 81.7361C30.4653 78.8634 28.1365 76.5347 25.2639 76.5347C22.3912 76.5347 20.0625 78.8634 20.0625 81.7361C20.0625 84.6087 22.3912 86.9374 25.2639 86.9374Z" fill="#F3F3F1"/>
<path d="M81.7356 30.4653C84.6082 30.4653 86.937 28.1365 86.937 25.2639C86.937 22.3912 84.6082 20.0625 81.7356 20.0625C78.8629 20.0625 76.5342 22.3912 76.5342 25.2639C76.5342 28.1365 78.8629 30.4653 81.7356 30.4653Z" fill="#F3F3F1"/>
<path d="M81.7356 86.9374C84.6082 86.9374 86.937 84.6087 86.937 81.7361C86.937 78.8634 84.6082 76.5347 81.7356 76.5347C78.8629 76.5347 76.5342 78.8634 76.5342 81.7361C76.5342 84.6087 78.8629 86.9374 81.7356 86.9374Z" fill="#F3F3F1"/>
<path d="M53.5003 78.0207C67.0428 78.0207 78.0211 67.0423 78.0211 53.4998C78.0211 39.9574 67.0428 28.979 53.5003 28.979C39.9578 28.979 28.9795 39.9574 28.9795 53.4998C28.9795 67.0423 39.9578 78.0207 53.5003 78.0207Z" fill="#C5351C"/>
<path d="M35.667 53.4998C35.667 41.0938 44.8868 30.8693 56.8441 29.2346C55.7473 29.083 54.6387 28.979 53.5003 28.979C39.9589 28.979 28.9795 39.9584 28.9795 53.4998C28.9795 67.0413 39.9589 78.0207 53.5003 78.0207C54.6387 78.0207 55.7473 77.9166 56.8441 77.765C44.8868 76.1303 35.667 65.9059 35.667 53.4998Z" fill="#FF5700"/>
<path d="M26.75 25.2639C26.75 23.6708 27.4812 22.2649 28.6076 21.3108C27.7011 20.544 26.5449 20.0625 25.2639 20.0625C22.3927 20.0625 20.0625 22.3927 20.0625 25.2639C20.0625 28.1351 22.3927 30.4653 25.2639 30.4653C26.5449 30.4653 27.7011 29.9838 28.6076 29.2169C27.4812 28.2629 26.75 26.857 26.75 25.2639Z" fill="#D5DBE1"/>
<path d="M26.75 81.7361C26.75 80.1429 27.4812 78.7371 28.6076 77.783C27.7011 77.0162 26.5449 76.5347 25.2639 76.5347C22.3927 76.5347 20.0625 78.8649 20.0625 81.7361C20.0625 84.6072 22.3927 86.9374 25.2639 86.9374C26.5449 86.9374 27.7011 86.4559 28.6076 85.6891C27.4812 84.735 26.75 83.3292 26.75 81.7361Z" fill="#D5DBE1"/>
<path d="M83.2217 25.2639C83.2217 23.6708 83.9529 22.2649 85.0793 21.3108C84.1728 20.544 83.0166 20.0625 81.7356 20.0625C78.8644 20.0625 76.5342 22.3927 76.5342 25.2639C76.5342 28.1351 78.8644 30.4653 81.7356 30.4653C83.0166 30.4653 84.1728 29.9838 85.0793 29.2169C83.9529 28.2629 83.2217 26.857 83.2217 25.2639Z" fill="#D5DBE1"/>
<path d="M83.2217 81.7361C83.2217 80.1429 83.9529 78.7371 85.0793 77.783C84.1728 77.0162 83.0166 76.5347 81.7356 76.5347C78.8644 76.5347 76.5342 78.8649 76.5342 81.7361C76.5342 84.6072 78.8644 86.9374 81.7356 86.9374C83.0166 86.9374 84.1728 86.4559 85.0793 85.6891C83.9529 84.735 83.2217 83.3292 83.2217 81.7361Z" fill="#D5DBE1"/>
<path d="M25.2636 32.6946C21.1649 32.6946 17.833 29.3627 17.833 25.2641C17.833 21.1654 21.1649 17.8335 25.2636 17.8335C29.3623 17.8335 32.6941 21.1654 32.6941 25.2641C32.6941 29.3627 29.3623 32.6946 25.2636 32.6946ZM25.2636 22.2918C23.6229 22.2918 22.2913 23.6234 22.2913 25.2641C22.2913 26.9047 23.6229 28.2363 25.2636 28.2363C26.9042 28.2363 28.2358 26.9047 28.2358 25.2641C28.2358 23.6234 26.9042 22.2918 25.2636 22.2918Z" fill="#FF5700"/>
<path d="M25.2636 89.1665C21.1649 89.1665 17.833 85.8347 17.833 81.736C17.833 77.6373 21.1649 74.3054 25.2636 74.3054C29.3623 74.3054 32.6941 77.6373 32.6941 81.736C32.6941 85.8347 29.3623 89.1665 25.2636 89.1665ZM25.2636 78.7638C23.6229 78.7638 22.2913 80.0953 22.2913 81.736C22.2913 83.3766 23.6229 84.7082 25.2636 84.7082C26.9042 84.7082 28.2358 83.3766 28.2358 81.736C28.2358 80.0953 26.9042 78.7638 25.2636 78.7638Z" fill="#FF5700"/>
<path d="M81.7372 32.6946C77.6385 32.6946 74.3066 29.3627 74.3066 25.2641C74.3066 21.1654 77.6385 17.8335 81.7372 17.8335C85.8359 17.8335 89.1678 21.1654 89.1678 25.2641C89.1678 29.3627 85.8359 32.6946 81.7372 32.6946ZM81.7372 22.2918C80.0965 22.2918 78.765 23.6234 78.765 25.2641C78.765 26.9047 80.0965 28.2363 81.7372 28.2363C83.3779 28.2363 84.7094 26.9047 84.7094 25.2641C84.7094 23.6234 83.3779 22.2918 81.7372 22.2918Z" fill="#FF5700"/>
<path d="M81.7372 89.1665C77.6385 89.1665 74.3066 85.8347 74.3066 81.736C74.3066 77.6373 77.6385 74.3054 81.7372 74.3054C85.8359 74.3054 89.1678 77.6373 89.1678 81.736C89.1678 85.8347 85.8359 89.1665 81.7372 89.1665ZM81.7372 78.7638C80.0965 78.7638 78.765 80.0953 78.765 81.736C78.765 83.3766 80.0965 84.7082 81.7372 84.7082C83.3779 84.7082 84.7094 83.3766 84.7094 81.736C84.7094 80.0953 83.3779 78.7638 81.7372 78.7638Z" fill="#FF5700"/>
<path d="M53.5 80.25C38.7489 80.25 26.75 68.2511 26.75 53.5C26.75 38.7489 38.7489 26.75 53.5 26.75C68.2511 26.75 80.25 38.7489 80.25 53.5C80.25 58.957 78.6123 64.2238 75.5182 68.7326L71.8446 66.2062C74.4274 62.4464 75.7917 58.0505 75.7917 53.5C75.7917 41.2069 65.7931 31.2083 53.5 31.2083C41.2069 31.2083 31.2083 41.2069 31.2083 53.5C31.2083 65.7931 41.2069 75.7917 53.5 75.7917C58.9184 75.7917 64.1614 73.8151 68.2601 70.2217L71.1966 73.5774C66.2865 77.8782 60.0032 80.25 53.5 80.25Z" fill="#FF5700"/>
<path d="M51.8831 79.5573C38.2525 65.1896 38.2525 41.813 51.8831 27.4453L55.1169 30.5156C43.0913 43.1892 43.0913 63.8134 55.1169 76.487L51.8831 79.5573Z" fill="#FF5700"/>
<path d="M55.1166 79.5573L51.8828 76.487C63.9084 63.8134 63.9084 43.1892 51.8828 30.5156L55.1166 27.4453C68.7472 41.8101 68.7472 65.1896 55.1166 79.5573Z" fill="#FF5700"/>
<path d="M29.9004 44.5835H77.1023V49.0418H29.9004V44.5835Z" fill="#FF5700"/>
<path d="M29.9004 57.9585H77.1023V62.4168H29.9004V57.9585Z" fill="#FF5700"/>
</svg>
