<svg width="107" height="107" viewBox="0 0 107 107" fill="none" xmlns="http://www.w3.org/2000/svg">
<path d="M24.8975 94.6149C45.4563 94.6149 59.5744 105.264 69.4808 105.264C79.3872 105.264 100.193 99.5696 100.193 53.9965C100.193 8.42338 72.2034 1.73291 61.3072 1.73291C10.283 1.73291 -11.5123 94.6149 24.8975 94.6149Z" fill="#2A2D31"/>
<path d="M76.9834 13.7063L79.0851 11.6046L83.2884 15.808L81.1868 17.9097L76.9834 13.7063Z" fill="#A4AFC1"/>
<path d="M89.0664 25.7913L91.1681 23.6896L95.3714 27.8929L93.2698 29.9946L89.0664 25.7913Z" fill="#A4AFC1"/>
<path d="M88.5469 15.824L92.7502 11.6206L94.8519 13.7223L90.6486 17.9257L88.5469 15.824Z" fill="#A4AFC1"/>
<path d="M69.1043 43.0972C69.1043 36.0768 62.613 30.5723 55.3043 32.2575C51.1848 33.2086 47.8886 36.6267 47.0474 40.77C46.0696 45.5879 48.2096 49.966 51.8 52.3408C53.3812 53.387 54.2402 55.2387 54.2402 57.135V60.9543C54.2402 62.4048 55.007 63.1567 55.9552 63.1567H59.9558C60.9039 63.1567 61.6708 62.3899 61.6708 61.4418V57.2063C61.6708 55.2922 62.506 53.3989 64.102 52.3438C67.1129 50.3613 69.1043 46.973 69.1043 43.0972Z" fill="#F3F3F1"/>
<path d="M56.3617 20.0625C42.7697 20.0625 31.7279 31.14 31.7279 44.7765V44.7854C31.7279 46.863 31.1394 48.902 30.0338 50.6586L23.266 62.4077C23.1204 62.6396 23.0342 62.9011 23.0342 63.1924C23.0342 64.0068 23.6702 64.6458 24.4817 64.6458H31.9508V73.6606C31.9508 76.074 33.8917 78.0208 36.2992 78.0208C36.7332 78.0208 37.1671 77.9614 37.5743 77.8187L46.8149 75.3072V86.9375H72.0788V71.3749C72.0788 66.8809 73.7254 62.6247 76.344 58.9689C79.224 54.9475 80.9955 50.0463 80.9955 44.7736C80.9925 31.14 69.9507 20.0625 56.3617 20.0625ZM64.1044 52.3468C62.5083 53.4019 61.6731 55.2952 61.6731 57.2093V61.4448C61.6731 62.3929 60.9062 63.1597 59.9581 63.1597H55.9575C55.0093 63.1597 54.2425 62.4078 54.2425 60.9573V57.138C54.2425 55.2417 53.3835 53.39 51.8023 52.3438C48.2119 49.966 46.0719 45.5909 47.0497 40.7729C47.8909 36.6297 51.1871 33.2116 55.3066 32.2605C62.6153 30.5753 69.1066 36.0798 69.1066 43.1002C69.1036 46.973 67.1122 50.3613 64.1044 52.3468Z" fill="#C5351C"/>
<path d="M29.7217 63.1924C29.7217 62.9011 29.8079 62.6396 29.9535 62.4078L36.7213 50.6586C37.824 48.902 38.4154 46.863 38.4154 44.7854C38.4154 44.7825 38.4154 44.7795 38.4154 44.7765C38.4154 32.2813 47.6947 21.9618 59.7055 20.3181C58.6087 20.1695 57.5001 20.0625 56.3617 20.0625C42.7697 20.0625 31.7279 31.14 31.7279 44.7765V44.7854C31.7279 46.863 31.1394 48.902 30.0338 50.6586L23.266 62.4078C23.1204 62.6396 23.0342 62.9011 23.0342 63.1924C23.0342 64.0068 23.6702 64.6458 24.4817 64.6458H31.1692C30.3577 64.6458 29.7217 64.0068 29.7217 63.1924Z" fill="#FF5700"/>
<path d="M38.6387 73.6607V64.646H31.9512V73.6607C31.9512 76.0742 33.892 78.021 36.2995 78.021C36.7335 78.021 37.1674 77.9615 37.5746 77.8189L40.3091 77.0758C39.2985 76.2763 38.6387 75.0517 38.6387 73.6607Z" fill="#FF5700"/>
<path d="M46.8125 77.1232V86.9374H53.5V75.3071L46.8125 77.1232Z" fill="#FF5700"/>
<path d="M51.8022 52.3408C53.3834 53.387 54.2424 55.2387 54.2424 57.135V60.9543C54.2424 62.4048 55.0092 63.1567 55.9573 63.1567H59.958C60.5375 63.1567 61.022 62.8506 61.3341 62.4137C61.0933 62.0511 60.9299 61.5815 60.9299 60.9543V57.135C60.9299 55.2387 60.0709 53.387 58.4897 52.3408C54.8992 49.963 52.7592 45.5879 53.7371 40.77C54.5247 36.8912 57.4732 33.6753 61.2241 32.4983C59.3992 31.9365 57.3989 31.776 55.3064 32.2575C51.1869 33.2086 47.8907 36.6267 47.0496 40.77C46.0717 45.5879 48.2088 49.966 51.8022 52.3408Z" fill="#D5DBE1"/>
<path d="M72.0775 89.1668H46.8136C45.5831 89.1668 44.5844 88.1682 44.5844 86.9377V78.2231L38.1585 79.9678C37.7067 80.1372 37.0261 80.2502 36.3008 80.2502C32.6747 80.2502 29.7233 77.2928 29.7233 73.6578V66.8752H24.4833C22.4562 66.8752 20.8066 65.2226 20.8066 63.1926C20.8066 62.506 21.0028 61.8254 21.3773 61.2279L28.1064 49.5471C29.0338 48.0669 29.5004 46.4471 29.5004 44.7886C29.5004 29.9215 41.5498 17.8335 56.3633 17.8335C71.1769 17.8335 83.2233 29.9215 83.2233 44.7767C83.2233 50.2842 81.4697 55.6402 78.1527 60.2679C75.6352 63.787 74.3066 67.6271 74.3066 71.3781V74.3057H69.8483V71.3781C69.8483 66.6939 71.4682 61.9532 74.5266 57.6761C77.2997 53.8093 78.765 49.3509 78.765 44.7797C78.765 32.3825 68.7159 22.2948 56.3633 22.2948C44.0108 22.2948 33.9587 32.3825 33.9587 44.7797C33.9587 47.2852 33.2573 49.7254 31.9257 51.8446L25.8356 62.4168H31.9525C33.183 62.4168 34.1816 63.4155 34.1816 64.646V73.6578C34.1816 74.8348 35.1298 75.7918 36.3008 75.7918C36.5089 75.7918 36.6902 75.7651 36.8269 75.7205L46.231 73.1584C46.9028 72.9771 47.6191 73.1139 48.1659 73.5389C48.7218 73.9609 49.0428 74.6148 49.0428 75.3103V84.7085H69.8483V80.2502H74.3066V86.9377C74.3066 88.1682 73.308 89.1668 72.0775 89.1668ZM25.2026 63.5106L25.1966 63.5195C25.2026 63.5166 25.2026 63.5136 25.2026 63.5106Z" fill="#FF5700"/>
<path d="M59.9587 65.3891H55.9581C53.9994 65.3891 52.014 63.8643 52.014 60.9575V57.1382C52.014 55.9166 51.4611 54.7901 50.5725 54.2016C46.0101 51.1789 43.769 45.7338 44.8658 40.3273C45.8763 35.3429 49.871 31.2263 54.8049 30.088C58.8828 29.1547 63.0707 30.0731 66.2807 32.6292C69.4936 35.1853 71.3334 39.0017 71.3334 43.1004C71.3334 47.5765 69.0894 51.7317 65.3325 54.2105C64.4498 54.7931 63.9029 55.9433 63.9029 57.2125V61.4479C63.9029 63.6176 62.1314 65.3891 59.9587 65.3891ZM56.4723 60.9307H59.4445V57.2095C59.4445 54.4216 60.7285 51.9071 62.8775 50.4893C65.3801 48.8368 66.8751 46.0726 66.8751 43.0974C66.8751 40.3659 65.6476 37.8187 63.5046 36.1156C61.3587 34.4096 58.5469 33.7973 55.8065 34.4304C52.543 35.1824 49.9037 37.9079 49.235 41.213C48.4889 44.8867 49.9423 48.4385 53.0305 50.4834C55.1853 51.9071 56.4723 54.3948 56.4723 57.1382V60.9307Z" fill="#FF5700"/>
<path d="M5.94336 84.7085H101.054V89.1668H5.94336V84.7085Z" fill="#FF5700"/>
</svg>
