<svg width="107" height="107" viewBox="0 0 107 107" fill="none" xmlns="http://www.w3.org/2000/svg">
<path d="M94.6144 24.8982C94.6144 45.4571 105.264 59.5751 105.264 69.4815C105.264 79.3879 99.5691 100.193 53.996 100.193C8.42289 100.193 1.73242 72.2041 1.73242 61.3079C1.73242 10.2838 94.6144 -11.5115 94.6144 24.8982Z" fill="#2A2D31"/>
<path d="M14.8617 37.1528C12.4036 37.1528 10.4033 35.1524 10.4033 32.6944C10.4033 30.2364 12.4036 28.2361 14.8617 28.2361C17.3197 28.2361 19.32 30.2364 19.32 32.6944C19.32 35.1524 17.3197 37.1528 14.8617 37.1528ZM14.8617 31.2083C14.0443 31.2083 13.3755 31.8771 13.3755 32.6944C13.3755 33.5118 14.0443 34.1805 14.8617 34.1805C15.679 34.1805 16.3478 33.5118 16.3478 32.6944C16.3478 31.8771 15.679 31.2083 14.8617 31.2083Z" fill="#A4AFC1"/>
<path d="M49.3092 52.7569C46.9017 51.1519 45.3264 48.4472 45.3264 45.3263C45.3264 40.3924 49.3092 36.4097 54.243 36.4097C59.1769 36.4097 63.1597 40.3924 63.1597 45.3263C63.1597 48.4472 61.5844 51.1519 59.1769 52.7569H72.0764V62.4761C70.0701 60.66 67.2435 59.7595 64.2119 60.3866C60.7671 61.0999 57.994 63.9592 57.3669 67.4189C56.3355 73.0988 60.6452 78.0178 66.1319 78.0178C68.4205 78.0178 70.5011 77.1559 72.0764 75.7292V83.9623C72.0764 85.6029 70.7448 86.9345 69.1042 86.9345H37.8958C36.2551 86.9345 34.9236 85.6029 34.9236 83.9623V75.7292C32.9173 77.5452 30.0908 78.4458 27.0591 77.8187C23.6143 77.1053 20.8412 74.2461 20.2141 70.7864C19.1857 65.1095 23.4954 60.1875 28.9791 60.1875C31.2678 60.1875 33.3483 61.0494 34.9236 62.4761V52.7569H49.3092Z" fill="#C5351C"/>
<path d="M86.7832 33.2413C86.1561 29.7817 83.383 26.9224 79.9382 26.2091C76.9065 25.5789 74.0799 26.4795 72.0737 28.2985V23.0347C72.0737 21.3941 70.7421 20.0625 69.1014 20.0625H37.8931C36.2525 20.0625 34.9209 21.3941 34.9209 23.0347V52.7569H49.3065C46.899 51.1519 45.3237 48.4472 45.3237 45.3264C45.3237 40.3925 49.3065 36.4097 54.2403 36.4097C59.1742 36.4097 63.157 40.3925 63.157 45.3264C63.157 48.4472 61.5817 51.1519 59.1742 52.7569H72.0737V41.5517C73.6489 42.9783 75.7295 43.8403 78.0181 43.8403C83.5048 43.8403 87.8146 38.9183 86.7832 33.2413Z" fill="#F3F3F1"/>
<path d="M49.309 52.7569H55.9965C53.589 51.1519 52.0137 48.4472 52.0137 45.3263C52.0137 41.5784 54.3172 38.3892 57.5866 37.0695C56.5523 36.6504 55.4288 36.4097 54.2428 36.4097C49.309 36.4097 45.3262 40.3924 45.3262 45.3263C45.3262 48.4472 46.9015 51.1519 49.309 52.7569Z" fill="#FF5700"/>
<path d="M72.0768 75.7322C71.3278 76.4098 70.4569 76.9508 69.5088 77.3431C70.3143 77.6671 71.1732 77.8633 72.0768 77.9376V75.7322Z" fill="#FF5700"/>
<path d="M72.0765 60.2856C71.6842 60.3154 71.3008 60.3064 70.8995 60.3897C70.3764 60.4967 69.8771 60.6691 69.3926 60.8712C70.3764 61.2635 71.3008 61.7747 72.0765 62.4792V60.2856Z" fill="#FF5700"/>
<path d="M35.6669 60.1876C37.9555 60.1876 40.0361 61.0496 41.6113 62.4762V52.7571H34.9238V60.2709C35.1735 60.25 35.4113 60.1876 35.6669 60.1876Z" fill="#FF5700"/>
<path d="M26.9053 70.7864C26.0968 66.3281 28.5994 62.3751 32.3593 60.8652C31.316 60.4342 30.1807 60.1875 28.9828 60.1875C23.4991 60.1875 19.1894 65.1095 20.2207 70.7864C20.8479 74.2461 23.621 77.1054 27.0658 77.8217C28.9264 78.2081 30.683 77.9644 32.2463 77.3402C29.5208 76.2108 27.4373 73.723 26.9053 70.7864Z" fill="#FF5700"/>
<path d="M41.6113 83.9652V75.7322C39.8696 77.3104 37.4978 78.1278 34.9238 77.9227V83.9652C34.9238 85.6059 36.2554 86.9374 37.896 86.9374H44.5835C42.9429 86.9374 41.6113 85.6059 41.6113 83.9652Z" fill="#FF5700"/>
<path d="M44.5835 20.0625H37.896C36.2554 20.0625 34.9238 21.3941 34.9238 23.0347V52.7569H41.6113V23.0347C41.6113 21.3941 42.9429 20.0625 44.5835 20.0625Z" fill="#D5DBE1"/>
<path d="M72.0764 54.9863H59.1769V50.528H69.8472V41.5518C69.8472 40.6691 70.3674 39.8725 71.1699 39.5129C71.9783 39.1592 72.9175 39.3078 73.5714 39.8963C76.2672 42.3335 80.8325 41.9977 83.1598 39.2097C84.4557 37.6612 84.961 35.6787 84.5894 33.6368C84.1258 31.0748 82.0274 28.9139 79.4861 28.3879C77.3253 27.9391 75.1645 28.5038 73.5744 29.9423C72.9205 30.5368 71.9813 30.6824 71.1728 30.3287C70.3674 29.975 69.8472 29.1755 69.8472 28.2957V23.0349C69.8472 22.6247 69.5143 22.2918 69.1042 22.2918H53.5V17.8335H69.1042C71.9724 17.8335 74.3055 20.1667 74.3055 23.0349V24.411C76.2137 23.7334 78.3032 23.5907 80.3927 24.0246C84.7351 24.9252 88.1858 28.4681 88.9794 32.8432C89.5798 36.1602 88.706 39.5248 86.5808 42.069C83.6413 45.5941 78.5529 46.9435 74.3055 45.4306V52.7571C74.3055 53.9876 73.3069 54.9863 72.0764 54.9863Z" fill="#FF5700"/>
<path d="M49.3091 54.9863H34.9235C33.693 54.9863 32.6943 53.9876 32.6943 52.7571V23.0349C32.6943 20.1667 35.0275 17.8335 37.8957 17.8335H47.5555V22.2918H37.8957C37.4856 22.2918 37.1527 22.6247 37.1527 23.0349V50.528H49.3091V54.9863Z" fill="#FF5700"/>
<path d="M69.1039 89.1665H37.8955C35.0273 89.1665 32.6941 86.8333 32.6941 83.9651V79.6168C30.783 80.2915 28.6935 80.4341 26.607 80.0032C22.2646 79.1026 18.8139 75.5597 18.0203 71.1846C17.4199 67.8676 18.2937 64.503 20.4189 61.9588C23.3584 58.4367 28.4528 57.0873 32.6941 58.5972V52.7568C32.6941 51.5263 33.6928 50.5276 34.9233 50.5276H44.3839C43.5517 48.9494 43.0969 47.169 43.0969 45.3263C43.0969 39.1827 48.0992 34.1804 54.2427 34.1804C60.3863 34.1804 65.3886 39.1827 65.3886 45.3263C65.3886 47.169 64.9368 48.9494 64.1016 50.5276H72.0761C73.3066 50.5276 74.3052 51.5263 74.3052 52.7568V62.476C74.3052 63.3587 73.7851 64.1553 72.9796 64.5149C72.1742 64.8686 71.232 64.72 70.5781 64.1285C68.9879 62.69 66.8242 62.1252 64.6663 62.5741C62.1281 63.1001 60.0267 65.258 59.563 67.823C59.1915 69.8679 59.6997 71.8474 60.9927 73.3959C63.314 76.1839 67.8793 76.5227 70.5811 74.0825C71.2349 73.491 72.1771 73.3454 72.9826 73.6991C73.7851 74.0528 74.3052 74.8523 74.3052 75.7321V83.9651C74.3052 86.8333 71.9721 89.1665 69.1039 89.1665ZM34.9233 73.5029C35.2294 73.5029 35.5356 73.5653 35.8269 73.6931C36.6323 74.0498 37.1525 74.8493 37.1525 75.7321V83.9651C37.1525 84.3753 37.4854 84.7082 37.8955 84.7082H69.1039C69.514 84.7082 69.8469 84.3753 69.8469 83.9651V79.6108C65.6026 81.1296 60.5112 79.7743 57.5716 76.2492C55.4465 73.705 54.5727 70.3405 55.173 67.0235C55.9666 62.6484 59.4174 59.1055 63.7598 58.2049C65.8433 57.7709 67.9328 57.9136 69.8469 58.5913V54.986H59.1766C58.1958 54.986 57.3279 54.344 57.0426 53.4048C56.7572 52.4655 57.1199 51.449 57.9402 50.9021C59.8127 49.6538 60.9302 47.5703 60.9302 45.3263C60.9302 41.6407 57.9283 38.6388 54.2427 38.6388C50.5572 38.6388 47.5552 41.6407 47.5552 45.3263C47.5552 47.5703 48.6728 49.6538 50.5453 50.9021C51.3627 51.449 51.7253 52.4626 51.4429 53.4048C51.1606 54.3469 50.2897 54.986 49.3089 54.986H37.1525V62.476C37.1525 63.3587 36.6323 64.1553 35.8298 64.5149C35.0244 64.8686 34.0822 64.72 33.4283 64.1315C30.7295 61.6883 26.1642 62.0272 23.8399 64.8181C22.544 66.3666 22.0387 68.3491 22.4102 70.391C22.8739 72.9531 24.9723 75.1139 27.5135 75.6399C29.6803 76.0917 31.8381 75.524 33.4253 74.0855C33.8444 73.7021 34.3794 73.5029 34.9233 73.5029Z" fill="#FF5700"/>
<path d="M5.94434 84.7085H101.055V89.1668H5.94434V84.7085Z" fill="#FF5700"/>
</svg>
