<svg width="29" height="26" viewBox="0 0 29 26" fill="none" xmlns="http://www.w3.org/2000/svg">
<path d="M26.3308 0H13.59C12.1156 0 10.9206 1.1952 10.9206 2.6694V8.94522C11.5941 9.27997 12.3218 9.64194 13.001 9.97957L14.0402 7.90024C14.6695 6.64287 16.2034 6.132 17.4604 6.76013C18.7199 7.39048 19.2304 8.92022 18.5998 10.18L16.7473 13.886C16.7964 14.3765 16.7528 14.871 16.6145 15.3496H17.8376L14.6117 24.22C14.4204 24.7461 14.7903 25.3601 15.4105 25.3601C15.7572 25.3601 16.0833 25.1462 16.2085 24.8006L19.6454 15.3496H20.2408L23.7127 24.8035C23.8391 25.1473 24.1643 25.3601 24.5108 25.3601C25.0902 25.3601 25.515 24.7813 25.3077 24.2178L22.0509 15.3496H26.3308C27.805 15.3496 29.0002 14.1544 29.0002 12.6802V2.6694C29.0002 1.1952 27.805 0 26.3308 0V0ZM24.5103 11.7098H20.6984C20.2293 11.7098 19.8488 11.3292 19.8488 10.8602C19.8488 10.3907 20.2293 10.0105 20.6984 10.0105H24.5103C24.9798 10.0105 25.3599 10.3907 25.3599 10.8602C25.3599 11.3292 24.9798 11.7098 24.5103 11.7098ZM24.5103 8.5244H20.6984C20.2293 8.5244 19.8488 8.14428 19.8488 7.67479C19.8488 7.20573 20.2293 6.82518 20.6984 6.82518H24.5103C24.9798 6.82518 25.3599 7.20573 25.3599 7.67479C25.3599 8.14428 24.9798 8.5244 24.5103 8.5244ZM24.5103 5.33947H15.4105C14.941 5.33947 14.5609 4.95892 14.5609 4.48987C14.5609 4.02081 14.941 3.64026 15.4105 3.64026H24.5103C24.9798 3.64026 25.3599 4.02081 25.3599 4.48987C25.3599 4.95892 24.9798 5.33947 24.5103 5.33947Z" fill="white"/>
<path d="M14.9487 14.9852C15.1022 14.5354 15.1011 14.0654 14.9715 13.6366L17.08 9.42003C17.2897 9.00031 17.1198 8.48988 16.7001 8.28014C16.2806 8.07017 15.7702 8.24031 15.5602 8.66003L13.7619 12.2563C12.687 11.721 11.054 10.9091 9.73841 10.2548C8.51444 9.64615 7.64094 9.10032 6.15058 9.10032H5.39988C6.56034 9.10032 7.59602 8.56622 8.27394 7.73033C8.79123 7.09423 9.10054 6.28356 9.10054 5.4001C9.10054 3.35595 7.4438 1.69922 5.39943 1.69922C3.35595 1.69922 1.69922 3.35595 1.69922 5.4001C1.69922 6.3818 2.08154 7.27388 2.70525 7.93587C3.37962 8.65295 4.33742 9.10032 5.39921 9.10054C3.97568 9.10054 2.584 9.67734 1.58284 10.6812C0.562201 11.6991 0 13.0554 0 14.5002V17.2302C0 18.4055 0.763098 19.4056 1.82002 19.7613V24.5103C1.82002 24.9796 2.20035 25.3599 2.66963 25.3599H8.12968C8.59896 25.3599 8.97929 24.9796 8.97929 24.5103V14.9644C9.78487 15.3671 10.8431 15.8961 11.6994 16.3244C12.2996 16.6244 13.001 16.6514 13.6265 16.397C14.2502 16.1403 14.731 15.6295 14.9453 14.9951C14.9465 14.9918 14.9476 14.9885 14.9487 14.9852Z" fill="white"/>
</svg>
