<svg width="34" height="36" viewBox="0 0 34 36" fill="none" xmlns="http://www.w3.org/2000/svg">
<path d="M27.1816 0.938843H16.2591C14.5756 0.938843 13.206 2.30841 13.206 3.99187V14.8502C12.2977 14.4751 11.3031 14.2675 10.2608 14.2675H1.00047C0.448384 14.2675 0.000793457 14.715 0.000793457 15.2671V30.2961C0.000793457 30.8482 0.448384 31.2958 1.00047 31.2958H7.24235L10.715 34.7684C11.1052 35.1586 11.7384 35.1588 12.1287 34.7684L15.6013 31.2958H17.0018C17.5539 31.2958 18.0014 30.8482 18.0014 30.2961V22.008C18.0014 20.9185 17.7747 19.8811 17.3666 18.9397H27.1816C28.865 18.9397 30.2347 17.5701 30.2347 15.8867V14.3634L33.7072 10.8915C34.0974 10.5013 34.0977 9.86799 33.7073 9.47765L30.2347 6.00496V3.99187C30.2346 2.30841 28.865 0.938843 27.1816 0.938843V0.938843ZM16.002 29.2965H15.1872C14.922 29.2965 14.6678 29.4018 14.4804 29.5893L11.4218 32.6479L8.36326 29.5893C8.17578 29.4018 7.92153 29.2965 7.65641 29.2965H2.00015V16.2668H10.2608C13.4265 16.2668 16.002 18.8423 16.002 22.008V29.2965ZM31.5866 10.1845L28.5282 13.2424C28.3406 13.4299 28.2352 13.6842 28.2352 13.9493V15.8867C28.2352 16.4676 27.7626 16.9403 27.1816 16.9403H16.1073C15.8311 16.6222 15.5293 16.3269 15.2054 16.0573V3.99187C15.2054 3.41092 15.6781 2.9382 16.2591 2.9382H27.1816C27.7626 2.9382 28.2353 3.41085 28.2353 3.99187V6.41909C28.2353 6.68421 28.3407 6.93846 28.5282 7.12593L31.5866 10.1845Z" fill="white"/>
<path d="M11.9429 25.9649C12.0342 25.7215 12.0844 25.4584 12.0844 25.1836V20.4973C12.0844 19.2671 11.0835 18.2662 9.85326 18.2662H7.24817C6.01797 18.2662 5.01709 19.2671 5.01709 20.4973V25.1836C5.01709 26.4138 6.01797 27.4147 7.24817 27.4147H9.85326C10.0695 27.4147 10.2783 27.3831 10.4761 27.3256L11.278 28.1274C11.6683 28.5178 12.3013 28.5179 12.6917 28.1274C13.0821 27.737 13.0821 27.1041 12.6917 26.7137L11.9429 25.9649ZM7.01651 25.1836V20.4973C7.01651 20.3695 7.12048 20.2656 7.24823 20.2656H9.85332C9.98108 20.2656 10.0851 20.3695 10.0851 20.4973V25.1836C10.0851 25.3113 9.98115 25.4153 9.85332 25.4153H7.24823C7.12041 25.4154 7.01651 25.3114 7.01651 25.1836Z" fill="white"/>
<path d="M22.7895 5.59005C22.4456 4.77998 21.3175 4.79231 20.9622 5.56139L17.3007 13.4779C17.0689 13.979 17.2872 14.5731 17.7883 14.8049C18.2893 15.0366 18.8835 14.8183 19.1153 14.3172L20.1204 12.1441H23.4022L24.3135 14.2886C24.5296 14.7969 25.1168 15.0335 25.6245 14.8176C26.1327 14.6017 26.3695 14.0147 26.1536 13.5066C25.8563 12.8071 22.9043 5.86023 22.7895 5.59005ZM21.0452 10.1447L21.8308 8.44606L22.5527 10.1447H21.0452Z" fill="white"/>
</svg>
