<svg width="30" height="21" viewBox="0 0 30 21" fill="none" xmlns="http://www.w3.org/2000/svg">
<path d="M30 19.0312C30 19.4822 29.745 19.8941 29.34 20.1061C29.155 20.2036 28.9525 20.25 28.75 20.25C28.5075 20.25 28.265 20.1817 28.0575 20.0452L22.5001 16.433V19.0312C22.5001 19.7039 21.94 20.25 21.25 20.25H3.75011C0.105122 20.25 0.00012207 11.4972 0.00012207 10.5003C0.00012207 9.50348 0.105122 0.750746 3.75011 0.750746H21.25C21.94 0.750746 22.5001 1.29676 22.5001 1.96949V4.56773L28.0575 0.955488C28.44 0.704473 28.9375 0.682537 29.34 0.894591C29.7475 1.10665 30 1.51853 30 1.96949V19.0312Z" fill="white"/>
</svg>
