<svg width="356" height="356" viewBox="0 0 356 356" fill="none" xmlns="http://www.w3.org/2000/svg">
<!-- <path d="M272.385 10.8316C260.965 3.33873 246.835 -0.0301378 231.157 0.144114C214.21 0.699618 197.481 4.13018 181.683 10.2894C163.308 17.2821 145.803 26.3779 129.518 37.3953C93.0698 61.9115 61.7104 93.2532 37.1701 129.691C26.1417 146.006 17.0478 163.549 10.0716 181.966C3.95117 197.743 0.547932 214.443 0.00641698 231.357C-0.167788 247.04 3.20017 261.173 10.691 272.597C18.4345 284.27 30.2609 292.626 43.848 296.024C58.3264 299.993 75.6114 299.78 94.5803 295.482C116.347 290.167 137.161 281.52 156.288 269.847C179.453 255.951 200.794 239.216 219.814 220.031C238.999 200.997 255.736 179.645 269.637 156.467C281.307 137.336 289.951 116.516 295.264 94.7435C299.561 75.7694 299.774 58.4798 295.806 43.9975C292.423 30.4003 284.066 18.5662 272.385 10.8316ZM292.864 45.8562C296.735 60.0867 296.464 77.0472 292.225 95.6728C286.994 117.014 278.506 137.421 267.063 156.177C253.439 178.874 237.04 199.784 218.246 218.424C199.604 237.245 178.694 253.673 155.997 267.33C137.243 278.771 116.842 287.26 95.5094 292.5C76.8889 296.74 59.9329 296.992 45.7062 293.139C32.3462 289.846 20.7034 281.667 13.0718 270.215C5.69711 259.044 2.34851 245.181 2.484 229.789C2.99574 213.145 6.34065 196.711 12.375 181.192C19.2054 163.117 28.1039 145.893 38.8928 129.865C62.9995 94.0044 93.8363 63.1658 129.692 39.0604C145.712 28.2553 162.931 19.3475 181.005 12.516C196.52 6.48006 212.95 3.13424 229.589 2.62236C245.074 2.48683 258.836 5.83634 270.005 13.213C281.432 20.8572 289.587 32.5017 292.864 45.8562Z" fill="#B6F5FF"/> -->
<path d="M261.099 76.0571C253.356 70.2487 243.678 67.5188 232.703 67.2671C220.657 67.2933 208.713 69.4768 197.437 73.7144C184.131 78.5462 171.453 84.9553 159.673 92.8047C133.042 110.511 110.208 133.35 92.5071 159.988C84.7165 171.736 78.355 184.372 73.5574 197.627C69.3499 208.886 67.1868 220.806 67.1699 232.826C67.4216 243.784 70.2282 253.523 75.9576 261.229C81.9383 269.11 90.6152 274.508 100.327 276.389C110.682 278.693 122.877 278.112 136.136 274.782C151.161 270.78 165.511 264.575 178.719 256.369C194.494 246.719 209.051 235.207 222.077 222.08C235.198 209.049 246.707 194.488 256.356 178.711C264.552 165.495 270.755 151.142 274.764 136.116C278.093 122.853 278.635 110.656 276.371 100.297C274.43 90.6152 268.993 81.9864 261.099 76.0571ZM273.409 102.234C275.635 112.34 275.035 124.228 271.783 137.084C267.855 151.688 261.803 165.635 253.821 178.478C244.429 193.818 233.232 207.975 220.47 220.647C207.803 233.401 193.656 244.594 178.332 253.988C165.492 261.972 151.549 268.026 136.949 271.955C124.058 275.208 112.173 275.827 102.108 273.581C92.6446 271.779 84.1763 266.555 78.319 258.905C72.7058 251.413 69.9378 241.926 69.6862 231.257C69.6664 219.551 71.7513 207.937 75.8415 196.969C80.5427 184.004 86.7881 171.653 94.4427 160.182C111.687 134.156 133.965 111.846 159.963 94.5665C171.431 86.9099 183.778 80.6628 196.74 75.9603C207.732 71.8732 219.37 69.8007 231.097 69.8421C241.762 70.0938 251.246 72.8625 258.737 78.4773C266.377 84.3266 271.599 92.7821 273.409 102.234Z" fill="#B6F5FF"/>
<g opacity="0.26">
<path opacity="0.26" d="M204.773 204.984C201.134 208.624 197.399 212.032 193.605 215.207C189.811 218.383 185.979 221.306 182.107 223.997C178.236 226.689 174.365 229.07 170.494 231.219C166.786 233.297 162.974 235.184 159.074 236.873C155.474 238.425 151.783 239.757 148.021 240.861C144.595 241.878 141.103 242.654 137.569 243.184C134.365 243.655 131.128 243.856 127.891 243.785C124.969 243.719 122.062 243.343 119.219 242.662L112.271 253.272C115.494 254.089 118.798 254.55 122.123 254.646C125.805 254.776 129.49 254.575 133.136 254.046C137.174 253.484 141.165 252.63 145.079 251.49C149.383 250.229 153.61 248.716 157.738 246.96C162.22 245.057 166.594 242.911 170.842 240.532C175.275 238.073 179.727 235.304 184.159 232.245C188.592 229.186 193.024 225.817 197.399 222.177C201.773 218.537 206.051 214.607 210.232 210.425L210.425 210.231L204.948 204.83L204.773 204.984Z" fill="#B6F5FF"/>
<path opacity="0.26" d="M111.109 167.656C113.218 164.074 115.56 160.492 118.096 156.91C120.632 153.329 123.4 149.824 126.361 146.32C129.323 142.815 132.478 139.388 135.846 136.02C139.214 132.651 142.098 130.018 145.272 127.268C148.446 124.519 151.718 121.944 154.95 119.524C158.183 117.104 161.492 114.916 164.783 112.883C168.074 110.85 171.383 109.01 174.655 107.307L175.506 99.1362C171.79 101.034 168.061 103.144 164.318 105.467C160.602 107.791 156.866 110.308 153.169 113.038C149.472 115.768 145.814 118.691 142.194 121.789C138.575 124.887 135.033 128.236 131.626 131.799C127.755 135.671 124.174 139.543 120.883 143.416C117.535 147.288 114.399 151.373 111.515 155.42C108.631 159.466 105.96 163.532 103.56 167.598C101.16 171.664 98.9916 175.749 97.0947 179.776L105.515 178.46C107.102 174.858 108.999 171.257 111.109 167.656Z" fill="#B6F5FF"/>
<path opacity="0.26" d="M113.006 240.435C111.831 239.862 110.693 239.215 109.599 238.499C108.499 237.766 107.451 236.957 106.464 236.079C105.499 235.197 104.599 234.245 103.773 233.232C102.568 231.739 101.524 230.123 100.657 228.411C99.7555 226.683 99.0355 224.867 98.5082 222.99C97.9367 221.04 97.5288 219.045 97.2888 217.027C97.0372 214.894 96.9337 212.746 96.9791 210.599C97.0229 208.326 97.1974 206.057 97.5017 203.803C97.8308 201.48 98.2759 199.098 98.8566 196.678C99.4373 194.258 100.153 191.799 101.005 189.302C101.857 186.804 102.805 184.306 103.889 181.77L95.2564 183.532C93.966 186.41 92.8627 189.263 91.9465 192.09C90.9787 194.916 90.1464 197.704 89.4689 200.454C88.7915 203.203 88.2688 205.914 87.8817 208.566C87.5152 211.133 87.2955 213.719 87.2236 216.311C87.1592 218.761 87.2627 221.213 87.5333 223.649C87.7835 225.959 88.2238 228.245 88.8495 230.483C89.4419 232.633 90.2392 234.72 91.2303 236.717C92.1928 238.687 93.3607 240.55 94.7144 242.274C95.6511 243.439 96.6664 244.539 97.7533 245.566C98.8317 246.578 99.9833 247.51 101.199 248.354C102.432 249.202 103.726 249.959 105.07 250.619C106.447 251.31 107.869 251.905 109.328 252.4L116.703 241.926C115.439 241.51 114.204 241.012 113.006 240.435Z" fill="#B6F5FF"/>
<path opacity="0.26" d="M242.092 95.012C240.294 93.5863 238.347 92.3594 236.285 91.3527C234.151 90.3279 231.92 89.5173 229.626 88.9325C227.224 88.325 224.778 87.9106 222.31 87.6934C219.693 87.5084 217.067 87.5084 214.451 87.6934C211.659 87.8421 208.88 88.1654 206.128 88.6615C203.212 89.1535 200.324 89.7998 197.476 90.5976C194.534 91.4108 191.553 92.3918 188.533 93.5405C185.514 94.6893 182.481 95.9801 179.436 97.4128L178.081 105.699C180.772 104.422 183.462 103.299 186.114 102.292C188.766 101.285 191.398 100.453 193.972 99.7362C196.547 99.0198 199.121 98.4583 201.599 98.0324C204.014 97.6317 206.451 97.3667 208.896 97.2386C211.187 97.1335 213.483 97.1852 215.767 97.3934C217.926 97.5878 220.063 97.97 222.155 98.5358C224.16 99.0657 226.105 99.7988 227.962 100.724C229.777 101.628 231.491 102.725 233.072 103.996C233.917 104.687 234.719 105.431 235.472 106.222C236.972 107.799 238.273 109.555 239.343 111.45C239.879 112.398 240.364 113.374 240.795 114.373L251.112 106.629C250.6 105.475 250.024 104.35 249.389 103.26C248.755 102.186 248.057 101.152 247.298 100.162C246.543 99.1776 245.729 98.2401 244.86 97.3547C243.983 96.5209 243.059 95.7387 242.092 95.012Z" fill="#B6F5FF"/>
<path opacity="0.26" d="M243.407 125.119C243.688 128.236 243.688 131.373 243.407 134.49C243.073 137.936 242.484 141.353 241.646 144.713C240.691 148.424 239.501 152.072 238.084 155.633C236.583 159.511 234.87 163.305 232.955 166.998C231.019 170.87 228.716 174.742 226.219 178.614C223.722 182.487 220.935 186.359 217.915 190.231C214.896 194.103 211.625 197.86 208.121 201.558L214.063 206.495C218.077 202.209 221.825 197.866 225.309 193.465C228.774 189.05 231.948 184.597 234.833 180.144C237.717 175.691 240.272 171.238 242.575 166.823C244.754 162.592 246.692 158.242 248.382 153.793C249.943 149.726 251.236 145.561 252.253 141.324C253.192 137.507 253.839 133.624 254.189 129.708C254.519 126.159 254.519 122.588 254.189 119.04C253.874 115.823 253.192 112.653 252.156 109.591L241.685 116.987C242.55 119.628 243.128 122.354 243.407 125.119Z" fill="#B6F5FF"/>
</g>
<path d="M49.8641 209.767L49.9803 209.321L50.0964 208.876L50.2125 208.431L31.4178 215.982C31.4178 216.156 31.321 216.33 31.2629 216.504C31.2049 216.679 31.2629 216.853 31.1274 217.027L30.9919 217.55C30.9377 217.722 30.8925 217.896 30.8564 218.073L49.748 210.193L49.8641 209.767Z" fill="#B6F5FF"/>
<path d="M62.0583 277.009L61.8067 276.776L61.555 276.544L61.3228 276.331L43.0312 296.699L43.3022 296.97L43.5732 297.261L43.8636 297.532L44.1539 297.803L62.2906 277.222L62.0583 277.009Z" fill="#B6F5FF"/>
<path d="M66.5687 168.818C66.641 168.663 66.7251 168.514 66.8204 168.372L67.072 167.908L67.3236 167.443L51.8388 168.179L51.5291 168.701L51.2387 169.243C51.1419 169.418 51.0258 169.592 50.929 169.786L50.6387 170.308L66.4139 169.282C66.3945 169.127 66.472 168.972 66.5687 168.818Z" fill="#B6F5FF"/>
<path d="M57.5871 187.192C57.6598 187.04 57.7244 186.885 57.7806 186.727C57.7806 186.591 57.9161 186.436 57.9935 186.282C58.0498 186.123 58.1144 185.968 58.1871 185.817L40.9408 189.573L40.7085 190.096L40.4763 190.638L40.244 191.18L40.0117 191.703L57.4322 187.656C57.4918 187.504 57.5435 187.349 57.5871 187.192Z" fill="#B6F5FF"/>
<path d="M64.1109 173.406L64.3432 172.961L64.5754 172.496L64.8271 172.032L48.8002 173.523L48.5099 174.045L48.2195 174.587C48.1227 174.762 48.0453 174.955 47.9485 175.13L47.6582 175.652L63.8786 173.871C63.8786 173.716 64.0141 173.561 64.1109 173.406Z" fill="#B6F5FF"/>
<path d="M51.0837 205.372L51.2192 204.927L51.3353 204.481C51.3893 204.336 51.4346 204.187 51.4708 204.036L32.9083 210.774L32.7341 211.297C32.7341 211.471 32.6373 211.645 32.5792 211.819C32.5212 211.994 32.4824 212.168 32.4244 212.342C32.3663 212.516 32.3276 212.691 32.2695 212.865L50.9095 205.759L51.0837 205.372Z" fill="#B6F5FF"/>
<path d="M55.7298 191.819L55.904 191.374L56.1363 190.851C56.1363 190.696 56.2717 190.561 56.3298 190.406L38.7158 194.917C38.7158 195.091 38.5609 195.265 38.5028 195.44L38.2706 195.982C38.2706 196.156 38.1351 196.33 38.0576 196.505C37.9802 196.679 37.9222 196.853 37.8447 197.027L55.5749 192.226L55.7298 191.819Z" fill="#B6F5FF"/>
<path d="M54.0071 196.311L54.1813 195.866C54.1813 195.711 54.278 195.556 54.3361 195.401L54.5103 194.956L36.5866 200.222C36.5866 200.396 36.4511 200.57 36.3737 200.764C36.2962 200.958 36.2575 201.112 36.1801 201.287L35.9865 201.809C35.9865 201.984 35.851 202.158 35.793 202.352L53.8522 196.756C53.9154 196.612 53.9672 196.463 54.0071 196.311Z" fill="#B6F5FF"/>
<path d="M61.7881 178.014C61.867 177.863 61.938 177.708 62.001 177.549L62.2332 177.085L62.4655 176.62L46.0128 178.866L45.7418 179.408C45.7418 179.582 45.5676 179.757 45.4709 179.95L45.2192 180.473C45.1224 180.647 45.0257 180.841 44.9482 181.015L61.5558 178.479L61.7881 178.014Z" fill="#B6F5FF"/>
<path d="M84.1246 141.635C84.1246 141.48 84.3375 141.344 84.4537 141.189C84.5698 141.034 84.6666 140.899 84.7827 140.744L85.1118 140.299L72.569 136.601L72.1819 137.123L71.7754 137.646C71.6573 137.822 71.5279 137.99 71.3883 138.149L71.0205 138.672L83.7955 142.08C83.8945 141.924 84.0044 141.775 84.1246 141.635Z" fill="#B6F5FF"/>
<path d="M87.4742 137.201L87.8226 136.755L88.171 136.329L88.5001 135.884L76.5187 131.47L76.1122 131.992L75.7251 132.496L75.3186 133.019L74.9121 133.522L87.1064 137.607L87.4742 137.201Z" fill="#B6F5FF"/>
<path d="M69.1627 164.229L69.4337 163.784C69.4337 163.629 69.6079 163.474 69.7047 163.319C69.8015 163.164 69.8789 163.009 69.9757 162.854H54.8392C54.7231 163.029 54.6263 163.203 54.5295 163.377L54.2004 163.919C54.1037 164.094 54.0069 164.268 53.8908 164.442C53.7746 164.616 53.6778 164.791 53.5811 164.984L68.8917 164.713L69.1627 164.229Z" fill="#B6F5FF"/>
<path d="M94.5189 128.507L94.8867 128.062C95.0028 127.927 95.1383 127.791 95.2544 127.636L95.6222 127.21L84.8022 121.402L84.3763 121.905L83.9505 122.409L83.5246 122.912L83.1182 123.396L94.1705 128.933L94.5189 128.507Z" fill="#B6F5FF"/>
<path d="M90.9772 132.825L91.3449 132.399L91.6933 131.954C91.8095 131.818 91.9256 131.663 92.0611 131.528L80.641 126.417L80.2152 126.92L79.8087 127.423L79.3635 127.927L78.957 128.43L90.5707 133.27L90.9772 132.825Z" fill="#B6F5FF"/>
<path d="M71.8923 159.679L72.1827 159.214L72.4537 158.75L72.744 158.304L58.0721 157.549L57.743 158.072L57.414 158.595L57.0849 159.137L56.7559 159.66L71.602 160.124L71.8923 159.679Z" fill="#B6F5FF"/>
<path d="M74.7563 155.129L75.0466 154.664L75.3563 154.219L75.6466 153.754L61.4973 152.264L61.1489 152.786L60.8005 153.309L60.4521 153.851L60.123 154.374L74.4659 155.574L74.7563 155.129Z" fill="#B6F5FF"/>
<path d="M77.7574 150.598L78.0671 150.153L78.3575 149.708L78.6672 149.243L65.1179 147.017L64.7501 147.539L64.4017 148.062L64.034 148.585L63.6855 149.108L77.4284 151.16L77.7574 150.598Z" fill="#B6F5FF"/>
<path d="M80.8726 146.107L81.2017 145.642L81.5114 145.197L81.8404 144.751L68.7363 141.789L68.3492 142.312L67.9814 142.835L67.6137 143.357L67.2266 143.88L80.5629 146.552L80.8726 146.107Z" fill="#B6F5FF"/>
<path d="M47.2703 222.797V222.371V221.945V221.519L27.9142 231.355V231.858C27.9049 232.019 27.9049 232.181 27.9142 232.342C27.9142 232.516 27.9142 232.691 27.9142 232.845C27.9049 233.013 27.9049 233.181 27.9142 233.349L47.4445 223.223L47.2703 222.797Z" fill="#B6F5FF"/>
<path d="M50.7173 260.552L50.5818 260.242L50.4656 259.913L50.3301 259.583L30.5869 276.544C30.5869 276.66 30.5869 276.796 30.7418 276.912L30.8773 277.299L31.0321 277.686C31.0321 277.822 31.0321 277.938 31.1676 278.074L50.8528 260.881C50.7994 260.775 50.7541 260.665 50.7173 260.552Z" fill="#B6F5FF"/>
<path d="M49.4962 257.299C49.4577 257.191 49.4253 257.081 49.3994 256.97L49.2833 256.621L49.1672 256.292L29.3271 272.594L29.4433 272.981L29.5594 273.388L29.6756 273.795C29.6756 273.911 29.6756 274.046 29.8111 274.182L49.6123 257.647L49.4962 257.299Z" fill="#B6F5FF"/>
<path d="M47.6571 250.387C47.6571 250.271 47.6571 250.155 47.6571 250.038V249.671C47.6461 249.548 47.6461 249.425 47.6571 249.303L27.6816 264.25V264.676C27.6908 264.817 27.6908 264.96 27.6816 265.102C27.6816 265.256 27.6816 265.392 27.6816 265.528C27.6816 265.663 27.6816 265.818 27.6816 265.953L47.6571 250.735C47.7152 250.619 47.6765 250.503 47.6571 250.387Z" fill="#B6F5FF"/>
<path d="M48.4907 253.911C48.4495 253.797 48.4172 253.681 48.3939 253.562C48.3939 253.446 48.3939 253.33 48.2971 253.214C48.2004 253.098 48.2971 252.981 48.2971 252.865L28.3604 268.49L28.4571 268.896L28.5539 269.322V269.729L28.6507 270.136L48.5488 254.259C48.5488 254.143 48.5101 254.027 48.4907 253.911Z" fill="#B6F5FF"/>
<path d="M52.1293 263.688C52.1293 263.572 52.0325 263.475 51.9744 263.378C51.9345 263.27 51.8826 263.166 51.8196 263.069L51.6841 262.759L32.0957 280.32L32.2699 280.707C32.3331 280.824 32.385 280.947 32.4248 281.075L32.599 281.442L32.7732 281.791L52.2648 263.979C52.2123 263.885 52.167 263.788 52.1293 263.688Z" fill="#B6F5FF"/>
<path d="M48.8191 214.162L48.9158 213.716L49.0126 213.291L49.1094 212.845L30.0824 221.171C30.0259 221.335 29.9807 221.503 29.9469 221.674L29.8307 222.197L29.7146 222.7L29.5791 223.223L48.7223 214.588L48.8191 214.162Z" fill="#B6F5FF"/>
<path d="M59.6779 274.705C59.6176 274.612 59.5461 274.528 59.465 274.453L59.2327 274.201L59.0198 273.95L40.3799 293.814C40.4742 293.909 40.5585 294.013 40.6315 294.124L40.9025 294.415L41.1541 294.705L41.4058 295.015L60.007 274.937L59.6779 274.705Z" fill="#B6F5FF"/>
<path d="M57.5108 272.168L57.2979 271.917L57.1043 271.646L56.8914 271.394L37.9805 290.755L38.2127 291.065L38.445 291.394L38.6773 291.704L38.9096 292.014L57.7237 272.478L57.5108 272.168Z" fill="#B6F5FF"/>
<path d="M55.5362 269.497L55.3426 269.226L55.1491 268.935L54.9749 268.664L35.793 287.425L36.0059 287.754C36.0697 287.875 36.1408 287.991 36.2188 288.103L36.4317 288.432C36.4317 288.432 36.5672 288.645 36.6446 288.761L55.7104 269.768L55.5362 269.497Z" fill="#B6F5FF"/>
<path d="M53.7363 266.67L53.5621 266.379L53.3879 266.07L53.233 265.779L33.877 283.96L34.0512 284.308C34.1232 284.427 34.1878 284.549 34.2447 284.676L34.4383 285.024L34.6318 285.373L53.9879 266.96L53.7363 266.67Z" fill="#B6F5FF"/>
<path d="M101.971 120.027L102.358 119.601L102.746 119.194L103.133 118.768L93.4546 111.624L93.4518 111.625C93.0071 112.108 93.0071 112.108 92.5624 112.592L92.119 113.076C91.9607 113.228 91.812 113.39 91.6738 113.56L101.507 120.433L101.971 120.027Z" fill="#B6F5FF"/>
<path d="M46.7484 226.979V226.573C46.7484 226.437 46.7484 226.282 46.7484 226.147V225.721L27.2568 236.35V236.853V237.338V237.822C27.2568 237.996 27.2568 238.151 27.2568 238.325L46.9226 227.444C46.8779 227.284 46.8196 227.129 46.7484 226.979Z" fill="#B6F5FF"/>
<path d="M47.9481 218.499C47.9573 218.357 47.9573 218.215 47.9481 218.073C47.9481 217.918 47.9481 217.783 48.0448 217.628V217.202L28.6887 226.282C28.6979 226.45 28.6979 226.618 28.6887 226.785C28.6887 226.96 28.6887 227.134 28.592 227.289C28.4952 227.444 28.592 227.637 28.4952 227.792C28.486 227.966 28.486 228.141 28.4952 228.315L47.8513 218.925L47.9481 218.499Z" fill="#B6F5FF"/>
<path d="M47.0386 246.747V246.379V246.011C47.0291 245.888 47.0291 245.766 47.0386 245.643L27.0244 259.874V260.319C27.0244 260.474 27.0244 260.609 27.0244 260.764V261.21V261.636L47.0386 247.115V246.747Z" fill="#B6F5FF"/>
<path d="M46.4577 231.122C46.4577 230.987 46.4577 230.851 46.4577 230.716V230.309C46.4577 230.174 46.4577 230.019 46.4577 229.883L26.6951 241.21C26.6941 241.539 26.6941 241.868 26.6951 242.197C26.6951 242.352 26.6951 242.507 26.6951 242.681C26.6951 242.855 26.6951 242.991 26.6951 243.146L46.4964 231.529C46.4738 231.395 46.4609 231.259 46.4577 231.122Z" fill="#B6F5FF"/>
<path d="M46.5935 242.991C46.5935 242.875 46.5935 242.739 46.5935 242.623C46.5935 242.507 46.5935 242.352 46.5935 242.236V241.849L26.5986 255.402C26.5986 255.556 26.5986 255.711 26.5986 255.866C26.5986 256.021 26.5986 256.176 26.5986 256.331C26.5986 256.486 26.5986 256.621 26.5986 256.776C26.5882 256.924 26.5882 257.073 26.5986 257.222L46.5935 243.417C46.6129 243.243 46.6129 243.126 46.5935 242.991Z" fill="#B6F5FF"/>
<path d="M46.3038 235.169V234.414C46.314 234.285 46.314 234.156 46.3038 234.027L26.4444 246.031V246.98C26.4352 247.141 26.4352 247.302 26.4444 247.464C26.4444 247.618 26.4444 247.773 26.4444 247.948L46.3619 235.576L46.3038 235.169Z" fill="#B6F5FF"/>
<path d="M46.3419 239.138V238.731C46.3317 238.603 46.3317 238.473 46.3419 238.344V237.957L26.3857 250.755V251.22C26.3857 251.374 26.3857 251.529 26.3857 251.684V252.614L46.458 239.525C46.4294 239.393 46.3906 239.264 46.3419 239.138Z" fill="#B6F5FF"/>
<path d="M59.6205 182.603C59.6205 182.448 59.756 182.293 59.814 182.157C59.893 182.006 59.964 181.851 60.027 181.693L60.2592 181.228L43.4001 184.229C43.3033 184.403 43.2259 184.578 43.1484 184.752L42.8968 185.294C42.8013 185.469 42.7173 185.65 42.6452 185.836L42.3936 186.359L59.4076 183.067L59.6205 182.603Z" fill="#B6F5FF"/>
<path d="M233.187 46.4734H234.387L246.562 26.5894H245.613H245.149H244.665L232.78 46.4347L233.187 46.4734Z" fill="#B6F5FF"/>
<path d="M248.537 47.4802H248.885H249.253H249.601L264.641 27.48H264.215H263.789H263.344H262.918L248.169 47.4802H248.537Z" fill="#B6F5FF"/>
<path d="M241.045 46.6091H241.82H242.207L255.756 26.6089H255.311H253.937L240.658 46.6091H241.045Z" fill="#B6F5FF"/>
<path d="M244.838 46.9576H245.206H245.593H245.961L260.285 26.938H259.839H259.414H258.968H258.523L244.471 46.8995L244.838 46.9576Z" fill="#B6F5FF"/>
<path d="M212.088 49.397L212.533 49.3002L212.978 49.184H213.404L221.863 30.0938L221.34 30.2099L220.818 30.3454L220.314 30.4616L219.792 30.5971L211.662 49.5906L212.088 49.397Z" fill="#B6F5FF"/>
<path d="M220.663 47.6931H221.089H221.515H221.94L231.89 28.1963H231.386H230.883H230.399H229.896L220.218 47.5576L220.663 47.6931Z" fill="#B6F5FF"/>
<path d="M229.122 46.609H229.529H229.935H230.342L241.781 26.8218H241.297H240.813H240.329H239.845L228.696 46.551L229.122 46.609Z" fill="#B6F5FF"/>
<path d="M216.442 48.5455H216.888H217.313L217.739 48.4487L226.933 29.0874L226.43 29.1842L225.927 29.3004H225.424L224.92 29.4165L216.017 48.5455H216.442Z" fill="#B6F5FF"/>
<path d="M224.96 47.1127H225.386H225.812H226.218L236.922 27.248H236.419H235.935H235.432H234.948L224.534 47.1515L224.96 47.1127Z" fill="#B6F5FF"/>
<path d="M237.154 46.4542H238.335L251.226 26.4927H249.29L236.689 46.4155L237.154 46.4542Z" fill="#B6F5FF"/>
<path d="M272.79 58.3226L273.041 58.5355C273.116 58.6166 273.2 58.6882 273.293 58.7485L273.544 58.9808L293.346 40.3165L293.036 40.0648L292.746 39.8131L292.436 39.5614L292.126 39.3291L272.519 58.1096L272.79 58.3226Z" fill="#B6F5FF"/>
<path d="M252.098 48.2161L252.446 48.3129H252.795H253.143L268.86 28.3707L268.454 28.2739H268.028H267.602H267.176L251.691 48.2354L252.098 48.2161Z" fill="#B6F5FF"/>
<path d="M275.247 60.5489L275.479 60.8006L275.711 61.0329L275.944 61.2653L296.287 42.9301L295.997 42.659L295.706 42.388L295.416 42.1169L295.126 41.8652L275.015 60.3166L275.247 60.5489Z" fill="#B6F5FF"/>
<path d="M268.008 54.8183L268.279 54.9926L268.569 55.1862L268.84 55.3798L287.674 36.2315L287.345 36.0185L286.996 35.8055L286.667 35.6119L286.338 35.3989L267.718 54.6441L268.008 54.8183Z" fill="#B6F5FF"/>
<path d="M270.156 56.2896C270.239 56.3649 270.33 56.4299 270.427 56.4832L270.679 56.6962L270.95 56.8898L290.306 37.9544L289.977 37.7221L289.648 37.4897L289.319 37.2768L288.99 37.0444L269.963 56.096L270.156 56.2896Z" fill="#B6F5FF"/>
<path d="M258.871 50.2683L259.2 50.4039L259.51 50.52L259.839 50.6556L276.795 30.9264L276.408 30.7909L276.001 30.6553L275.614 30.5198L275.227 30.3843L258.465 50.1522L258.871 50.2683Z" fill="#B6F5FF"/>
<path d="M255.504 49.1454L255.853 49.2616L256.182 49.3584L256.511 49.4746L272.925 29.6292L272.538 29.5131L272.131 29.3969L271.725 29.2807L271.318 29.1646L255.214 49.0486L255.504 49.1454Z" fill="#B6F5FF"/>
<path d="M262.046 51.6043L262.356 51.7399L262.666 51.8947L262.975 52.0303L280.667 32.4753L280.299 32.3011L279.931 32.1462L279.563 31.9913L279.176 31.8364L261.756 51.4494L262.046 51.6043Z" fill="#B6F5FF"/>
<path d="M265.181 53.1145L265.471 53.2694L265.781 53.4436L266.071 53.5985L284.324 34.2372L283.976 34.0436L283.608 33.8693L283.26 33.6757L282.892 33.5015L264.794 52.9596L265.181 53.1145Z" fill="#B6F5FF"/>
<path d="M203.242 51.7976L203.706 51.6621L204.152 51.5266L204.597 51.3911L211.526 32.8042L210.984 33.0559L210.462 33.2301L209.939 33.385L209.416 33.5399L202.777 52.03L203.242 51.7976Z" fill="#B6F5FF"/>
<path d="M152.916 76.2511L153.381 75.9413L153.826 75.6509L154.291 75.3604L152.916 61.1299L152.394 61.4784L151.852 61.8269L151.329 62.1754L150.807 62.5239L152.491 76.5415L152.916 76.2511Z" fill="#B6F5FF"/>
<path d="M148.368 79.3105L148.814 79.0007L149.278 78.6909L149.723 78.3811L147.594 64.6733L147.072 65.0218L146.549 65.3897L146.026 65.7576L145.484 66.1254L147.923 79.6784L148.368 79.3105Z" fill="#B6F5FF"/>
<path d="M157.466 73.308L157.93 73.0176L158.376 72.7272L158.84 72.4561L158.201 57.7222L157.659 58.0513L157.137 58.3805L156.595 58.729L156.072 59.0581L157.001 73.5985L157.466 73.308Z" fill="#B6F5FF"/>
<path d="M162.053 70.5009L162.595 70.2298L163.059 69.9588L163.524 69.6877V54.4697L163.001 54.7989L162.459 55.1086L161.917 55.4378L161.395 55.7669L161.588 70.7719L162.053 70.5009Z" fill="#B6F5FF"/>
<path d="M139.368 85.8157L139.793 85.4672L140.239 85.1381L140.684 84.809L137.161 72.166L136.638 72.5532L136.135 72.9598L135.612 73.3471L135.09 73.7343L138.961 86.1449L139.368 85.8157Z" fill="#B6F5FF"/>
<path d="M130.657 92.7471L131.083 92.3793L131.528 92.0308L131.954 91.6823L126.941 80.1816L126.438 80.5882L125.934 81.0142L125.431 81.4595L124.947 81.8854L130.231 93.0763L130.657 92.7471Z" fill="#B6F5FF"/>
<path d="M143.877 82.505L144.322 82.1758L144.767 81.866L145.174 81.4595L142.309 68.2744L141.787 68.6616L141.264 69.0295L140.741 69.4167L140.219 69.7846L143.374 82.7567L143.877 82.505Z" fill="#B6F5FF"/>
<path d="M135.012 89.2043L135.457 88.8558L135.883 88.5073L136.328 88.1588L132.031 76.0967L131.509 76.5033L131.005 76.8905L130.502 77.2971L129.979 77.7037L134.567 89.5528L135.012 89.2043Z" fill="#B6F5FF"/>
<path d="M166.64 67.9065L167.105 67.6548L167.57 67.3837L168.034 67.132L168.886 51.4688L168.344 51.7592L167.821 52.0689L167.279 52.3787L166.737 52.6885L166.195 68.1776L166.64 67.9065Z" fill="#B6F5FF"/>
<path d="M207.695 50.4815L208.14 50.3653L208.566 50.2492L209.011 50.133L216.753 31.2944L216.25 31.43L215.728 31.5655L215.205 31.7204L214.682 31.8559L207.308 50.5977L207.695 50.4815Z" fill="#B6F5FF"/>
<path d="M194.203 54.8572L194.648 54.7024L195.113 54.5281L195.5 54.3538L200.9 36.3672L200.358 36.5802L199.835 36.7738L199.371 36.9287L198.829 37.1416L193.738 54.9928L194.203 54.8572Z" fill="#B6F5FF"/>
<path d="M198.732 53.2499L199.196 53.095L199.642 52.9401L200.087 52.7852L206.242 34.4888L205.719 34.6824L205.197 34.8566L204.674 35.0309L204.152 35.2245L198.345 53.4048L198.732 53.2499Z" fill="#B6F5FF"/>
<path d="M171.246 65.293L171.711 65.0606L172.272 64.8089L172.737 64.5572L174.208 48.5454L173.666 48.8165L173.124 49.1069L172.601 49.3973L172.059 49.6877L170.743 65.6221L171.246 65.293Z" fill="#B6F5FF"/>
<path d="M189.692 56.6381L190.157 56.4639L190.621 56.2702L191.067 56.096L195.712 38.4385L195.189 38.6514L194.647 38.8644L194.125 39.0968L193.583 39.3097L189.247 56.8317L189.692 56.6381Z" fill="#B6F5FF"/>
<path d="M126.786 95.9999L127.212 95.6321L127.638 95.2642L121.947 84.3638L121.463 84.7897L120.96 85.2157L120.476 85.6416L119.973 86.0676L125.954 96.7356L126.38 96.3678L126.786 95.9999Z" fill="#B6F5FF"/>
<path d="M175.854 62.9109L176.319 62.6786L176.783 62.4463L177.248 62.2139L179.609 45.6987L179.067 45.9698L178.545 46.2408L178.08 46.6087L177.538 46.8798L175.486 63.2401L175.854 62.9109Z" fill="#B6F5FF"/>
<path d="M180.46 60.6652L180.924 60.4522L181.389 60.2393L181.853 60.0263L184.97 43.1045L184.428 43.3562L183.905 43.6079L183.363 43.8596L182.821 44.1306L180.015 60.8782L180.46 60.6652Z" fill="#B6F5FF"/>
<path d="M185.068 58.5744L185.513 58.3808L185.978 58.1872L186.442 57.9742L190.313 40.6846L189.771 40.9169L189.229 41.1492L188.707 41.3816L188.165 41.6333L184.584 58.7874L185.068 58.5744Z" fill="#B6F5FF"/>
<path d="M52.4585 200.842C52.4585 200.687 52.4585 200.532 52.6134 200.377C52.7682 200.222 52.7102 200.087 52.7682 199.932C52.8263 199.777 52.7682 199.641 52.9037 199.486L34.6703 205.527L34.4961 206.05L34.3025 206.573L34.1283 207.095L33.9541 207.618L52.265 201.287C52.3618 201.132 52.4198 200.977 52.4585 200.842Z" fill="#B6F5FF"/>
<path d="M267.312 171.877C267.312 172.051 267.118 172.225 267.002 172.399C266.886 172.574 266.789 172.767 266.693 172.942C266.596 173.116 266.48 173.309 266.383 173.484L286.803 175.42C286.92 175.207 287.036 174.994 287.171 174.781L287.539 174.142C287.675 173.929 287.791 173.697 287.907 173.484C288.023 173.271 288.158 173.058 288.275 172.845L267.641 171.238L267.312 171.877Z" fill="#B6F5FF"/>
<path d="M106.461 98.4779L105.977 98.9425L105.513 99.3878L113.487 108.217L113.894 107.81L114.3 107.423L114.707 107.036L115.113 106.629L107.371 97.5679L106.887 98.0132L106.461 98.4779Z" fill="#B6F5FF"/>
<path d="M264.098 177.259L263.769 177.782L263.421 178.324L263.092 178.866L282.893 181.984L283.3 181.345L283.687 180.686L284.093 180.047L284.48 179.389L264.427 176.717L264.098 177.259Z" fill="#B6F5FF"/>
<path d="M273.157 161.112L272.886 161.654C272.886 161.828 272.692 162.022 272.615 162.196L272.324 162.738H293.829C293.945 162.525 294.061 162.312 294.158 162.099C294.255 161.886 294.39 161.654 294.487 161.441L294.816 160.802L295.126 160.163L273.428 160.686L273.157 161.112Z" fill="#B6F5FF"/>
<path d="M282.293 139.969C282.293 140.143 282.177 140.318 282.099 140.492L281.925 141.015C281.849 141.178 281.784 141.346 281.731 141.518L304.843 137.317C304.843 137.104 304.997 136.91 305.056 136.697L305.288 136.078C305.288 135.865 305.423 135.671 305.501 135.458L305.714 134.838L282.486 139.446C282.409 139.543 282.351 139.795 282.293 139.969Z" fill="#B6F5FF"/>
<path d="M280.338 145.197L280.125 145.72L279.912 146.243L279.699 146.765L302.501 143.551L302.733 142.932C302.733 142.719 302.907 142.506 302.985 142.293L303.217 141.673C303.217 141.46 303.391 141.267 303.469 141.054L280.532 144.655C280.473 144.829 280.396 145.003 280.338 145.197Z" fill="#B6F5FF"/>
<path d="M284.035 134.819L283.86 135.322C283.86 135.497 283.764 135.671 283.705 135.845L283.531 136.349L306.933 131.16C306.933 130.966 307.049 130.753 307.126 130.54C307.204 130.327 307.243 130.134 307.32 129.94L307.494 129.32C307.494 129.127 307.63 128.914 307.688 128.72L284.189 134.296L284.035 134.819Z" fill="#B6F5FF"/>
<path d="M275.751 155.768L275.499 156.31L275.248 156.852C275.248 157.027 275.093 157.201 274.996 157.375L296.985 156.233C296.985 156.02 297.178 155.807 297.294 155.594L297.585 154.955L297.875 154.316L298.165 153.677L276.022 155.226L275.751 155.768Z" fill="#B6F5FF"/>
<path d="M278.15 150.463L277.918 150.986L277.685 151.509L277.453 152.051L299.867 149.863C299.964 149.65 300.061 149.437 300.138 149.224L300.409 148.605L300.68 147.966L300.951 147.327L278.382 149.921L278.15 150.463Z" fill="#B6F5FF"/>
<path d="M260.672 182.642L260.324 183.184L259.956 183.707L259.607 184.249L278.731 188.45L279.157 187.811C279.293 187.579 279.447 187.366 279.583 187.153L279.989 186.514C280.142 186.302 280.284 186.082 280.415 185.856L261.059 182.1L260.672 182.642Z" fill="#B6F5FF"/>
<path d="M236.419 214.104C236.265 214.278 236.129 214.452 235.974 214.607L235.51 215.111C235.372 215.287 235.223 215.456 235.064 215.614L249.407 226.108C249.582 225.914 249.775 225.721 249.949 225.508C250.124 225.295 250.317 225.101 250.491 224.908C250.665 224.714 250.859 224.501 251.033 224.307L251.575 223.707L236.865 213.601L236.419 214.104Z" fill="#B6F5FF"/>
<path d="M257.052 187.947L256.684 188.469C256.568 188.663 256.432 188.837 256.316 189.011C256.2 189.186 256.064 189.36 255.948 189.554L274.375 194.82L274.82 194.181L275.266 193.542L275.711 192.884L276.156 192.245L257.439 187.482L257.052 187.947Z" fill="#B6F5FF"/>
<path d="M116.024 89.5334L115.521 89.9787L115.037 90.4046L121.696 100.473L122.121 100.085L122.547 99.7174L122.954 99.3302L123.38 98.9623L116.992 88.6621L116.508 89.0881L116.024 89.5334Z" fill="#B6F5FF"/>
<path d="M231.831 219.118L231.367 219.602L230.902 220.106L230.438 220.59L243.871 232.071L244.432 231.49L244.993 230.89L245.555 230.309C245.729 230.096 245.922 229.902 246.097 229.709L232.276 218.615L231.831 219.118Z" fill="#B6F5FF"/>
<path d="M111.166 93.9668L110.682 94.4121L110.198 94.8574L117.534 104.306L117.941 103.899L118.347 103.531L118.773 103.144L119.18 102.757L112.134 93.0762L111.65 93.5215L111.166 93.9668Z" fill="#B6F5FF"/>
<path d="M249.291 198.634L248.884 199.157L248.478 199.679L248.071 200.202L264.989 207.598L265.472 206.979L265.956 206.34L266.44 205.72L266.924 205.081L249.697 198.092L249.291 198.634Z" fill="#B6F5FF"/>
<path d="M253.258 193.329L252.871 193.871L252.484 194.394L252.097 194.936L269.788 201.267L270.253 200.628L270.717 199.989L271.182 199.35L271.646 198.711L253.645 192.903L253.258 193.329Z" fill="#B6F5FF"/>
<path d="M240.87 209.031C240.715 209.186 240.58 209.36 240.425 209.534L239.98 210.038L239.554 210.561L254.768 220.048L255.31 219.428L255.832 218.809L256.355 218.208L256.877 217.589L241.296 208.508L240.87 209.031Z" fill="#B6F5FF"/>
<path d="M245.149 203.861L244.723 204.384L244.316 204.907L243.891 205.372L259.976 213.833C260.133 213.618 260.301 213.411 260.479 213.213L260.982 212.574C261.16 212.376 261.328 212.17 261.485 211.955L262.008 211.335L245.575 203.436L245.149 203.861Z" fill="#B6F5FF"/>
<path d="M270.331 166.494L270.04 167.036L269.75 167.559C269.658 167.746 269.555 167.927 269.44 168.101L290.442 169.069L290.79 168.43L291.139 167.791L291.487 167.133L291.835 166.494L270.544 165.952L270.331 166.494Z" fill="#B6F5FF"/>
<path d="M285.545 129.727C285.545 129.901 285.448 130.075 285.409 130.23L285.255 130.753C285.255 130.908 285.158 131.082 285.119 131.256L308.753 125.1C308.793 124.897 308.845 124.696 308.908 124.499L309.082 123.88C309.082 123.686 309.082 123.493 309.237 123.28C309.392 123.067 309.353 122.892 309.392 122.699L285.68 129.243C285.644 129.407 285.599 129.568 285.545 129.727Z" fill="#B6F5FF"/>
<path d="M286.241 77.8581L286.357 78.2066L286.473 78.5552L286.589 78.9037L309.43 63.4146C309.386 63.276 309.335 63.1402 309.275 63.008C309.232 62.8694 309.18 62.7336 309.12 62.6014C309.077 62.4692 309.025 62.3398 308.965 62.2142C308.922 62.0756 308.87 61.9398 308.81 61.8076L286.105 77.5871C286.156 77.6747 286.201 77.7652 286.241 77.8581Z" fill="#B6F5FF"/>
<path d="M287.384 81.4592C287.384 81.5754 287.384 81.6916 287.481 81.8271L287.597 82.1756C287.586 82.298 287.586 82.4211 287.597 82.5435L310.824 67.6159C310.788 67.4649 310.743 67.3162 310.689 67.1706L310.572 66.764L310.437 66.3381L310.301 65.9121L287.287 81.0914L287.384 81.4592Z" fill="#B6F5FF"/>
<path d="M288.409 85.0604C288.409 85.1959 288.409 85.3121 288.506 85.4476C288.497 85.5701 288.497 85.693 288.506 85.8155V86.2027L311.926 71.8947L311.81 71.4494C311.767 71.3036 311.734 71.1547 311.713 71.0041L311.597 70.5781L311.481 70.1328L288.254 84.6925C288.254 84.8087 288.293 84.9442 288.409 85.0604Z" fill="#B6F5FF"/>
<path d="M283.338 71.353L283.493 71.6628L283.667 71.9726L283.822 72.2824L305.946 55.6704L305.753 55.3025L305.54 54.9346L305.346 54.5861C305.27 54.4699 305.205 54.3467 305.153 54.2183L283.164 71.0626L283.338 71.353Z" fill="#B6F5FF"/>
<path d="M277.531 62.9891L277.764 63.2408L277.976 63.4925L278.209 63.7442L299.017 45.7769L298.746 45.4865L298.475 45.1961L298.223 44.9057L297.952 44.6152L277.318 62.7374C277.399 62.8122 277.471 62.8967 277.531 62.9891Z" fill="#B6F5FF"/>
<path d="M279.661 65.5833L279.855 65.8544L280.068 66.1448L280.261 66.4159L301.553 48.8358C301.459 48.7415 301.374 48.6377 301.301 48.526L301.05 48.2162C300.972 48.1083 300.888 48.0049 300.798 47.9065L300.566 47.5967L279.448 65.3123L279.661 65.5833Z" fill="#B6F5FF"/>
<path d="M289.029 88.9134C289.029 89.0489 289.029 89.1844 289.029 89.3006V89.7072V90.0944L312.644 76.5415C312.634 76.3867 312.634 76.2316 312.644 76.0768C312.644 75.9219 312.644 75.767 312.644 75.6121C312.644 75.4572 312.644 75.3024 312.644 75.1475C312.651 74.9991 312.651 74.8505 312.644 74.7021L289.107 88.6036L289.029 88.9134Z" fill="#B6F5FF"/>
<path d="M281.596 68.3904L281.77 68.6809L281.964 68.9713L282.138 69.2617L303.894 52.1463C303.816 52.0346 303.745 51.9182 303.681 51.7978L303.449 51.4687L303.217 51.1395L302.984 50.791L281.402 68.1L281.596 68.3904Z" fill="#B6F5FF"/>
<path d="M284.886 74.5282L285.022 74.8379C285.022 74.9541 285.119 75.0703 285.177 75.1671C285.235 75.2639 285.177 75.3994 285.312 75.4962L307.765 59.407L307.591 59.0198L307.417 58.6325L307.223 58.2647L307.049 57.8774L284.731 74.199L284.886 74.5282Z" fill="#B6F5FF"/>
<path d="M289.531 92.9214V93.328V93.7345C289.541 93.8699 289.541 94.0058 289.531 94.1411L313.339 81.2271V80.7431V80.2591V79.775V79.291L289.609 92.5148C289.593 92.652 289.567 92.7879 289.531 92.9214Z" fill="#B6F5FF"/>
<path d="M287.905 119.853C287.862 120.012 287.83 120.174 287.809 120.337L287.712 120.821C287.703 120.982 287.703 121.144 287.712 121.305L311.636 113.289C311.636 113.096 311.636 112.902 311.636 112.709L311.752 112.128C311.752 111.934 311.752 111.74 311.849 111.566L311.965 110.985L287.964 119.369C287.964 119.524 287.925 119.679 287.905 119.853Z" fill="#B6F5FF"/>
<path d="M289.357 110.366V110.831V111.295V111.76L313.436 102.079V101.537V100.995V100.434C313.426 100.253 313.426 100.072 313.436 99.8916L289.357 109.998C289.351 110.121 289.351 110.244 289.357 110.366Z" fill="#B6F5FF"/>
<path d="M286.841 124.751L286.706 125.235L286.59 125.739L286.474 126.223L310.282 119.136C310.282 118.924 310.282 118.73 310.417 118.536C310.553 118.343 310.417 118.149 310.553 117.955C310.609 117.758 310.654 117.558 310.688 117.355C310.688 117.162 310.785 116.968 310.824 116.774L286.958 124.248L286.841 124.751Z" fill="#B6F5FF"/>
<path d="M288.738 115.051C288.738 115.206 288.738 115.361 288.738 115.516C288.738 115.671 288.738 115.845 288.738 116C288.738 116.155 288.738 116.329 288.738 116.484L312.779 107.559C312.779 107.384 312.779 107.191 312.779 106.997C312.779 106.803 312.779 106.629 312.875 106.436C312.866 106.249 312.866 106.061 312.875 105.874V105.332L288.816 114.567C288.781 114.727 288.755 114.889 288.738 115.051Z" fill="#B6F5FF"/>
<path d="M289.726 105.816C289.726 105.951 289.726 106.106 289.726 106.261C289.726 106.416 289.726 106.552 289.726 106.707C289.726 106.861 289.726 107.016 289.726 107.152L313.785 96.5612C313.785 96.3676 313.785 96.1934 313.785 96.0191C313.785 95.8449 313.785 95.6706 313.785 95.4963C313.785 95.3221 313.785 95.1285 313.785 94.9542C313.785 94.78 313.785 94.6057 313.785 94.4121L289.764 105.351L289.726 105.816Z" fill="#B6F5FF"/>
<path d="M289.822 97.0645C289.822 97.4905 289.822 97.4905 289.822 97.9164C289.812 98.0583 289.812 98.2006 289.822 98.3424L313.746 86.1641C313.746 85.9899 313.746 85.835 313.746 85.6607C313.736 85.4931 313.736 85.325 313.746 85.1573C313.746 85.0025 313.746 84.8282 313.746 84.654C313.746 84.4797 313.746 84.3248 313.746 84.1699L289.841 96.6386L289.822 97.0645Z" fill="#B6F5FF"/>
<path d="M289.899 101.363C289.909 101.511 289.909 101.66 289.899 101.808V102.253C289.909 102.395 289.909 102.537 289.899 102.679L313.94 91.2754V89.7265C313.95 89.5589 313.95 89.3908 313.94 89.2231L289.957 100.937L289.899 101.363Z" fill="#B6F5FF"/>
<path d="M148.465 279.138L147.923 279.351L147.4 279.584L146.878 279.797L143.723 302.566L144.361 302.314L144.981 302.062L145.62 301.81L146.258 301.539L149.046 278.945L148.465 279.138Z" fill="#B6F5FF"/>
<path d="M99.7261 290.097H98.4486L86.293 314.047H88.3254L100.152 290.039L99.7261 290.097Z" fill="#B6F5FF"/>
<path d="M227.128 224.017L226.644 224.501L226.179 224.985L225.695 225.469L238.199 237.899L238.78 237.318L239.341 236.737L239.922 236.176L240.483 235.595L227.612 223.533L227.128 224.017Z" fill="#B6F5FF"/>
<path d="M108.611 289.71H108.146H107.682H107.236L96.668 313.776H97.2099H97.7519H98.2939H98.8359L109.056 289.671L108.611 289.71Z" fill="#B6F5FF"/>
<path d="M104.1 290.02H102.764L91.4023 314.047H93.4928L104.526 290L104.1 290.02Z" fill="#B6F5FF"/>
<path d="M118.076 288.432H117.611L117.127 288.529H116.643L107.778 312.575H108.34L108.92 312.479H109.482L110.043 312.362L118.56 288.354L118.076 288.432Z" fill="#B6F5FF"/>
<path d="M132.863 284.754L132.341 284.908L131.838 285.063L131.334 285.218L125.218 308.839L125.818 308.665L126.418 308.49L127.037 308.316L127.637 308.142L133.444 284.599L132.863 284.754Z" fill="#B6F5FF"/>
<path d="M137.993 283.127L137.471 283.321L136.967 283.475L136.445 283.65L131.296 307.038L131.915 306.844L132.515 306.651L133.135 306.438L133.754 306.244L138.496 283.011L137.993 283.127Z" fill="#B6F5FF"/>
<path d="M122.856 287.444L122.353 287.561L121.869 287.657L121.366 287.754L113.41 311.704L113.991 311.588L114.572 311.472L115.152 311.356L115.733 311.24L123.34 287.348L122.856 287.444Z" fill="#B6F5FF"/>
<path d="M127.754 286.225L127.25 286.36L126.747 286.496L126.244 286.612L119.198 310.426L119.779 310.291L120.379 310.136L120.979 310L121.56 309.845L128.238 286.108L127.754 286.225Z" fill="#B6F5FF"/>
<path d="M80.0789 287.251L79.7305 287.135L79.3821 287.019H79.0337L63.5488 309.865L63.8779 309.923L64.2844 310.059L64.6908 310.213L65.0973 310.349L80.3693 287.348L80.0789 287.251Z" fill="#B6F5FF"/>
<path d="M76.6338 286.031L76.3047 285.915L75.9563 285.779L75.6273 285.625L59.5811 308.161L59.9682 308.335L60.3553 308.51L60.7424 308.684L61.1295 308.839L76.9822 286.167L76.6338 286.031Z" fill="#B6F5FF"/>
<path d="M73.3638 284.618L73.0347 284.463L72.725 284.327L72.396 284.172L55.8271 306.341L56.1949 306.515L56.5627 306.709L56.9304 306.903L57.2982 307.096L73.6735 284.753L73.3638 284.618Z" fill="#B6F5FF"/>
<path d="M70.2474 283.011L69.9571 282.836L69.6668 282.662L69.3571 282.488L52.2656 304.25L52.5947 304.482L52.9431 304.695L53.2915 304.908L53.6399 305.121L70.5184 283.185L70.2474 283.011Z" fill="#B6F5FF"/>
<path d="M95.4869 289.961H94.6545H94.2481L81.2988 313.795H81.7827H82.2666H82.7505H83.2538L95.8353 289.903L95.4869 289.961Z" fill="#B6F5FF"/>
<path d="M67.3425 281.21L67.0521 281.016C66.9543 280.963 66.8633 280.898 66.7811 280.823L66.4908 280.629L49.0703 301.926L49.3994 302.159L49.7284 302.41L50.0381 302.643L50.3672 302.856L67.7877 281.365L67.3425 281.21Z" fill="#B6F5FF"/>
<path d="M91.4027 289.613H90.9962H90.6091H90.2026L76.6533 313.253H77.1179H77.5824H78.047H78.5115L91.8285 289.535L91.4027 289.613Z" fill="#B6F5FF"/>
<path d="M87.4739 289.032H87.0867H86.6996H86.3318L72.0664 312.459L72.5116 312.556L72.9761 312.653H73.4213H73.8665L87.861 289.148L87.4739 289.032Z" fill="#B6F5FF"/>
<path d="M83.6991 288.238H83.3313H82.9635L82.6151 288.142L67.7109 311.375L68.1368 311.511L68.5626 311.627L69.0078 311.743L69.4336 311.859L84.0668 288.626L83.6991 288.238Z" fill="#B6F5FF"/>
<path d="M143.238 281.249L142.716 281.442L142.213 281.636L141.69 281.83L137.432 304.947L138.051 304.715L138.67 304.482L139.29 304.269L139.909 304.018L143.664 281.055L143.238 281.249Z" fill="#B6F5FF"/>
<path d="M113.237 289.187H112.772H112.308H111.843L102.165 313.272H102.707H103.268H103.83H104.372L113.759 289.206L113.237 289.187Z" fill="#B6F5FF"/>
<path d="M211.818 238.48L211.315 238.925L210.812 239.371L220.373 254.53L220.993 254.008L221.593 253.466L222.212 252.923L222.812 252.401L212.921 237.589L212.399 238.035L211.818 238.48Z" fill="#B6F5FF"/>
<path d="M206.708 242.855L206.185 243.281L205.682 243.707L214.218 259.738L214.837 259.215L215.456 258.712L216.076 258.189L216.792 257.647L207.83 241.984L207.308 242.41L206.708 242.855Z" fill="#B6F5FF"/>
<path d="M64.5955 279.216L64.3438 279.003L64.0728 278.79L63.8212 278.577L45.8975 299.449L46.1878 299.72L46.4975 299.971L46.7878 300.223L47.0975 300.494L64.8664 279.429L64.5955 279.216Z" fill="#B6F5FF"/>
<path d="M202.023 246.669L201.5 247.095L200.978 247.502L200.455 247.908L207.946 264.753L208.585 264.269L209.204 263.765L209.843 263.281L210.462 262.778L202.546 246.263L202.023 246.669Z" fill="#B6F5FF"/>
<path d="M221.805 229.283L221.321 229.767L220.837 230.232L232.451 243.591L233.031 243.03L233.612 242.468C233.806 242.275 233.999 242.081 234.212 241.907L234.793 241.326L222.831 228.334C222.676 228.489 222.521 228.664 222.347 228.819L221.805 229.283Z" fill="#B6F5FF"/>
<path d="M102.592 102.157V102.254H102.495L102.108 102.641L101.74 103.028C101.602 103.147 101.472 103.277 101.353 103.415L100.966 103.802L109.579 111.992L109.908 111.644L110.237 111.315C110.237 111.198 110.45 111.102 110.566 110.985L110.895 110.656L102.592 102.157Z" fill="#B6F5FF"/>
<path d="M216.792 233.949L216.308 234.414L215.805 234.859L226.392 249.147L226.973 248.586L227.573 248.044L228.173 247.502L228.773 246.94L217.798 233.02L217.295 233.484L216.792 233.949Z" fill="#B6F5FF"/>
<path d="M196.778 250.755L196.255 251.161L195.732 251.568C195.544 251.686 195.363 251.815 195.19 251.955L201.617 269.593L202.255 269.109L202.894 268.645L203.533 268.161L204.172 267.677L197.3 250.368L196.778 250.755Z" fill="#B6F5FF"/>
<path d="M105.843 115.884L106.23 115.477L106.636 115.071L107.023 114.645L98.0421 106.9C97.8838 107.052 97.7351 107.214 97.5969 107.384L97.1324 107.849L96.6872 108.333L96.2227 108.798L105.456 116.31L105.843 115.884Z" fill="#B6F5FF"/>
<path d="M88.6738 116.968L88.248 117.452L87.8028 117.956L87.377 118.44L97.8292 124.655L98.197 124.229L98.5841 123.803L98.9519 123.377L99.3197 122.97L89.0416 116.484L88.6738 116.968Z" fill="#B6F5FF"/>
<path d="M169.931 268.529L169.389 268.838L168.847 269.148L168.305 269.438L169.35 290.407L169.989 290.039L170.627 289.69L171.286 289.323L171.924 288.955L170.453 268.219L169.931 268.529Z" fill="#B6F5FF"/>
<path d="M159.13 274.26L158.588 274.531L158.065 274.782L157.523 275.053L156.439 297.009L157.078 296.699L157.717 296.39L158.375 296.08L159.014 295.77L159.672 274.008L159.13 274.26Z" fill="#B6F5FF"/>
<path d="M164.53 271.51L164.008 271.781L163.466 272.071L162.924 272.362V293.834L163.582 293.504L164.221 293.175L164.879 292.827L165.518 292.498L165.111 271.2L164.53 271.51Z" fill="#B6F5FF"/>
<path d="M153.768 276.815L153.246 277.048L152.704 277.299L152.181 277.532L150.052 299.933L150.691 299.642L151.329 299.371L151.968 299.081L152.607 298.79L154.31 276.563L153.768 276.815Z" fill="#B6F5FF"/>
<path d="M191.474 254.685L190.951 255.053L190.409 255.44L189.887 255.808L195.248 274.201L195.887 273.756L196.526 273.291L197.165 272.846L197.803 272.381L191.997 254.298L191.474 254.685Z" fill="#B6F5FF"/>
<path d="M175.332 265.392C175.158 265.513 174.977 265.623 174.79 265.721L174.248 266.05L173.706 266.379L175.816 286.689L176.474 286.302L177.132 285.915L177.771 285.528L178.429 285.121L175.874 264.985C175.703 265.133 175.522 265.269 175.332 265.392Z" fill="#B6F5FF"/>
<path d="M186.132 258.422L185.59 258.789L185.067 259.157L184.525 259.506L188.803 278.596L189.442 278.17L190.1 277.744L190.739 277.299L191.377 276.873L186.674 258.054L186.132 258.422Z" fill="#B6F5FF"/>
<path d="M180.751 261.984L180.209 262.333L179.667 262.681L179.125 263.03L182.319 282.817L182.977 282.41L183.616 282.004L184.274 281.597L184.912 281.171L181.293 261.674L180.751 261.984Z" fill="#B6F5FF"/>
<path d="M36.3544 292.691C35.4906 288.524 34.9406 284.298 34.7091 280.048C34.4292 275.574 34.4292 271.086 34.7091 266.612C35.023 261.886 35.5916 257.181 36.4124 252.517L26.2118 257.647C25.2974 262.663 24.6513 267.723 24.2762 272.807C23.9136 277.633 23.8489 282.476 24.0826 287.309C24.3026 291.859 24.8459 296.388 25.7085 300.862C26.5292 305.175 27.7141 309.411 29.2507 313.524L39.7998 304.211C38.3258 300.476 37.1732 296.622 36.3544 292.691Z" fill="#3F5F6C"/>
<path d="M70.267 171.896C71.9704 169.282 73.7124 166.649 75.5319 164.016C77.3514 161.383 79.2096 158.769 81.1258 156.136C83.0421 153.503 84.997 150.889 87.0875 148.275C89.1779 145.661 90.8039 143.551 92.7201 141.247C94.6364 138.943 96.5913 136.658 98.5269 134.412C100.463 132.167 102.398 129.959 104.334 127.772C106.269 125.584 108.399 123.435 110.334 121.324L105.689 117.316C103.521 119.575 101.372 121.873 99.2431 124.209C97.1139 126.545 95.0041 128.914 92.9137 131.315C90.8426 133.715 88.7715 136.136 86.7391 138.594C84.7067 141.053 82.713 143.57 80.7387 146.087C78.5321 148.901 76.4158 151.702 74.3899 154.49C72.3639 157.278 70.3638 160.086 68.3895 162.912C66.4281 165.726 64.5441 168.527 62.7375 171.315C60.9374 174.142 59.176 176.93 57.4727 179.737H65.3506C66.9378 177.162 68.5637 174.529 70.267 171.896Z" fill="#3F5F6C"/>
<path d="M41.4834 231.935C43.006 226.966 44.7868 221.925 46.8257 216.814C48.8645 211.703 51.1227 206.578 53.6003 201.441C56.0908 196.278 58.8135 191.115 61.7686 185.952L53.6196 186.359C50.4452 191.935 47.516 197.479 44.832 202.99C42.1479 208.502 39.7026 213.987 37.496 219.447C35.3088 224.907 33.3732 230.328 31.6892 235.653C30.0052 240.977 28.5922 246.301 27.4502 251.471L37.5928 246.747C38.7154 241.848 39.9349 236.931 41.4834 231.935Z" fill="#3F5F6C"/>
<path d="M129.535 102.757C134.232 98.5358 138.994 94.4829 143.82 90.5977C148.659 86.7254 153.498 82.9887 158.492 79.4456C163.485 75.9025 168.421 72.5336 173.415 69.339L172.97 61.73C167.628 65.1634 162.311 68.771 157.021 72.553C151.73 76.3349 146.491 80.3297 141.303 84.5376C136.142 88.6809 131.051 93.0114 126.031 97.529C121.012 102.047 116.089 106.719 111.263 111.547L115.637 115.903C120.218 111.372 124.851 106.99 129.535 102.757Z" fill="#3F5F6C"/>
<path d="M257.614 35.7278C261.311 35.2244 264.969 34.8953 268.55 34.721C272.09 34.5369 275.637 34.5369 279.176 34.721C282.609 34.8953 286.028 35.2702 289.416 35.844L292.048 36.328C292.919 36.5216 293.771 36.6959 294.623 36.9088C295.474 37.1218 296.307 37.3154 297.12 37.5478L299.578 38.2641L308.482 27.6541C307.611 27.4024 306.74 27.1507 305.83 26.9184C304.92 26.6861 304.03 26.4537 303.12 26.2601C302.21 26.0665 301.281 25.8535 300.333 25.6793L297.507 25.3114C293.832 24.7445 290.13 24.3761 286.416 24.2078C282.598 24.0147 278.774 24.0147 274.957 24.2078C271.086 24.4014 267.214 24.808 263.188 25.3695C259.162 25.931 255.214 26.6667 251.168 27.5767L246.445 37.722C250.226 36.8959 253.949 36.2312 257.614 35.7278Z" fill="#3F5F6C"/>
<path d="M210.153 49.7066C215.263 47.4607 220.373 45.4471 225.445 43.6852C230.516 41.9233 235.568 40.3744 240.562 39.0966L244.839 29.1836C239.478 30.5776 234.058 32.262 228.6 34.1982C223.141 36.1343 217.702 38.2834 212.224 40.7036C206.747 43.1237 201.307 45.6601 195.83 48.5449C190.352 51.4297 184.913 54.4695 179.493 57.7415V65.6409C184.564 62.5819 189.674 59.7164 194.765 57.0639C199.856 54.4114 205.043 51.9138 210.153 49.7066Z" fill="#3F5F6C"/>
<path d="M186.403 317.667C180.171 321.055 173.938 324.115 167.783 326.844C161.627 329.574 155.55 331.936 149.569 333.969L147.11 347C153.595 344.85 160.176 342.295 166.834 339.391C173.493 336.486 180.267 333.176 187.023 329.536C193.778 325.896 200.572 321.791 207.443 317.474C214.315 313.156 220.993 308.393 227.787 303.359L224.012 293.543C217.831 298.19 211.592 302.54 205.295 306.593C198.998 310.645 192.7 314.337 186.403 317.667Z" fill="#3F5F6C"/>
<path d="M330.083 160.144C327.683 166.146 324.941 172.251 321.857 178.46C318.76 184.675 315.295 190.986 311.463 197.318C307.63 203.649 303.449 210.096 298.9 216.524L309.159 219.66C314.076 212.69 318.592 205.733 322.708 198.789C326.825 191.845 330.573 185.004 333.954 178.266C337.284 171.528 340.226 164.9 342.781 158.382C345.336 151.864 347.491 145.507 349.246 139.311L336.142 142.506C334.458 148.275 332.444 154.161 330.083 160.144Z" fill="#3F5F6C"/>
<path d="M72.9567 337.358C71.9502 336.951 71.0211 336.545 69.9953 336.099C68.9694 335.654 68.0596 335.209 67.1112 334.725C66.1627 334.241 65.1756 333.737 64.3239 333.215C62.3241 332.058 60.3859 330.798 58.5171 329.439C56.7493 328.1 55.0563 326.665 53.4458 325.141C51.8792 323.632 50.3993 322.035 49.0132 320.359C47.6186 318.703 46.3258 316.963 45.142 315.15C44.7936 314.647 44.4646 314.105 44.1549 313.582C43.8452 313.059 43.5161 312.517 43.2258 311.956C42.9354 311.394 42.6257 310.872 42.3354 310.31C42.045 309.749 41.7741 309.206 41.5031 308.645L31.0508 318.326C31.3218 318.926 31.6121 319.545 31.9218 320.146L32.8509 321.927L33.8381 323.689C34.1671 324.27 34.5155 324.831 34.8833 325.412C36.1566 327.427 37.5461 329.367 39.0449 331.22C42.0115 334.91 45.3956 338.243 49.1294 341.153C51.0777 342.666 53.1136 344.062 55.2266 345.335C56.1944 345.916 57.1622 346.458 58.188 347C59.2139 347.542 60.2204 348.045 61.2657 348.529C62.3109 349.013 63.3755 349.478 64.4401 349.923C65.5046 350.369 66.6079 350.775 67.7306 351.182L76.0344 338.558C74.9891 338.145 73.9633 337.745 72.9567 337.358Z" fill="#3F5F6C"/>
<path d="M332.541 40.5679C330.226 38.5736 327.761 36.7611 325.167 35.1468C324.257 34.5853 323.231 34.0238 322.379 33.5011C321.528 32.9783 320.444 32.4749 319.495 31.9909C318.547 31.5068 317.56 31.0422 316.476 30.5969C315.392 30.1516 314.424 29.745 313.359 29.3384L304.068 39.8903C305.036 40.2775 306.004 40.6647 306.933 41.0907C307.862 41.5166 308.869 41.9426 309.701 42.4073C310.533 42.8719 311.482 43.356 312.353 43.8594C313.224 44.3628 314.075 44.8661 314.908 45.4083C317.278 46.9356 319.535 48.6308 321.663 50.4809C323.743 52.3571 325.684 54.3825 327.47 56.541C329.285 58.7419 330.928 61.0785 332.386 63.5305C333.864 66.0544 335.157 68.6814 336.258 71.3911L348.645 62.7754C347.435 59.8668 346.012 57.0517 344.387 54.3532C342.771 51.7418 340.959 49.2564 338.967 46.9184C336.995 44.6365 334.846 42.5131 332.541 40.5679Z" fill="#3F5F6C"/>
<path d="M341.193 88.9133C341.893 93.6374 342.242 98.4069 342.238 103.183C342.23 108.401 341.888 113.613 341.212 118.788C340.475 124.473 339.409 130.11 338.019 135.671L351.239 131.799C352.687 125.82 353.785 119.763 354.529 113.657C355.225 108.083 355.549 102.469 355.497 96.8514C355.451 91.7211 355.018 86.6016 354.2 81.5366C353.438 76.9041 352.285 72.3444 350.755 67.9062L338.135 76.1929C339.512 80.3389 340.535 84.5943 341.193 88.9133Z" fill="#3F5F6C"/>
<path d="M288.023 231.045C285.209 234.582 282.332 238.06 279.39 241.481C276.448 244.901 273.454 248.264 270.409 251.568C267.35 254.859 264.247 258.086 261.098 261.248C258.698 263.649 256.279 265.992 253.82 268.315C251.362 270.639 248.923 272.885 246.426 275.111C243.929 277.338 241.432 279.506 238.897 281.636C236.361 283.766 233.826 285.837 231.271 287.87L235.684 297.202C238.452 294.995 241.22 292.749 243.968 290.426C246.717 288.103 249.465 285.76 252.175 283.34C254.885 280.92 257.556 278.461 260.227 275.963C262.898 273.465 265.511 270.89 268.125 268.219C271.551 264.792 274.938 261.287 278.248 257.705C281.558 254.124 284.829 250.464 288.023 246.728C291.216 242.991 294.333 239.215 297.372 235.362C300.41 231.509 303.372 227.618 306.256 223.629L296.152 220.241C293.571 223.894 290.861 227.495 288.023 231.045Z" fill="#3F5F6C"/>
<path d="M125.529 340.378C120.23 341.348 114.878 341.994 109.502 342.314C104.536 342.623 99.5554 342.571 94.5976 342.159C90.0261 341.782 85.494 341.024 81.0483 339.894L73.1123 352.673C77.913 353.964 82.8149 354.845 87.7649 355.306C93.0984 355.807 98.4615 355.917 103.811 355.635C109.613 355.343 115.392 354.696 121.115 353.699C127.272 352.593 133.365 351.158 139.368 349.401L142.504 336.293C136.922 337.956 131.256 339.32 125.529 340.378Z" fill="#3F5F6C"/>
<path d="M130.385 228.876C129.069 228.469 127.792 228.024 126.514 227.54C125.237 227.056 124.133 226.533 123.011 225.991C119.836 227.553 116.701 228.986 113.604 230.289C110.507 231.593 107.481 232.755 104.526 233.774C101.519 234.781 98.5768 235.652 95.6992 236.388C92.8345 237.124 90.0085 237.705 87.2793 238.15C87.7826 239.273 88.3632 240.377 88.9633 241.442C89.5633 242.506 90.2408 243.571 90.8989 244.597C91.609 245.636 92.3713 246.637 93.1829 247.598C93.9959 248.566 94.8669 249.535 95.7766 250.406C99.1704 249.425 102.616 248.276 106.113 246.96C109.636 245.643 113.216 244.171 116.817 242.545C120.417 240.919 124.095 239.099 127.753 237.143C131.411 235.188 135.128 233.058 138.844 230.793C137.315 230.58 135.863 230.309 134.431 229.98C132.998 229.65 131.624 229.302 130.385 228.876Z" fill="#67D2F9"/>
<path d="M71.8725 239.08C69.5864 238.954 67.3106 238.682 65.0591 238.266C62.9539 237.873 60.878 237.336 58.8458 236.659C56.9366 236.044 55.0737 235.294 53.2713 234.414C53.039 235.924 52.8454 237.473 52.6712 239.002C52.497 240.532 52.3615 242.081 52.2454 243.63C52.1293 245.178 52.0906 246.708 52.0712 248.238C52.0518 249.767 52.0712 251.277 52.168 252.768C54.5929 253.445 57.0642 253.943 59.562 254.259C62.2574 254.616 64.9726 254.804 67.6916 254.82C70.6267 254.857 73.5614 254.715 76.4792 254.394C79.6374 254.069 82.7771 253.585 85.8863 252.942C85.1314 251.916 84.4346 250.832 83.7765 249.728C83.1184 248.625 82.5377 247.463 81.9957 246.301C81.4538 245.14 80.9505 243.959 80.5053 242.758C80.0601 241.558 79.6536 240.222 79.3633 239.06C76.8689 239.215 74.3676 239.221 71.8725 239.08Z" fill="#67D2F9"/>
<path d="M234.831 104.228L236.128 104.518L237.444 104.848C239.099 99.7826 240.392 94.6066 241.315 89.3586C242.159 84.7261 242.606 80.0301 242.651 75.3216C242.693 71.1686 242.303 67.0224 241.489 62.9497C240.764 59.3266 239.573 55.8125 237.947 52.4946L246.58 45.9892C245.093 43.0151 243.204 40.2594 240.967 37.7994C238.793 35.4004 236.314 33.2978 233.592 31.5457C230.804 29.7617 227.815 28.3125 224.688 27.2281C221.378 26.0778 217.96 25.2606 214.488 24.7886C214.488 26.0083 214.604 27.2281 214.604 28.4672C214.604 29.7063 214.604 30.9455 214.604 32.204C214.604 33.4624 214.41 34.7596 214.255 36.0762C214.1 37.3928 213.907 38.7094 213.655 40.0453C214.294 40.2776 214.894 40.5293 215.494 40.8004C216.094 41.0714 216.694 41.3425 217.275 41.6329L218.978 42.5623L220.643 43.5497L222.191 44.6726C222.695 45.0599 223.198 45.4471 223.682 45.8537C224.166 46.2603 224.65 46.6862 225.114 47.1315C225.579 47.5768 226.024 48.0221 226.45 48.4868C227.332 49.4257 228.159 50.4147 228.927 51.4491C229.71 52.5013 230.428 53.6005 231.076 54.7405C231.753 55.9009 232.354 57.1038 232.876 58.3417C233.431 59.6025 233.909 60.8956 234.308 62.214C235.2 65.0775 235.81 68.0216 236.128 71.004C236.481 74.2959 236.578 77.6101 236.418 80.917C236.227 84.5816 235.794 88.2294 235.121 91.8368C234.408 95.8457 233.458 99.8088 232.276 103.705L233.573 103.957L234.831 104.228Z" fill="#67D2F9"/>
<path d="M175.698 194.587L179.782 190.715C181.137 189.418 182.473 188.121 183.808 186.843C189.789 180.86 195.422 174.587 200.784 168.159C206.145 161.731 210.984 155.032 215.475 148.449C219.78 142.054 223.735 135.429 227.321 128.604C230.6 122.345 233.464 115.877 235.896 109.243L234.657 108.856L233.399 108.488L232.16 108.139L230.902 107.81C229.079 113.041 226.953 118.161 224.534 123.144C221.942 128.551 219.08 133.824 215.959 138.943C212.746 144.267 209.184 149.592 205.332 154.839C201.481 160.086 197.338 165.333 192.925 170.328C191.957 171.451 190.99 172.574 189.983 173.677L186.963 176.988C185.938 178.092 184.912 179.176 183.866 180.241C182.821 181.306 181.95 182.467 180.808 183.532C177.079 187.25 173.246 190.844 169.311 194.316C165.439 197.782 161.375 201.093 157.329 204.249C153.284 207.405 149.161 210.348 145.019 213.136C140.877 215.924 136.754 218.479 132.631 220.88C133.889 221.267 135.186 221.635 136.502 221.945C137.818 222.255 139.251 222.545 140.702 222.778C142.154 223.01 143.644 223.203 145.174 223.339C146.703 223.475 148.309 223.571 149.955 223.61C151.677 222.41 153.419 221.19 155.142 219.951C156.865 218.712 158.568 217.434 160.291 216.079C162.013 214.723 163.697 213.445 165.401 212.09C167.104 210.735 168.769 209.36 170.453 207.947L167.24 201.906C168.672 200.725 170.085 199.505 171.479 198.285C172.872 197.066 174.305 195.846 175.698 194.587Z" fill="#67D2F9"/>
<path d="M241.955 52.2232C243.803 56.541 245.003 61.1078 245.517 65.7761C246.137 71.1602 246.137 76.5975 245.517 81.9816C244.814 88.2247 243.557 94.3929 241.762 100.414C239.742 107.276 237.219 113.98 234.213 120.472C232.626 123.918 230.903 127.403 229.026 130.888C227.148 134.373 225.154 137.916 222.948 141.44C220.741 144.964 218.476 148.507 216.038 152.011C213.599 155.516 211.024 159.04 208.295 162.486C206.94 164.228 205.585 165.952 204.192 167.675C202.798 169.398 201.366 171.082 199.933 172.786C198.501 174.49 197.011 176.155 195.52 177.82C194.03 179.485 192.501 181.15 190.971 182.777L189.694 184.074L188.397 185.41L187.081 186.746L185.784 188.062L182.3 191.489L178.758 194.839C177.558 195.942 176.377 197.046 175.157 198.13C173.938 199.214 172.738 200.279 171.519 201.344L175.758 208.411C176.261 208.004 176.745 207.578 177.229 207.152L178.7 205.855L180.151 204.558L181.603 203.222L183.035 201.906L184.468 200.57L185.9 199.234C186.384 198.788 186.849 198.324 187.313 197.859L184.158 194.277L187.874 190.676L188.784 189.747L189.675 188.817L190.584 187.888L191.475 186.959C192.094 186.352 192.694 185.707 193.275 185.022C193.875 184.403 194.456 183.764 195.036 183.086L196.778 181.15L198.52 179.214L202.508 181.925L203.979 180.26L205.45 178.575C205.914 178.014 206.398 177.452 206.882 176.91L208.334 175.226L204.017 172.902C205.101 171.586 206.185 170.289 207.25 169.03C208.315 167.772 209.379 166.397 210.424 165.158C211.47 163.919 212.476 162.505 213.483 161.169C214.489 159.833 215.418 158.497 216.425 157.162L221.457 158.556L222.715 156.813L223.954 155.071L225.154 153.328C225.541 152.747 225.948 152.166 226.316 151.566L221.051 150.559C221.98 149.223 222.87 147.868 223.741 146.513C224.612 145.158 225.483 143.822 226.296 142.466L228.755 138.42C229.548 137.064 230.322 135.709 231.116 134.373H236.923L240.639 127.403L234.639 127.732C234.949 127.055 235.278 126.396 235.607 125.796L236.613 123.86C236.942 123.182 237.271 122.524 237.581 121.924C237.891 121.324 238.2 120.607 238.471 119.988L240.252 116.116L241.82 112.243L248.207 111.004C248.44 110.443 248.653 109.881 248.866 109.339C249.078 108.797 249.291 108.216 249.485 107.674L250.066 106.028L250.646 104.363L244.181 105.97C244.414 105.331 244.627 104.692 244.839 104.034C245.052 103.376 245.246 102.795 245.44 102.098C245.633 101.401 245.807 100.839 246.001 100.162C246.194 99.4842 246.369 98.9227 246.562 98.2257L247.046 96.4057C247.201 95.7862 247.375 95.186 247.53 94.5664L247.995 92.7658C248.13 92.1656 248.266 91.5654 248.362 90.9846L255.021 88.5838C255.137 88.061 255.234 87.5576 255.35 87.0542L255.64 85.5247C255.64 85.0213 255.834 84.5179 255.911 84.0145L256.143 82.543L249.485 85.3311C249.698 84.1694 249.853 83.0464 250.008 81.9041C250.162 80.7618 250.259 79.6776 250.356 78.5933C250.453 77.5091 250.511 76.4055 250.569 75.3406C250.627 74.2758 250.569 73.2109 250.685 72.1654L257.324 68.7578C257.324 68.3125 257.324 67.8865 257.324 67.4412C257.324 66.9959 257.324 66.5506 257.324 66.1053C257.324 65.66 257.324 65.234 257.324 64.8081C257.324 64.3821 257.324 63.9368 257.227 63.5302L250.627 67.1895C250.627 66.1827 250.491 65.2534 250.375 64.2466C250.259 63.2398 250.143 62.3105 250.008 61.4198C249.872 60.5292 249.678 59.5805 249.504 58.6899C249.33 57.7993 249.117 56.9087 248.904 56.0374L255.311 51.8166C255.311 51.5068 255.137 51.1777 255.04 50.8679C254.943 50.5581 254.827 50.229 254.73 49.9192C254.634 49.6094 254.518 49.2997 254.421 48.9899L254.111 48.0412C254.014 47.7314 253.898 47.4216 253.782 47.1312L253.414 46.2406L253.027 45.3693L252.659 44.498L241.955 52.2232Z" fill="#FF5700"/>
<path d="M131.296 54.9532C132.38 55.05 133.444 55.1661 134.47 55.321C135.496 55.4759 136.406 55.6502 137.451 55.8632C140.142 54.2949 142.813 52.8428 145.484 51.4488C148.155 50.0548 150.845 48.7769 153.497 47.5765C156.149 46.3761 158.801 45.2725 161.433 44.2657C164.066 43.2589 166.659 42.3296 169.176 41.5358C168.595 40.8581 167.976 40.1998 167.24 39.5996C166.505 38.9994 165.885 38.3799 165.169 37.8184C164.429 37.256 163.66 36.7326 162.866 36.2501C162.05 35.7388 161.203 35.2796 160.33 34.8755C157.349 36.1662 154.349 37.5473 151.329 39.0188C148.31 40.4903 145.29 42.0714 142.271 43.7623C139.271 45.4468 136.251 47.2086 133.251 49.0867C130.251 50.9647 127.25 52.959 124.27 54.8951C125.47 54.8951 126.65 54.7983 127.792 54.7983C128.934 54.7983 130.212 54.8757 131.296 54.9532Z" fill="#67D2F9"/>
<path d="M175.369 37.1411C175.911 37.8768 176.414 38.6319 176.898 39.4064C179.414 38.8256 181.872 38.3415 184.292 37.9737C186.711 37.6058 189.092 37.3541 191.395 37.2186C193.699 37.083 196.002 37.0443 198.209 37.2186C200.36 37.3068 202.505 37.5071 204.635 37.8188C204.635 36.6571 204.635 35.476 204.635 34.3144C204.635 33.1527 204.5 31.991 204.383 30.868C204.267 29.7451 204.093 28.6221 203.861 27.5573C203.629 26.4924 203.396 25.4275 203.087 24.4014C200.493 24.4014 197.841 24.6918 195.112 25.0403C192.383 25.3888 189.634 25.8341 186.827 26.4149C184.021 26.9958 181.156 27.7122 178.253 28.5447C175.349 29.3772 172.446 30.3259 169.484 31.4102C170.257 31.9351 170.994 32.5107 171.691 33.1333C172.373 33.741 173.019 34.3875 173.627 35.0695C174.242 35.7297 174.824 36.4212 175.369 37.1411Z" fill="#67D2F9"/>
<path d="M39.5661 169.921C40.7275 166.397 42.0759 162.822 43.6115 159.195L42.7599 158.905L41.9082 158.595L41.0759 158.266L40.2436 157.937C38.2001 162.479 36.3975 167.125 34.8432 171.857C33.3634 176.301 32.1419 180.826 31.1849 185.41C30.318 189.632 29.7424 193.908 29.4622 198.208C29.2177 202.14 29.3278 206.087 29.7913 209.999L22.0488 215.808C22.4104 219.337 23.1303 222.821 24.1974 226.205C25.2006 229.377 26.5781 232.419 28.3008 235.266C29.9787 238.04 32.0014 240.59 34.3206 242.855C36.6927 245.114 39.3395 247.066 42.1985 248.664C42.3921 247.018 42.6244 245.392 42.876 243.765C43.1276 242.139 43.3986 240.532 43.7277 238.906C44.0567 237.279 44.3858 235.692 44.7729 234.085C45.16 232.478 45.6052 230.851 46.0698 229.225C45.5859 228.799 45.1407 228.354 44.6955 227.889C44.2503 227.424 43.8244 226.96 43.418 226.476C43.0115 225.992 42.6244 225.488 42.2372 224.985L41.0952 223.455C40.7468 222.913 40.4178 222.352 40.0887 221.79C39.7597 221.229 39.45 220.667 39.1596 220.106C38.8693 219.544 38.5596 218.944 38.2886 218.344C38.0176 217.744 37.766 217.143 37.5337 216.408C37.0563 215.117 36.6304 213.826 36.2562 212.535C35.8884 211.219 35.5787 209.864 35.3078 208.47C35.0368 207.076 34.8626 205.662 34.7077 204.191C34.5529 202.719 34.4948 201.248 34.4561 199.718C34.3834 196.609 34.5127 193.498 34.8432 190.405C35.2339 187.033 35.809 183.685 36.5659 180.376C37.3918 176.969 38.3918 173.484 39.5661 169.921Z" fill="#67D2F9"/>
<path d="M69.6854 115.981C73.0147 111.702 76.5375 107.481 80.1958 103.357L82.6347 100.646L85.1316 97.9552L87.6673 95.3221C88.5189 94.4314 89.3706 93.5602 90.2416 92.7083C93.2741 89.6621 96.384 86.7063 99.5713 83.8408C102.746 80.956 105.997 78.1873 109.249 75.4961C112.501 72.8048 115.888 70.2491 119.256 67.7515C122.624 65.2539 126.05 62.9499 129.476 60.7427C128.451 60.6459 127.386 60.5685 126.283 60.5491C125.179 60.5298 124.037 60.5491 122.895 60.5491C121.753 60.5491 120.534 60.6653 119.334 60.7621C118.134 60.8589 116.876 61.0332 115.598 61.2268C114.224 62.2529 112.869 63.2791 111.495 64.3439L107.43 67.5579C106.094 68.6422 104.739 69.7458 103.404 70.8687C102.068 71.9917 100.752 73.1146 99.5326 74.2763L101.584 78.1486C100.462 79.136 99.3196 80.0847 98.197 81.1496C97.0743 82.2144 95.971 83.0857 94.8677 84.2087L91.4223 87.2677L88.1899 90.443C83.3509 95.2833 78.7054 100.298 74.3116 105.448C69.9177 110.598 65.6981 115.884 61.8075 121.247C57.9169 126.61 54.2006 132.147 50.9487 137.607C47.7066 142.927 44.7349 148.406 42.0449 154.026L42.8192 154.413L43.6128 154.8L44.4064 155.168L45.2193 155.516C47.1549 151.121 49.4777 146.688 51.994 142.254C54.5103 137.82 57.2201 133.406 60.1816 129.011C63.1431 124.616 66.2594 120.279 69.6854 115.981Z" fill="#67D2F9"/>
<path d="M27.1009 194.8C27.8015 189.342 28.9144 183.944 30.4302 178.653C32.0876 172.881 34.098 167.217 36.4499 161.692C38.986 155.738 41.8354 149.921 44.9859 144.267C46.6119 141.363 48.3152 138.459 50.096 135.574C51.8767 132.689 53.7543 129.766 55.7092 126.958C57.6642 124.151 59.7934 121.344 61.9419 118.517C64.0904 115.69 66.2389 112.921 68.4843 110.153C69.6069 108.759 70.7489 107.403 71.9103 106.029C73.0717 104.654 74.233 103.318 75.4331 101.963C76.6332 100.608 77.8139 99.2716 79.0333 97.955C80.2528 96.6385 81.4722 95.3025 82.711 94.0828L83.7562 92.9985L84.8014 91.9337L85.8467 90.8688L86.8919 89.8039L89.6792 87.0546L92.5052 84.344L95.3699 81.6722L98.2733 79.0584L95.5828 74.5859L94.4408 75.6121L93.2988 76.6382L92.1374 77.5869L90.9954 78.6518L89.8727 79.6973L88.7501 80.7622L87.6274 81.8271L86.5241 82.9113L88.4597 85.1379L85.5563 88.0227L84.8402 88.7584L84.124 89.4941C83.8724 89.7265 83.6401 89.9782 83.4078 90.2299C83.1755 90.4816 82.9239 90.7139 82.6916 90.9656C82.4594 91.2173 81.7238 91.9337 81.2593 92.4371C80.7947 92.9405 80.3108 93.4245 79.8463 93.9279L78.4333 95.4381L77.0396 96.9482L74.5427 95.2638C74.1362 95.6898 73.7491 96.1157 73.362 96.561L72.1813 97.8582L71.0199 99.1748L69.8585 100.491L72.5684 101.943C71.678 102.97 70.7876 103.996 69.9166 105.041C69.0456 106.087 68.1552 107.113 67.3035 108.158C66.4519 109.204 65.5808 110.269 64.7485 111.314C63.9162 112.36 63.0645 113.425 62.2516 114.49L59.0578 113.599L58.0707 114.954L57.0254 116.31C56.677 116.774 56.3286 117.22 55.9996 117.684L54.9737 119.059L58.361 119.717C57.5481 120.782 56.7738 121.866 55.9996 122.95C55.2253 124.035 54.4704 125.119 53.7349 126.203C52.9994 127.287 52.2445 128.372 51.5283 129.456L49.3604 132.747H45.4892L41.9664 138.381L45.9537 138.168L44.9859 139.814L43.9988 141.46L43.0503 143.125C42.7213 143.667 42.4309 144.229 42.1212 144.771L40.3018 148.081L38.5984 151.392L34.2239 152.225C33.9723 152.709 33.7207 153.174 33.4884 153.658L32.7916 155.071C32.5593 155.536 32.3464 156 32.1141 156.484C31.8819 156.968 31.6689 157.414 31.4367 157.898L35.9466 156.794C35.6757 157.336 35.424 157.878 35.1724 158.44C34.9208 159.001 34.6691 159.524 34.4369 160.066L33.7207 161.712C33.4691 162.254 33.2368 162.815 33.0045 163.358L32.3271 164.984C32.1141 165.526 31.8819 166.068 31.6689 166.63C31.456 167.191 31.2238 167.714 31.0108 168.256C30.7979 168.798 30.6044 169.34 30.4302 169.863L25.5911 171.605C25.4363 172.07 25.2621 172.535 25.0879 172.999C24.9137 173.464 24.7395 173.929 24.5846 174.393C24.4298 174.858 24.2556 175.323 24.1007 175.768C23.9459 176.213 23.791 176.697 23.6362 177.143L28.572 175.207C28.2042 176.291 27.8751 177.356 27.5461 178.421C27.217 179.486 26.9267 180.531 26.6364 181.577C26.346 182.622 26.075 183.687 25.8234 184.713C25.5718 185.739 25.3201 186.804 25.0879 187.83L19.9198 190.483C19.9198 190.909 19.7456 191.354 19.6488 191.799C19.552 192.245 19.4552 192.69 19.3778 193.116C19.3004 193.542 19.1843 194.007 19.1068 194.432C19.0294 194.858 18.952 195.304 18.8746 195.73L24.1007 192.845C23.933 193.852 23.7781 194.858 23.6362 195.865C23.4942 196.872 23.3587 197.821 23.2297 198.711C23.1135 199.679 23.0361 200.647 22.9587 201.635L22.7845 204.52L17.4229 208.043C17.4229 208.392 17.4229 208.76 17.4229 209.108V210.173C17.4229 210.522 17.4229 210.87 17.4229 211.238V213.348V214.375V215.401C17.4229 215.73 17.4229 216.078 17.4229 216.427L26.6557 209.67C26.3083 204.711 26.4574 199.73 27.1009 194.8Z" fill="#FF5700"/>
<path d="M160.484 160.686C156.787 164.326 153.109 167.753 149.315 170.928C145.521 174.103 141.689 177.027 137.837 179.698C133.985 182.37 130.094 184.771 126.223 186.92C122.513 189.006 118.694 190.893 114.784 192.574C111.184 194.126 107.493 195.458 103.731 196.562C100.308 197.59 96.8151 198.366 93.2792 198.886C90.0767 199.367 86.8384 199.568 83.6011 199.486C80.6782 199.43 77.7703 199.053 74.9296 198.363L67.9033 208.973C71.1286 209.786 74.4313 210.253 77.7556 210.367C81.4371 210.477 85.1214 210.276 88.7692 209.767C92.8055 209.189 96.7962 208.328 100.712 207.192C105.022 205.947 109.25 204.434 113.371 202.661C117.859 200.759 122.24 198.613 126.494 196.233C130.966 193.755 135.495 191.005 139.85 187.946C144.205 184.887 148.734 181.518 153.09 177.879C157.445 174.239 161.742 170.308 165.923 166.126L166.116 165.933L160.658 160.531L160.484 160.686Z" fill="#B6F5FF"/>
<path d="M66.8188 123.376C68.9286 119.775 71.2707 116.193 73.8063 112.631C76.342 109.068 79.1099 105.525 82.0714 102.021C85.0329 98.5164 88.1879 95.1088 91.5559 91.7399C94.9238 88.371 97.8079 85.7185 101.002 82.9692C104.195 80.2199 107.428 77.6449 110.68 75.2247C113.932 72.8045 117.241 70.5973 120.513 68.5644C123.784 66.5315 127.113 64.6921 130.404 63.0077L131.236 54.8179C127.539 56.754 123.784 58.8257 120.048 61.149C116.312 63.4724 112.596 65.9893 108.899 68.7193C105.202 71.4492 101.544 74.3728 97.924 77.49C94.3045 80.6071 90.7623 83.8986 87.2588 87.3836C83.3876 91.2559 79.8648 95.1281 76.5162 99.0004C73.1676 102.873 70.0319 106.977 67.1478 111.004C64.2638 115.032 61.5926 119.117 59.1925 123.183C56.7923 127.249 54.6244 131.334 52.7275 135.361L61.1474 134.044C62.8121 130.559 64.709 126.958 66.8188 123.376Z" fill="#B6F5FF"/>
<path d="M68.7361 196.136C67.5524 195.567 66.4079 194.92 65.31 194.2C64.2295 193.488 63.2069 192.692 62.2518 191.818C61.2808 190.937 60.3752 189.985 59.5419 188.972C58.3359 187.452 57.2915 185.811 56.4256 184.074C55.5125 182.355 54.7671 180.553 54.1996 178.691C53.6281 176.741 53.2202 174.746 52.9802 172.728C52.728 170.595 52.6245 168.447 52.6705 166.3C52.715 164.027 52.8895 161.758 53.1931 159.504C53.5222 157.181 53.9674 154.8 54.548 152.379C55.1287 149.959 55.8449 147.5 56.6966 145.022C57.5482 142.544 58.4967 140.008 59.5806 137.471L50.9478 139.233C49.709 142.118 48.6057 145.041 47.6379 147.791C46.6701 150.54 45.8571 153.406 45.1797 156.155C44.5017 158.828 43.9718 161.536 43.5925 164.267C43.2102 166.833 42.984 169.419 42.915 172.012C42.8506 174.462 42.9541 176.914 43.2247 179.35C43.4749 181.66 43.9152 183.946 44.5409 186.184C45.1421 188.337 45.939 190.43 46.9217 192.438C47.8912 194.402 49.0655 196.258 50.4252 197.975C51.3448 199.149 52.3543 200.25 53.4447 201.267C54.5272 202.275 55.6784 203.206 56.8901 204.055C58.1303 204.898 59.4234 205.662 60.7613 206.339C62.1384 207.024 63.5613 207.613 65.0197 208.101L72.4718 197.627C71.1936 197.217 69.9453 196.719 68.7361 196.136Z" fill="#B6F5FF"/>
<path d="M197.802 50.6551C196 49.2295 194.054 47.9965 191.995 46.9764C189.858 45.9601 187.628 45.1497 185.337 44.5563C182.937 43.9447 180.489 43.5366 178.02 43.3365C175.407 43.1029 172.78 43.0641 170.162 43.2203C167.37 43.3701 164.59 43.6934 161.839 44.1884C158.922 44.6804 156.034 45.3267 153.186 46.1245C150.244 46.9377 147.27 47.9187 144.263 49.0675C141.257 50.2162 138.218 51.507 135.146 52.9397L133.85 61.3619C136.54 60.0841 139.231 58.9611 141.882 57.9737C144.534 56.9862 147.167 56.0375 149.741 55.3986C152.315 54.7597 154.89 54.1208 157.367 53.6948C159.782 53.2908 162.219 53.0322 164.665 52.9204C166.955 52.7994 169.252 52.8447 171.536 53.0559C173.693 53.2597 175.829 53.6418 177.923 54.1982C179.926 54.7369 181.87 55.4696 183.73 56.386C185.548 57.2859 187.262 58.3832 188.84 59.6581C189.686 60.3498 190.487 61.0934 191.24 61.8847C192.741 63.4613 194.041 65.2171 195.112 67.1122C195.652 68.0806 196.143 69.0757 196.583 70.0939L206.9 62.3493C206.387 61.1956 205.812 60.071 205.177 58.9805C204.543 57.9067 203.845 56.8722 203.086 55.8826C202.338 54.8984 201.53 53.9608 200.667 53.0753C199.762 52.2114 198.805 51.4032 197.802 50.6551Z" fill="#B6F5FF"/>
<path d="M199.119 80.8202C199.4 83.9375 199.4 87.0737 199.119 90.1911C198.794 93.645 198.205 97.0691 197.358 100.433C196.441 104.136 195.29 107.777 193.912 111.334C192.411 115.213 190.698 119.007 188.783 122.699C186.847 126.571 184.544 130.443 182.047 134.316C179.55 138.188 176.763 142.06 173.743 145.932C170.724 149.805 167.453 153.541 163.949 157.259L169.892 162.176C173.918 157.917 177.666 153.574 181.137 149.146C184.563 144.654 187.757 140.201 190.622 135.671C193.425 131.364 196.009 126.918 198.364 122.35C200.539 118.124 202.478 113.78 204.171 109.339C205.73 105.265 207.023 101.093 208.042 96.8514C208.991 93.0357 209.638 89.1515 209.978 85.2346C210.318 81.6867 210.318 78.1144 209.978 74.5665C209.693 71.3539 209.043 68.1841 208.042 65.1182L197.435 72.5142C198.3 75.2125 198.865 77.998 199.119 80.8202Z" fill="#B6F5FF"/>
</svg>
