<svg width="236" height="236" viewBox="0 0 236 236" fill="none" xmlns="http://www.w3.org/2000/svg">
<path d="M8.88269 190.99C8.28135 188.031 7.89062 185.033 7.7134 182.018C7.51444 178.838 7.51444 175.649 7.7134 172.468C7.94338 169.106 8.34747 165.758 8.924 162.437L1.61914 166.111C0.969037 169.68 0.509823 173.281 0.243454 176.899C-0.0186509 180.328 -0.0691683 183.771 0.0921488 187.206C0.248478 190.44 0.634597 193.659 1.24767 196.838C1.84181 199.898 2.6885 202.904 3.77897 205.824L11.2627 199.205C10.2457 196.537 9.44962 193.789 8.88269 190.99Z" fill="#3F5F6C"/>
<path d="M32.9989 105.124C34.1957 103.253 35.4476 101.395 36.727 99.5234C38.0064 97.652 39.3408 95.7943 40.7165 93.9228C42.0922 92.0514 43.4679 90.1937 44.9536 88.3223C46.4394 86.4508 47.5949 84.9784 48.9431 83.3409C50.2913 81.7034 51.6945 80.0797 53.0702 78.4834C54.4459 76.8872 55.8215 75.3047 57.1972 73.7636C58.5729 72.2224 60.045 70.6812 61.4895 69.1675L58.119 66.3328C56.5782 67.9474 55.0512 69.5803 53.5379 71.2316C52.0384 72.8829 50.5389 74.5754 49.0532 76.268C47.5674 77.9605 46.123 79.7081 44.6785 81.4557C43.234 83.2033 41.8033 84.9784 40.4001 86.7811C38.9969 88.5837 37.346 90.7579 35.874 92.7532C34.402 94.7485 32.9851 96.7438 31.6094 98.7253C30.2337 100.707 28.8581 102.716 27.6062 104.711C26.3543 106.706 25.0611 108.702 23.8643 110.697H29.4633C30.6189 108.881 31.7883 107.023 32.9989 105.124Z" fill="#3F5F6C"/>
<path d="M12.5283 147.782C13.6289 144.259 14.8945 140.668 16.3253 137.049C17.756 133.43 19.3655 129.797 21.1402 126.123C22.9148 122.449 24.8545 118.774 26.9593 115.114L21.1677 115.389C18.9024 119.352 16.8159 123.293 14.9083 127.21C13.0006 131.127 11.2673 135.03 9.70819 138.92C8.13991 142.8 6.76422 146.64 5.58112 150.438C4.38427 154.236 3.38002 157.992 2.56836 161.68L9.79073 158.309C10.5198 154.869 11.4966 151.373 12.5283 147.782Z" fill="#3F5F6C"/>
<path d="M75.122 56.0398C78.4511 53.04 81.8491 50.1641 85.2746 47.3982C88.7 44.6323 92.153 41.9902 95.6885 39.4721C99.2241 36.9539 102.746 34.5458 106.309 32.289L105.992 26.8811C102.196 29.303 98.3987 31.8762 94.6568 34.5733C90.9149 37.2704 87.2005 40.0775 83.5274 43.0636C79.8543 46.0496 76.25 49.0907 72.687 52.2969C69.1239 55.5032 65.6159 58.8057 62.1904 62.2459L65.2995 65.3558C68.5094 62.1358 71.7836 59.0305 75.122 56.0398Z" fill="#3F5F6C"/>
<path d="M166.152 8.37314C168.779 8.01537 171.365 7.76768 173.911 7.65759C176.426 7.52676 178.947 7.52676 181.463 7.65759C183.907 7.786 186.342 8.05708 188.754 8.46947L190.625 8.81348L192.441 9.21254L194.229 9.6804C194.807 9.83177 195.399 10.0107 195.963 10.1895L202.305 2.64873L200.42 2.12583L198.48 1.64421L196.513 1.24515C195.853 1.10755 195.137 0.997463 194.491 0.887379C191.884 0.483734 189.257 0.221898 186.622 0.103025C183.909 -0.0343416 181.191 -0.0343416 178.478 0.103025C175.726 0.249805 172.934 0.529604 170.1 0.942422C167.266 1.35524 164.418 1.87355 161.557 2.49737L158.2 9.72168C160.887 9.17126 163.538 8.72175 166.152 8.37314Z" fill="#3F5F6C"/>
<path d="M132.405 18.2945C136.051 16.712 139.682 15.2809 143.273 14.015C146.863 12.749 150.481 11.6619 154.017 10.7537L157.057 3.63947C153.247 4.64399 149.395 5.8274 145.529 7.20346C141.663 8.57952 137.784 10.1758 133.932 11.8408C130.08 13.5058 126.159 15.4185 122.266 17.4551C118.373 19.4917 114.521 21.6659 110.655 24.0052V29.6057C114.278 27.4316 117.901 25.3996 121.523 23.5098C125.141 21.6246 128.787 19.877 132.405 18.2945Z" fill="#3F5F6C"/>
<path d="M115.54 208.81C111.092 211.223 106.676 213.397 102.292 215.333C97.9085 217.268 93.598 218.956 89.3609 220.397L87.5312 229.602C92.1398 228.061 96.8309 226.259 101.55 224.194C106.268 222.13 111.097 219.777 115.912 217.177C120.727 214.576 125.542 211.672 130.412 208.617C135.282 205.563 140.042 202.164 144.87 198.586L142.188 191.609C137.785 194.912 133.351 197.999 128.885 200.87C124.455 203.746 119.984 206.388 115.54 208.81Z" fill="#3F5F6C"/>
<path d="M217.644 96.785C215.947 101.06 214.003 105.404 211.811 109.816C209.619 114.229 207.157 118.696 204.423 123.219C201.672 127.742 198.691 132.292 195.481 136.87L202.773 139.085C206.267 134.131 209.486 129.177 212.403 124.265C215.319 119.352 218.002 114.509 220.368 109.706C222.734 104.904 224.825 100.198 226.641 95.5603C228.457 90.923 229.984 86.437 231.236 82.0198L221.977 84.2766C220.776 88.3681 219.331 92.5375 217.644 96.785Z" fill="#3F5F6C"/>
<path d="M34.8833 222.736C34.1679 222.461 33.5076 222.172 32.7648 221.855C32.0219 221.539 31.389 221.222 30.7149 220.878C30.0408 220.534 29.3392 220.176 28.7477 219.791C27.3165 218.96 25.9381 218.041 24.6206 217.039C23.3549 216.099 22.151 215.079 21.0163 213.984C19.8992 212.92 18.8472 211.79 17.866 210.599C16.8783 209.419 15.9597 208.183 15.1147 206.897L14.413 205.769L13.7527 204.627C13.5464 204.242 13.3263 203.856 13.1337 203.457C12.9411 203.058 12.721 202.673 12.5284 202.274L5.09961 209.154L5.71869 210.448C5.9388 210.874 6.15889 211.301 6.39276 211.727C6.62663 212.154 6.84674 212.553 7.0806 212.966L7.82353 214.191C8.7002 215.592 9.65548 216.943 10.6849 218.236C11.7174 219.542 12.8293 220.782 14.0141 221.952C15.2259 223.146 16.5076 224.267 17.8523 225.309C19.2339 226.384 20.6812 227.373 22.1857 228.268C22.8736 228.68 23.5751 229.08 24.2905 229.465C25.0058 229.836 25.735 230.208 26.4641 230.552C27.1932 230.896 27.9636 231.226 28.734 231.543C29.5044 231.859 30.2747 232.148 31.0588 232.423L36.9606 223.465C36.3415 223.286 35.6262 223.025 34.8833 222.736Z" fill="#3F5F6C"/>
<path d="M219.405 11.8132C217.758 10.3978 216.005 9.10979 214.163 7.96028C213.517 7.54746 212.787 7.16216 212.182 6.79063C211.577 6.41909 210.806 6.04755 210.119 5.70354C209.431 5.35952 208.743 5.04303 207.986 4.72653C207.23 4.41004 206.514 4.1073 205.771 3.83209L199.154 11.3316C199.842 11.5931 200.53 11.882 201.19 12.1848C201.851 12.4875 202.566 12.7902 203.158 13.1205C203.749 13.4508 204.437 13.7948 205.056 14.1388C205.675 14.4828 206.28 14.8681 206.872 15.2534C208.559 16.3444 210.159 17.5635 211.659 18.9C213.148 20.2229 214.528 21.6632 215.786 23.207C217.073 24.7689 218.241 26.4248 219.281 28.1609C220.352 29.9589 221.294 31.8304 222.101 33.7614L230.919 27.6242C230.013 25.57 228.97 23.5793 227.796 21.6658C226.643 19.8096 225.35 18.0432 223.931 16.3818C222.544 14.7422 221.031 13.2146 219.405 11.8132Z" fill="#3F5F6C"/>
<path d="M225.54 46.1735C226.045 49.5302 226.294 52.9205 226.283 56.315C226.282 59.9965 226.038 63.674 225.554 67.3235C225.027 71.3442 224.274 75.3319 223.298 79.2677L232.68 76.5981C233.701 72.3932 234.486 68.1345 235.032 63.8421C235.523 59.8801 235.748 55.8898 235.707 51.8979C235.68 48.2468 235.372 44.6031 234.785 40.9995C234.254 37.6869 233.434 34.427 232.336 31.257L223.353 37.0777C224.339 40.0418 225.071 43.0848 225.54 46.1735Z" fill="#3F5F6C"/>
<path d="M187.749 147.176C185.75 149.69 183.709 152.167 181.628 154.607C179.546 157.047 177.404 159.437 175.203 161.776C173.03 164.116 170.819 166.409 168.572 168.657C166.866 170.349 165.147 172.028 163.414 173.666C161.68 175.303 159.919 176.927 158.145 178.509C156.37 180.092 154.595 181.633 152.793 183.147C150.991 184.66 149.189 186.133 147.373 187.578L150.51 194.21C152.491 192.641 154.458 191.036 156.411 189.394C158.365 187.752 160.304 186.073 162.23 184.358C164.156 182.642 166.064 180.89 167.953 179.101C169.852 177.326 171.723 175.496 173.58 173.597C176.015 171.161 178.408 168.657 180.775 166.111C183.141 163.565 185.438 160.965 187.653 158.322C189.868 155.68 192.138 152.983 194.298 150.245C196.458 147.507 198.576 144.741 200.626 141.906L193.582 139.526C191.711 142.113 189.744 144.658 187.749 147.176Z" fill="#3F5F6C"/>
<path d="M72.2612 224.841C68.5003 225.53 64.701 225.99 60.8844 226.217C57.3508 226.437 53.806 226.4 50.2778 226.107C47.0282 225.835 43.8071 225.292 40.6479 224.483L34.8838 233.648C38.2954 234.571 41.7793 235.201 45.2978 235.533C49.0934 235.884 52.9096 235.958 56.716 235.753C60.8358 235.554 64.9389 235.094 69.0009 234.377C73.3933 233.585 77.7417 232.565 82.0287 231.322L84.2573 222.02C80.3095 223.165 76.3055 224.107 72.2612 224.841Z" fill="#3F5F6C"/>
</svg>
