<svg width="168" height="168" viewBox="0 0 168 168" fill="none" xmlns="http://www.w3.org/2000/svg">
<path d="M117.587 117.559C113.89 121.199 110.212 124.626 106.419 127.801C102.625 130.976 98.7923 133.9 94.9405 136.572C91.0886 139.244 87.198 141.645 83.3268 143.794C79.6164 145.879 75.7978 147.767 71.8873 149.447C68.2874 150.999 64.5965 152.331 60.835 153.436C57.4119 154.463 53.9186 155.24 50.3827 155.759C47.1803 156.24 43.942 156.441 40.7046 156.359C37.7817 156.303 34.8738 155.927 32.0331 155.236L25.0068 165.846C28.2322 166.659 31.5348 167.127 34.8591 167.24C38.5406 167.35 42.2249 167.149 45.8727 166.64C49.909 166.062 53.8997 165.202 57.8154 164.065C62.1255 162.821 66.3534 161.307 70.4743 159.534C74.9624 157.632 79.3434 155.486 83.5978 153.106C88.069 150.628 92.5984 147.879 96.9535 144.82C101.309 141.761 105.838 138.392 110.193 134.752C114.548 131.112 118.845 127.182 123.026 123L123.22 122.806L117.761 117.404L117.587 117.559Z" fill="#B6F5FF"/>
<path d="M23.9223 80.2497C26.0321 76.6485 28.3742 73.0667 30.9099 69.5042C33.4455 65.9417 36.2134 62.3986 39.1749 58.8942C42.1364 55.3898 45.2914 51.9822 48.6594 48.6133C52.0274 45.2444 54.9114 42.5919 58.1052 39.8426C61.2989 37.0933 64.5314 34.5183 67.7832 32.0981C71.0351 29.6779 74.3449 27.4708 77.6161 25.4378C80.8873 23.4049 84.2166 21.5656 87.5071 19.8811L88.3394 11.6913C84.6424 13.6274 80.8873 15.6991 77.1516 18.0224C73.4159 20.3458 69.6995 22.8628 66.0025 25.5927C62.3055 28.3227 58.6472 31.2462 55.0276 34.3634C51.408 37.4806 47.8658 40.772 44.3623 44.257C40.4911 48.1293 36.9683 52.0015 33.6197 55.8738C30.2711 59.7461 27.1354 63.8507 24.2514 67.8778C21.3673 71.905 18.6962 75.9902 16.296 80.0561C13.8958 84.122 11.728 88.2072 9.83105 92.2344L18.251 90.9178C19.9156 87.4328 21.8125 83.8316 23.9223 80.2497Z" fill="#B6F5FF"/>
<path d="M25.8396 153.01C24.6559 152.441 23.5114 151.794 22.4135 151.074C21.333 150.361 20.3104 149.565 19.3553 148.692C18.3843 147.81 17.4787 146.859 16.6454 145.846C15.4394 144.326 14.395 142.684 13.5291 140.948C12.616 139.229 11.8706 137.427 11.3031 135.565C10.7316 133.615 10.3237 131.62 10.0837 129.602C9.83153 127.469 9.72804 125.321 9.77401 123.174C9.8185 120.9 9.99299 118.631 10.2966 116.378C10.6257 114.055 11.0709 111.673 11.6516 109.253C12.2322 106.833 12.9484 104.374 13.8001 101.896C14.6517 99.4175 15.6002 96.8812 16.6841 94.3448L8.05132 96.1067C6.81252 98.9916 5.70923 101.915 4.74142 104.664C3.77362 107.414 2.96066 110.279 2.2832 113.029C1.60518 115.701 1.07531 118.41 0.695999 121.141C0.313705 123.706 0.0874672 126.293 0.0185346 128.885C-0.0458667 131.336 0.0576078 133.787 0.328232 136.223C0.578461 138.534 1.01869 140.82 1.64445 143.058C2.24564 145.211 3.04256 147.304 4.02525 149.312C4.99469 151.276 6.16904 153.132 7.5287 154.849C8.44829 156.023 9.45786 157.123 10.5483 158.14C11.6307 159.149 12.7819 160.08 13.9936 160.928C15.2338 161.772 16.5269 162.535 17.8649 163.213C19.2419 163.898 20.6648 164.487 22.1232 164.975L29.5753 154.5C28.2971 154.09 27.0489 153.592 25.8396 153.01Z" fill="#B6F5FF"/>
<path d="M154.906 7.52863C153.104 6.103 151.158 4.87006 149.099 3.84998C146.961 2.83366 144.732 2.02328 142.44 1.42981C140.04 0.818208 137.593 0.410172 135.124 0.210046C132.511 -0.0235371 129.884 -0.0623658 127.265 0.0938795C124.473 0.243631 121.694 0.566944 118.942 1.06195C116.026 1.55396 113.138 2.20025 110.29 2.99808C107.348 3.81125 104.373 4.79223 101.367 5.941C98.3601 7.08977 95.3211 8.38052 92.25 9.81326L90.9531 18.2354C93.6436 16.9576 96.3341 15.8346 98.9859 14.8472C101.638 13.8598 104.27 12.9111 106.844 12.2722C109.419 11.6332 111.993 10.9943 114.471 10.5684C116.886 10.1644 119.322 9.90574 121.768 9.7939C124.059 9.67292 126.355 9.71821 128.639 9.92943C130.796 10.1332 132.933 10.5153 135.027 11.0717C137.029 11.6104 138.974 12.3432 140.834 13.2596C142.652 14.1594 144.366 15.2567 145.944 16.5316C146.789 17.2233 147.591 17.967 148.344 18.7582C149.844 20.3348 151.145 22.0906 152.215 23.9857C152.756 24.9541 153.247 25.9493 153.686 26.9674L164.003 19.2229C163.491 18.0692 162.916 16.9445 162.28 15.854C161.646 14.7802 160.948 13.7458 160.19 12.7562C159.441 11.7719 158.633 10.8344 157.77 9.94879C156.865 9.08493 155.909 8.27673 154.906 7.52863Z" fill="#B6F5FF"/>
<path d="M156.223 37.6936C156.503 40.8109 156.503 43.9471 156.223 47.0645C155.898 50.5185 155.309 53.9425 154.461 57.3066C153.544 61.0092 152.394 64.65 151.016 68.207C149.514 72.086 147.802 75.88 145.887 79.5721C143.951 83.4444 141.648 87.3167 139.151 91.1889C136.654 95.0612 133.866 98.9334 130.847 102.806C127.827 106.678 124.556 110.415 121.053 114.132L126.995 119.05C131.021 114.79 134.77 110.447 138.241 106.02C141.667 101.528 144.861 97.0748 147.725 92.5442C150.529 88.2371 153.113 83.7913 155.468 79.2236C157.643 74.9975 159.581 70.6539 161.275 66.2128C162.834 62.1382 164.127 57.9667 165.146 53.7248C166.094 49.9092 166.741 46.025 167.082 42.108C167.421 38.5601 167.421 34.9878 167.082 31.4399C166.796 28.2273 166.147 25.0576 165.146 21.9916L154.539 29.3876C155.404 32.0859 155.969 34.8714 156.223 37.6936Z" fill="#B6F5FF"/>
</svg>
