<svg width="484" height="483" viewBox="0 0 484 483" fill="none" xmlns="http://www.w3.org/2000/svg">
<path d="M449.919 27.7481C443.37 21.505 435.918 16.2835 427.815 12.2591C419.457 8.08959 410.596 5.01797 401.452 3.12053C391.953 1.14284 382.275 0.150169 372.572 0.158252C362.316 0.155273 352.076 0.977554 341.951 2.61714C331.226 4.34061 320.622 6.75286 310.207 9.83891C310.282 9.53372 310.282 9.21475 310.207 8.90957C310.152 8.66507 310.015 8.44656 309.82 8.29C309.589 8.13766 309.322 8.05068 309.046 8.03831C308.665 8.03692 308.286 8.09573 307.923 8.21256C307.643 8.29713 307.37 8.4073 307.11 8.5417L306.297 9.00637C306.022 9.16947 305.763 9.35742 305.523 9.56785C305.26 9.7665 305.014 9.98668 304.787 10.2261C304.655 10.3456 304.532 10.4751 304.42 10.6134L304.071 11.0393L303.761 11.4459L303.51 11.8912L299.639 13.1691L295.671 14.5437C294.354 14.989 293.038 15.4731 291.799 15.9571L287.928 17.4285C288.009 17.1503 288.009 16.8549 287.928 16.5766C287.837 16.3534 287.664 16.1734 287.444 16.0732C287.177 15.9549 286.883 15.9082 286.593 15.9377C286.192 15.9697 285.8 16.0679 285.431 16.2281C285.184 16.3173 284.944 16.4274 284.715 16.5573C284.474 16.685 284.242 16.8273 284.018 16.9832C283.786 17.1381 283.573 17.3124 283.36 17.4866C283.14 17.6587 282.933 17.8463 282.741 18.0481L282.276 18.5321L281.889 19.0355C281.754 19.2098 281.657 19.384 281.541 19.5583C281.445 19.7201 281.361 19.8883 281.289 20.0617C267.922 25.4564 254.869 31.5972 242.19 38.4549C229.357 45.4056 216.465 53.2276 203.69 61.8821C190.915 70.5366 178.411 79.8881 165.985 90.0916C153.558 100.295 141.422 111.234 129.498 123.006C129.245 122.935 128.977 122.935 128.724 123.006C128.379 123.035 128.043 123.134 127.737 123.296C127.354 123.463 126.991 123.671 126.653 123.916C126.263 124.198 125.894 124.508 125.55 124.845C125.206 125.183 124.895 125.553 124.621 125.949C124.369 126.286 124.155 126.649 123.982 127.033C123.84 127.347 123.742 127.679 123.692 128.02C123.63 128.275 123.63 128.54 123.692 128.795C111.942 140.721 100.987 152.919 90.7862 165.272C80.5856 177.624 71.1979 190.267 62.6038 202.949C54.0096 215.63 46.151 228.583 39.2022 241.42C32.3673 253.974 26.2412 266.902 20.8526 280.142L20.33 280.413L19.8267 280.742L19.3234 281.149C19.153 281.287 18.9914 281.436 18.8395 281.594C18.646 281.788 18.4524 282.001 18.2782 282.214C18.0936 282.427 17.9253 282.653 17.775 282.892C17.6149 283.112 17.4725 283.345 17.3492 283.589C17.2176 283.813 17.1012 284.046 17.0008 284.286C16.8549 284.658 16.7636 285.049 16.7298 285.447C16.6942 285.736 16.7342 286.03 16.8459 286.299C16.9538 286.52 17.1402 286.692 17.3686 286.783C17.6464 286.866 17.9424 286.866 18.2202 286.783C17.717 288.1 17.2137 289.436 16.7298 290.752C16.2459 292.069 15.7814 293.405 15.3168 294.721C14.8523 296.038 14.4071 297.354 13.9619 298.594C13.5167 299.833 13.0907 301.246 12.6649 302.466L12.2391 302.718L11.8134 303.027C11.6633 303.126 11.5209 303.236 11.3875 303.356L10.9809 303.744C10.768 303.976 10.5358 304.208 10.3423 304.46C10.1364 304.704 9.94867 304.963 9.78087 305.234C9.61153 305.497 9.45648 305.768 9.31635 306.048C9.19011 306.312 9.08025 306.583 8.98733 306.861C8.87579 307.224 8.82347 307.604 8.83244 307.984C8.8362 308.261 8.92393 308.531 9.08408 308.758C9.22878 308.958 9.44281 309.096 9.68412 309.145C9.98922 309.221 10.3081 309.221 10.6132 309.145C7.51557 319.57 5.09106 330.182 3.35463 340.917C1.71624 351.058 0.894274 361.314 0.896489 371.586C0.935398 381.307 1.96655 390.999 3.97404 400.512C5.87727 409.672 8.95458 418.548 13.1296 426.92C17.1523 435.02 22.3725 442.468 28.6144 449.012C34.8849 455.533 42.1257 461.045 50.0803 465.353C58.6038 469.956 67.7231 473.357 77.1788 475.459C87.7896 477.818 98.6343 478.961 109.504 478.867C109.335 479.38 109.244 479.915 109.233 480.454C109.234 480.901 109.326 481.342 109.504 481.752C109.668 482.091 109.922 482.38 110.239 482.584C110.599 482.787 111.007 482.887 111.42 482.875C111.728 482.861 112.034 482.809 112.33 482.72C112.661 482.633 112.98 482.503 113.278 482.332C113.605 482.16 113.916 481.959 114.207 481.732C114.527 481.501 114.825 481.242 115.098 480.958L115.562 480.454C115.721 480.276 115.87 480.088 116.007 479.893L116.414 479.312L116.762 478.693L121.175 478.441C122.646 478.344 124.156 478.208 125.647 478.073L130.195 477.608L134.783 477.027C134.698 477.547 134.698 478.076 134.783 478.596C134.835 479.019 134.988 479.424 135.228 479.777C135.459 480.099 135.783 480.342 136.157 480.474C136.58 480.617 137.033 480.651 137.473 480.571C137.766 480.532 138.053 480.454 138.325 480.338C138.629 480.235 138.921 480.099 139.196 479.932C139.486 479.765 139.765 479.577 140.028 479.37C140.3 479.154 140.558 478.921 140.802 478.673L141.402 478.034L141.925 477.337C142.08 477.085 142.235 476.834 142.37 476.582C142.518 476.334 142.648 476.075 142.757 475.808C159.323 472.846 175.585 468.381 191.341 462.468C209.362 455.698 226.834 447.548 243.603 438.092C262.327 427.594 280.313 415.827 297.432 402.874C315.949 388.892 333.542 373.727 350.1 357.471C350.514 357.71 350.978 357.849 351.455 357.878C351.997 357.896 352.539 357.831 353.061 357.684C353.659 357.506 354.232 357.253 354.765 356.929C355.946 356.193 356.94 355.192 357.668 354.006C358 353.477 358.254 352.903 358.423 352.302C358.589 351.783 358.654 351.238 358.617 350.695C358.603 350.218 358.47 349.752 358.229 349.34C374.462 332.792 389.61 315.214 403.581 296.715C416.51 279.602 428.267 261.632 438.77 242.93C448.206 226.148 456.353 208.672 463.14 190.654C469.088 174.899 473.585 158.632 476.573 142.057C476.844 141.941 477.095 141.806 477.347 141.67C477.612 141.538 477.865 141.383 478.102 141.205C478.35 141.053 478.583 140.878 478.799 140.683L479.437 140.102C479.691 139.856 479.923 139.591 480.134 139.308C480.345 139.043 480.539 138.765 480.715 138.475C480.87 138.201 481.006 137.917 481.121 137.624C481.222 137.348 481.293 137.062 481.334 136.772C481.446 136.34 481.446 135.887 481.334 135.455C481.208 135.084 480.972 134.76 480.657 134.526C480.3 134.281 479.887 134.128 479.457 134.08C478.945 133.987 478.42 133.987 477.908 134.08C478.121 132.532 478.315 131.002 478.489 129.472C478.663 127.943 478.818 126.433 478.954 124.923C479.089 123.412 479.224 121.941 479.321 120.45C479.418 118.959 479.515 117.507 479.573 116.036L480.192 115.687L480.792 115.281L481.354 114.835C481.531 114.684 481.699 114.522 481.857 114.351C482.136 114.08 482.395 113.789 482.631 113.48C482.852 113.184 483.052 112.873 483.231 112.551C483.385 112.245 483.514 111.928 483.618 111.602C483.706 111.312 483.758 111.013 483.773 110.711C483.785 110.292 483.685 109.878 483.483 109.511C483.278 109.187 482.982 108.931 482.631 108.775C482.229 108.598 481.794 108.506 481.354 108.504C480.808 108.517 480.267 108.608 479.747 108.775C479.874 97.8844 478.744 87.0153 476.379 76.3837C474.279 66.9279 470.885 57.8067 466.295 49.2779C461.973 41.3036 456.449 34.0421 449.919 27.7481ZM464.785 50.3041C469.364 58.802 472.751 67.8905 474.85 77.3131C477.174 87.8914 478.284 98.7003 478.16 109.53L477.618 109.859L477.115 110.227C476.951 110.346 476.796 110.475 476.65 110.615C476.492 110.746 476.344 110.889 476.205 111.04C475.926 111.312 475.667 111.603 475.431 111.912C475.21 112.208 475.01 112.518 474.831 112.841C474.669 113.136 474.539 113.448 474.444 113.77C474.347 114.064 474.295 114.371 474.289 114.68C474.274 115.076 474.36 115.47 474.54 115.823C474.724 116.136 474.993 116.391 475.315 116.558C475.674 116.747 476.071 116.853 476.476 116.868C476.978 116.898 477.481 116.846 477.966 116.713C477.966 118.185 477.811 119.637 477.715 121.128C477.618 122.619 477.482 124.09 477.347 125.581C477.211 127.072 477.037 128.582 476.863 130.111C476.689 131.641 476.495 133.151 476.282 134.7C476.05 134.811 475.824 134.934 475.605 135.068C475.169 135.341 474.749 135.639 474.347 135.958L473.785 136.481C473.538 136.725 473.305 136.984 473.089 137.256L472.527 138.088C472.376 138.364 472.24 138.649 472.121 138.94C472.026 139.219 471.948 139.503 471.888 139.792C471.789 140.206 471.789 140.637 471.888 141.051C471.997 141.405 472.206 141.721 472.489 141.961C472.795 142.216 473.162 142.389 473.553 142.464C474.026 142.553 474.512 142.553 474.986 142.464C472.006 158.973 467.523 175.175 461.591 190.867C454.858 208.782 446.763 226.155 437.377 242.833C426.941 261.4 415.262 279.241 402.42 296.231C388.539 314.608 373.488 332.07 357.358 348.507C356.94 348.288 356.476 348.168 356.004 348.159C355.466 348.127 354.927 348.199 354.416 348.371C353.83 348.546 353.27 348.8 352.752 349.127C352.169 349.489 351.63 349.918 351.145 350.404C350.664 350.882 350.242 351.415 349.887 351.992C349.562 352.513 349.302 353.073 349.113 353.657C348.96 354.172 348.889 354.708 348.9 355.245C348.909 355.726 349.035 356.198 349.268 356.619C332.834 372.758 315.377 387.82 297.006 401.712C280.013 414.583 262.157 426.272 243.564 436.698C226.873 446.085 209.493 454.188 191.573 460.938C175.884 466.856 159.686 471.327 143.183 474.297C143.272 473.824 143.272 473.338 143.183 472.865C143.115 472.475 142.948 472.108 142.699 471.8C142.46 471.517 142.144 471.308 141.79 471.2C141.37 471.099 140.932 471.099 140.512 471.2C140.226 471.241 139.946 471.319 139.68 471.432C139.387 471.548 139.102 471.684 138.828 471.839C138.539 472.008 138.261 472.195 137.996 472.4C137.718 472.616 137.453 472.849 137.202 473.097C137.024 473.275 136.856 473.462 136.699 473.659C136.525 473.852 136.37 474.065 136.215 474.259C136.062 474.471 135.92 474.691 135.789 474.917C135.655 475.136 135.532 475.363 135.421 475.595C133.899 475.814 132.37 476.008 130.834 476.175L126.324 476.64C124.814 476.795 123.343 476.911 121.853 477.008C120.362 477.105 118.911 477.202 117.459 477.26C117.592 476.775 117.644 476.271 117.614 475.769C117.598 475.357 117.493 474.954 117.304 474.588C117.133 474.273 116.879 474.012 116.569 473.833C116.219 473.644 115.823 473.557 115.427 473.581C115.119 473.59 114.814 473.635 114.517 473.717C114.197 473.821 113.887 473.95 113.588 474.104C113.265 474.283 112.955 474.484 112.659 474.704C112.35 474.941 112.059 475.2 111.788 475.479L111.362 475.924L110.975 476.408L110.607 476.911L110.278 477.434C99.4375 477.506 88.6244 476.337 78.0499 473.949C68.6461 471.874 59.573 468.512 51.0869 463.958C43.2048 459.675 36.0245 454.21 29.7951 447.753C23.5532 441.267 18.332 433.871 14.3103 425.817C10.1507 417.501 7.07994 408.683 5.17411 399.582C3.2063 390.131 2.214 380.504 2.21269 370.85C2.19277 360.636 3.00847 350.437 4.65158 340.356C6.35014 329.671 8.74894 319.109 11.8326 308.739L12.2198 308.487L12.5875 308.216L12.9553 307.906L13.3037 307.577C13.536 307.345 13.7489 307.093 13.9619 306.841L14.5231 306.067C14.6967 305.8 14.8519 305.522 14.9877 305.234C15.1139 304.97 15.2239 304.699 15.3168 304.421C15.4279 304.078 15.4802 303.718 15.4716 303.356C15.4802 303.089 15.4059 302.825 15.2587 302.601C15.1277 302.398 14.9289 302.247 14.6974 302.175C14.4241 302.107 14.1384 302.107 13.8651 302.175C14.2651 300.885 14.6909 299.594 15.1426 298.303C15.5877 296.987 16.033 295.67 16.4975 294.431C16.962 293.192 17.4266 291.798 17.9105 290.559C18.3944 289.319 18.8783 287.906 19.3815 286.59L19.8461 286.318C20.002 286.226 20.1507 286.123 20.2912 286.009C20.4481 285.897 20.597 285.774 20.7365 285.641C20.8944 285.516 21.0431 285.38 21.1816 285.234C21.3752 285.041 21.5687 284.828 21.7429 284.615C21.9171 284.402 22.0914 284.169 22.2462 283.937C22.4082 283.714 22.557 283.481 22.6915 283.24C22.8076 283.008 22.9237 282.756 23.0205 282.524C23.1646 282.171 23.2559 281.799 23.2915 281.42C23.3204 281.139 23.2873 280.855 23.1946 280.588C23.1011 280.378 22.9458 280.203 22.7495 280.084C22.5142 279.974 22.2521 279.934 21.9946 279.968C27.3419 266.766 33.4294 253.877 40.2281 241.361C47.1382 228.583 54.9194 215.785 63.4554 203.084C71.9915 190.383 81.3404 177.914 91.483 165.581C101.626 153.248 112.504 141.147 124.195 129.279C124.448 129.351 124.716 129.351 124.969 129.279C125.304 129.228 125.63 129.13 125.937 128.988C126.316 128.815 126.679 128.607 127.021 128.369C127.405 128.087 127.767 127.776 128.105 127.44C128.448 127.101 128.759 126.732 129.034 126.336C129.285 125.999 129.5 125.635 129.673 125.252C129.814 124.944 129.912 124.618 129.963 124.284C130.034 124.03 130.034 123.762 129.963 123.509C141.828 111.892 153.984 100.876 166.294 90.7692C178.605 80.6626 191.167 71.0981 203.865 62.5598C216.562 54.0214 229.395 46.1607 242.19 39.3262C254.742 32.5259 267.666 26.4369 280.902 21.0878C280.873 21.3473 280.92 21.6095 281.037 21.8429C281.15 22.0437 281.328 22.2005 281.541 22.2882C281.813 22.3605 282.1 22.3605 282.373 22.2882C282.752 22.2526 283.124 22.1613 283.476 22.0172L284.192 21.688C284.433 21.5535 284.666 21.4048 284.889 21.2427L285.567 20.7393L286.186 20.1779L286.593 19.7519L286.96 19.3066L287.27 18.8419C287.365 18.7002 287.449 18.5513 287.522 18.3966L291.393 16.9251L295.264 15.5118L299.135 14.1565L303.006 12.8786C302.938 13.1519 302.938 13.4379 303.006 13.7112C303.077 13.9378 303.22 14.135 303.413 14.2726C303.638 14.4176 303.901 14.4918 304.168 14.4856C304.535 14.4942 304.902 14.4418 305.252 14.3307C305.529 14.2378 305.801 14.1279 306.065 14.0016L306.878 13.5369L307.671 12.9754L308.388 12.3172L308.717 11.9687C308.83 11.8551 308.934 11.732 309.026 11.6008L309.317 11.2329L309.549 10.8651C319.964 7.79112 330.567 5.39817 341.293 3.70137C351.36 2.07978 361.543 1.27689 371.74 1.30057C381.379 1.29226 390.992 2.28501 400.426 4.26285C409.517 6.16275 418.326 9.22776 426.634 13.382C434.684 17.418 442.083 22.6391 448.584 28.8711C455.051 35.1417 460.516 42.3706 464.785 50.3041Z" fill="#3E3E3E"/>
</svg>
