<svg width="299" height="300" viewBox="0 0 299 300" fill="none" xmlns="http://www.w3.org/2000/svg">
<path d="M272.385 11.4937C260.965 4.00084 246.835 0.631972 231.157 0.806223C214.21 1.36173 197.481 4.79229 181.683 10.9516C163.308 17.9442 145.803 27.04 129.518 38.0574C93.0698 62.5737 61.7104 93.9153 37.1701 130.353C26.1417 146.668 17.0478 164.211 10.0716 182.628C3.95117 198.405 0.547932 215.105 0.00641698 232.019C-0.167788 247.702 3.20017 261.835 10.691 273.259C18.4345 284.932 30.2609 293.288 43.848 296.686C58.3264 300.655 75.6114 300.442 94.5803 296.144C116.347 290.829 137.161 282.182 156.288 270.509C179.453 256.613 200.794 239.878 219.814 220.693C238.999 201.659 255.736 180.307 269.637 157.129C281.307 137.998 289.951 117.178 295.264 95.4056C299.561 76.4315 299.774 59.1419 295.806 44.6596C292.423 31.0624 284.066 19.2283 272.385 11.4937ZM292.864 46.5183C296.735 60.7489 296.464 77.7094 292.225 96.3349C286.994 117.676 278.506 138.083 267.063 156.839C253.439 179.536 237.04 200.446 218.246 219.086C199.604 237.907 178.694 254.335 155.997 267.992C137.243 279.433 116.842 287.922 95.5094 293.162C76.8889 297.402 59.9329 297.654 45.7062 293.801C32.3462 290.508 20.7034 282.33 13.0718 270.877C5.69711 259.706 2.34851 245.843 2.484 230.451C2.99574 213.807 6.34065 197.373 12.375 181.854C19.2054 163.779 28.1039 146.556 38.8928 130.527C62.9995 94.6665 93.8363 63.8279 129.692 39.7225C145.712 28.9174 162.931 20.0096 181.005 13.1781C196.52 7.14217 212.95 3.79635 229.589 3.28447C245.074 3.14894 258.836 6.49845 270.005 13.8751C281.432 21.5193 289.587 33.1638 292.864 46.5183Z" fill="#3E3E3E"/>
</svg>
