<svg width="484" height="483" viewBox="0 0 484 483" fill="none" xmlns="http://www.w3.org/2000/svg">
<path d="M449.868 27.5899C443.318 21.3474 435.866 16.126 427.763 12.1008C419.402 7.93969 410.542 4.86845 401.4 2.96229C391.898 1.00461 382.223 0.012151 372.521 1.26525e-05C362.264 -0.0037203 352.024 0.818574 341.9 2.45891C331.172 4.17984 320.568 6.59869 310.156 9.70005C310.231 9.39486 310.231 9.07587 310.156 8.77069C310.111 8.52225 309.972 8.30055 309.769 8.15114C309.541 7.99308 309.271 7.90554 308.994 7.89943C308.614 7.89046 308.235 7.94276 307.872 8.05433C307.594 8.14728 307.323 8.2572 307.059 8.38346L306.246 8.84815L305.452 9.40961L304.736 10.0679L304.349 10.4745L304.02 10.8811C303.906 11.0149 303.802 11.1573 303.71 11.307C303.619 11.4447 303.535 11.5868 303.458 11.733L299.587 13.0302L295.619 14.3855L291.651 15.7989L287.683 17.2897C287.766 17.0118 287.766 16.7157 287.683 16.4378C287.585 16.208 287.406 16.0221 287.18 15.915C286.92 15.7947 286.632 15.7478 286.348 15.7795C285.947 15.8115 285.555 15.9096 285.186 16.0699C284.94 16.1633 284.701 16.2732 284.47 16.399L283.773 16.825L283.096 17.3284L282.476 17.9092C282.318 18.0612 282.169 18.2228 282.031 18.3933C281.892 18.5526 281.762 18.7208 281.644 18.8967C281.511 19.0518 281.394 19.2205 281.296 19.4001C281.2 19.5618 281.116 19.73 281.044 19.9034C267.772 25.299 254.809 31.4266 242.216 38.258C229.383 45.2087 216.491 53.05 203.716 61.6852C190.941 70.3203 178.418 79.6912 166.011 89.8946C153.603 100.098 141.448 111.037 129.524 122.809C129.265 122.737 128.991 122.737 128.731 122.809C128.396 122.86 128.07 122.957 127.763 123.099C126.1 123.858 124.766 125.192 124.008 126.855C123.866 127.163 123.768 127.489 123.718 127.823C123.677 128.086 123.71 128.354 123.814 128.598C112.065 140.524 101.09 152.722 90.909 165.075C80.7277 177.427 71.3207 189.915 62.6878 202.577C54.055 215.24 46.2352 228.212 39.2863 241.048C32.4519 253.603 26.3258 266.531 20.9367 279.771C20.7553 279.839 20.5804 279.923 20.4141 280.023C20.2374 280.125 20.0692 280.242 19.9109 280.371L19.4076 280.758C19.237 280.903 19.0753 281.058 18.9237 281.223C18.7219 281.416 18.5344 281.623 18.3624 281.843C18.1719 282.049 17.9972 282.269 17.8398 282.501C17.6849 282.733 17.5494 282.966 17.4139 283.198C17.2784 283.43 17.1816 283.663 17.0849 283.914C16.9361 284.28 16.8384 284.664 16.7945 285.057C16.7751 285.347 16.8214 285.638 16.93 285.909C17.0371 286.134 17.2229 286.313 17.4526 286.412C17.7306 286.494 18.0263 286.494 18.3043 286.412C17.8011 287.748 17.2978 289.064 16.8139 290.381C16.33 291.698 15.8654 293.033 15.4009 294.35C14.9363 295.667 14.4718 297.003 14.046 298.222C13.6201 299.442 13.1556 300.855 12.7491 302.095L12.3039 302.346L11.8781 302.656C11.7426 302.772 11.6071 302.869 11.4716 303.005L11.0651 303.372C10.8368 303.597 10.6235 303.836 10.4264 304.089C10.2158 304.341 10.0219 304.606 9.8457 304.883C9.69085 305.134 9.53598 305.425 9.40049 305.696C9.2696 305.951 9.15956 306.217 9.07144 306.49C8.95164 306.851 8.89915 307.232 8.91659 307.613C8.91089 307.889 8.99216 308.16 9.14888 308.387C9.3034 308.589 9.52175 308.732 9.76826 308.794C10.0734 308.869 10.3922 308.869 10.6973 308.794C7.59759 319.224 5.17306 329.843 3.43881 340.585C1.79917 350.725 0.977138 360.981 0.980604 371.253C0.967203 380.971 1.95308 390.663 3.92271 400.179C5.80612 409.41 8.87704 418.359 13.0588 426.801C17.0889 434.902 22.3084 442.355 28.5437 448.911C34.8266 455.432 42.0727 460.95 50.029 465.272C58.5569 469.865 67.6749 473.266 77.1275 475.378C87.739 477.731 98.5837 478.868 109.452 478.767C109.276 479.284 109.184 479.827 109.181 480.374C109.175 480.814 109.268 481.251 109.452 481.651C109.604 482 109.861 482.291 110.188 482.484C110.544 482.695 110.955 482.796 111.368 482.774C111.676 482.766 111.981 482.72 112.278 482.639C112.603 482.531 112.92 482.402 113.227 482.252C113.549 482.072 113.86 481.872 114.156 481.651C114.46 481.409 114.751 481.151 115.027 480.877L115.511 480.354C115.669 480.182 115.818 480.001 115.956 479.812L116.362 479.212L116.711 478.592C118.162 478.592 119.633 478.437 121.124 478.341L125.595 477.992C127.105 477.857 128.615 477.682 130.125 477.508L134.731 476.947C134.647 477.459 134.647 477.983 134.731 478.496C134.775 478.921 134.929 479.328 135.176 479.677C135.408 479.999 135.732 480.242 136.106 480.374C136.529 480.514 136.98 480.554 137.422 480.49C137.71 480.43 137.995 480.353 138.273 480.257C138.566 480.142 138.851 480.006 139.125 479.851C139.415 479.675 139.693 479.481 139.957 479.27C140.236 479.054 140.501 478.821 140.751 478.573C140.964 478.379 141.159 478.165 141.332 477.934C141.528 477.714 141.709 477.481 141.874 477.237C142.029 477.005 142.183 476.753 142.319 476.501C142.454 476.25 142.59 475.979 142.706 475.707C159.29 472.733 175.566 468.241 191.329 462.29C209.344 455.515 226.815 447.373 243.59 437.934C262.307 427.433 280.285 415.666 297.4 402.715C315.914 388.731 333.501 373.558 350.049 357.294C350.467 357.538 350.939 357.678 351.423 357.7C351.965 357.728 352.509 357.663 353.029 357.507C353.624 357.337 354.191 357.083 354.713 356.752C355.306 356.394 355.852 355.965 356.339 355.474C356.833 354.983 357.268 354.438 357.636 353.847C357.964 353.316 358.218 352.743 358.391 352.144C358.547 351.623 358.613 351.079 358.585 350.537C358.571 350.053 358.438 349.581 358.197 349.162C374.424 332.609 389.573 315.032 403.549 296.538C416.483 279.427 428.24 261.457 438.738 242.752C448.178 225.972 456.325 208.496 463.108 190.477C469.047 174.718 473.544 158.452 476.541 141.88C476.806 141.766 477.065 141.637 477.315 141.492L478.07 141.047L478.767 140.505C478.997 140.332 479.211 140.138 479.405 139.924C479.653 139.68 479.886 139.422 480.102 139.15C480.309 138.886 480.497 138.608 480.664 138.317C480.827 138.047 480.963 137.762 481.07 137.465C481.181 137.192 481.259 136.906 481.302 136.613C481.412 136.175 481.412 135.716 481.302 135.277C481.167 134.911 480.924 134.594 480.605 134.368C480.254 134.121 479.85 133.962 479.425 133.903C478.912 133.818 478.389 133.818 477.876 133.903C478.089 132.354 478.283 130.824 478.457 129.295C478.631 127.765 478.786 126.255 478.921 124.764C479.057 123.274 479.192 121.763 479.289 120.272C479.386 118.782 479.463 117.33 479.541 115.858C479.758 115.761 479.965 115.645 480.16 115.51L480.76 115.103C480.949 114.965 481.13 114.817 481.302 114.658L481.825 114.193C482.104 113.915 482.363 113.617 482.599 113.302C482.819 113.006 483.02 112.696 483.199 112.373C483.353 112.074 483.482 111.763 483.586 111.444C483.667 111.147 483.713 110.841 483.722 110.534C483.754 110.119 483.653 109.705 483.431 109.353C483.235 109.024 482.945 108.761 482.599 108.598C482.195 108.427 481.76 108.341 481.322 108.346C480.777 108.351 480.236 108.436 479.715 108.598C479.831 97.7073 478.701 86.8395 476.347 76.2061C474.247 66.7503 470.853 57.6292 466.263 49.1003C461.939 41.1274 456.409 33.8714 449.868 27.5899ZM464.733 50.1264C469.292 58.6597 472.653 67.7808 474.721 77.2323C477.036 87.812 478.147 98.6199 478.031 109.45C477.844 109.548 477.663 109.658 477.489 109.779L476.986 110.127L476.502 110.534C476.347 110.65 476.212 110.805 476.057 110.94C475.784 111.218 475.532 111.516 475.302 111.831C475.071 112.113 474.87 112.418 474.702 112.741C474.531 113.039 474.401 113.358 474.315 113.69C474.217 113.983 474.164 114.29 474.16 114.6C474.137 114.99 474.224 115.379 474.412 115.723C474.587 116.04 474.849 116.302 475.166 116.478C475.536 116.658 475.937 116.763 476.347 116.787C476.849 116.808 477.351 116.756 477.838 116.633C477.838 118.085 477.683 119.556 477.586 121.028C477.489 122.499 477.354 123.99 477.218 125.481C477.083 126.972 476.908 128.501 476.734 130.011C476.56 131.521 476.366 133.07 476.154 134.6C475.922 134.711 475.695 134.834 475.476 134.968L474.818 135.394L474.218 135.878L473.657 136.381C473.409 136.632 473.176 136.897 472.96 137.175C472.747 137.446 472.573 137.717 472.398 137.988C472.224 138.259 472.108 138.569 471.992 138.84C471.881 139.114 471.803 139.4 471.76 139.692C471.659 140.112 471.659 140.55 471.76 140.97C471.868 141.324 472.077 141.64 472.36 141.88C472.668 142.129 473.034 142.295 473.424 142.364C473.898 142.453 474.383 142.453 474.857 142.364C471.884 158.81 467.427 174.952 461.54 190.593C454.802 208.506 446.707 225.878 437.325 242.559C426.878 261.145 415.18 278.998 402.31 295.996C388.438 314.374 373.393 331.835 357.268 348.271C356.85 348.052 356.386 347.933 355.913 347.923C355.377 347.91 354.841 347.982 354.326 348.136C353.734 348.321 353.168 348.581 352.642 348.91C352.065 349.265 351.532 349.688 351.055 350.169C350.569 350.654 350.14 351.193 349.778 351.776C349.459 352.298 349.205 352.857 349.023 353.441C348.869 353.956 348.797 354.491 348.81 355.028C348.822 355.503 348.948 355.968 349.178 356.384C332.745 372.523 315.288 387.585 296.916 401.476C279.909 414.343 262.047 426.038 243.454 436.481C226.763 445.874 209.375 453.972 191.445 460.702C175.757 466.625 159.559 471.097 143.054 474.062C143.143 473.588 143.143 473.102 143.054 472.629C142.977 472.248 142.811 471.89 142.57 471.584C142.334 471.293 142.018 471.078 141.661 470.964C141.24 470.873 140.804 470.873 140.383 470.964L139.532 471.196L138.68 471.603C138.397 471.779 138.125 471.973 137.867 472.184C137.584 472.388 137.319 472.614 137.073 472.861L136.551 473.423L136.086 474.042C135.931 474.255 135.796 474.468 135.66 474.681L135.293 475.359C133.757 475.578 132.228 475.772 130.705 475.94C129.195 476.114 127.686 476.288 126.176 476.424L121.724 476.772C120.253 476.889 118.782 476.966 117.33 477.024C117.465 476.539 117.517 476.035 117.485 475.533C117.47 475.128 117.364 474.731 117.175 474.372C117.008 474.05 116.753 473.781 116.44 473.597C116.089 473.41 115.694 473.323 115.298 473.345C114.988 473.351 114.682 473.404 114.388 473.5C114.065 473.596 113.754 473.726 113.459 473.888C113.137 474.06 112.826 474.254 112.53 474.468C112.226 474.711 111.935 474.969 111.659 475.243L111.233 475.688C111.093 475.841 110.964 476.002 110.846 476.172C110.712 476.332 110.59 476.5 110.478 476.676C110.357 476.849 110.247 477.03 110.149 477.218C99.3408 477.326 88.5551 476.209 77.9985 473.888C68.5938 471.806 59.5209 468.437 51.0355 463.878C43.1503 459.599 35.9692 454.133 29.7438 447.672C23.5087 441.181 18.2883 433.785 14.2589 425.736C10.1028 417.427 7.03841 408.616 5.14215 399.521C3.15146 390.027 2.15249 380.353 2.16133 370.653C2.14434 360.44 2.95348 350.242 4.58084 340.159C6.29967 329.476 8.70481 318.915 11.7813 308.542L12.1684 308.31L12.5362 308.019L12.904 307.709L13.2524 307.38C13.4846 307.148 13.6975 306.916 13.9105 306.664C14.1234 306.412 14.2976 306.141 14.4718 305.87C14.6412 305.608 14.7962 305.336 14.9363 305.057C15.0647 304.796 15.1684 304.524 15.246 304.244C15.3627 303.894 15.4215 303.528 15.4202 303.159C15.4104 302.894 15.3374 302.635 15.2073 302.404C15.0755 302.205 14.8761 302.061 14.646 301.998C14.3663 301.929 14.074 301.929 13.7943 301.998C14.2202 300.681 14.646 299.365 15.0912 298.126C15.5364 296.886 15.9816 295.492 16.4461 294.253C16.9107 293.014 17.3752 291.62 17.8591 290.381C18.343 289.142 18.8269 287.748 19.3302 286.412L19.7947 286.16L20.2399 285.831C20.3966 285.726 20.5454 285.609 20.6851 285.483L21.1109 285.076C21.3194 284.884 21.5134 284.677 21.6916 284.456C21.8658 284.224 22.04 284.011 22.1949 283.779C22.3552 283.551 22.4976 283.312 22.6207 283.062C22.7561 282.833 22.8726 282.594 22.9691 282.346C23.1114 282 23.2027 281.634 23.2401 281.262C23.2676 280.979 23.2278 280.694 23.124 280.429C23.0899 280.318 23.0326 280.216 22.9558 280.129C22.879 280.043 22.7846 279.973 22.6788 279.926C22.4466 279.806 22.1834 279.758 21.9239 279.79C27.2807 266.508 33.3745 253.535 40.1767 240.932C47.0868 228.154 54.868 215.337 63.404 202.636C71.9401 189.935 81.2891 177.466 91.4317 165.133C101.574 152.8 112.452 140.699 124.143 128.83C124.391 128.892 124.65 128.892 124.898 128.83C125.241 128.775 125.573 128.671 125.886 128.52C126.268 128.353 126.631 128.146 126.969 127.901C127.358 127.624 127.721 127.313 128.053 126.972C128.39 126.634 128.7 126.271 128.982 125.887C129.227 125.545 129.44 125.182 129.621 124.803C129.766 124.49 129.864 124.157 129.912 123.816C129.973 123.561 129.973 123.296 129.912 123.041C141.777 111.424 153.933 100.427 166.224 90.3012C178.515 80.1752 191.135 70.785 203.755 62.2467C216.375 53.7083 229.286 45.8476 242.08 39.0131C254.635 32.217 267.559 26.128 280.792 20.7747C280.76 21.0343 280.808 21.2975 280.928 21.5298C281.031 21.7383 281.212 21.8981 281.431 21.9751C281.696 22.079 281.981 22.1188 282.264 22.0913C282.643 22.0444 283.014 21.9467 283.367 21.8009C283.614 21.7117 283.854 21.6016 284.083 21.4717L284.78 21.0458C285.015 20.8838 285.241 20.7093 285.457 20.523L286.077 19.9615L286.483 19.5356L286.832 19.0903C286.948 18.9354 287.064 18.7999 287.161 18.645L287.412 18.1803L291.38 16.7088L295.251 15.2955L299.123 13.9402L302.994 12.6623C302.915 12.9409 302.915 13.2357 302.994 13.5142C303.058 13.7388 303.203 13.9319 303.4 14.0563C303.624 14.2036 303.888 14.2779 304.155 14.2693C304.523 14.2779 304.889 14.2255 305.239 14.1144C305.518 14.0265 305.79 13.9164 306.052 13.7853C306.331 13.6518 306.602 13.5032 306.865 13.34C307.136 13.1657 307.388 12.9721 307.659 12.7591C307.911 12.5552 308.15 12.3354 308.375 12.1008C308.494 11.9943 308.604 11.8777 308.704 11.7523L309.014 11.4038C309.11 11.2794 309.201 11.1501 309.285 11.0166C309.375 10.8986 309.459 10.7758 309.536 10.6487C319.892 7.57257 330.437 5.17954 341.106 3.48505C351.173 1.85732 361.355 1.04796 371.553 1.06489C381.239 1.08227 390.898 2.10091 400.374 4.1046C409.46 5.99472 418.263 9.05343 426.563 13.2044C434.612 17.2424 442.011 22.4633 448.513 28.6935C454.982 34.9674 460.453 42.1955 464.733 50.1264Z" fill="#3E3E3E"/>
</svg>
