<svg width="15" height="15" viewBox="0 0 15 15" fill="none" xmlns="http://www.w3.org/2000/svg">
<path d="M10.5411 10.5381C10.2097 10.8643 9.87999 11.1715 9.53992 11.4562C9.19984 11.7408 8.8563 12.0029 8.51102 12.2424C8.16574 12.4819 7.81699 12.6971 7.46997 12.8897C7.13737 13.0767 6.79508 13.2458 6.44454 13.3965C6.12184 13.5356 5.79099 13.655 5.45381 13.754C5.14697 13.8461 4.83383 13.9157 4.51687 13.9623C4.22981 14.0054 3.93953 14.0234 3.64933 14.0161C3.38733 14.0111 3.12666 13.9773 2.87202 13.9154L2.24219 14.8665C2.5313 14.9394 2.82736 14.9813 3.12534 14.9915C3.45535 15.0013 3.78561 14.9833 4.1126 14.9377C4.47441 14.8859 4.83214 14.8087 5.18314 14.7068C5.56949 14.5953 5.94848 14.4596 6.31788 14.3007C6.72019 14.1302 7.1129 13.9378 7.49426 13.7245C7.89507 13.5024 8.30107 13.2559 8.69147 12.9817C9.08186 12.7075 9.48787 12.4055 9.87826 12.0792C10.2687 11.7529 10.6538 11.4006 11.0286 11.0257L11.046 11.0084L10.5567 10.5242L10.5411 10.5381Z" fill="#FF5700"/>
<path d="M2.144 7.19341C2.33312 6.8706 2.54306 6.54952 2.77036 6.23018C2.99765 5.91084 3.24577 5.59324 3.51124 5.27911C3.7767 4.96497 4.05952 4.65952 4.36142 4.35753C4.66333 4.05555 4.92185 3.81778 5.20814 3.57133C5.49443 3.32488 5.78419 3.09406 6.07568 2.87711C6.36717 2.66017 6.66387 2.46232 6.9571 2.28009C7.25032 2.09786 7.54876 1.93298 7.84372 1.78199L7.91833 1.04785C7.58693 1.22141 7.25032 1.40711 6.91545 1.61537C6.58059 1.82364 6.24745 2.04926 5.91605 2.29397C5.58465 2.53868 5.25672 2.80075 4.93226 3.08017C4.6078 3.3596 4.29028 3.65464 3.97624 3.96704C3.62922 4.31414 3.31344 4.66125 3.01327 5.00836C2.7131 5.35547 2.43202 5.72341 2.17349 6.0844C1.91496 6.44539 1.67552 6.81159 1.46037 7.17606C1.24523 7.54052 1.0509 7.90672 0.880859 8.26771L1.63562 8.1497C1.78483 7.8373 1.95487 7.51449 2.144 7.19341Z" fill="#FF5700"/>
<path d="M2.31625 13.7157C2.21015 13.6647 2.10756 13.6068 2.00914 13.5422C1.91229 13.4784 1.82062 13.407 1.735 13.3287C1.64797 13.2497 1.56678 13.1644 1.49209 13.0736C1.38398 12.9373 1.29036 12.7902 1.21274 12.6345C1.1309 12.4804 1.06408 12.3189 1.01321 12.152C0.961981 11.9772 0.925418 11.7984 0.903901 11.6175C0.881296 11.4263 0.872019 11.2337 0.87614 11.0413C0.880128 10.8375 0.895769 10.6341 0.922987 10.4321C0.952483 10.2238 0.99239 10.0103 1.04444 9.7934C1.09649 9.57646 1.16069 9.35604 1.23704 9.13389C1.31338 8.91174 1.3984 8.68439 1.49556 8.45703L0.721718 8.61497C0.610673 8.87356 0.511774 9.13563 0.42502 9.38208C0.338266 9.62852 0.265393 9.88538 0.204665 10.1318C0.143888 10.3714 0.0963904 10.6142 0.0623892 10.859C0.0281205 11.089 0.00784054 11.3208 0.00166143 11.5532C-0.00411148 11.7729 0.00516395 11.9926 0.0294226 12.211C0.0518531 12.4181 0.0913152 12.623 0.147408 12.8237C0.201298 13.0166 0.272734 13.2043 0.360822 13.3842C0.447723 13.5603 0.552991 13.7267 0.674871 13.8806C0.757303 13.9858 0.847801 14.0845 0.945543 14.1756C1.04257 14.266 1.14577 14.3495 1.25439 14.4256C1.36556 14.5012 1.48147 14.5696 1.6014 14.6304C1.72484 14.6918 1.85239 14.7445 1.98312 14.7883L2.65112 13.8494C2.53655 13.8126 2.42465 13.768 2.31625 13.7157Z" fill="#FF5700"/>
<path d="M13.886 0.674864C13.7245 0.547072 13.55 0.436551 13.3655 0.345111C13.1739 0.254008 12.974 0.181366 12.7686 0.128168C12.5535 0.073344 12.3341 0.0367677 12.1128 0.0188285C11.8785 -0.00210986 11.6431 -0.00559046 11.4083 0.00841533C11.1581 0.021839 10.9089 0.0508207 10.6622 0.0951925C10.4008 0.139297 10.1419 0.19723 9.88666 0.268747C9.62293 0.34164 9.35631 0.429574 9.08679 0.53255C8.81728 0.635525 8.54487 0.751228 8.26957 0.879658L8.15332 1.63462C8.3945 1.52007 8.63567 1.41941 8.87338 1.3309C9.11108 1.24239 9.34705 1.15735 9.57782 1.10007C9.80858 1.0428 10.0393 0.985526 10.2614 0.947344C10.4779 0.91113 10.6963 0.887948 10.9156 0.877923C11.1209 0.867078 11.3268 0.871138 11.5315 0.890072C11.7249 0.90834 11.9164 0.942589 12.1041 0.992469C12.2836 1.04075 12.4579 1.10644 12.6246 1.18858C12.7876 1.26924 12.9412 1.36761 13.0827 1.48189C13.1585 1.5439 13.2303 1.61055 13.2978 1.68148C13.4323 1.82281 13.5489 1.9802 13.6448 2.15008C13.6933 2.23688 13.7373 2.32609 13.7767 2.41735L14.7015 1.72313C14.6556 1.61972 14.604 1.5189 14.5471 1.42115C14.4903 1.3249 14.4277 1.23217 14.3597 1.14346C14.2926 1.05523 14.2202 0.971189 14.1428 0.891807C14.0617 0.814371 13.9759 0.741924 13.886 0.674864Z" fill="#FF5700"/>
<path d="M14.0042 3.37872C14.0293 3.65815 14.0293 3.93928 14.0042 4.21872C13.9751 4.52833 13.9223 4.83526 13.8463 5.13682C13.7641 5.46873 13.6609 5.79508 13.5375 6.11393C13.4029 6.46164 13.2494 6.80174 13.0777 7.1327C12.9042 7.47981 12.6977 7.82692 12.4739 8.17402C12.25 8.52113 12.0002 8.86824 11.7295 9.21535C11.4588 9.56246 11.1656 9.89742 10.8516 10.2306L11.3842 10.6715C11.7451 10.2897 12.0812 9.90031 12.3923 9.50345C12.6994 9.1008 12.9857 8.70163 13.2425 8.29551C13.4938 7.90943 13.7254 7.5109 13.9365 7.10146C14.1315 6.72263 14.3053 6.33327 14.4571 5.93517C14.5968 5.56992 14.7127 5.196 14.8041 4.81575C14.8891 4.47372 14.9471 4.12554 14.9776 3.77442C15.008 3.45639 15.008 3.13617 14.9776 2.81814C14.952 2.53016 14.8938 2.24603 14.8041 1.97119L13.8532 2.63417C13.9308 2.87604 13.9814 3.12573 14.0042 3.37872Z" fill="#FF5700"/>
<path d="M9.36612 9.46799C9.16271 9.66826 8.96037 9.85681 8.75164 10.0315C8.54291 10.2062 8.33205 10.3671 8.12012 10.5141C7.9082 10.6611 7.69414 10.7931 7.48115 10.9114C7.27701 11.0261 7.06692 11.13 6.85177 11.2224C6.6537 11.3078 6.45063 11.3811 6.24368 11.4419C6.05535 11.4984 5.86315 11.5411 5.66861 11.5697C5.49242 11.5962 5.31425 11.6072 5.13613 11.6027C4.97532 11.5997 4.81533 11.5789 4.65904 11.5409L4.27246 12.1247C4.44991 12.1694 4.63162 12.1951 4.81452 12.2014C5.01707 12.2074 5.21978 12.1964 5.42048 12.1684C5.64255 12.1366 5.86211 12.0892 6.07755 12.0267C6.31468 11.9582 6.5473 11.875 6.77403 11.7774C7.02096 11.6728 7.26199 11.5547 7.49606 11.4238C7.74207 11.2874 7.99127 11.1362 8.23088 10.9678C8.47049 10.7995 8.71969 10.6142 8.9593 10.4139C9.19892 10.2137 9.43534 9.99742 9.66537 9.76733L9.67602 9.75667L9.3757 9.45947L9.36612 9.46799Z" fill="#FF5700"/>
<path d="M4.21278 7.41507C4.32886 7.21694 4.45772 7.01987 4.59723 6.82386C4.73674 6.62786 4.88903 6.43292 5.05196 6.24011C5.2149 6.04731 5.38849 5.85982 5.57379 5.67447C5.75909 5.48912 5.91777 5.34318 6.09348 5.19192C6.2692 5.04066 6.44705 4.89898 6.62596 4.76583C6.80487 4.63267 6.98698 4.51123 7.16695 4.39938C7.34693 4.28753 7.5301 4.18634 7.71114 4.09366L7.75694 3.64307C7.55353 3.74959 7.34693 3.86357 7.14139 3.9914C6.93586 4.11923 6.73139 4.25771 6.52798 4.40791C6.32458 4.5581 6.1233 4.71896 5.92416 4.89046C5.72501 5.06196 5.53013 5.24305 5.33737 5.43479C5.12438 5.64784 4.93056 5.86089 4.74632 6.07394C4.56209 6.28698 4.38956 6.51281 4.23089 6.73438C4.07221 6.95595 3.92525 7.18072 3.79319 7.40442C3.66114 7.62812 3.54187 7.85288 3.4375 8.07445L3.90075 8.00201C3.99234 7.81027 4.0967 7.61214 4.21278 7.41507Z" fill="#FF5700"/>
<path d="M4.31815 11.4183C4.25302 11.387 4.19005 11.3515 4.12965 11.3118C4.0702 11.2726 4.01394 11.2288 3.96139 11.1808C3.90797 11.1323 3.85814 11.0799 3.8123 11.0242C3.74594 10.9406 3.68848 10.8502 3.64084 10.7547C3.5906 10.6601 3.54959 10.561 3.51837 10.4586C3.48693 10.3513 3.46448 10.2415 3.45128 10.1305C3.4374 10.0131 3.43171 9.89495 3.43424 9.77681C3.43669 9.65173 3.44629 9.52689 3.46299 9.40291C3.4811 9.27508 3.50559 9.14406 3.53754 9.01091C3.56949 8.87775 3.60889 8.74247 3.65575 8.60612C3.70261 8.46977 3.75479 8.33022 3.81443 8.19067L3.33946 8.28761C3.2713 8.44633 3.2106 8.60718 3.15735 8.75845C3.1041 8.90971 3.05938 9.06736 3.0221 9.21863C2.9848 9.36568 2.95565 9.51469 2.93478 9.66496C2.91374 9.80611 2.9013 9.9484 2.8975 10.0911C2.89396 10.2259 2.89965 10.3608 2.91454 10.4948C2.92831 10.6219 2.95253 10.7477 2.98696 10.8708C3.02004 10.9893 3.06388 11.1044 3.11795 11.2149C3.17129 11.3229 3.2359 11.4251 3.3107 11.5195C3.3613 11.5841 3.41684 11.6447 3.47684 11.7006C3.53639 11.7561 3.59973 11.8074 3.6664 11.854C3.73463 11.9004 3.80577 11.9424 3.87939 11.9797C3.95515 12.0174 4.03344 12.0498 4.11368 12.0767L4.52368 11.5004C4.45336 11.4778 4.38468 11.4504 4.31815 11.4183Z" fill="#FF5700"/>
<path d="M11.419 3.41422C11.3198 3.33578 11.2128 3.26794 11.0995 3.21182C10.9819 3.1559 10.8592 3.11132 10.7332 3.07867C10.6011 3.04502 10.4664 3.02257 10.3306 3.01156C10.1868 2.99871 10.0423 2.99657 9.89824 3.00517C9.74464 3.0134 9.5917 3.03119 9.44031 3.05843C9.27986 3.0855 9.12096 3.12106 8.96428 3.16495C8.8024 3.20969 8.63876 3.26366 8.47333 3.32687C8.30791 3.39007 8.14071 3.46109 7.97174 3.53991L7.90039 4.00329C8.04842 3.93299 8.19645 3.8712 8.34234 3.81688C8.48824 3.76255 8.63308 3.71035 8.77471 3.6752C8.91635 3.64005 9.05799 3.60489 9.1943 3.58146C9.32716 3.55923 9.46123 3.545 9.59579 3.53885C9.72182 3.53219 9.84817 3.53468 9.97385 3.54631C10.0925 3.55752 10.2101 3.57854 10.3253 3.60915C10.4354 3.63879 10.5424 3.67911 10.6448 3.72953C10.7448 3.77903 10.8391 3.8394 10.9259 3.90955C10.9724 3.94761 11.0165 3.98852 11.058 4.03205C11.1405 4.1188 11.2121 4.2154 11.271 4.31967C11.3007 4.37294 11.3277 4.4277 11.3519 4.48371L11.9195 4.05762C11.8913 3.99414 11.8597 3.93227 11.8247 3.87227C11.7899 3.81319 11.7514 3.75628 11.7097 3.70183C11.6685 3.64768 11.6241 3.59609 11.5766 3.54737C11.5268 3.49984 11.4742 3.45538 11.419 3.41422Z" fill="#FF5700"/>
<path d="M11.4917 5.07387C11.5071 5.24538 11.5071 5.41793 11.4917 5.58944C11.4738 5.77948 11.4414 5.96786 11.3947 6.15295C11.3443 6.35667 11.281 6.55698 11.2052 6.75268C11.1226 6.9661 11.0284 7.17484 10.923 7.37797C10.8165 7.59102 10.6897 7.80407 10.5524 8.01712C10.415 8.23016 10.2616 8.44321 10.0955 8.65626C9.92937 8.86931 9.7494 9.0749 9.55664 9.27942L9.88358 9.54999C10.1051 9.31564 10.3113 9.07667 10.5023 8.83309C10.6908 8.58595 10.8665 8.34095 11.0241 8.09168C11.1784 7.85471 11.3205 7.61011 11.4501 7.3588C11.5698 7.12628 11.6764 6.8873 11.7696 6.64296C11.8554 6.41878 11.9265 6.18927 11.9826 5.95588C12.0348 5.74595 12.0704 5.53225 12.0891 5.31674C12.1078 5.12154 12.1078 4.925 12.0891 4.7298C12.0734 4.55304 12.0377 4.37865 11.9826 4.20996L11.399 4.61688C11.4466 4.76534 11.4777 4.91859 11.4917 5.07387Z" fill="#FF5700"/>
<path d="M8.51335 8.61522C8.40288 8.72398 8.29299 8.82638 8.17963 8.92126C8.06628 9.01613 7.95176 9.10349 7.83667 9.18332C7.72158 9.26316 7.60533 9.33489 7.48966 9.39911C7.37879 9.46143 7.26469 9.51782 7.14785 9.56803C7.04028 9.61441 6.93 9.65421 6.81761 9.68721C6.71533 9.71791 6.61095 9.74111 6.50529 9.75663C6.40961 9.77101 6.31285 9.77701 6.21612 9.77456C6.12878 9.7729 6.04189 9.76165 5.95701 9.74101L5.74707 10.058C5.84344 10.0823 5.94213 10.0963 6.04145 10.0997C6.15146 10.103 6.26154 10.097 6.37054 10.0818C6.49114 10.0645 6.61038 10.0388 6.72738 10.0048C6.85617 9.96763 6.98249 9.92241 7.10563 9.86944C7.23973 9.81259 7.37063 9.74848 7.49775 9.67737C7.63135 9.60332 7.76669 9.52117 7.89682 9.42977C8.02695 9.33836 8.16228 9.2377 8.29241 9.12894C8.42254 9.02018 8.55094 8.90274 8.67586 8.77779L8.68165 8.772L8.51855 8.6106L8.51335 8.61522Z" fill="#FF5700"/>
<path d="M5.71499 7.50017C5.77803 7.39257 5.84801 7.28554 5.92377 7.1791C5.99954 7.07265 6.08224 6.96678 6.17073 6.86207C6.25922 6.75736 6.35349 6.65554 6.45413 6.55488C6.55476 6.45422 6.64094 6.37496 6.73636 6.29282C6.83179 6.21067 6.92838 6.13373 7.02554 6.06141C7.12271 5.9891 7.2216 5.92315 7.31935 5.8624C7.41709 5.80166 7.51657 5.7467 7.61489 5.69637L7.63976 5.45166C7.52929 5.50951 7.41709 5.57141 7.30547 5.64083C7.19384 5.71025 7.0828 5.78546 6.97233 5.86703C6.86187 5.9486 6.75256 6.03596 6.64441 6.1291C6.53625 6.22224 6.43041 6.32058 6.32573 6.42472C6.21006 6.54042 6.1048 6.65612 6.00474 6.77182C5.90469 6.88753 5.811 7.01017 5.72482 7.1305C5.63865 7.25083 5.55883 7.3729 5.48712 7.49438C5.4154 7.61587 5.35062 7.73794 5.29395 7.85827L5.54553 7.81893C5.59527 7.7148 5.65195 7.60719 5.71499 7.50017Z" fill="#FF5700"/>
<path d="M5.77208 9.67428C5.73671 9.65728 5.70252 9.63796 5.66971 9.61643C5.63743 9.59515 5.60687 9.57136 5.57833 9.54527C5.54932 9.51892 5.52226 9.4905 5.49736 9.46023C5.46133 9.41481 5.43012 9.36575 5.40425 9.31386C5.37696 9.26252 5.35469 9.20866 5.33774 9.15304C5.32066 9.09476 5.30847 9.03516 5.3013 8.97486C5.29376 8.91113 5.29067 8.84695 5.29205 8.78279C5.29337 8.71486 5.29859 8.64707 5.30766 8.57973C5.31749 8.51031 5.33079 8.43915 5.34815 8.36684C5.3655 8.29453 5.3869 8.22106 5.41234 8.14701C5.43779 8.07296 5.46613 7.99717 5.49852 7.92139L5.24057 7.97403C5.20356 8.06023 5.17059 8.14758 5.14167 8.22973C5.11275 8.31188 5.08846 8.3975 5.06822 8.47965C5.04796 8.55951 5.03213 8.64044 5.0208 8.72205C5.00937 8.7987 5.00261 8.87598 5.00055 8.95345C4.99863 9.02666 5.00172 9.09992 5.00981 9.17271C5.01728 9.24174 5.03044 9.31005 5.04914 9.37692C5.0671 9.44125 5.09091 9.5038 5.12027 9.56378C5.14924 9.62247 5.18433 9.67793 5.22496 9.72924C5.25243 9.76431 5.2826 9.79719 5.31518 9.82758C5.34752 9.85771 5.38192 9.88554 5.41813 9.91089C5.45518 9.9361 5.49382 9.9589 5.5338 9.97915C5.57494 9.99962 5.61746 10.0172 5.66104 10.0318L5.8837 9.71882C5.84551 9.70657 5.80821 9.69169 5.77208 9.67428Z" fill="#FF5700"/>
<path d="M9.62866 5.32749C9.57482 5.2849 9.51667 5.24806 9.45515 5.21758C9.39128 5.18721 9.32466 5.16299 9.2562 5.14526C9.18448 5.12699 9.11135 5.11479 9.03758 5.10882C8.9595 5.10184 8.88102 5.10068 8.80277 5.10534C8.71935 5.10982 8.63629 5.11948 8.55408 5.13427C8.46694 5.14897 8.38064 5.16828 8.29555 5.19212C8.20764 5.21642 8.11877 5.24573 8.02893 5.28005C7.93909 5.31438 7.84829 5.35295 7.75652 5.39576L7.71777 5.64741C7.79816 5.60923 7.87856 5.57567 7.95779 5.54617C8.03703 5.51667 8.11568 5.48832 8.1926 5.46923C8.26952 5.45014 8.34645 5.43105 8.42048 5.41832C8.49263 5.40625 8.56544 5.39852 8.63852 5.39518C8.70696 5.39156 8.77558 5.39292 8.84383 5.39923C8.90828 5.40532 8.97212 5.41673 9.03469 5.43336C9.09451 5.44946 9.15262 5.47135 9.2082 5.49873C9.26252 5.52562 9.31373 5.55841 9.36088 5.5965C9.38614 5.61717 9.41009 5.63939 9.4326 5.66303C9.47743 5.71014 9.51628 5.7626 9.54827 5.81923C9.56442 5.84816 9.57909 5.8779 9.59222 5.90832L9.90049 5.67691C9.88519 5.64244 9.868 5.60884 9.84901 5.57625C9.83007 5.54417 9.80922 5.51326 9.78655 5.48369C9.76419 5.45428 9.74004 5.42627 9.71426 5.39981C9.68721 5.37399 9.65863 5.34985 9.62866 5.32749Z" fill="#FF5700"/>
<path d="M9.66806 6.22894C9.67644 6.32208 9.67644 6.41579 9.66806 6.50894C9.65835 6.61214 9.64075 6.71445 9.61543 6.81497C9.58803 6.9256 9.55364 7.03439 9.51248 7.14067C9.46761 7.25657 9.41645 7.36994 9.35922 7.48026C9.30138 7.59596 9.23256 7.71166 9.15795 7.82737C9.08334 7.94307 9.00006 8.05877 8.90984 8.17447C8.81961 8.29018 8.72187 8.40183 8.61719 8.5129L8.79474 8.65984C8.91504 8.53257 9.02705 8.40279 9.13077 8.27051C9.23314 8.13629 9.32857 8.00323 9.41416 7.86786C9.49792 7.73917 9.57513 7.60633 9.6455 7.46985C9.71049 7.34357 9.76841 7.21378 9.81901 7.08109C9.86559 6.95934 9.90423 6.83469 9.93468 6.70795C9.96301 6.59394 9.98235 6.47788 9.99252 6.36084C10.0027 6.25483 10.0027 6.14809 9.99252 6.04208C9.98399 5.94609 9.96458 5.85138 9.93468 5.75977L9.61774 5.98076C9.64359 6.06138 9.66047 6.14461 9.66806 6.22894Z" fill="#FF5700"/>
<ellipse cx="7.45955" cy="7.57151" rx="2.87128" ry="1.51677" transform="rotate(-46.3893 7.45955 7.57151)" fill="#FF5700"/>
</svg>
