<svg width="140" height="58" viewBox="0 0 140 58" fill="none" xmlns="http://www.w3.org/2000/svg">
<path d="M119.071 27.6718C119.122 29.4032 118.753 31.1211 117.995 32.6786C117.237 34.2362 116.113 35.5868 114.719 36.615C111.875 38.7475 107.891 39.8331 102.765 39.8718C99.6788 39.927 96.6069 39.4359 93.6914 38.4211C91.0337 37.4701 88.6502 35.8811 86.7501 33.7936C86.4603 33.4536 86.2321 33.0658 86.0755 32.6475C85.826 31.9907 85.77 31.2761 85.914 30.5884C86.0579 29.9007 86.3959 29.2686 86.8879 28.767C87.6083 28.0999 88.561 27.7407 89.5426 27.7661C89.9167 27.767 90.2867 27.8435 90.6306 27.9909C91.1243 28.2103 91.574 28.5175 91.9579 28.8976C93.4364 30.3428 95.1543 31.5208 97.0352 32.3792C98.8412 33.1588 100.791 33.5492 102.758 33.5251C105.427 33.4816 107.516 32.9377 109.039 31.8787C109.725 31.4672 110.297 30.8904 110.702 30.2012C111.108 29.5119 111.334 28.7321 111.36 27.9329C111.385 27.3587 111.276 26.7867 111.042 26.2619C110.808 25.737 110.455 25.2737 110.011 24.9083C109.076 24.0814 107.429 23.4576 105.072 22.9789C103.974 22.8 102.695 22.5969 101.235 22.3696C99.7745 22.1424 98.4012 21.9006 97.115 21.6443C93.4497 20.7884 90.7732 19.4417 89.0856 17.6042C88.1559 16.5732 87.4597 15.3537 87.0445 14.029C86.6293 12.7043 86.5049 11.3056 86.6798 9.92839C86.8547 8.55119 87.3247 7.22796 88.0579 6.04909C88.7911 4.87022 89.77 3.86347 90.9279 3.09762C93.7712 1.12473 97.6783 0.114109 102.649 0.0657537C105.061 0.0537391 107.463 0.375952 109.787 1.02319C111.835 1.58107 113.77 2.49435 115.502 3.72142C116.112 4.12319 116.611 4.67194 116.953 5.31713C117.228 5.83296 117.372 6.4082 117.373 6.99265C117.372 7.41415 117.286 7.83107 117.12 8.21862C116.955 8.60616 116.713 8.95639 116.409 9.24842C115.804 9.83514 114.996 10.1652 114.153 10.1696C113.682 10.176 113.216 10.0769 112.789 9.87945C112.27 9.62409 111.772 9.32568 111.302 8.98731C110.179 8.21019 108.96 7.5812 107.676 7.11595C106.177 6.57768 104.597 6.30045 103.005 6.29632C99.7939 6.36402 97.5091 6.87176 96.1503 7.81952C94.7915 8.76728 94.1363 9.78758 94.1847 10.8804C94.1748 11.3556 94.2668 11.8273 94.4545 12.2639C94.6422 12.7006 94.9212 13.092 95.2727 13.4118C96.3004 14.2656 97.5419 14.8224 98.863 15.022C99.5884 15.1743 100.568 15.3557 101.837 15.5733L105.565 16.1898L108.22 16.6323C111.803 17.2512 114.506 18.477 116.329 20.3097C117.259 21.2869 117.981 22.4424 118.453 23.7065C118.924 24.9705 119.134 26.317 119.071 27.6645" fill="white"/>
<path d="M78.3076 4.35232C78.6588 4.64485 78.993 4.95726 79.3085 5.288C79.5334 5.52736 79.7437 5.78121 79.9686 6.04958C80.4633 6.62423 80.8029 7.31586 80.955 8.05874C81.0232 8.49177 81.0032 8.93414 80.896 9.35921C80.7888 9.78427 80.5967 10.1832 80.3312 10.5321C79.8323 11.1943 79.0919 11.6323 78.2713 11.7507C77.7933 11.8328 77.3028 11.8056 76.8368 11.6712C76.3708 11.5368 75.9412 11.2986 75.5803 10.9746C75.2829 10.6844 74.9493 10.387 74.5939 10.0606C74.2385 9.73425 73.6655 9.22653 73.1432 8.77683C72.4197 8.19713 71.6159 7.72558 70.7569 7.37695C69.0922 6.75789 67.3246 6.46246 65.549 6.50654C63.9042 6.48771 62.2748 6.82474 60.7725 7.49453C59.2702 8.16432 57.9304 9.15105 56.8451 10.3871C54.6401 12.8822 53.5037 16.0712 53.436 19.9541C53.419 22.3443 53.9578 24.7058 55.01 26.852C55.971 28.822 57.4378 30.5015 59.2604 31.7189C61.123 32.9354 63.3027 33.5762 65.5273 33.5613C66.9412 33.5547 68.3439 33.3095 69.6761 32.836C70.8352 32.3287 71.9248 31.6754 72.9184 30.8921C73.8855 30.0797 74.6688 29.3834 75.2684 28.8032C75.6379 28.453 76.0747 28.1815 76.5522 28.0053C77.0273 27.8312 77.5373 27.774 78.0392 27.8385C78.9103 27.9428 79.7064 28.3825 80.2587 29.0643C80.5331 29.4136 80.7347 29.8144 80.8518 30.2429C80.9689 30.6714 80.9991 31.119 80.9405 31.5594C80.8911 31.955 80.7911 32.3425 80.6431 32.7126C80.4855 33.1227 80.2517 33.4993 79.954 33.8224C77.9545 36.0819 75.4138 37.7965 72.5702 38.8054C71.3604 39.243 70.1086 39.5541 68.8348 39.7339C67.7363 39.8555 66.6324 39.9208 65.5273 39.9297C62.0342 39.9404 58.6041 39.0001 55.6048 37.2097C52.681 35.4625 50.2538 32.9953 48.5546 30.0434C46.7986 26.9656 45.875 23.4832 45.875 19.9396C45.875 16.396 46.7986 12.9137 48.5546 9.8358C50.2449 6.88772 52.6685 4.42662 55.5903 2.69131C58.598 0.917824 62.0283 -0.0117918 65.52 0.000346378C67.7292 -0.0118571 69.9284 0.298462 72.048 0.921506C73.8016 1.41048 75.4527 2.21148 76.9222 3.28608C76.9222 3.28608 77.7055 3.86634 78.2785 4.34506" fill="white"/>
<path d="M31.3133 10.4307C33.5183 12.9258 34.6522 16.11 34.7151 19.9833C34.6522 23.8517 33.5183 27.0335 31.3133 29.5286C29.6798 31.4617 27.4671 32.8173 25.0029 33.3946C24.2168 33.5633 23.5208 34.017 23.049 34.6682C22.5773 35.3193 22.3631 36.122 22.4478 36.9216C22.5324 37.7212 22.9099 38.4613 23.5075 38.9992C24.1051 39.5372 24.8807 39.8351 25.6847 39.8355C25.867 39.836 26.0489 39.8215 26.2287 39.792C28.489 39.3454 30.6416 38.4661 32.5681 37.2026C35.494 35.4677 37.9224 33.0068 39.6183 30.0581C41.3678 26.9872 42.2878 23.5139 42.2878 19.9796C42.2878 16.4454 41.3678 12.972 39.6183 9.9012C37.9224 6.95252 35.494 4.49161 32.5681 2.75671C30.64 1.49609 28.488 0.617075 26.2287 0.167306C26.0487 0.1403 25.8668 0.128157 25.6847 0.131027C24.8863 0.139331 24.1187 0.44068 23.5279 0.977789C22.9371 1.5149 22.5642 2.25033 22.48 3.04436C22.3959 3.83839 22.6064 4.63568 23.0715 5.28469C23.5366 5.93371 24.224 6.38922 25.0029 6.56469C27.4671 7.14198 29.6798 8.49758 31.3133 10.4307Z" fill="white"/>
<path d="M10.9822 10.4306C8.77717 12.9258 7.64084 16.11 7.57314 19.9832C7.64567 23.8516 8.78201 27.0334 10.9822 29.5286C12.6157 31.4617 14.8284 32.8172 17.2925 33.3945C18.0787 33.5633 18.7747 34.0169 19.2464 34.6681C19.7182 35.3193 19.9323 36.1219 19.8477 36.9216C19.763 37.7212 19.3855 38.4612 18.7879 38.9992C18.1903 39.5371 17.4148 39.835 16.6107 39.8354C16.4261 39.8357 16.2418 39.8211 16.0595 39.7919C13.8 39.3427 11.6479 38.4636 9.72011 37.2025C6.79789 35.4653 4.37235 33.0048 2.67717 30.058C0.922815 26.9888 0 23.5148 0 19.9796C0 16.4443 0.922815 12.9704 2.67717 9.90114C4.37235 6.95436 6.79789 4.49383 9.72011 2.75665C11.6496 1.49872 13.8011 0.619931 16.0595 0.167245C16.242 0.140482 16.4263 0.128341 16.6107 0.130965C17.4092 0.13927 18.1767 0.440618 18.7675 0.977728C19.3584 1.51484 19.7313 2.25027 19.8154 3.0443C19.8996 3.83833 19.6891 4.63562 19.224 5.28463C18.7588 5.93365 18.0715 6.38916 17.2925 6.56463C14.8284 7.14192 12.6157 8.49752 10.9822 10.4306Z" fill="white"/>
<path d="M26.0325 49.3591V55.2706H26.649C27.0337 55.297 27.4198 55.2464 27.7846 55.1218C28.1495 54.9973 28.486 54.8013 28.7742 54.5453C29.254 53.9006 29.5132 53.1184 29.5132 52.3149C29.5132 51.5113 29.254 50.7291 28.7742 50.0845C28.4776 49.8255 28.1325 49.6281 27.759 49.5036C27.3855 49.3791 26.9909 49.33 26.5982 49.3591H26.0325ZM23.4141 57.4466V47.1469H26.9537C27.6455 47.1422 28.3344 47.2375 28.9991 47.4298C29.6107 47.6001 30.1776 47.9021 30.6601 48.3147C31.1569 48.7434 31.5426 49.2859 31.7843 49.8959C32.0785 50.6511 32.2191 51.4575 32.1978 52.2677C32.2211 53.0835 32.078 53.8954 31.7771 54.654C31.5266 55.2671 31.1367 55.8135 30.6383 56.2498C30.145 56.6698 29.5657 56.9768 28.9411 57.1492C28.2639 57.3409 27.5631 57.4362 26.8594 57.432L23.4141 57.4466Z" fill="white"/>
<path d="M37.5149 47.1538H34.8965V57.439H37.5149V47.1538Z" fill="white"/>
<path d="M44.9415 46.98C45.6502 46.977 46.3541 47.0947 47.0232 47.3282C47.6617 47.5451 48.2526 47.8824 48.764 48.3219L47.3569 50.186C46.9613 49.8524 46.5093 49.592 46.0223 49.4171C45.6293 49.2734 45.2148 49.1974 44.7965 49.1923C44.4824 49.1636 44.1691 49.2542 43.9188 49.4461C43.8382 49.517 43.7734 49.604 43.7284 49.7014C43.6834 49.7988 43.6593 49.9046 43.6577 50.0119C43.6519 50.1453 43.6988 50.2755 43.7883 50.3746C43.8855 50.4873 44.007 50.5766 44.1437 50.6357C44.3136 50.7232 44.4908 50.796 44.6732 50.8533L45.3187 51.0419C45.7104 51.1434 46.1238 51.274 46.559 51.4118C46.9871 51.553 47.3944 51.7506 47.7703 51.9993C48.1364 52.2469 48.4496 52.565 48.6915 52.935C48.9526 53.3725 49.0811 53.8765 49.0614 54.3856C49.0743 54.8879 48.9647 55.3858 48.7423 55.8363C48.5286 56.2378 48.2259 56.5852 47.8574 56.8517C47.4578 57.1376 47.0073 57.3444 46.53 57.461C45.9939 57.5943 45.4432 57.6601 44.8908 57.6569C44.0919 57.6613 43.2987 57.5237 42.548 57.2507C41.8459 57.0087 41.2031 56.6206 40.6621 56.1119L42.1128 54.2913C42.5394 54.6636 43.0312 54.9538 43.5634 55.1472C44.0014 55.3155 44.4652 55.4063 44.9343 55.4156C45.3118 55.4404 45.6881 55.352 46.015 55.1617C46.1247 55.0902 46.2147 54.9923 46.2768 54.877C46.3389 54.7617 46.3711 54.6327 46.3704 54.5017C46.3728 54.3823 46.3427 54.2644 46.2834 54.1608C46.2119 54.0481 46.115 53.9537 46.0005 53.8851C45.8293 53.7822 45.6468 53.6995 45.4565 53.6385C45.2244 53.5612 44.9343 53.4742 44.5861 53.3774C44.0786 53.2492 43.5796 53.0893 43.092 52.8987C42.6906 52.7429 42.3123 52.5331 41.9677 52.2749C41.6617 52.042 41.4135 51.7417 41.2424 51.3973C41.0725 51.0064 40.9907 50.583 41.003 50.157C40.9897 49.6755 41.0996 49.1987 41.3222 48.7716C41.5373 48.3815 41.8342 48.0425 42.1925 47.7779C42.5718 47.5044 42.9967 47.3006 43.4474 47.1758C43.9319 47.0438 44.4321 46.978 44.9343 46.98" fill="white"/>
<path d="M56.5908 57.4319H53.9796V49.33H51.042V47.1467H59.5283V49.33H56.5908V57.4319Z" fill="white"/>
<path d="M64.526 49.3229V51.644H66.2958C66.6505 51.6644 67.0014 51.5619 67.2895 51.3538C67.4143 51.2429 67.512 51.1048 67.5749 50.9501C67.6378 50.7954 67.6642 50.6282 67.6521 50.4617C67.6641 50.2973 67.6352 50.1325 67.5682 49.9819C67.5011 49.8313 67.3979 49.6996 67.2677 49.5985C66.9849 49.4096 66.6503 49.3132 66.3103 49.3229H64.526ZM70.3286 50.4762C70.3577 51.1444 70.1805 51.8054 69.8208 52.3693C69.4879 52.8671 69.009 53.2497 68.45 53.4646L70.2996 57.4248H67.5941L66.0636 53.7982H64.526V57.4248H61.9365V47.1469H66.7019C67.1929 47.1426 67.6817 47.211 68.1526 47.35C68.5747 47.4756 68.967 47.6853 69.3059 47.9665C69.6212 48.2516 69.869 48.6035 70.0312 48.9965C70.2192 49.4567 70.313 49.95 70.3068 50.4472" fill="white"/>
<path d="M76.0003 47.1396H73.3818V57.4248H76.0003V47.1396Z" fill="white"/>
<path d="M81.9701 53.022V55.198H83.8052C84.1542 55.216 84.4999 55.1219 84.7917 54.9296C84.9162 54.8235 85.0135 54.6891 85.0753 54.5377C85.1372 54.3862 85.1618 54.2222 85.1471 54.0593C85.1619 53.8966 85.1311 53.733 85.0581 53.5869C84.985 53.4409 84.8727 53.3181 84.7336 53.2324C84.4488 53.0632 84.122 52.9777 83.7907 52.9857L81.9701 53.022ZM81.9701 49.3083V50.9476H83.7254C84.0038 50.9646 84.2804 50.8936 84.516 50.7445C84.6099 50.6726 84.6847 50.5788 84.734 50.4713C84.7833 50.3639 84.8056 50.246 84.7989 50.1279C84.7989 49.584 84.4653 49.3083 83.7907 49.3083H81.9701ZM86.032 51.8325C86.272 51.9155 86.501 52.0276 86.7138 52.1661C86.9323 52.3158 87.1278 52.4966 87.2941 52.7029C87.4645 52.9232 87.6014 53.1677 87.7003 53.4282C87.7965 53.6932 87.8456 53.9731 87.8453 54.2551C87.8688 54.6914 87.7958 55.1276 87.6316 55.5325C87.4673 55.9374 87.2159 56.3012 86.8951 56.5979C86.1138 57.2016 85.1385 57.4983 84.1534 57.432H79.3662V47.1469H84.1969C85.0404 47.1041 85.8751 47.3357 86.576 47.8069C86.8702 48.0327 87.1042 48.3275 87.2573 48.6653C87.4104 49.0031 87.4778 49.3735 87.4536 49.7435C87.4607 50.2099 87.3099 50.6648 87.0257 51.0346C86.7735 51.3811 86.4293 51.65 86.032 51.8107V51.8325Z" fill="white"/>
<path d="M95.1563 57.548C94.5427 57.5554 93.9322 57.4598 93.3503 57.2651C92.828 57.0918 92.3535 56.7987 91.9649 56.4092C91.571 56.0073 91.2691 55.5247 91.08 54.9948C90.8582 54.3588 90.7526 53.6881 90.7681 53.0147V47.1467H93.372V52.9131C93.3297 53.5356 93.4928 54.1548 93.8362 54.6756C94.007 54.8652 94.2156 55.0167 94.4486 55.1204C94.6817 55.2242 94.9339 55.2778 95.189 55.2778C95.4441 55.2778 95.6963 55.2242 95.9293 55.1204C96.1624 55.0167 96.371 54.8652 96.5417 54.6756C96.8725 54.1631 97.0301 53.5581 96.9914 52.9494V47.1467H99.6098V53.0509C99.6226 53.7271 99.5146 54.4001 99.2907 55.0383C99.1001 55.5849 98.7876 56.081 98.3768 56.489C97.9831 56.8776 97.5035 57.1682 96.9769 57.3376C96.3886 57.5258 95.774 57.6188 95.1563 57.6132" fill="white"/>
<path d="M107.588 57.4027H104.984V49.3007H102.047V47.1248H110.526V49.3007H107.588V57.4027Z" fill="white"/>
<path d="M115.727 47.1174H113.108V57.4026H115.727V47.1174Z" fill="white"/>
<path d="M123.357 49.2791C123.043 49.27 122.733 49.3532 122.465 49.5184C122.211 49.6782 121.999 49.8973 121.849 50.1567C121.672 50.4502 121.547 50.7715 121.479 51.1069C121.401 51.4938 121.362 51.8874 121.363 52.2819C121.359 52.6942 121.403 53.1054 121.493 53.5077C121.564 53.8503 121.692 54.1788 121.87 54.4796C122.027 54.7397 122.243 54.9586 122.501 55.1179C122.77 55.2734 123.076 55.3512 123.386 55.3428C123.698 55.3492 124.005 55.2661 124.271 55.1034C124.528 54.9328 124.742 54.7043 124.895 54.4361C125.066 54.133 125.188 53.8051 125.258 53.4642C125.338 53.0802 125.377 52.6887 125.374 52.2964C125.378 51.8945 125.339 51.4933 125.258 51.0996C125.19 50.7616 125.065 50.4377 124.888 50.1422C124.731 49.8842 124.515 49.6678 124.257 49.5112C123.984 49.3531 123.673 49.2728 123.357 49.2791ZM123.357 57.6349C122.656 57.6493 121.96 57.5184 121.312 57.2504C120.752 57.003 120.255 56.6309 119.861 56.1624C119.459 55.6686 119.16 55.0987 118.983 54.4869C118.779 53.78 118.682 53.0466 118.693 52.3109C118.685 51.5754 118.782 50.8425 118.983 50.1349C119.16 49.5148 119.461 48.9372 119.868 48.4377C120.26 47.9643 120.757 47.5892 121.319 47.3424C122.626 46.825 124.081 46.825 125.388 47.3424C125.95 47.5841 126.447 47.9543 126.839 48.4232C127.252 48.9181 127.559 49.4936 127.738 50.1132C128.148 51.5349 128.148 53.0435 127.738 54.4652C127.556 55.0786 127.247 55.6469 126.832 56.1334C126.433 56.5923 125.938 56.9566 125.381 57.1996C124.74 57.464 124.051 57.5925 123.357 57.5768" fill="white"/>
<path d="M134.774 53.7109L133.178 51.2738H133.135V57.3884H130.574V47.1467H132.975L135.216 50.3962C135.289 50.505 135.412 50.6791 135.572 50.9257L136.094 51.7163L136.616 52.5142C136.776 52.768 136.899 52.9494 136.972 53.0509H137.015V47.1467H139.59V57.4246H137.32L134.774 53.7109Z" fill="white"/>
</svg>
