<svg width="784" height="781" viewBox="0 0 784 781" fill="none" xmlns="http://www.w3.org/2000/svg">
<path d="M590.112 780.089L90.9787 491.914L406.379 309.572C406.4 309.963 406.424 310.326 406.447 310.665C406.454 310.776 406.461 310.883 406.468 310.989C406.51 311.64 406.54 312.201 406.527 312.744L406.526 312.744L406.526 312.757C406.543 321.271 406.541 329.788 406.539 338.305C406.536 355.345 406.532 372.387 406.674 389.418L406.674 389.44L406.676 389.461C406.817 390.973 406.484 392.492 405.725 393.808C404.965 395.124 403.816 396.171 402.435 396.806L402.414 396.815L402.394 396.827C349.512 427.422 296.658 458.119 243.832 488.92C242.963 489.408 242.088 489.949 240.987 490.628C240.507 490.924 239.983 491.247 239.398 491.604L238.679 492.042L239.409 492.463L239.419 492.47L239.43 492.476L239.441 492.482L239.451 492.488L239.462 492.494L239.472 492.5L239.483 492.506L239.493 492.512L239.504 492.518L239.514 492.524L239.524 492.53L239.535 492.536L239.545 492.542L239.556 492.548L239.566 492.554L239.576 492.56L239.587 492.566L239.597 492.572L239.607 492.578L239.618 492.584L239.628 492.59L239.638 492.596L239.649 492.602L239.659 492.608L239.669 492.614L239.679 492.62L239.69 492.626L239.7 492.631L239.71 492.637L239.72 492.643L239.73 492.649L239.741 492.655L239.751 492.661L239.761 492.667L239.771 492.672L239.781 492.678L239.791 492.684L239.801 492.69L239.811 492.696L239.821 492.702L239.831 492.707L239.841 492.713L239.851 492.719L239.861 492.725L239.871 492.731L239.881 492.736L239.891 492.742L239.901 492.748L239.911 492.754L239.921 492.759L239.931 492.765L239.941 492.771L239.951 492.776L239.961 492.782L239.971 492.788L239.981 492.794L239.991 492.799L240 492.805L240.01 492.811L240.02 492.816L240.03 492.822L240.04 492.828L240.049 492.833L240.059 492.839L240.069 492.845L240.079 492.85L240.088 492.856L240.098 492.861L240.108 492.867L240.118 492.873L240.127 492.878L240.137 492.884L240.147 492.889L240.156 492.895L240.166 492.901L240.176 492.906L240.185 492.912L240.195 492.917L240.204 492.923L240.214 492.928L240.223 492.934L240.233 492.939L240.243 492.945L240.252 492.95L240.262 492.956L240.271 492.961L240.281 492.967L240.29 492.972L240.3 492.978L240.309 492.983L240.319 492.989L240.328 492.994L240.338 493L240.347 493.005L240.356 493.01L240.366 493.016L240.375 493.021L240.385 493.027L240.394 493.032L240.403 493.038L240.413 493.043L240.422 493.048L240.431 493.054L240.441 493.059L240.45 493.065L240.459 493.07L240.469 493.075L240.478 493.081L240.487 493.086L240.496 493.091L240.506 493.097L240.515 493.102L240.524 493.107L240.533 493.113L240.542 493.118L240.552 493.123L240.561 493.129L240.57 493.134L240.579 493.139L240.588 493.144L240.597 493.15L240.607 493.155L240.616 493.16L240.625 493.165L240.634 493.171L240.643 493.176L240.652 493.181L240.661 493.186L240.67 493.192L240.679 493.197L240.688 493.202L240.697 493.207L240.706 493.213L240.715 493.218L240.724 493.223L240.733 493.228L240.742 493.233L240.751 493.239L240.76 493.244L240.769 493.249L240.778 493.254L240.787 493.259L240.796 493.264L240.805 493.269L240.814 493.275L240.823 493.28L240.832 493.285L240.84 493.29L240.849 493.295L240.858 493.3L240.867 493.305L240.876 493.31L240.885 493.316L240.894 493.321L240.902 493.326L240.911 493.331L240.92 493.336L240.929 493.341L240.937 493.346L240.946 493.351L240.955 493.356L240.964 493.361L240.972 493.366L240.981 493.371L240.99 493.376L240.999 493.381L241.007 493.386L241.016 493.391L241.025 493.396L241.033 493.401L241.042 493.406L241.051 493.411L241.059 493.416L241.068 493.421L241.076 493.426L241.085 493.431L241.094 493.436L241.102 493.441L241.111 493.446L241.119 493.451L241.128 493.456L241.137 493.461L241.145 493.466L241.154 493.471L241.162 493.476L241.171 493.481L241.179 493.486L241.188 493.491L241.196 493.495L241.205 493.5L241.213 493.505L241.222 493.51L241.23 493.515L241.239 493.52L241.247 493.525L241.256 493.53L241.264 493.535L241.272 493.539L241.281 493.544L241.289 493.549L241.298 493.554L241.306 493.559L241.314 493.564L241.323 493.568L241.331 493.573L241.34 493.578L241.348 493.583L241.356 493.588L241.365 493.593L241.373 493.597L241.381 493.602L241.39 493.607L241.398 493.612L241.406 493.617L241.414 493.621L241.423 493.626L241.431 493.631L241.439 493.636L241.448 493.64L241.456 493.645L241.464 493.65L241.472 493.655L241.48 493.66L241.489 493.664L241.497 493.669L241.505 493.674L241.513 493.678L241.522 493.683L241.53 493.688L241.538 493.693L241.546 493.697L241.554 493.702L241.562 493.707L241.57 493.711L241.579 493.716L241.587 493.721L241.595 493.726L241.603 493.73L241.611 493.735L241.619 493.74L241.627 493.744L241.635 493.749L241.643 493.754L241.652 493.758L241.66 493.763L241.668 493.768L241.676 493.772L241.684 493.777L241.692 493.782L241.7 493.786L241.708 493.791L241.716 493.795L241.724 493.8L241.732 493.805L241.74 493.809L241.748 493.814L241.756 493.819L241.764 493.823L241.772 493.828L241.78 493.832L241.788 493.837L241.796 493.841L241.804 493.846L241.812 493.851L241.82 493.855L241.827 493.86L241.835 493.864L241.843 493.869L241.851 493.874L241.859 493.878L241.867 493.883L241.875 493.887L241.883 493.892L241.891 493.896L241.898 493.901L241.906 493.905L241.914 493.91L241.922 493.914L241.93 493.919L241.938 493.923L241.946 493.928L241.953 493.933L241.961 493.937L241.969 493.942L241.977 493.946L241.985 493.951L241.992 493.955L242 493.96L242.008 493.964L242.016 493.969L242.024 493.973L242.031 493.978L242.039 493.982L242.047 493.986L242.055 493.991L242.062 493.995L242.07 494L242.078 494.004L242.085 494.009L242.093 494.013L242.101 494.018L242.109 494.022L242.116 494.027L242.124 494.031L242.132 494.035L242.139 494.04L242.147 494.044L242.155 494.049L242.162 494.053L242.17 494.058L242.178 494.062L242.185 494.066L242.193 494.071L242.201 494.075L242.208 494.08L242.216 494.084L242.224 494.089L242.231 494.093L242.239 494.097L242.246 494.102L242.254 494.106L242.262 494.111L242.269 494.115L242.277 494.119L242.284 494.124L242.292 494.128L242.3 494.132L242.307 494.137L242.315 494.141L242.322 494.146L242.33 494.15L242.337 494.154L242.345 494.159L242.353 494.163L242.36 494.167L242.368 494.172L242.375 494.176L242.383 494.18L242.39 494.185L242.398 494.189L242.405 494.193L242.413 494.198L242.42 494.202L242.428 494.206L242.435 494.211L242.443 494.215L242.45 494.219L242.458 494.224L242.465 494.228L242.473 494.232L242.48 494.237L242.488 494.241L242.495 494.245L242.502 494.25L242.51 494.254L242.517 494.258L242.525 494.262L242.532 494.267L242.54 494.271L242.547 494.275L242.555 494.28L242.562 494.284L242.569 494.288L242.577 494.292L242.584 494.297L242.592 494.301L242.599 494.305L242.606 494.31L242.614 494.314L242.621 494.318L242.629 494.322L242.636 494.327L242.643 494.331L242.651 494.335L242.658 494.339L242.665 494.344L242.673 494.348L242.68 494.352L242.688 494.356L242.695 494.361L242.702 494.365L242.71 494.369L242.717 494.373L242.724 494.378L242.732 494.382L242.739 494.386L242.746 494.39L242.754 494.395L242.761 494.399L242.768 494.403L242.776 494.407L242.783 494.411L242.79 494.416L242.798 494.42L242.805 494.424L242.812 494.428L242.819 494.433L242.827 494.437L242.834 494.441L242.841 494.445L242.849 494.449L242.856 494.454L242.863 494.458L242.87 494.462L242.878 494.466L242.885 494.47L242.892 494.475L242.9 494.479L242.907 494.483L242.914 494.487L242.921 494.491L242.929 494.496L242.936 494.5L242.943 494.504L242.95 494.508L242.958 494.512L242.965 494.517L242.972 494.521L242.979 494.525L242.987 494.529L242.994 494.533L243.001 494.537L243.008 494.542L243.016 494.546L243.023 494.55L243.03 494.554L243.037 494.558L243.044 494.562L243.052 494.567L243.059 494.571L243.066 494.575L243.073 494.579L243.08 494.583L243.088 494.587L243.095 494.592L243.102 494.596L243.109 494.6L243.117 494.604L243.124 494.608L243.131 494.612L243.138 494.617L243.145 494.621L243.152 494.625L243.16 494.629L243.167 494.633L243.174 494.637L243.181 494.641L243.188 494.646L243.196 494.65L243.203 494.654L243.21 494.658L243.217 494.662L243.224 494.666L243.231 494.67L243.239 494.675L243.246 494.679L243.253 494.683L243.26 494.687L243.267 494.691L243.274 494.695L243.282 494.699L243.289 494.704L243.296 494.708L243.303 494.712L243.31 494.716L243.317 494.72L243.325 494.724L243.332 494.728L243.339 494.732L243.346 494.737L243.353 494.741L243.36 494.745L243.367 494.749L243.375 494.753L243.382 494.757L243.389 494.761L243.396 494.765L243.403 494.77L243.41 494.774L243.417 494.778L243.425 494.782L243.432 494.786L243.439 494.79L243.446 494.794L243.453 494.798L243.46 494.803L243.467 494.807L243.474 494.811L243.482 494.815L243.489 494.819L243.496 494.823L243.503 494.827L243.51 494.831L243.517 494.835L243.524 494.84L243.532 494.844L243.539 494.848L243.546 494.852L243.553 494.856L243.56 494.86L243.567 494.864L243.574 494.868L243.581 494.872L243.589 494.877L243.596 494.881L243.603 494.885L243.61 494.889L243.617 494.893L243.624 494.897L243.631 494.901L243.638 494.905L243.643 494.908C243.643 494.908 243.644 494.908 243.644 494.909C358.036 562.034 472.421 629.138 586.801 696.221L586.825 696.235L586.85 696.246C587.963 696.744 588.894 697.574 589.514 698.623C590.135 699.672 590.414 700.888 590.314 702.103L590.313 702.122L590.313 702.141C590.207 718.476 590.214 734.811 590.221 751.135C590.224 759.808 590.228 768.478 590.215 777.143L590.215 777.155C590.234 777.989 590.187 778.798 590.135 779.688C590.127 779.82 590.119 779.953 590.112 780.089Z" stroke="url(#paint0_linear)"/>
<path d="M5.01641 436.481L1.02115 434.174L500.754 146.673C500.835 201.233 500.883 255.67 500.93 310.129C500.989 376.945 501.047 443.795 501.167 510.945L497.996 509.114L497.865 509.039L497.734 508.963L497.603 508.887L497.472 508.812L497.341 508.736L497.21 508.66L497.079 508.585L496.948 508.509L496.817 508.433L496.685 508.358L496.554 508.282L496.423 508.206L496.292 508.131L496.161 508.055L496.03 507.98L495.899 507.904L495.768 507.828L495.637 507.753L495.506 507.677L495.375 507.601L495.244 507.526L495.113 507.45L494.982 507.374L494.851 507.299L494.72 507.223L494.589 507.147L494.458 507.072L494.327 506.996L494.196 506.921L494.065 506.845L493.934 506.769L493.803 506.694L493.672 506.618L493.541 506.542L493.41 506.467L493.279 506.391L493.148 506.315L493.017 506.24L492.886 506.164L492.755 506.088L492.624 506.013L492.493 505.937L492.362 505.862L492.231 505.786L492.1 505.71L491.969 505.635L491.838 505.559L491.707 505.483L491.576 505.408L491.445 505.332L491.314 505.256L491.183 505.181L491.052 505.105L490.921 505.029L490.79 504.954L490.659 504.878L490.528 504.803L490.397 504.727L490.266 504.651L490.135 504.576L490.004 504.5L489.873 504.424L489.742 504.349L489.611 504.273L489.48 504.197L489.349 504.122L489.218 504.046L489.087 503.971L488.956 503.895L488.825 503.819L488.694 503.744L488.563 503.668L488.432 503.592L488.3 503.517L488.169 503.441L488.038 503.365L487.907 503.29L487.776 503.214L487.645 503.138L487.514 503.063L487.383 502.987L487.252 502.912L487.121 502.836L486.99 502.76L486.859 502.685L486.728 502.609L486.597 502.533L486.466 502.458L486.335 502.382L486.204 502.306L486.073 502.231L485.942 502.155L485.811 502.079L485.68 502.004L485.549 501.928L485.418 501.853L485.287 501.777L485.156 501.701L485.025 501.626L484.894 501.55L484.763 501.474L484.632 501.399L484.501 501.323L484.37 501.247L484.239 501.172L484.108 501.096L483.977 501.02L483.846 500.945L483.715 500.869L483.584 500.794L483.453 500.718L483.322 500.642L483.191 500.567L483.06 500.491L482.929 500.415L482.798 500.34L482.667 500.264L482.536 500.188L482.405 500.113L482.274 500.037L482.143 499.961L482.012 499.886L481.881 499.81L481.75 499.735L481.619 499.659L481.488 499.583L481.357 499.508L481.226 499.432L481.095 499.356L480.964 499.281L480.833 499.205L480.702 499.129L480.571 499.054L480.44 498.978L480.309 498.902L480.178 498.827L480.046 498.751L479.915 498.676L479.784 498.6L479.653 498.524L479.522 498.449L479.391 498.373L479.26 498.297L479.129 498.222L478.998 498.146L478.867 498.07L478.736 497.995L478.605 497.919L478.474 497.844L478.343 497.768L478.212 497.692L478.081 497.617L477.95 497.541L477.819 497.465L477.688 497.39L477.557 497.314L477.426 497.238L477.295 497.163L477.164 497.087L477.033 497.011L476.902 496.936L476.771 496.86L476.64 496.785L476.509 496.709L476.378 496.633L476.247 496.558L476.116 496.482L475.985 496.406L475.854 496.331L475.723 496.255L475.592 496.179L475.461 496.104L475.33 496.028L475.199 495.952L475.068 495.877L474.937 495.801L474.806 495.726L474.675 495.65L474.544 495.574L474.413 495.499L474.282 495.423L474.151 495.347L474.02 495.272L473.889 495.196L473.758 495.12L473.627 495.045L473.496 494.969L473.365 494.893L473.234 494.818L473.103 494.742L472.972 494.667L472.841 494.591L472.71 494.515L472.579 494.44L472.448 494.364L472.317 494.288L472.186 494.213L472.055 494.137L471.924 494.061L471.793 493.986L471.661 493.91L471.53 493.834L471.399 493.759L471.268 493.683L471.137 493.608L471.006 493.532L470.875 493.456L470.744 493.381L470.613 493.305L470.482 493.229L470.351 493.154L470.22 493.078L470.089 493.002L469.958 492.927L469.827 492.851L469.696 492.775L469.565 492.7L469.434 492.624L469.303 492.549L469.172 492.473L469.041 492.397L468.91 492.322L468.779 492.246L468.648 492.17L468.517 492.095L468.386 492.019L468.255 491.943L468.124 491.868L467.993 491.792L467.862 491.717L467.731 491.641L467.6 491.565L467.469 491.49L467.338 491.414L467.207 491.338L467.076 491.263L466.945 491.187L466.814 491.111L466.683 491.036L466.552 490.96L466.421 490.884L466.29 490.809L466.159 490.733L466.028 490.658L465.897 490.582L465.766 490.506L465.635 490.431L465.504 490.355L465.373 490.279L465.242 490.204L465.111 490.128L464.98 490.052L464.849 489.977L464.718 489.901L464.587 489.825L464.456 489.75L464.325 489.674L464.194 489.599L464.063 489.523L463.932 489.447L463.801 489.372L463.67 489.296L463.539 489.22L463.408 489.145L463.277 489.069L463.145 488.993L463.014 488.918L462.883 488.842L462.752 488.766L462.621 488.691L462.49 488.615L462.359 488.54L462.228 488.464L462.097 488.388L461.966 488.313L461.835 488.237L461.704 488.161L461.573 488.086L461.442 488.01L461.311 487.934L461.18 487.859L461.049 487.783L460.918 487.707L460.787 487.632L460.656 487.556L460.525 487.481L460.394 487.405L460.263 487.329L460.132 487.254L460.001 487.178L459.87 487.102L459.739 487.027L459.608 486.951L459.477 486.875L459.346 486.8L459.215 486.724L459.084 486.648L458.953 486.573L458.822 486.497L458.691 486.422L458.56 486.346L458.429 486.27L458.298 486.195L458.167 486.119L458.036 486.043L457.905 485.968L457.774 485.892L457.643 485.816L457.512 485.741L457.381 485.665L457.25 485.59L457.119 485.514L456.988 485.438L456.857 485.363L456.726 485.287L456.595 485.211L456.464 485.136L456.333 485.06L456.202 484.984L456.071 484.909L455.94 484.833L455.809 484.757L455.678 484.682L455.547 484.606L455.416 484.531L455.285 484.455L455.154 484.379L455.023 484.304L454.892 484.228L454.76 484.152L454.629 484.077L454.498 484.001L454.367 483.925L454.236 483.85L454.105 483.774L453.974 483.698L453.843 483.623L453.712 483.547L453.581 483.472L453.45 483.396L453.319 483.32L453.188 483.245L453.057 483.169L452.926 483.093L452.795 483.018L452.664 482.942L452.533 482.866L452.402 482.791L452.271 482.715L452.14 482.639L452.009 482.564L451.878 482.488L451.747 482.413L451.616 482.337L451.485 482.261L451.354 482.186L451.223 482.11L451.092 482.034L450.961 481.959L450.83 481.883L450.699 481.807L450.568 481.732L450.437 481.656L450.306 481.581L450.175 481.505L450.044 481.429L449.913 481.354L449.782 481.278L449.651 481.202L449.52 481.127L449.389 481.051L449.258 480.975L449.127 480.9L448.996 480.824L448.865 480.748L448.734 480.673L448.603 480.597L448.472 480.522L448.341 480.446L448.21 480.37L448.079 480.295L447.948 480.219L447.817 480.143L447.686 480.068L447.555 479.992L447.424 479.916L447.293 479.841L447.162 479.765L447.031 479.689L446.9 479.614L446.769 479.538L446.638 479.463L446.507 479.387L446.375 479.311L446.244 479.236L446.113 479.16L445.982 479.084L445.851 479.009L445.72 478.933L445.589 478.857L445.458 478.782L445.327 478.706L445.196 478.63L445.065 478.555L444.934 478.479L444.803 478.404L444.672 478.328L444.541 478.252L444.41 478.177L444.279 478.101L444.148 478.025L444.017 477.95L443.886 477.874L443.755 477.798L443.624 477.723L443.493 477.647L443.362 477.571L443.231 477.496L443.1 477.42L442.969 477.345L442.838 477.269L442.707 477.193L442.576 477.118L442.445 477.042L442.314 476.966L442.183 476.891L442.052 476.815L441.921 476.739L441.79 476.664L441.659 476.588L441.528 476.512L441.397 476.437L441.266 476.361L441.135 476.286L441.004 476.21L440.873 476.134L440.742 476.059L440.611 475.983L440.48 475.907L440.349 475.832L440.218 475.756L440.087 475.68L439.956 475.605L439.825 475.529L439.694 475.454L439.563 475.378L439.432 475.302L439.301 475.227L439.17 475.151L439.039 475.075L438.908 475L438.777 474.924L438.646 474.848L438.515 474.773L438.384 474.697L438.253 474.621L438.122 474.546L437.99 474.47L437.859 474.395L437.728 474.319L437.597 474.243L437.466 474.168L437.335 474.092L437.204 474.016L437.073 473.941L436.942 473.865L436.811 473.789L436.68 473.714L436.549 473.638L436.418 473.562L436.287 473.487L436.156 473.411L436.025 473.336L435.894 473.26L435.763 473.184L435.632 473.109L435.501 473.033L435.37 472.957L435.239 472.882L435.108 472.806L434.977 472.73L434.846 472.655L434.715 472.579L434.584 472.503L434.453 472.428L434.322 472.352L434.191 472.277L434.06 472.201L433.929 472.125L433.798 472.05L433.667 471.974L433.536 471.898L433.405 471.823L433.274 471.747L433.143 471.671L433.012 471.596L432.881 471.52L432.75 471.444L432.619 471.369L432.488 471.293L432.357 471.218L432.226 471.142L432.095 471.066L431.964 470.991L431.833 470.915L431.702 470.839L431.571 470.764L431.44 470.688L431.309 470.612L431.178 470.537L431.047 470.461L430.916 470.385L430.897 470.375L430.877 470.365C429.836 469.881 428.972 469.084 428.405 468.087C427.838 467.089 427.596 465.939 427.712 464.797L427.715 464.772L427.715 464.746C427.661 403.658 427.478 342.461 427.167 281.154L427.137 275.227L427.133 274.426L426.416 274.781C426.116 274.929 425.828 275.07 425.551 275.206C424.484 275.729 423.566 276.179 422.685 276.682C307.584 341.965 192.507 407.297 77.4538 472.678L77.4295 472.691L77.4069 472.708C76.0152 473.719 74.3407 474.267 72.6204 474.273C70.9002 474.28 69.2215 473.745 67.8221 472.745L67.8046 472.732L67.7862 472.721C53.9027 464.496 39.8956 456.479 25.9156 448.478C18.9362 444.483 11.9636 440.492 5.01641 436.481Z" stroke="url(#paint1_linear)"/>
<path d="M517.723 542.37L518.453 542.808L518.481 541.957C518.518 540.767 518.565 539.726 518.607 538.769C518.667 537.435 518.719 536.264 518.73 535.082L518.73 535.08C519.696 403.134 520.649 271.181 521.589 139.219L521.589 139.194L521.587 139.169C521.468 137.899 521.747 136.623 522.385 135.518C523.023 134.414 523.988 133.534 525.148 133.001L525.167 132.992L525.186 132.982C546.801 120.669 568.354 108.251 589.846 95.7275C590.822 95.1854 591.812 94.6873 593.18 94.0098L592.323 670.273L277.17 488.32C277.278 488.249 277.386 488.179 277.492 488.11C278.493 487.458 279.394 486.872 280.316 486.353L280.321 486.35C282.72 484.967 285.119 483.585 287.517 482.202C307.143 470.89 326.751 459.588 346.319 448.139L346.341 448.127L346.361 448.112C347.395 447.36 348.64 446.952 349.92 446.944C351.199 446.937 352.448 447.331 353.492 448.071L353.511 448.085L353.531 448.097C406.645 478.762 459.876 509.285 513.223 539.667C513.225 539.668 513.226 539.669 513.228 539.67L517.723 542.37Z" stroke="url(#paint2_linear)"/>
<defs>
<linearGradient id="paint0_linear" x1="498.812" y1="361.826" x2="340.274" y2="636.422" gradientUnits="userSpaceOnUse">
<stop stop-color="#55A4FF"/>
<stop offset="0.614583" stop-opacity="0"/>
<stop offset="0.994792" stop-color="#55A4FF"/>
</linearGradient>
<linearGradient id="paint1_linear" x1="455.121" y1="119.175" x2="204.927" y2="552.524" gradientUnits="userSpaceOnUse">
<stop stop-color="#55A4FF"/>
<stop offset="0.614583" stop-opacity="0"/>
<stop offset="0.994792" stop-color="#55A4FF"/>
</linearGradient>
<linearGradient id="paint2_linear" x1="684.985" y1="145.918" x2="434.517" y2="579.741" gradientUnits="userSpaceOnUse">
<stop stop-color="#55A4FF"/>
<stop offset="0.614583" stop-opacity="0"/>
<stop offset="0.994792" stop-color="#55A4FF"/>
</linearGradient>
</defs>
</svg>
