<svg width="82" height="74" viewBox="0 0 82 74" fill="none" xmlns="http://www.w3.org/2000/svg">
<path d="M4.79211 40.8757L5.25041 40.092L11.7216 43.9738L11.2633 44.7575L4.79211 40.8757Z" fill="#414042"/>
<path d="M11.3595 45.0874L4.48505 40.9627L5.21374 39.7482L12.0882 43.8729L11.3595 45.0874ZM5.15875 40.7886L11.1854 44.3908L11.3916 44.0425L5.36956 40.4403L5.15875 40.7886Z" fill="#414042"/>
<path d="M6.58405 37.883L7.04234 37.0855L11.8178 36.641L9.89755 32.333L10.3558 31.5859L16.8179 35.4494L16.3596 36.2331L11.1166 33.1121L12.9498 37.3193L12.8765 37.4384L8.2935 37.8509L13.4906 40.9582L13.0323 41.7418L6.58405 37.883Z" fill="#414042"/>
<path d="M13.1332 42.0902L6.25867 37.9655L6.92778 36.8426L11.4695 36.4164L9.63633 32.2917L10.278 31.2147L17.1524 35.3394L16.4237 36.5585L11.662 33.7125L13.2431 37.3147L13.0369 37.6538L9.11387 38.0159L13.8573 40.8528L13.1332 42.0902ZM6.93237 37.7959L12.959 41.3935L13.1652 41.0452L7.52357 37.6722L12.6336 37.2139L10.5667 32.4934L16.2496 35.894L16.4604 35.5411L10.4429 31.9343L10.1955 32.3513L12.2074 36.861L7.23484 37.3284L6.93237 37.7959Z" fill="#414042"/>
<path d="M18.0187 33.4329L11.5612 29.5603C11.772 29.2028 12.3082 28.2679 12.5511 27.8646C13.6556 26.0314 14.9755 26.0681 15.9792 26.6684C16.9829 27.2688 17.5649 28.63 16.6208 30.2111C16.465 30.4677 16.2267 30.8481 16.0067 31.1552L18.4861 32.6401L18.0187 33.4329ZM12.7665 29.2212L15.2597 30.7106C15.4751 30.4127 15.6722 30.1194 15.8646 29.794C16.4329 28.8454 16.2863 27.9608 15.4751 27.5025C14.6639 27.0442 13.9444 27.2138 13.3348 28.2404C13.1928 28.4879 12.9407 28.9095 12.7665 29.2212Z" fill="#414042"/>
<path d="M18.1057 33.7674L11.2312 29.6427L11.3595 29.4273C11.4649 29.2532 11.6391 28.969 11.8178 28.6345C11.9966 28.2999 12.2211 27.9378 12.3495 27.7179C13.7518 25.3622 15.4567 26.0359 16.1258 26.4392C17.2441 27.1083 17.8995 28.5703 16.8499 30.3256C16.7308 30.5272 16.5566 30.7839 16.3916 31.0634L18.8573 32.5392L18.1057 33.7674ZM11.9049 29.4731L17.9315 33.0754L18.1424 32.7271L15.64 31.233L15.8004 31.0085C16.0158 30.7106 16.2587 30.3348 16.4054 30.0919C17.322 28.5382 16.6895 27.4016 15.8509 26.8838C15.0122 26.3659 13.8389 26.1917 12.7665 27.9883L12.2395 28.9049L11.9049 29.4731ZM15.3284 31.0451L12.4274 29.3082L12.5465 29.0973C12.7207 28.7811 12.959 28.3595 13.1148 28.1028C13.3567 27.6253 13.7688 27.2558 14.2697 27.0671C14.4939 27.0025 14.7295 26.988 14.96 27.0244C15.1904 27.0608 15.41 27.1474 15.6034 27.2779C16.5429 27.837 16.7262 28.8544 16.0846 29.9223C15.9059 30.2202 15.7088 30.5181 15.4613 30.8389L15.3284 31.0451ZM13.1056 29.1294L15.1863 30.3714C15.3651 30.1194 15.5117 29.9131 15.6446 29.6656C16.1396 28.8361 16.0296 28.1212 15.3421 27.7133C15.2105 27.621 15.0603 27.5584 14.902 27.5299C14.7437 27.5014 14.5812 27.5077 14.4255 27.5483C14.0452 27.7021 13.7351 27.991 13.5548 28.3595C13.431 28.5611 13.2569 28.8499 13.1056 29.1294Z" fill="#414042"/>
<path d="M16.4008 21.2605C16.7913 20.6009 17.3688 20.072 18.0601 19.7408C18.7514 19.4096 19.5254 19.291 20.2842 19.4C21.0429 19.5091 21.7522 19.8408 22.3223 20.3533C22.8924 20.8658 23.2975 21.5359 23.4865 22.2788C23.6754 23.0217 23.6396 23.8039 23.3836 24.5265C23.1277 25.249 22.663 25.8793 22.0486 26.3376C21.4341 26.7959 20.6975 27.0615 19.9319 27.1008C19.1664 27.1401 18.4064 26.9514 17.7482 26.5585C17.2969 26.3137 16.901 25.9782 16.5856 25.5731C16.2702 25.1679 16.042 24.7019 15.9155 24.2043C15.7889 23.7066 15.7667 23.1882 15.8502 22.6816C15.9338 22.175 16.1212 21.6912 16.4008 21.2605ZM22.3083 24.794C23.1882 23.3137 22.6566 21.6547 21.1946 20.7839C20.6985 20.5192 20.1355 20.4059 19.5756 20.458C19.0157 20.5102 18.4834 20.7255 18.0446 21.0773C17.6059 21.429 17.28 21.9018 17.1073 22.437C16.9347 22.9722 16.9229 23.5463 17.0733 24.0881C17.2238 24.63 17.53 25.1158 17.9539 25.4853C18.3778 25.8548 18.9008 26.0918 19.4581 26.167C20.0154 26.2421 20.5825 26.1521 21.0892 25.908C21.5958 25.664 22.0197 25.2766 22.3083 24.794Z" fill="#414042"/>
<path d="M19.8289 27.3926C19.049 27.3845 18.2858 27.166 17.6199 26.7601C16.6757 26.2141 15.9843 25.3186 15.695 24.267C15.5625 23.7385 15.5372 23.1888 15.6207 22.6504C15.7041 22.112 15.8946 21.5958 16.1808 21.1322C16.4487 20.6663 16.806 20.258 17.2323 19.9308C17.6586 19.6036 18.1455 19.3639 18.6648 19.2257C19.1981 19.0973 19.7516 19.0765 20.2931 19.1647C20.8345 19.2528 21.3529 19.4481 21.8179 19.739C22.2918 20.0038 22.7071 20.3619 23.0389 20.7916C23.3706 21.2213 23.6118 21.7138 23.748 22.2393C23.8842 22.7648 23.9125 23.3124 23.8313 23.8492C23.75 24.3859 23.5609 24.9007 23.2753 25.3623C23.0079 25.8291 22.6507 26.2383 22.2244 26.5663C21.7981 26.8943 21.311 27.1346 20.7913 27.2734C20.4773 27.356 20.1536 27.3961 19.8289 27.3926ZM19.6089 19.6015C19.3323 19.6003 19.0566 19.6342 18.7885 19.7023C18.3336 19.826 17.9076 20.0382 17.5348 20.3269C17.162 20.6155 16.8499 20.9748 16.6162 21.3843C16.3637 21.7903 16.1954 22.243 16.1214 22.7154C16.0474 23.1878 16.0692 23.6703 16.1854 24.1341C16.4594 25.0564 17.0712 25.8414 17.8987 26.3325C18.7261 26.8235 19.7084 26.9844 20.6492 26.783C21.5655 26.5332 22.3452 25.9299 22.817 25.1057C23.069 24.7017 23.2365 24.2509 23.3094 23.7805C23.3824 23.31 23.3593 22.8297 23.2415 22.3684C23.1237 21.9071 22.9137 21.4745 22.6242 21.0966C22.3346 20.7187 21.9714 20.4035 21.5567 20.1698C20.9698 19.8104 20.297 19.6156 19.6089 19.6061V19.6015ZM19.861 26.4164C19.2448 26.4131 18.6411 26.242 18.1148 25.9214C17.7427 25.7212 17.415 25.4477 17.1516 25.1173C16.8882 24.7869 16.6945 24.4065 16.5822 23.9991C16.47 23.5917 16.4415 23.1658 16.4985 22.7471C16.5556 22.3284 16.6969 21.9256 16.914 21.5631C17.131 21.2005 17.4194 20.8858 17.7616 20.6378C18.1037 20.3899 18.4926 20.2139 18.9047 20.1205C19.3169 20.0271 19.7436 20.0183 20.1593 20.0945C20.5749 20.1707 20.9708 20.3304 21.3229 20.5639C21.6979 20.7606 22.0284 21.0323 22.294 21.3621C22.5595 21.6919 22.7545 22.0727 22.8666 22.481C22.9788 22.8893 23.0058 23.3163 22.946 23.7355C22.8863 24.1547 22.7409 24.5571 22.5191 24.9178C22.2467 25.3794 21.8577 25.7612 21.3912 26.0251C20.9246 26.2889 20.3969 26.4254 19.861 26.421V26.4164ZM19.5585 20.5639C19.1124 20.5629 18.6739 20.6793 18.287 20.9013C17.9 21.1233 17.5783 21.4432 17.3541 21.8288C16.9785 22.456 16.8674 23.2067 17.0453 23.9158C17.2232 24.6249 17.6755 25.2342 18.3027 25.6098C18.9299 25.9854 19.6806 26.0964 20.3897 25.9185C21.0988 25.7406 21.7081 25.2883 22.0837 24.6611C22.8766 23.3412 22.4549 21.8334 21.0617 20.9947C20.6081 20.72 20.0888 20.5727 19.5585 20.5685V20.5639Z" fill="#414042"/>
<path d="M25.8235 20.3667L19.366 16.5033C19.5814 16.1458 20.2826 14.9451 20.3835 14.7572C21.4375 12.9973 22.6337 12.9835 23.6786 13.6068C24.0965 13.8546 24.4194 14.2352 24.5955 14.688C24.7716 15.1408 24.7909 15.6395 24.6502 16.1046L28.6649 15.5867L28.092 16.5445L24.3202 17.0028L23.7336 18.0386L26.3184 19.583L25.8235 20.3667ZM20.5714 16.1596L22.9728 17.594L23.5411 16.6454C23.9994 15.8983 23.9582 14.9038 23.1928 14.4455C22.5283 14.0468 21.7813 14.1018 21.0938 15.2475C20.9838 15.4492 20.7455 15.8525 20.5714 16.1596Z" fill="#414042"/>
<path d="M25.9106 20.7105L19.0361 16.5858L19.1644 16.3704L19.8014 15.2796L20.1681 14.6426C21.4101 12.5665 22.8354 12.8094 23.807 13.4052C24.2217 13.6445 24.5554 14.0023 24.7653 14.4327C24.9752 14.863 25.0516 15.3463 24.9848 15.8204L29.1645 15.2842L28.2479 16.7966L24.4807 17.2549L24.0224 17.9836L26.6072 19.5281L25.9106 20.7105ZM19.7098 16.4162L25.7364 20.0185L25.9472 19.6702L23.3624 18.1257L24.1874 16.7508L27.9592 16.2925L28.1975 15.8846L24.3157 16.3841L24.4257 16.0129C24.5477 15.6005 24.5277 15.1591 24.369 14.7594C24.2103 14.3597 23.922 14.0249 23.5503 13.8085C22.4046 13.1211 21.4376 13.4648 20.6035 14.8672L20.2231 15.5592C20.0672 15.8388 19.8518 16.1779 19.7098 16.4162ZM23.0599 17.9424L20.2322 16.2512L20.356 16.0358C20.5301 15.7242 20.7547 15.3209 20.8784 15.1192C21.1281 14.6182 21.5565 14.229 22.0792 14.0285C22.2886 13.9716 22.5078 13.9601 22.722 13.9949C22.9362 14.0297 23.1405 14.1099 23.3212 14.2301C24.2378 14.7938 24.2378 15.9625 23.7795 16.7783L23.0599 17.9424ZM20.9151 16.0725L22.8858 17.2503L23.3441 16.5171C23.7061 15.9075 23.7336 15.0551 23.0783 14.6839C22.9582 14.6004 22.8215 14.5438 22.6776 14.5177C22.5337 14.4916 22.3859 14.4967 22.2442 14.5326C21.8419 14.6978 21.5152 15.0065 21.3276 15.3988C21.2176 15.5317 21.0618 15.8113 20.9151 16.0725Z" fill="#414042"/>
<path d="M22.2121 11.7461L25.3835 6.43903L26.1214 6.89732L24.7694 9.14299L30.4936 12.5619L30.0353 13.3456L24.3019 9.92668L22.95 12.1861L22.2121 11.7461Z" fill="#414042"/>
<path d="M30.1085 13.6939L24.389 10.2704L23.0141 12.5344L21.8408 11.8332L25.2735 6.09534L26.4834 6.79195L25.1085 9.05595L30.8372 12.4749L30.1085 13.6939ZM24.2148 9.60133L29.9344 13.0248L30.1452 12.6719L24.4256 9.2301L25.7776 6.97069L25.4705 6.78737L22.5558 11.6591L22.8628 11.8424L24.2148 9.60133Z" fill="#414042"/>
<path d="M60.1454 7.18152L62.2994 10.9533L61.5387 11.3887L59.843 8.43267L57.689 9.6655L59.2151 12.3511L58.4543 12.8094L56.9236 10.133L54.6917 11.4116L56.4378 14.4685L55.677 14.9268L53.4634 11.0633L60.1454 7.18152Z" fill="#414042"/>
<path d="M55.5854 15.2155L53.1198 10.9167L60.2371 6.85156L62.6478 11.0587L61.447 11.7462L59.7513 8.79017L58.0327 9.77093L59.5634 12.4474L58.3627 13.1348L56.832 10.4584L55.0354 11.4895L56.7861 14.5418L55.5854 15.2155ZM53.8072 11.0908L55.7687 14.5189L56.0941 14.331L54.3434 11.2787L57.0153 9.74801L58.5643 12.4291L58.8897 12.2457L57.359 9.57386L59.9392 8.08439L61.6349 11.045L61.9603 10.8571L60.0538 7.52526L53.8072 11.0908Z" fill="#414042"/>
<path d="M61.6762 17.475L59.6826 21.8701L59.1327 20.9076L60.7505 17.2962L56.8228 16.8746L56.2729 15.9168L61.0713 16.4255L63.0099 12.2L63.5553 13.1532L61.9925 16.618L65.7597 16.9983L66.3096 17.9608L61.6762 17.475Z" fill="#414042"/>
<path d="M59.7101 22.4337L58.853 20.9259L58.9035 20.8114L60.3975 17.5116L56.6853 17.1083L55.8145 15.6143L60.9291 16.1551L62.9961 11.6454L63.8485 13.1394L63.7981 13.254L62.3774 16.4025L65.9246 16.76L66.7816 18.2632L61.8366 17.7453L59.7101 22.4337ZM59.4167 20.8984L59.6596 21.3247L61.5249 17.2L65.8513 17.6583L65.6084 17.2366L61.6212 16.8379L63.2802 13.1715L63.0419 12.7545L61.2087 16.7004L56.7174 16.2421L56.9557 16.6592L61.1033 17.1175L59.4167 20.8984Z" fill="#414042"/>
<path d="M60.5029 23.2999L67.1804 19.4777C67.3958 19.8489 67.9595 20.793 68.2024 21.2101C69.2931 23.1212 68.5873 24.2715 67.547 24.8765C66.5067 25.4814 65.0034 25.3073 64.0685 23.6757C63.9173 23.4099 63.6973 23.002 63.5323 22.6492L60.9658 24.1203L60.5029 23.2999ZM66.8825 20.7243L64.3068 22.2C64.4626 22.5392 64.6276 22.8646 64.8155 23.1991C65.3792 24.1845 66.2225 24.4823 67.0612 24.0057C67.8999 23.5291 68.0878 22.7821 67.4828 21.7142C67.327 21.4576 67.0749 21.0589 66.8825 20.7243Z" fill="#414042"/>
<path d="M66.3555 25.4493C66.1294 25.4484 65.9044 25.4176 65.6863 25.3577C64.8929 25.0966 64.2343 24.5335 63.8531 23.7903C63.7386 23.5841 63.5736 23.2908 63.4269 22.9929L60.8559 24.4548L60.1455 23.2083L67.2721 19.1294L67.3958 19.3494L67.8541 20.1652C68.0603 20.5089 68.2712 20.8663 68.3949 21.0817C69.7698 23.5107 68.3399 24.6886 67.6479 25.0827C67.2555 25.3134 66.8105 25.4396 66.3555 25.4493ZM63.6515 22.2871L63.7661 22.5346C63.9311 22.8874 64.151 23.2953 64.2931 23.5382C64.6074 24.1664 65.1578 24.6443 65.8238 24.8673C66.0916 24.939 66.3711 24.9565 66.6458 24.9188C66.9204 24.881 67.1848 24.7887 67.4233 24.6473C68.2666 24.189 69.0503 23.1991 67.987 21.3384L67.4508 20.4218L67.0933 19.8214L60.8559 23.3962L61.0713 23.7674L63.6515 22.2871ZM66.2867 24.4823C66.1057 24.4813 65.926 24.4503 65.7551 24.3907C65.2559 24.1843 64.8476 23.8053 64.6048 23.3228C64.426 23.0158 64.2656 22.7041 64.0823 22.3054L63.9861 22.0946L66.9742 20.3851L67.1025 20.5914C67.295 20.903 67.5608 21.3292 67.7029 21.5996C67.8628 21.8346 67.9739 22.0992 68.0298 22.3779C68.0857 22.6565 68.0852 22.9436 68.0283 23.222C67.9652 23.4369 67.8586 23.6364 67.7151 23.8083C67.5716 23.9802 67.3943 24.1207 67.1942 24.2211C66.9189 24.3879 66.604 24.4781 66.2821 24.4823H66.2867ZM64.6368 22.3008C64.7743 22.5896 64.9027 22.837 65.0401 23.0754C65.2307 23.4476 65.5428 23.7436 65.9247 23.914C66.2485 23.9967 66.5914 23.9585 66.8891 23.8067C67.1869 23.6548 67.4191 23.3997 67.5425 23.0891C67.6172 22.6565 67.5184 22.2119 67.2675 21.8517C67.1483 21.6409 66.965 21.3338 66.8092 21.0634L64.6368 22.3008Z" fill="#414042"/>
<path d="M72.24 28.0891C72.6359 28.7666 72.8216 29.5465 72.7735 30.3297C72.7255 31.1129 72.4457 31.8642 71.9699 32.4882C71.494 33.1122 70.8435 33.5807 70.1009 33.8343C69.3583 34.0879 68.5571 34.1151 67.799 33.9125C67.0409 33.7099 66.3601 33.2866 65.8429 32.6964C65.3258 32.1062 64.9958 31.3756 64.8946 30.5974C64.7935 29.8193 64.9258 29.0286 65.2748 28.3258C65.6239 27.623 66.1738 27.0397 66.855 26.65C67.2983 26.373 67.7938 26.1901 68.3107 26.1127C68.8277 26.0353 69.3551 26.0649 69.8601 26.1999C70.3651 26.3348 70.8369 26.5722 71.2463 26.8972C71.6558 27.2222 71.994 27.6279 72.24 28.0891ZM66.1354 31.5997C67.0108 33.1304 68.7569 33.4833 70.2601 32.6217C70.7458 32.3134 71.1302 31.8693 71.3658 31.3445C71.6014 30.8197 71.6777 30.2373 71.5852 29.6695C71.4928 29.1018 71.2357 28.5736 70.8459 28.1506C70.456 27.7276 69.9506 27.4284 69.3922 27.29C68.8339 27.1517 68.2472 27.1803 67.705 27.3724C67.1627 27.5644 66.6888 27.9114 66.342 28.3704C65.9952 28.8293 65.7907 29.38 65.754 29.954C65.7173 30.5281 65.8499 31.1003 66.1354 31.5997Z" fill="#414042"/>
<path d="M68.7111 34.2807C68.3598 34.2807 68.01 34.2345 67.6707 34.1433C67.1402 33.9941 66.6447 33.7411 66.2127 33.3988C65.7808 33.0566 65.4212 32.632 65.1547 32.1496C64.8632 31.676 64.6724 31.1474 64.5942 30.5968C64.5159 30.0461 64.5518 29.4853 64.6997 28.9492C64.8476 28.4131 65.1043 27.9131 65.4538 27.4805C65.8033 27.0479 66.2382 26.6919 66.7312 26.4347C67.689 25.8671 68.8327 25.7023 69.9118 25.9764C70.4494 26.1203 70.9523 26.3715 71.3902 26.7149C71.8281 27.0583 72.192 27.4868 72.46 27.9745C73.0263 28.9277 73.1911 30.0667 72.9183 31.1414C72.7641 31.6806 72.5044 32.1839 72.1544 32.6221C71.8043 33.0603 71.3707 33.4247 70.8788 33.6941C70.2196 34.0751 69.4724 34.2773 68.7111 34.2807ZM68.9036 26.343C68.2283 26.3472 67.5661 26.529 66.9833 26.87C66.5488 27.0975 66.1658 27.4121 65.8584 27.7942C65.551 28.1763 65.3258 28.6178 65.1967 29.0909C65.0677 29.5641 65.0377 30.0588 65.1085 30.5441C65.1793 31.0293 65.3495 31.4948 65.6084 31.9113C65.843 32.3358 66.1594 32.7094 66.5393 33.0107C66.9193 33.312 67.3553 33.535 67.822 33.6666C68.7855 33.8931 69.7992 33.7457 70.6582 33.254C71.5173 32.7624 72.158 31.9632 72.4508 31.0177C72.5691 30.5489 72.5936 30.0614 72.5228 29.5832C72.4521 29.105 72.2874 28.6455 72.0383 28.2312C71.8035 27.8022 71.4844 27.4251 71.1 27.1226C70.7156 26.8202 70.2741 26.5986 69.8018 26.4713C69.5096 26.3881 69.2074 26.345 68.9036 26.343ZM68.6103 33.3183C68.3743 33.3203 68.1389 33.2942 67.9091 33.2404C67.4894 33.1374 67.0956 32.9486 66.7525 32.686C66.4094 32.4233 66.1244 32.0925 65.9155 31.7143C65.7027 31.3477 65.567 30.9416 65.5166 30.5208C65.4661 30.1 65.5021 29.6734 65.6221 29.2669C65.894 28.4312 66.4664 27.7262 67.2285 27.2884C67.9905 26.8507 68.8879 26.7114 69.7468 26.8975C70.1564 27.0017 70.5405 27.1878 70.8761 27.4446C71.2116 27.7014 71.4917 28.0235 71.6992 28.3916C71.911 28.7661 72.0454 29.1793 72.0942 29.6068C72.1431 30.0342 72.1054 30.4671 71.9836 30.8798C71.8617 31.2924 71.6581 31.6763 71.3849 32.0086C71.1116 32.3409 70.7743 32.6149 70.393 32.8142C69.8536 33.1364 69.2386 33.3103 68.6103 33.3183ZM68.9861 27.31C68.4538 27.3161 67.9323 27.4614 67.4737 27.7316C66.8151 28.0912 66.3221 28.6927 66.0988 29.409C65.9976 29.75 65.9673 30.1081 66.0099 30.4612C66.0524 30.8144 66.1669 31.155 66.3463 31.4622C66.5166 31.7819 66.7531 32.0617 67.0399 32.2829C67.3268 32.5042 67.6574 32.6618 68.0099 32.7454C68.737 32.898 69.4949 32.7703 70.1318 32.388C70.4561 32.222 70.7435 31.9922 70.9766 31.7122C71.2097 31.4323 71.3837 31.1081 71.4882 30.7591C71.5927 30.4101 71.6254 30.0436 71.5845 29.6816C71.5436 29.3196 71.4298 28.9697 71.2501 28.6528C71.078 28.3416 70.8441 28.0688 70.5627 27.8513C70.2814 27.6337 69.9585 27.476 69.6139 27.3879C69.4089 27.3349 69.1978 27.3088 68.9861 27.31Z" fill="#414042"/>
<path d="M68.3995 37.0993L75.0631 33.2633C75.2785 33.6391 76.0027 34.8582 76.1126 35.0507C77.153 36.8839 76.5709 37.9425 75.4848 38.5612C75.0565 38.8155 74.5547 38.9172 74.0611 38.8498C73.5676 38.7824 73.1115 38.5498 72.7671 38.19L71.2134 42.0352L70.6451 41.0406L72.1438 37.4567L71.5205 36.3706L68.8486 37.9013L68.3995 37.0993ZM74.779 34.5236L72.2996 35.9444L72.8633 36.9251C73.3216 37.6996 74.2061 38.1717 74.999 37.718C75.6864 37.3238 76.0118 36.6318 75.3335 35.4265C75.2144 35.2294 74.9669 34.8078 74.779 34.5145V34.5236Z" fill="#414042"/>
<path d="M71.2684 42.5988L70.3793 41.0498L71.8779 37.4659L71.4196 36.7051L68.7477 38.2358L68.0282 36.9893L75.1456 32.9104L75.2739 33.1304C75.3885 33.332 75.6589 33.7858 75.8926 34.1845C76.1263 34.5832 76.2684 34.8261 76.3188 34.9177C76.7977 35.6167 76.9805 36.4767 76.8275 37.3101C76.7335 37.624 76.5764 37.9156 76.3661 38.1669C76.1557 38.4182 75.8964 38.6241 75.6039 38.772C75.1815 39.0225 74.6938 39.1407 74.2037 39.1113C73.7135 39.0819 73.2434 38.9062 72.8541 38.6071L71.2684 42.5988ZM70.943 41.0131L71.1905 41.4714L72.6937 37.7546L72.9641 38.0296C73.2707 38.3472 73.6754 38.552 74.1129 38.6111C74.5503 38.6701 74.9949 38.5799 75.3747 38.355C75.6092 38.2406 75.818 38.0795 75.9882 37.8818C76.1584 37.684 76.2865 37.4536 76.3647 37.2047C76.4801 36.4985 76.3157 35.7751 75.9064 35.1881L75.4801 34.464C75.3106 34.1707 75.1181 33.8545 74.9852 33.6253L68.7432 37.1955L68.9585 37.5713L71.6258 36.0406L72.437 37.4567L70.943 41.0131ZM74.3436 38.1304C73.99 38.1088 73.648 37.9967 73.3503 37.8049C73.0526 37.6131 72.8091 37.348 72.6433 37.0351L71.9512 35.8298L74.866 34.1616L74.9943 34.3724C75.1868 34.684 75.4526 35.0919 75.5535 35.289C76.4426 36.8426 75.668 37.5805 75.1273 37.9013C74.8921 38.0496 74.6214 38.1319 74.3436 38.1396V38.1304ZM72.6433 36.0177L73.0787 36.783C73.4407 37.4109 74.1923 37.8692 74.8706 37.4796C75.306 37.2322 75.7872 36.7601 75.1135 35.5548C75.0218 35.3898 74.8523 35.0965 74.6919 34.8444L72.6433 36.0177Z" fill="#414042"/>
<path d="M77.9779 38.3276L81.1218 43.8272L80.3564 44.2855L79.0182 41.9481L73.1015 45.335L72.6432 44.5238L78.5553 41.1369L77.2171 38.7996L77.9779 38.3276Z" fill="#414042"/>
<path d="M73.0053 45.6466L72.3133 44.3954L78.2299 41.0132L76.8917 38.6713L78.0924 37.9838L81.4793 43.9051L80.2785 44.5971L78.9357 42.2598L73.0053 45.6466ZM73.0053 44.5879L73.2207 44.9546L79.1374 41.5677L80.471 43.9051L80.7964 43.7217L77.9091 38.6804L77.5837 38.8683L78.922 41.2057L73.0053 44.5879Z" fill="#414042"/>
<path d="M4.12757 65.0555H5.44288L9.06803 73.1262H7.45482L6.56572 71.0638H2.92224L2.03314 73.1262H0.520752L4.12757 65.0555ZM3.49511 69.7577H5.99284L4.75085 66.8887L3.49511 69.7577Z" fill="#414042"/>
<path d="M9.76469 67.1591C9.76469 65.9446 10.7638 64.9318 12.4228 64.9318C12.8662 64.9088 13.3098 64.9735 13.7281 65.1221C14.1465 65.2708 14.5314 65.5004 14.861 65.7979L14.059 66.8566C13.8617 66.6579 13.6256 66.502 13.3654 66.3987C13.1052 66.2954 12.8264 66.2469 12.5466 66.2562C11.7995 66.2562 11.3504 66.6137 11.3504 67.1453C11.3504 68.8181 15.2139 68.2865 15.2139 70.9721C15.2139 72.347 13.9581 73.2636 12.3632 73.2636C11.2633 73.2636 9.98467 72.8053 9.5722 71.9942L10.443 71.0134C10.686 71.2968 10.9866 71.5252 11.3249 71.6833C11.6631 71.8413 12.0312 71.9254 12.4045 71.93C13.1103 71.93 13.6465 71.5954 13.6465 70.9813C13.6511 69.391 9.76469 69.7851 9.76469 67.1591Z" fill="#414042"/>
<path d="M16.4008 67.1591C16.4008 65.9446 17.3999 64.9318 19.0544 64.9318C19.4977 64.9088 19.9413 64.9735 20.3597 65.1221C20.778 65.2708 21.163 65.5004 21.4925 65.7979L20.6905 66.8566C20.4933 66.6579 20.2571 66.502 19.9969 66.3987C19.7367 66.2954 19.4579 66.2469 19.1781 66.2562C18.4357 66.2562 17.9819 66.6137 17.9819 67.1453C17.9819 68.8181 21.8454 68.2865 21.8454 70.9721C21.8454 72.347 20.5897 73.2636 18.9948 73.2636C17.8994 73.2636 16.6208 72.8053 16.2037 71.9942L17.0378 71.0134C17.2812 71.2964 17.582 71.5244 17.9201 71.6824C18.2583 71.8405 18.6261 71.9248 18.9994 71.93C19.7097 71.93 20.2459 71.5954 20.2459 70.9813C20.2459 69.391 16.4008 69.7851 16.4008 67.1591Z" fill="#414042"/>
<path d="M27.235 64.9318C29.7694 64.9318 31.6851 66.5816 31.6851 69.0931C31.6851 71.5129 29.7694 73.2545 27.235 73.2545C24.7006 73.2545 22.817 71.6046 22.817 69.0931C22.817 66.7512 24.6135 64.9318 27.235 64.9318ZM27.235 71.93C27.6145 71.9516 27.9943 71.8932 28.3497 71.7587C28.7052 71.6241 29.0284 71.4164 29.2985 71.149C29.5685 70.8815 29.7794 70.5603 29.9173 70.2061C30.0553 69.852 30.1173 69.4728 30.0994 69.0931C30.0698 68.3551 29.7558 67.6571 29.2232 67.1453C28.6905 66.6336 27.9805 66.3478 27.2419 66.3478C26.5032 66.3478 25.7933 66.6336 25.2606 67.1453C24.728 67.6571 24.414 68.3551 24.3844 69.0931C24.3794 69.4682 24.4499 69.8405 24.5915 70.1878C24.7332 70.5351 24.9432 70.8505 25.2091 71.1151C25.475 71.3797 25.7913 71.5882 26.1394 71.7281C26.4874 71.8681 26.86 71.9368 27.235 71.93Z" fill="#414042"/>
<path d="M39.7741 72.3425C39.0019 72.9767 38.0226 73.3031 37.0243 73.2591C34.4166 73.2591 32.6246 71.6092 32.6246 69.0977C32.6246 66.7788 34.1737 64.9364 36.9876 64.9364C37.9229 64.8993 38.8418 65.1894 39.5862 65.7567L38.9125 66.8063C38.3423 66.4308 37.6701 66.2403 36.9876 66.2609C36.6135 66.2447 36.2401 66.3074 35.8918 66.445C35.5435 66.5827 35.2281 66.7921 34.9661 67.0597C34.7041 67.3273 34.5014 67.6471 34.3712 67.9983C34.241 68.3494 34.1862 68.724 34.2103 69.0977C34.2103 70.7797 35.4157 71.9346 37.1618 71.9346C37.8866 71.9365 38.5936 71.7104 39.1829 71.2884L39.7741 72.3425Z" fill="#414042"/>
<path d="M41.3231 65.0555H42.8263V73.1216H41.3231V65.0555Z" fill="#414042"/>
<path d="M47.7577 65.0555H49.0776L52.6844 73.1445H51.0895L50.1958 71.0822H46.5294L45.6403 73.1445H44.1279L47.7577 65.0555ZM47.1069 69.7394H49.6046L48.3809 66.8887L47.1069 69.7394Z" fill="#414042"/>
<path d="M52.0198 65.0555H59.0547V66.38H56.3049V73.1216H54.8063V66.3846H52.0565L52.0198 65.0555Z" fill="#414042"/>
<path d="M60.3975 65.0555H61.8962V73.1216H60.3975V65.0555Z" fill="#414042"/>
<path d="M68.1382 64.9318C70.6726 64.9318 72.5883 66.5816 72.5883 69.0931C72.5883 71.5129 70.6726 73.2545 68.1382 73.2545C65.6038 73.2545 63.7019 71.6046 63.7019 69.0931C63.7019 66.7512 65.5168 64.9318 68.1382 64.9318ZM68.1382 71.93C68.5177 71.9516 68.8975 71.8932 69.2529 71.7587C69.6084 71.6241 69.9316 71.4164 70.2017 71.149C70.4718 70.8815 70.6826 70.5603 70.8206 70.2061C70.9585 69.852 71.0206 69.4728 71.0026 69.0931C70.973 68.3551 70.6591 67.6571 70.1264 67.1453C69.5938 66.6336 68.8838 66.3478 68.1451 66.3478C67.4065 66.3478 66.6965 66.6336 66.1638 67.1453C65.6312 67.6571 65.3172 68.3551 65.2876 69.0931C65.2826 69.4682 65.3531 69.8405 65.4948 70.1878C65.6364 70.5351 65.8464 70.8505 66.1123 71.1151C66.3782 71.3797 66.6946 71.5882 67.0426 71.7281C67.3906 71.8681 67.7632 71.9368 68.1382 71.93Z" fill="#414042"/>
<path d="M80.2831 73.1262L75.5901 67.5395V73.1262H74.1923V65.0555H75.3839L80.0769 70.6697V65.0555H81.4793V73.1216L80.2831 73.1262Z" fill="#414042"/>
<path d="M59.0227 43.1489C58.8852 42.8922 58.7981 42.7135 58.6973 42.5347C52.1069 30.9245 45.5151 19.3143 38.9217 7.70401C38.841 7.59014 38.7976 7.45402 38.7976 7.31445C38.7976 7.17489 38.841 7.03877 38.9217 6.9249C40.1927 4.75256 41.453 2.57411 42.7026 0.389555C42.7714 0.274981 42.8447 0.164988 42.9547 0L72.1163 50.6833H35.127C35.2049 50.5321 35.269 50.3992 35.3424 50.2754C36.6302 48.0481 37.918 45.8253 39.1921 43.5888C39.249 43.4609 39.3446 43.3541 39.4655 43.2833C39.5864 43.2126 39.7263 43.1816 39.8658 43.1947C46.0711 43.1947 52.2796 43.1764 58.491 43.1397L59.0227 43.1489Z" fill="#154396"/>
<path d="M56.0712 41.334H55.6129C53.0006 41.334 50.3883 41.334 47.776 41.334C47.6498 41.3451 47.5234 41.3167 47.4141 41.2526C47.3049 41.1886 47.2183 41.0921 47.1664 40.9765C44.0714 35.6267 40.9596 30.2737 37.8309 24.9177L37.5284 24.3999C37.4368 24.5373 37.3634 24.6428 37.2993 24.7527C30.5164 36.2958 23.7382 47.8419 16.9645 59.391C16.8894 59.5597 16.7631 59.7005 16.6036 59.7934C16.444 59.8864 16.2592 59.9268 16.0754 59.9089C13.6281 59.8814 11.1808 59.9089 8.74265 59.9089H8.18811L37.5193 9.28516C43.7109 19.9727 49.8567 30.6144 56.0712 41.334Z" fill="#154396"/>
<path d="M18.9902 60.4175L37.4872 28.3366C37.5788 28.4833 37.6522 28.5795 37.7072 28.6803C39.0042 30.9168 40.2874 33.1625 41.5981 35.3898C41.693 35.5238 41.744 35.6839 41.744 35.8481C41.744 36.0123 41.693 36.1725 41.5981 36.3064C38.5123 41.6624 35.434 47.026 32.3634 52.3973C32.2901 52.5211 32.2213 52.654 32.1113 52.8556C32.3222 52.8556 32.4642 52.8556 32.6063 52.8556C46.0253 52.9503 59.4428 53.0435 72.8587 53.1352C72.9918 53.1214 73.1259 53.1493 73.2424 53.2149C73.359 53.2806 73.4523 53.3808 73.5095 53.5018C74.7607 55.7016 76.0347 57.8877 77.295 60.0784C77.3592 60.1838 77.4096 60.2938 77.4738 60.4175H18.9902Z" fill="#154396"/>
</svg>
