<svg width="45" height="40" viewBox="0 0 45 40" fill="none" xmlns="http://www.w3.org/2000/svg">
<path d="M2.33203 22.317L2.58225 21.8892L6.11534 24.0085L5.86512 24.4364L2.33203 22.317Z" fill="white"/>
<path d="M5.91784 24.6165L2.16455 22.3646L2.5624 21.7015L6.31569 23.9534L5.91784 24.6165ZM2.53237 22.2695L5.82275 24.2362L5.93535 24.046L2.64747 22.0793L2.53237 22.2695Z" fill="white"/>
<path d="M3.3103 20.6831L3.56052 20.2477L6.1678 20.005L5.11939 17.6529L5.36961 17.2451L8.89769 19.3544L8.64748 19.7823L5.78497 18.0783L6.78585 20.3753L6.74581 20.4404L4.24362 20.6655L7.0811 22.362L6.83089 22.7899L3.3103 20.6831Z" fill="white"/>
<path d="M6.8861 22.9801L3.13281 20.7281L3.49813 20.1151L5.9778 19.8824L4.97693 17.6304L5.32723 17.0424L9.08052 19.2944L8.68267 19.96L6.0829 18.4061L6.94615 20.3728L6.83355 20.558L4.69168 20.7557L7.28144 22.3045L6.8861 22.9801ZM3.50063 20.6356L6.79102 22.5998L6.90361 22.4096L3.82342 20.568L6.61336 20.3178L5.48487 17.7405L8.58759 19.5972L8.70269 19.4045L5.41731 17.4353L5.28219 17.663L6.38066 20.1251L3.66578 20.3803L3.50063 20.6356Z" fill="white"/>
<path d="M9.55342 18.2535L6.02783 16.1392C6.14293 15.944 6.43569 15.4335 6.56831 15.2133C7.17133 14.2125 7.89196 14.2325 8.43994 14.5603C8.98792 14.8881 9.3057 15.6312 8.79025 16.4945C8.70518 16.6346 8.57506 16.8423 8.45496 17.0099L9.80864 17.8206L9.55342 18.2535ZM6.68591 15.954L8.0471 16.7672C8.1647 16.6046 8.2723 16.4444 8.37739 16.2668C8.68766 15.7488 8.60759 15.2659 8.1647 15.0157C7.72182 14.7655 7.32897 14.858 6.99618 15.4185C6.91861 15.5536 6.78099 15.7838 6.68591 15.954Z" fill="white"/>
<path d="M9.60094 18.4361L5.84766 16.1841L5.91772 16.0665C5.97527 15.9714 6.07035 15.8163 6.16794 15.6336C6.26552 15.451 6.38813 15.2533 6.45819 15.1332C7.22386 13.8471 8.15468 14.2149 8.52 14.4351C9.13053 14.8004 9.48834 15.5986 8.91534 16.557C8.85028 16.667 8.7552 16.8072 8.66512 16.9598L10.0113 17.7655L9.60094 18.4361ZM6.21548 16.0915L9.50586 18.0583L9.62096 17.8681L8.25476 17.0524L8.34234 16.9298C8.45994 16.7671 8.59256 16.562 8.67263 16.4293C9.17307 15.5811 8.82776 14.9606 8.36986 14.6778C7.91196 14.3951 7.2714 14.3 6.68589 15.2808L6.39814 15.7813L6.21548 16.0915ZM8.08461 16.9498L6.50073 16.0015L6.56578 15.8864C6.66087 15.7137 6.79098 15.4835 6.87606 15.3434C7.00813 15.0827 7.2331 14.8809 7.50661 14.7779C7.62901 14.7427 7.75765 14.7347 7.88346 14.7546C8.00927 14.7745 8.12918 14.8217 8.23475 14.893C8.74769 15.1983 8.84778 15.7537 8.49748 16.3368C8.39989 16.4994 8.2923 16.662 8.15718 16.8372L8.08461 16.9498ZM6.87105 15.9039L8.00705 16.582C8.10463 16.4444 8.1847 16.3318 8.25727 16.1966C8.5275 15.7437 8.46745 15.3534 8.09212 15.1307C8.02022 15.0803 7.93823 15.0461 7.85181 15.0306C7.7654 15.015 7.67664 15.0185 7.59168 15.0406C7.38402 15.1246 7.21471 15.2823 7.11627 15.4835C7.04871 15.5936 6.95362 15.7512 6.87105 15.9039Z" fill="white"/>
<path d="M8.6702 11.6076C8.8834 11.2475 9.19868 10.9587 9.57611 10.7779C9.95354 10.5971 10.3761 10.5323 10.7904 10.5919C11.2047 10.6514 11.5919 10.8325 11.9032 11.1123C12.2144 11.3921 12.4356 11.758 12.5388 12.1636C12.6419 12.5692 12.6224 12.9963 12.4826 13.3908C12.3429 13.7853 12.0892 14.1294 11.7537 14.3796C11.4182 14.6298 11.016 14.7748 10.5981 14.7963C10.1801 14.8178 9.7652 14.7147 9.40585 14.5002C9.15941 14.3666 8.94329 14.1834 8.77109 13.9622C8.59888 13.741 8.47431 13.4865 8.40521 13.2149C8.33612 12.9432 8.32399 12.6601 8.3696 12.3835C8.4152 12.1069 8.51755 11.8428 8.6702 11.6076ZM11.8955 13.5368C12.3759 12.7286 12.0857 11.8228 11.2875 11.3474C11.0166 11.2029 10.7093 11.141 10.4036 11.1695C10.0979 11.198 9.80722 11.3155 9.56767 11.5076C9.32813 11.6996 9.1502 11.9578 9.05594 12.25C8.96168 12.5422 8.95523 12.8556 9.03738 13.1514C9.11954 13.4473 9.28669 13.7125 9.51813 13.9143C9.74957 14.116 10.0351 14.2454 10.3394 14.2864C10.6437 14.3275 10.9533 14.2783 11.2299 14.1451C11.5065 14.0118 11.738 13.8003 11.8955 13.5368Z" fill="white"/>
<path d="M10.5416 14.9556C10.1158 14.9512 9.69914 14.8319 9.33554 14.6103C8.82006 14.3122 8.44256 13.8233 8.28462 13.2491C8.21229 12.9606 8.19849 12.6605 8.24404 12.3665C8.2896 12.0726 8.39358 11.7907 8.54986 11.5376C8.69609 11.2833 8.8912 11.0603 9.12396 10.8817C9.35671 10.703 9.62251 10.5722 9.90604 10.4967C10.1972 10.4266 10.4994 10.4153 10.795 10.4634C11.0906 10.5115 11.3737 10.6181 11.6276 10.777C11.8863 10.9215 12.1131 11.117 12.2942 11.3516C12.4753 11.5863 12.607 11.8551 12.6813 12.142C12.7557 12.429 12.7712 12.728 12.7268 13.021C12.6825 13.3141 12.5792 13.5951 12.4232 13.8471C12.2773 14.102 12.0823 14.3254 11.8495 14.5045C11.6167 14.6836 11.3508 14.8148 11.0671 14.8906C10.8956 14.9356 10.7189 14.9575 10.5416 14.9556ZM10.4215 10.7019C10.2705 10.7012 10.12 10.7197 9.9736 10.7569C9.72523 10.8245 9.49262 10.9403 9.28909 11.0979C9.08557 11.2555 8.91514 11.4517 8.78756 11.6752C8.6497 11.8969 8.55782 12.1441 8.51742 12.402C8.47701 12.6599 8.48889 12.9233 8.55236 13.1766C8.70198 13.6801 9.03601 14.1087 9.48778 14.3768C9.93954 14.6449 10.4758 14.7328 10.9895 14.6228C11.4898 14.4864 11.9154 14.157 12.173 13.707C12.3106 13.4865 12.4021 13.2404 12.4419 12.9835C12.4817 12.7267 12.4691 12.4644 12.4048 12.2126C12.3405 11.9607 12.2258 11.7245 12.0677 11.5182C11.9096 11.3119 11.7114 11.1397 11.4849 11.0122C11.1645 10.8159 10.7972 10.7096 10.4215 10.7044V10.7019ZM10.5591 14.4226C10.2227 14.4209 9.89311 14.3274 9.60578 14.1524C9.4026 14.0431 9.2237 13.8938 9.07988 13.7134C8.93606 13.533 8.83031 13.3253 8.76903 13.1029C8.70774 12.8804 8.6922 12.6479 8.72333 12.4193C8.75445 12.1907 8.83161 11.9708 8.95014 11.7729C9.06866 11.5749 9.22609 11.4031 9.4129 11.2677C9.59972 11.1323 9.81205 11.0363 10.0371 10.9853C10.2621 10.9343 10.4951 10.9294 10.722 10.9711C10.9489 11.0127 11.165 11.0998 11.3573 11.2274C11.562 11.3347 11.7425 11.4831 11.8875 11.6631C12.0325 11.8432 12.1389 12.0511 12.2001 12.274C12.2614 12.497 12.2761 12.7301 12.2435 12.959C12.2109 13.1878 12.1315 13.4075 12.0104 13.6044C11.8617 13.8565 11.6493 14.0649 11.3946 14.209C11.1399 14.353 10.8517 14.4276 10.5591 14.4251V14.4226ZM10.394 11.2274C10.1504 11.2268 9.911 11.2903 9.69976 11.4116C9.48851 11.5328 9.31285 11.7074 9.19042 11.918C8.98536 12.2604 8.92473 12.6702 9.02186 13.0574C9.119 13.4445 9.36594 13.7772 9.70837 13.9823C10.0508 14.1873 10.4607 14.248 10.8478 14.1508C11.2349 14.0537 11.5676 13.8067 11.7727 13.4643C12.2056 12.7437 11.9754 11.9205 11.2147 11.4626C10.967 11.3126 10.6835 11.2322 10.394 11.2299V11.2274Z" fill="white"/>
<path d="M13.8146 11.1197L10.2891 9.01033C10.4067 8.81516 10.7895 8.15959 10.8445 8.057C11.4201 7.09616 12.0731 7.08865 12.6436 7.42895C12.8718 7.5642 13.0481 7.77204 13.1442 8.01924C13.2404 8.26645 13.2509 8.53875 13.1741 8.79264L15.366 8.50989L15.0532 9.03285L12.9939 9.28307L12.6736 9.84857L14.0849 10.6918L13.8146 11.1197ZM10.9471 8.82267L12.2583 9.60585L12.5686 9.0879C12.8188 8.68004 12.7963 8.13707 12.3784 7.88685C12.0156 7.66916 11.6077 7.69918 11.2324 8.32473C11.1723 8.43483 11.0422 8.65502 10.9471 8.82267Z" fill="white"/>
<path d="M13.8622 11.3074L10.1089 9.0554L10.1789 8.9378L10.5268 8.34228L10.7269 7.99447C11.405 6.86098 12.1832 6.9936 12.7137 7.31888C12.9401 7.44953 13.1223 7.64488 13.2369 7.87985C13.3515 8.11482 13.3932 8.37868 13.3567 8.63754L15.6387 8.34478L15.1383 9.1705L13.0815 9.42072L12.8313 9.81857L14.2425 10.6618L13.8622 11.3074ZM10.4767 8.96282L13.7671 10.9295L13.8822 10.7394L12.471 9.89614L12.9213 9.14548L14.9807 8.89526L15.1108 8.67257L12.9914 8.94531L13.0515 8.74263C13.1181 8.51747 13.1072 8.27647 13.0205 8.05825C12.9339 7.84002 12.7765 7.6572 12.5735 7.53908C11.948 7.16375 11.42 7.35141 10.9646 8.11708L10.757 8.49491C10.6719 8.64755 10.5543 8.83271 10.4767 8.96282ZM12.3058 9.79605L10.762 8.87274L10.8295 8.75514C10.9246 8.58499 11.0472 8.3648 11.1148 8.2547C11.2511 7.98115 11.485 7.76865 11.7703 7.65918C11.8847 7.62811 12.0043 7.62186 12.1213 7.64085C12.2383 7.65984 12.3498 7.70363 12.4484 7.76928C12.9489 8.07705 12.9489 8.71511 12.6987 9.1605L12.3058 9.79605ZM11.1348 8.77516L12.2107 9.41822L12.4609 9.01787C12.6586 8.68508 12.6736 8.21967 12.3158 8.01699C12.2502 7.97145 12.1756 7.94051 12.0971 7.92627C12.0185 7.91202 11.9378 7.9148 11.8604 7.93442C11.6408 8.02462 11.4625 8.19315 11.36 8.40734C11.2999 8.4799 11.2149 8.63253 11.1348 8.77516Z" fill="white"/>
<path d="M11.843 6.4131L13.5745 3.51556L13.9774 3.76578L13.2392 4.99186L16.3645 6.85849L16.1143 7.28637L12.984 5.41973L12.2459 6.65331L11.843 6.4131Z" fill="white"/>
<path d="M16.1541 7.47651L13.0314 5.60738L12.2807 6.84346L11.6401 6.46062L13.5143 3.32788L14.1749 3.70821L13.4242 4.9443L16.5519 6.81093L16.1541 7.47651ZM12.9363 5.24206L16.059 7.11119L16.1741 6.91853L13.0514 5.03938L13.7895 3.8058L13.6219 3.70571L12.0305 6.36554L12.1981 6.46563L12.9363 5.24206Z" fill="white"/>
<path d="M32.5535 3.9209L33.7295 5.9802L33.3141 6.21791L32.3883 4.604L31.2123 5.27709L32.0455 6.74337L31.6302 6.99359L30.7944 5.53231L29.5759 6.23042L30.5292 7.89938L30.1138 8.1496L28.9053 6.04025L32.5535 3.9209Z" fill="white"/>
<path d="M30.0637 8.30728L28.7175 5.96023L32.6034 3.74078L33.9196 6.03779L33.264 6.41312L32.3382 4.79921L31.3999 5.33468L32.2356 6.79596L31.58 7.17129L30.7443 5.71001L29.7634 6.273L30.7193 7.93946L30.0637 8.30728ZM29.0929 6.05531L30.1638 7.92695L30.3415 7.82436L29.3856 6.1579L30.8444 5.32217L31.6901 6.78595L31.8678 6.68586L31.0321 5.22708L32.4408 4.41387L33.3666 6.03029L33.5443 5.9277L32.5033 4.10861L29.0929 6.05531Z" fill="white"/>
<path d="M33.3893 9.54085L32.3008 11.9404L32.0006 11.415L32.8839 9.44326L30.7395 9.21306L30.4392 8.6901L33.059 8.96785L34.1174 6.66083L34.4152 7.18128L33.5619 9.07294L35.6187 9.28062L35.919 9.80608L33.3893 9.54085Z" fill="white"/>
<path d="M32.3158 12.2483L31.8479 11.425L31.8754 11.3625L32.6912 9.5609L30.6644 9.3407L30.189 8.52499L32.9814 8.82025L34.1099 6.35809L34.5753 7.17381L34.5478 7.23636L33.7721 8.95537L35.7088 9.15054L36.1767 9.97126L33.4768 9.68851L32.3158 12.2483ZM32.1557 11.41L32.2883 11.6427L33.3067 9.39075L35.6688 9.64097L35.5361 9.41077L33.3592 9.19308L34.265 7.19132L34.1349 6.96362L33.134 9.11801L30.6819 8.86779L30.812 9.09549L33.0765 9.34571L32.1557 11.41Z" fill="white"/>
<path d="M32.7488 12.7212L36.3945 10.6343C36.5121 10.837 36.8198 11.3525 36.9525 11.5802C37.548 12.6236 37.1626 13.2516 36.5946 13.5819C36.0267 13.9122 35.2059 13.8171 34.6955 12.9263C34.6129 12.7812 34.4928 12.5585 34.4027 12.3659L33.0015 13.1691L32.7488 12.7212ZM36.2318 11.3149L34.8256 12.1206C34.9107 12.3058 35.0008 12.4835 35.1033 12.6661C35.4111 13.2041 35.8715 13.3667 36.3294 13.1065C36.7873 12.8463 36.8899 12.4384 36.5596 11.8554C36.4745 11.7153 36.3369 11.4976 36.2318 11.3149Z" fill="white"/>
<path d="M35.9439 13.8947C35.8205 13.8942 35.6976 13.8774 35.5786 13.8446C35.1454 13.7021 34.7859 13.3946 34.5777 12.9889C34.5152 12.8763 34.4251 12.7161 34.345 12.5535L32.9413 13.3517L32.5535 12.6711L36.4444 10.4442L36.5119 10.5643L36.7622 11.0096C36.8748 11.1973 36.9899 11.3925 37.0574 11.5101C37.8081 12.8362 37.0274 13.4793 36.6496 13.6945C36.4353 13.8204 36.1924 13.8894 35.9439 13.8947ZM34.4676 12.1682L34.5302 12.3033C34.6203 12.4959 34.7404 12.7186 34.818 12.8513C34.9895 13.1942 35.29 13.4552 35.6537 13.5769C35.7999 13.6161 35.9525 13.6256 36.1024 13.605C36.2524 13.5844 36.3967 13.534 36.5269 13.4568C36.9873 13.2066 37.4152 12.6661 36.8347 11.6502L36.542 11.1498L36.3468 10.822L32.9413 12.7737L33.0589 12.9764L34.4676 12.1682ZM35.9064 13.3667C35.8076 13.3662 35.7095 13.3492 35.6161 13.3167C35.3436 13.204 35.1207 12.9971 34.9881 12.7337C34.8905 12.566 34.8029 12.3959 34.7028 12.1782L34.6503 12.0631L36.2817 11.1298L36.3518 11.2424C36.4569 11.4125 36.602 11.6452 36.6796 11.7928C36.7669 11.9211 36.8276 12.0656 36.8581 12.2177C36.8886 12.3699 36.8883 12.5266 36.8572 12.6786C36.8228 12.7959 36.7646 12.9049 36.6863 12.9987C36.6079 13.0926 36.5111 13.1693 36.4018 13.2241C36.2515 13.3152 36.0796 13.3644 35.9039 13.3667H35.9064ZM35.0056 12.1757C35.0807 12.3333 35.1507 12.4684 35.2258 12.5985C35.3298 12.8018 35.5002 12.9634 35.7087 13.0564C35.8855 13.1016 36.0727 13.0807 36.2353 12.9978C36.3979 12.9149 36.5247 12.7757 36.592 12.606C36.6328 12.3699 36.5789 12.1271 36.4419 11.9305C36.3768 11.8154 36.2767 11.6477 36.1917 11.5001L35.0056 12.1757Z" fill="white"/>
<path d="M39.1568 15.3359C39.373 15.7058 39.4744 16.1316 39.4481 16.5592C39.4219 16.9869 39.2692 17.397 39.0094 17.7377C38.7496 18.0784 38.3944 18.3342 37.989 18.4726C37.5835 18.6111 37.1461 18.626 36.7322 18.5153C36.3183 18.4047 35.9466 18.1736 35.6642 17.8514C35.3819 17.5291 35.2017 17.1303 35.1465 16.7054C35.0912 16.2806 35.1635 15.8489 35.354 15.4652C35.5446 15.0814 35.8449 14.763 36.2168 14.5502C36.4588 14.399 36.7293 14.2991 37.0116 14.2569C37.2938 14.2146 37.5817 14.2308 37.8575 14.3045C38.1332 14.3781 38.3908 14.5077 38.6143 14.6852C38.8379 14.8626 39.0225 15.0841 39.1568 15.3359ZM35.8239 17.2526C36.3018 18.0883 37.2552 18.281 38.0759 17.8106C38.341 17.6423 38.5509 17.3998 38.6796 17.1133C38.8082 16.8268 38.8498 16.5088 38.7994 16.1988C38.7489 15.8888 38.6085 15.6005 38.3957 15.3695C38.1829 15.1386 37.9069 14.9752 37.602 14.8997C37.2972 14.8241 36.9769 14.8398 36.6808 14.9446C36.3848 15.0495 36.126 15.2389 35.9367 15.4895C35.7473 15.7401 35.6357 16.0407 35.6157 16.3541C35.5956 16.6675 35.668 16.98 35.8239 17.2526Z" fill="white"/>
<path d="M37.2302 18.7164C37.0384 18.7164 36.8474 18.6911 36.6622 18.6413C36.3726 18.5599 36.102 18.4217 35.8662 18.2349C35.6304 18.048 35.434 17.8162 35.2885 17.5528C35.1294 17.2942 35.0252 17.0056 34.9825 16.705C34.9397 16.4044 34.9593 16.0982 35.0401 15.8055C35.1208 15.5128 35.261 15.2398 35.4518 15.0036C35.6426 14.7674 35.88 14.5731 36.1493 14.4326C36.6722 14.1227 37.2966 14.0328 37.8858 14.1824C38.1793 14.261 38.4538 14.3982 38.6929 14.5856C38.932 14.7731 39.1307 15.0071 39.277 15.2734C39.5862 15.7938 39.6762 16.4156 39.5272 17.0024C39.443 17.2968 39.3013 17.5716 39.1101 17.8108C38.919 18.05 38.6823 18.249 38.4137 18.3961C38.0538 18.6041 37.6459 18.7145 37.2302 18.7164ZM37.3353 14.3826C36.9666 14.3849 36.6051 14.4841 36.2869 14.6703C36.0496 14.7945 35.8406 14.9663 35.6727 15.1749C35.5049 15.3835 35.3819 15.6245 35.3115 15.8829C35.241 16.1412 35.2246 16.4113 35.2633 16.6762C35.3019 16.9412 35.3949 17.1953 35.5362 17.4227C35.6643 17.6545 35.837 17.8585 36.0445 18.023C36.2519 18.1875 36.49 18.3092 36.7448 18.3811C37.2708 18.5047 37.8243 18.4242 38.2933 18.1558C38.7623 17.8874 39.1121 17.451 39.272 16.9348C39.3366 16.6789 39.35 16.4127 39.3113 16.1517C39.2727 15.8906 39.1828 15.6397 39.0468 15.4135C38.9186 15.1792 38.7443 14.9733 38.5345 14.8082C38.3246 14.6431 38.0835 14.5221 37.8257 14.4526C37.6662 14.4072 37.5012 14.3836 37.3353 14.3826ZM37.1751 18.1909C37.0463 18.192 36.9178 18.1777 36.7923 18.1484C36.5632 18.0921 36.3482 17.9891 36.1609 17.8457C35.9736 17.7023 35.8179 17.5216 35.7039 17.3151C35.5877 17.115 35.5136 16.8933 35.4861 16.6636C35.4585 16.4338 35.4782 16.2009 35.5437 15.979C35.6921 15.5227 36.0047 15.1377 36.4207 14.8987C36.8368 14.6597 37.3268 14.5837 37.7957 14.6853C38.0193 14.7422 38.229 14.8438 38.4122 14.984C38.5954 15.1242 38.7483 15.3001 38.8616 15.5011C38.9773 15.7055 39.0506 15.9311 39.0773 16.1645C39.104 16.3979 39.0834 16.6342 39.0169 16.8595C38.9504 17.0848 38.8392 17.2944 38.69 17.4758C38.5408 17.6573 38.3567 17.8068 38.1485 17.9157C37.854 18.0916 37.5182 18.1865 37.1751 18.1909ZM37.3803 14.9105C37.0897 14.9138 36.805 14.9932 36.5546 15.1407C36.1951 15.3371 35.9259 15.6654 35.8039 16.0565C35.7487 16.2427 35.7322 16.4382 35.7554 16.631C35.7787 16.8238 35.8412 17.0098 35.9391 17.1775C36.0321 17.3521 36.1612 17.5048 36.3178 17.6256C36.4744 17.7464 36.6549 17.8325 36.8474 17.8781C37.2443 17.9614 37.6581 17.8917 38.0059 17.683C38.1829 17.5924 38.3398 17.4669 38.4671 17.314C38.5944 17.1612 38.6894 16.9842 38.7464 16.7936C38.8035 16.6031 38.8214 16.403 38.799 16.2054C38.7767 16.0077 38.7146 15.8167 38.6164 15.6437C38.5225 15.4737 38.3948 15.3248 38.2412 15.206C38.0875 15.0873 37.9112 15.0012 37.7231 14.9531C37.6112 14.9241 37.496 14.9098 37.3803 14.9105Z" fill="white"/>
<path d="M37.0601 20.2552L40.6982 18.1609C40.8158 18.3661 41.2112 19.0317 41.2712 19.1367C41.8392 20.1376 41.5215 20.7156 40.9284 21.0534C40.6946 21.1922 40.4206 21.2478 40.1512 21.211C39.8817 21.1742 39.6327 21.0472 39.4446 20.8507L38.5964 22.9501L38.2861 22.4071L39.1043 20.4504L38.764 19.8574L37.3053 20.6931L37.0601 20.2552ZM40.5431 18.849L39.1894 19.6247L39.4972 20.1601C39.7474 20.583 40.2303 20.8407 40.6632 20.593C41.0385 20.3778 41.2162 20 40.8459 19.3419C40.7808 19.2343 40.6457 19.0041 40.5431 18.844V18.849Z" fill="white"/>
<path d="M38.6262 23.2578L38.1408 22.4121L38.959 20.4554L38.7088 20.04L37.25 20.8757L36.8572 20.1952L40.7431 17.9682L40.8131 18.0883C40.8757 18.1984 41.0233 18.4461 41.1509 18.6638C41.2785 18.8815 41.3561 19.0141 41.3836 19.0642C41.6451 19.4458 41.7449 19.9153 41.6614 20.3703C41.61 20.5417 41.5243 20.7009 41.4094 20.8381C41.2946 20.9753 41.153 21.0877 40.9933 21.1685C40.7627 21.3053 40.4964 21.3698 40.2288 21.3537C39.9612 21.3377 39.7046 21.2418 39.492 21.0784L38.6262 23.2578ZM38.4486 22.3921L38.5837 22.6423L39.4044 20.613L39.552 20.7631C39.7194 20.9365 39.9404 21.0484 40.1793 21.0806C40.4181 21.1129 40.6608 21.0636 40.8682 20.9408C40.9962 20.8783 41.1102 20.7904 41.2031 20.6824C41.296 20.5745 41.366 20.4487 41.4087 20.3128C41.4717 19.9272 41.3819 19.5322 41.1584 19.2118L40.9257 18.8164C40.8332 18.6563 40.7281 18.4837 40.6555 18.3585L37.2475 20.3077L37.3651 20.5129L38.8214 19.6772L39.2643 20.4504L38.4486 22.3921ZM40.3052 20.8182C40.1122 20.8064 39.9255 20.7452 39.7629 20.6405C39.6003 20.5358 39.4674 20.391 39.3769 20.2202L38.9991 19.5621L40.5904 18.6513L40.6605 18.7664C40.7656 18.9365 40.9107 19.1592 40.9658 19.2668C41.4512 20.1151 41.0283 20.5179 40.7331 20.6931C40.6047 20.7741 40.4569 20.819 40.3052 20.8232V20.8182ZM39.3769 19.6647L39.6146 20.0826C39.8123 20.4254 40.2226 20.6756 40.593 20.4629C40.8307 20.3278 41.0934 20.07 40.7256 19.412C40.6755 19.3219 40.5829 19.1617 40.4954 19.0241L39.3769 19.6647Z" fill="white"/>
<path d="M42.2895 20.9258L44.006 23.9284L43.5881 24.1786L42.8575 22.9025L39.6272 24.7516L39.377 24.3087L42.6048 22.4596L41.8741 21.1835L42.2895 20.9258Z" fill="white"/>
<path d="M39.5746 24.9218L39.1968 24.2387L42.4271 22.3921L41.6965 21.1135L42.352 20.7382L44.2012 23.971L43.5456 24.3488L42.8124 23.0727L39.5746 24.9218ZM39.5746 24.3438L39.6922 24.544L42.9225 22.6949L43.6507 23.971L43.8283 23.8709L42.252 21.1185L42.0743 21.2211L42.8049 22.4972L39.5746 24.3438Z" fill="white"/>
<path d="M1.96922 35.5186H2.68735L4.66659 39.925H3.78581L3.30039 38.799H1.31115L0.825723 39.925H0L1.96922 35.5186ZM1.62392 38.0859H2.98762L2.30952 36.5195L1.62392 38.0859Z" fill="white"/>
<path d="M5.04699 36.6671C5.04699 36.004 5.59246 35.451 6.49826 35.451C6.74033 35.4385 6.98251 35.4738 7.21092 35.555C7.43933 35.6361 7.64951 35.7615 7.82942 35.9239L7.39154 36.5019C7.28386 36.3934 7.15495 36.3083 7.01287 36.2519C6.87079 36.1955 6.7186 36.169 6.56582 36.1741C6.15796 36.1741 5.91274 36.3693 5.91274 36.6596C5.91274 37.5729 8.02209 37.2826 8.02209 38.7489C8.02209 39.4996 7.33649 40 6.46573 40C5.8652 40 5.16709 39.7498 4.94189 39.3069L5.41731 38.7714C5.54999 38.9262 5.71413 39.0509 5.89881 39.1371C6.08348 39.2234 6.28443 39.2694 6.48825 39.2719C6.87359 39.2719 7.16634 39.0892 7.16634 38.7539C7.16885 37.8856 5.04699 38.1008 5.04699 36.6671Z" fill="white"/>
<path d="M8.67009 36.6671C8.67009 36.004 9.21557 35.451 10.1189 35.451C10.3609 35.4385 10.6031 35.4738 10.8315 35.555C11.0599 35.6361 11.2701 35.7615 11.45 35.9239L11.0121 36.5019C10.9045 36.3934 10.7756 36.3083 10.6335 36.2519C10.4914 36.1955 10.3392 36.169 10.1864 36.1741C9.78107 36.1741 9.53335 36.3693 9.53335 36.6596C9.53335 37.5729 11.6427 37.2826 11.6427 38.7489C11.6427 39.4996 10.9571 40 10.0863 40C9.48831 40 8.7902 39.7498 8.5625 39.3069L9.0179 38.7714C9.15078 38.9259 9.31497 39.0504 9.4996 39.1367C9.68422 39.223 9.88507 39.269 10.0888 39.2719C10.4767 39.2719 10.7694 39.0892 10.7694 38.7539C10.7694 37.8856 8.67009 38.1008 8.67009 36.6671Z" fill="white"/>
<path d="M14.5852 35.451C15.9689 35.451 17.0148 36.3518 17.0148 37.723C17.0148 39.0442 15.9689 39.995 14.5852 39.995C13.2015 39.995 12.1731 39.0942 12.1731 37.723C12.1731 36.4444 13.154 35.451 14.5852 35.451ZM14.5852 39.2719C14.7924 39.2837 14.9997 39.2518 15.1938 39.1784C15.3879 39.1049 15.5644 38.9915 15.7118 38.8455C15.8592 38.6994 15.9744 38.5241 16.0497 38.3307C16.125 38.1374 16.1589 37.9303 16.1491 37.723C16.1329 37.3201 15.9615 36.939 15.6707 36.6596C15.3799 36.3802 14.9922 36.2242 14.589 36.2242C14.1857 36.2242 13.798 36.3802 13.5072 36.6596C13.2164 36.939 13.045 37.3201 13.0288 37.723C13.0261 37.9278 13.0646 38.1311 13.1419 38.3207C13.2193 38.5103 13.3339 38.6825 13.4791 38.827C13.6243 38.9714 13.797 39.0853 13.987 39.1617C14.177 39.2381 14.3804 39.2756 14.5852 39.2719Z" fill="white"/>
<path d="M21.4312 39.4971C21.0096 39.8434 20.475 40.0216 19.9299 39.9975C18.5062 39.9975 17.5278 39.0968 17.5278 37.7256C17.5278 36.4595 18.3736 35.4536 19.9099 35.4536C20.4205 35.4333 20.9222 35.5917 21.3287 35.9015L20.9608 36.4745C20.6495 36.2695 20.2825 36.1655 19.9099 36.1767C19.7056 36.1678 19.5018 36.2021 19.3116 36.2773C19.1215 36.3524 18.9493 36.4667 18.8062 36.6129C18.6632 36.759 18.5525 36.9336 18.4814 37.1253C18.4103 37.317 18.3804 37.5215 18.3936 37.7256C18.3936 38.6439 19.0517 39.2744 20.005 39.2744C20.4007 39.2754 20.7867 39.152 21.1085 38.9216L21.4312 39.4971Z" fill="white"/>
<path d="M22.2771 35.5186H23.0978V39.9225H22.2771V35.5186Z" fill="white"/>
<path d="M25.7901 35.5186H26.5107L28.4799 39.935H27.6092L27.1213 38.809H25.1195L24.6341 39.935H23.8083L25.7901 35.5186ZM25.4348 38.0759H26.7985L26.1304 36.5195L25.4348 38.0759Z" fill="white"/>
<path d="M28.1172 35.5186H31.9581V36.2417H30.4567V39.9225H29.6385V36.2442H28.1372L28.1172 35.5186Z" fill="white"/>
<path d="M32.6912 35.5186H33.5094V39.9225H32.6912V35.5186Z" fill="white"/>
<path d="M36.9172 35.451C38.3009 35.451 39.3469 36.3518 39.3469 37.723C39.3469 39.0442 38.3009 39.995 36.9172 39.995C35.5335 39.995 34.4951 39.0942 34.4951 37.723C34.4951 36.4444 35.486 35.451 36.9172 35.451ZM36.9172 39.2719C37.1244 39.2837 37.3318 39.2518 37.5258 39.1784C37.7199 39.1049 37.8964 38.9915 38.0438 38.8455C38.1913 38.6994 38.3064 38.5241 38.3817 38.3307C38.457 38.1374 38.4909 37.9303 38.4811 37.723C38.465 37.3201 38.2935 36.939 38.0027 36.6596C37.7119 36.3802 37.3243 36.2242 36.921 36.2242C36.5177 36.2242 36.1301 36.3802 35.8393 36.6596C35.5484 36.939 35.377 37.3201 35.3609 37.723C35.3582 37.9278 35.3966 38.1311 35.474 38.3207C35.5513 38.5103 35.666 38.6825 35.8111 38.827C35.9563 38.9714 36.129 39.0853 36.319 39.1617C36.509 39.2381 36.7125 39.2756 36.9172 39.2719Z" fill="white"/>
<path d="M43.5481 39.925L40.9858 36.8748V39.925H40.2227V35.5186H40.8732L43.4355 38.5838V35.5186H44.2011V39.9225L43.5481 39.925Z" fill="white"/>
<path d="M31.9405 23.5581C31.8654 23.418 31.8179 23.3204 31.7628 23.2228C28.1647 16.8839 24.5657 10.5451 20.9659 4.20618C20.9218 4.14401 20.8981 4.06969 20.8981 3.9935C20.8981 3.9173 20.9218 3.84298 20.9659 3.78081C21.6598 2.59477 22.3479 1.4054 23.0302 0.212687C23.0677 0.150132 23.1077 0.0900789 23.1678 0L39.0892 27.6717H18.894C18.9366 27.5892 18.9716 27.5166 19.0116 27.449C19.7148 26.233 20.4179 25.0194 21.1135 23.7983C21.1446 23.7285 21.1968 23.6702 21.2628 23.6315C21.3288 23.5929 21.4052 23.576 21.4813 23.5831C24.8693 23.5831 28.2589 23.5731 31.6502 23.5531L31.9405 23.5581Z" fill="white"/>
<path d="M30.3292 22.5673H30.0789C28.6527 22.5673 27.2264 22.5673 25.8002 22.5673C25.7313 22.5733 25.6623 22.5578 25.6026 22.5228C25.543 22.4879 25.4957 22.4352 25.4674 22.3721C23.7776 19.4512 22.0786 16.5287 20.3704 13.6044L20.2053 13.3217C20.1553 13.3967 20.1152 13.4543 20.0802 13.5143C16.377 19.8165 12.6762 26.1204 8.97797 32.4259C8.93696 32.518 8.86802 32.5949 8.78089 32.6456C8.69377 32.6964 8.5929 32.7184 8.49255 32.7087C7.15638 32.6936 5.82021 32.7087 4.48904 32.7087H4.18628L20.2003 5.06946C23.5808 10.9046 26.9362 16.7147 30.3292 22.5673Z" fill="white"/>
<path d="M10.0837 32.9863L20.1826 15.471C20.2326 15.5511 20.2727 15.6036 20.3027 15.6587C21.0108 16.8797 21.7114 18.1058 22.427 19.3219C22.4789 19.395 22.5067 19.4825 22.5067 19.5721C22.5067 19.6617 22.4789 19.7492 22.427 19.8223C20.7422 22.7465 19.0616 25.6749 17.3851 28.6075C17.3451 28.6751 17.3076 28.7476 17.2475 28.8577C17.3626 28.8577 17.4402 28.8577 17.5177 28.8577C24.8442 28.9094 32.1697 28.9603 39.4945 29.0104C39.5672 29.0028 39.6404 29.0181 39.704 29.0539C39.7676 29.0898 39.8186 29.1445 39.8498 29.2105C40.5329 30.4116 41.2285 31.6051 41.9166 32.8012C41.9516 32.8587 41.9792 32.9188 42.0142 32.9863H10.0837Z" fill="white"/>
</svg>
