<svg width="90" height="82" viewBox="0 0 90 82" fill="none" xmlns="http://www.w3.org/2000/svg">
<path d="M4.74841 45.5182L5.25789 44.647L12.4518 48.9623L11.9423 49.8336L4.74841 45.5182Z" fill="white"/>
<path d="M12.0492 50.2004L4.40698 45.6151L5.21706 44.265L12.8593 48.8503L12.0492 50.2004ZM5.15592 45.4215L11.8556 49.426L12.0849 49.0388L5.39028 45.0343L5.15592 45.4215Z" fill="white"/>
<path d="M6.74048 42.1913L7.24996 41.3048L12.5588 40.8106L10.424 36.0215L10.9335 35.191L18.1172 39.486L17.6077 40.3572L11.7793 36.8876L13.8172 41.5647L13.7357 41.6971L8.64085 42.1557L14.4184 45.6099L13.9089 46.4812L6.74048 42.1913Z" fill="white"/>
<path d="M14.0209 46.8684L6.37866 42.283L7.12251 41.0348L12.1715 40.561L10.1335 35.9757L10.8468 34.7784L18.489 39.3637L17.679 40.7189L12.3855 37.5551L14.1432 41.5596L13.9139 41.9366L9.55273 42.3391L14.8259 45.4928L14.0209 46.8684ZM7.1276 42.0945L13.8273 46.094L14.0566 45.7068L7.78483 41.957L13.4656 41.4475L11.1678 36.1998L17.4854 39.9802L17.7197 39.5879L11.0302 35.5783L10.7551 36.0419L12.9917 41.0552L7.46386 41.5749L7.1276 42.0945Z" fill="white"/>
<path d="M19.452 37.2443L12.2734 32.9392C12.5078 32.5418 13.1039 31.5024 13.3739 31.0541C14.6018 29.0161 16.0691 29.0569 17.1848 29.7243C18.3006 30.3917 18.9477 31.9049 17.8981 33.6626C17.7249 33.9479 17.46 34.3708 17.2154 34.7122L19.9717 36.3629L19.452 37.2443ZM13.6134 32.5621L16.385 34.218C16.6244 33.8868 16.8435 33.5607 17.0575 33.199C17.6892 32.1444 17.5262 31.1611 16.6244 30.6516C15.7226 30.1421 14.9227 30.3306 14.2451 31.4718C14.0872 31.747 13.807 32.2157 13.6134 32.5621Z" fill="white"/>
<path d="M19.5488 37.6162L11.9066 33.0308L12.0493 32.7914C12.1665 32.5978 12.3601 32.2819 12.5588 31.91C12.7575 31.538 13.0071 31.1356 13.1498 30.891C14.7088 28.2723 16.604 29.0212 17.3479 29.4696C18.591 30.2134 19.3196 31.8386 18.1529 33.79C18.0204 34.0141 17.8268 34.2994 17.6434 34.6102L20.3844 36.2508L19.5488 37.6162ZM12.6556 32.8423L19.3552 36.8469L19.5896 36.4596L16.8078 34.7987L16.9862 34.5491C17.2256 34.2179 17.4956 33.8001 17.6587 33.5301C18.6776 31.803 17.9745 30.5395 17.0422 29.9637C16.1098 29.388 14.8056 29.1944 13.6134 31.1916L13.0275 32.2106L12.6556 32.8423ZM16.4614 34.5898L13.2364 32.6589L13.3688 32.4245C13.5624 32.073 13.8274 31.6043 14.0006 31.319C14.2695 30.7881 14.7276 30.3773 15.2845 30.1675C15.5337 30.0958 15.7956 30.0796 16.0518 30.1201C16.308 30.1606 16.5521 30.2568 16.7671 30.4019C17.8115 31.0235 18.0153 32.1545 17.302 33.3416C17.1033 33.6728 16.8843 34.0039 16.6091 34.3606L16.4614 34.5898ZM13.9904 32.4602L16.3034 33.8409C16.5021 33.5607 16.6652 33.3314 16.8129 33.0563C17.3632 32.1341 17.2409 31.3393 16.4767 30.8859C16.3303 30.7833 16.1633 30.7137 15.9874 30.6821C15.8114 30.6504 15.6307 30.6574 15.4577 30.7025C15.0349 30.8735 14.6901 31.1946 14.4897 31.6043C14.3521 31.8285 14.1585 32.1494 13.9904 32.4602Z" fill="white"/>
<path d="M17.6535 23.7124C18.0876 22.9791 18.7296 22.3912 19.4981 22.023C20.2666 21.6548 21.1271 21.523 21.9706 21.6442C22.814 21.7654 23.6026 22.1342 24.2363 22.7039C24.87 23.2736 25.3204 24.0185 25.5305 24.8444C25.7405 25.6703 25.7007 26.5399 25.4162 27.3431C25.1316 28.1464 24.6151 28.8471 23.932 29.3565C23.2489 29.866 22.43 30.1613 21.579 30.205C20.7279 30.2487 19.8831 30.0389 19.1514 29.602C18.6496 29.33 18.2096 28.957 17.8589 28.5066C17.5083 28.0562 17.2547 27.5381 17.114 26.9849C16.9733 26.4318 16.9486 25.8554 17.0414 25.2923C17.1343 24.7291 17.3427 24.1912 17.6535 23.7124ZM24.2207 27.6405C25.1989 25.9949 24.608 24.1506 22.9827 23.1826C22.4311 22.8883 21.8053 22.7624 21.1829 22.8204C20.5604 22.8783 19.9686 23.1177 19.4809 23.5087C18.9931 23.8998 18.6309 24.4253 18.4389 25.0203C18.247 25.6153 18.2339 26.2535 18.4011 26.8558C18.5684 27.4582 18.9088 27.9982 19.38 28.409C19.8513 28.8198 20.4327 29.0833 21.0522 29.1668C21.6718 29.2504 22.3022 29.1503 22.8654 28.879C23.4287 28.6077 23.8999 28.1771 24.2207 27.6405Z" fill="white"/>
<path d="M21.4644 30.5293C20.5975 30.5203 19.7491 30.2774 19.0087 29.8262C17.9591 29.2192 17.1905 28.2237 16.8689 27.0546C16.7216 26.4671 16.6935 25.8561 16.7863 25.2576C16.879 24.659 17.0908 24.0851 17.409 23.5698C17.7067 23.0518 18.104 22.5979 18.5779 22.2342C19.0518 21.8704 19.593 21.604 20.1703 21.4503C20.7632 21.3076 21.3786 21.2845 21.9805 21.3825C22.5823 21.4805 23.1586 21.6975 23.6756 22.021C24.2024 22.3153 24.6641 22.7134 25.0329 23.1911C25.4017 23.6688 25.6699 24.2163 25.8213 24.8005C25.9727 25.3847 26.0042 25.9935 25.9138 26.5902C25.8235 27.1869 25.6133 27.7591 25.2957 28.2723C24.9985 28.7912 24.6014 29.2461 24.1275 29.6107C23.6535 29.9754 23.1121 30.2425 22.5343 30.3968C22.1852 30.4886 21.8254 30.5332 21.4644 30.5293ZM21.2199 21.8681C20.9124 21.8668 20.6059 21.9044 20.3079 21.9802C19.8022 22.1177 19.3285 22.3536 18.9142 22.6745C18.4998 22.9954 18.1527 23.3948 17.893 23.85C17.6122 24.3014 17.4252 24.8046 17.3429 25.3298C17.2606 25.8549 17.2848 26.3913 17.414 26.9069C17.7187 27.9322 18.3988 28.8049 19.3187 29.3508C20.2386 29.8967 21.3305 30.0755 22.3764 29.8517C23.395 29.574 24.2618 28.9033 24.7863 27.987C25.0664 27.538 25.2526 27.0368 25.3337 26.5138C25.4148 25.9908 25.3891 25.4568 25.2582 24.944C25.1273 24.4313 24.8938 23.9503 24.5719 23.5302C24.25 23.1101 23.8463 22.7596 23.3852 22.4999C22.7328 22.1003 21.9848 21.8838 21.2199 21.8732V21.8681ZM21.5001 29.4441C20.8151 29.4404 20.144 29.2502 19.559 28.8939C19.1453 28.6713 18.781 28.3672 18.4882 27.9999C18.1953 27.6326 17.98 27.2097 17.8552 26.7568C17.7304 26.304 17.6988 25.8305 17.7622 25.365C17.8255 24.8996 17.9827 24.4518 18.224 24.0488C18.4653 23.6457 18.7859 23.2958 19.1662 23.0202C19.5466 22.7446 19.979 22.5489 20.4371 22.4451C20.8952 22.3413 21.3697 22.3314 21.8317 22.4162C22.2938 22.5009 22.7338 22.6784 23.1253 22.938C23.5422 23.1567 23.9096 23.4587 24.2048 23.8253C24.5001 24.192 24.7167 24.6154 24.8414 25.0692C24.9661 25.5231 24.9962 25.9978 24.9297 26.4638C24.8633 26.9298 24.7017 27.3772 24.4551 27.7781C24.1523 28.2913 23.7199 28.7158 23.2012 29.0091C22.6826 29.3024 22.0959 29.4542 21.5001 29.4492V29.4441ZM21.1638 22.938C20.6679 22.9369 20.1804 23.0663 19.7503 23.3131C19.3202 23.5599 18.9625 23.9155 18.7132 24.3442C18.2957 25.0414 18.1722 25.876 18.37 26.6642C18.5678 27.4525 19.0706 28.1299 19.7679 28.5474C20.4651 28.9649 21.2996 29.0884 22.0879 28.8906C22.8761 28.6928 23.5536 28.19 23.9711 27.4928C24.8525 26.0255 24.3838 24.3493 22.8349 23.4169C22.3307 23.1115 21.7534 22.9478 21.1638 22.9431V22.938Z" fill="white"/>
<path d="M28.1284 22.7189L20.9498 18.4239C21.1893 18.0265 21.9688 16.6917 22.0809 16.4828C23.2527 14.5264 24.5824 14.5111 25.7441 15.204C26.2087 15.4794 26.5675 15.9026 26.7633 16.4059C26.9591 16.9093 26.9805 17.4637 26.8242 17.9807L31.2872 17.405L30.6504 18.4698L26.4573 18.9793L25.8052 20.1307L28.6787 21.8477L28.1284 22.7189ZM22.2898 18.0418L24.9594 19.6365L25.5912 18.5819C26.1007 17.7514 26.0548 16.6459 25.204 16.1364C24.4653 15.6931 23.6348 15.7543 22.8706 17.028C22.7483 17.2521 22.4834 17.7005 22.2898 18.0418Z" fill="white"/>
<path d="M28.2252 23.1011L20.583 18.5157L20.7257 18.2763L21.4338 17.0637L21.8414 16.3555C23.2221 14.0476 24.8066 14.3176 25.8867 14.9799C26.3478 15.2459 26.7188 15.6437 26.9521 16.1221C27.1854 16.6005 27.2704 17.1378 27.1961 17.6649L31.8426 17.0688L30.8236 18.7501L26.6357 19.2596L26.1262 20.0696L28.9996 21.7866L28.2252 23.1011ZM21.3319 18.3272L28.0316 22.3317L28.266 21.9445L25.3925 20.2276L26.3096 18.6991L30.5026 18.1896L30.7676 17.7362L26.4522 18.2915L26.5745 17.8789C26.7102 17.4204 26.688 16.9297 26.5115 16.4854C26.3351 16.041 26.0146 15.6688 25.6014 15.4283C24.3277 14.664 23.2527 15.0461 22.3254 16.6052L21.9026 17.3745C21.7293 17.6853 21.4899 18.0623 21.3319 18.3272ZM25.0563 20.0238L21.9128 18.1438L22.0503 17.9043C22.2439 17.5579 22.4936 17.1095 22.6311 16.8854C22.9086 16.3284 23.3849 15.8957 23.966 15.6728C24.1988 15.6095 24.4424 15.5968 24.6806 15.6355C24.9187 15.6741 25.1458 15.7633 25.3467 15.897C26.3656 16.5236 26.3656 17.8228 25.8561 18.7297L25.0563 20.0238ZM22.6719 17.9451L24.8627 19.2545L25.3721 18.4393C25.7746 17.7617 25.8052 16.814 25.0766 16.4014C24.9431 16.3086 24.7912 16.2456 24.6313 16.2166C24.4713 16.1876 24.307 16.1933 24.1494 16.2332C23.7022 16.4169 23.3391 16.76 23.1304 17.1962C23.0081 17.3439 22.8349 17.6547 22.6719 17.9451Z" fill="white"/>
<path d="M24.1139 13.1355L27.6395 7.23572L28.4598 7.7452L26.9568 10.2417L33.3202 14.0424L32.8107 14.9136L26.4371 11.1129L24.9342 13.6246L24.1139 13.1355Z" fill="white"/>
<path d="M32.8922 15.3008L26.5339 11.495L25.0054 14.0119L23.7012 13.2324L27.5172 6.85364L28.8622 7.62805L27.3338 10.1449L33.7023 13.9456L32.8922 15.3008ZM26.3403 10.7512L32.6986 14.557L32.933 14.1647L26.5746 10.3385L28.0776 7.82675L27.7363 7.62296L24.496 13.0387L24.8373 13.2425L26.3403 10.7512Z" fill="white"/>
<path d="M66.2836 8.0611L68.6782 12.2541L67.8324 12.7381L65.9473 9.45198L63.5528 10.8225L65.2493 13.8081L64.4036 14.3175L62.7019 11.3422L60.2208 12.7636L62.1619 16.1619L61.3161 16.6713L58.8553 12.3764L66.2836 8.0611Z" fill="white"/>
<path d="M61.2143 16.9923L58.4733 12.2134L66.3855 7.69427L69.0654 12.3713L67.7306 13.1355L65.8455 9.84938L63.9349 10.9397L65.6366 13.915L64.3017 14.6793L62.6001 11.7039L60.6029 12.8502L62.5491 16.2434L61.2143 16.9923ZM59.2375 12.407L61.4181 16.2179L61.7798 16.009L59.8336 12.6159L62.8039 10.9142L64.5259 13.8947L64.8877 13.6909L63.186 10.7206L66.0544 9.06478L67.9394 12.356L68.3012 12.1471L66.1817 8.44321L59.2375 12.407Z" fill="white"/>
<path d="M67.9853 19.5042L65.7691 24.3901L65.1577 23.3202L66.9562 19.3055L62.5899 18.8367L61.9785 17.7719L67.3128 18.3374L69.4679 13.64L70.0742 14.6997L68.3368 18.5514L72.5248 18.9743L73.1362 20.0442L67.9853 19.5042Z" fill="white"/>
<path d="M65.7996 25.0167L64.8469 23.3405L64.9029 23.2131L66.5638 19.5449L62.437 19.0965L61.469 17.4356L67.1548 18.0368L69.4526 13.0235L70.4002 14.6844L70.3442 14.8118L68.7648 18.3119L72.7082 18.7093L73.6609 20.3804L68.1636 19.8047L65.7996 25.0167ZM65.4735 23.3099L65.7435 23.7838L67.8171 19.1984L72.6266 19.7079L72.3566 19.2392L67.9241 18.7959L69.7685 14.7201L69.5035 14.2564L67.4656 18.6431L62.4727 18.1336L62.7376 18.5972L67.3484 19.1067L65.4735 23.3099Z" fill="white"/>
<path d="M66.681 25.9797L74.1042 21.7306C74.3436 22.1433 74.9703 23.1928 75.2403 23.6564C76.4529 25.781 75.6683 27.0598 74.5118 27.7323C73.3552 28.4048 71.6841 28.2112 70.6448 26.3974C70.4767 26.1019 70.2321 25.6485 70.0487 25.2562L67.1956 26.8916L66.681 25.9797ZM73.773 23.1164L70.9097 24.7569C71.083 25.1339 71.2664 25.4957 71.4753 25.8676C72.1019 26.963 73.0394 27.2941 73.9717 26.7643C74.9041 26.2344 75.113 25.404 74.4404 24.2169C74.2672 23.9316 73.987 23.4883 73.773 23.1164Z" fill="white"/>
<path d="M73.1872 28.3691C72.9358 28.3681 72.6857 28.3339 72.4433 28.2672C71.5613 27.977 70.8292 27.351 70.4054 26.5248C70.278 26.2955 70.0946 25.9695 69.9316 25.6383L67.0734 27.2636L66.2837 25.8778L74.2061 21.3434L74.3437 21.5879L74.8532 22.4948C75.0824 22.8769 75.3168 23.2743 75.4544 23.5138C76.9828 26.214 75.3932 27.5234 74.6239 27.9616C74.1877 28.218 73.6931 28.3583 73.1872 28.3691ZM70.1812 24.8537L70.3086 25.1288C70.492 25.5211 70.7366 25.9746 70.8945 26.2446C71.2438 26.9429 71.8558 27.4742 72.5962 27.7221C72.8939 27.8019 73.2046 27.8213 73.5099 27.7793C73.8153 27.7373 74.1091 27.6347 74.3743 27.4775C75.3117 26.9681 76.1829 25.8676 75.0009 23.7991L74.4048 22.7801L74.0074 22.1127L67.0734 26.0867L67.3128 26.4993L70.1812 24.8537ZM73.1108 27.2941C72.9095 27.293 72.7098 27.2586 72.5198 27.1922C71.9648 26.9628 71.5109 26.5415 71.2409 26.0051C71.0423 25.6638 70.8639 25.3173 70.6601 24.8741L70.5532 24.6397L73.875 22.7394L74.0176 22.9686C74.2316 23.3151 74.5271 23.7889 74.6851 24.0895C74.8628 24.3507 74.9864 24.6449 75.0485 24.9546C75.1107 25.2644 75.1101 25.5835 75.0468 25.8931C74.9767 26.1319 74.8582 26.3538 74.6987 26.5449C74.5392 26.7359 74.342 26.8921 74.1195 27.0037C73.8135 27.1892 73.4635 27.2894 73.1057 27.2941H73.1108ZM71.2766 24.869C71.4295 25.19 71.5721 25.4651 71.725 25.73C71.9368 26.1439 72.2837 26.4728 72.7083 26.6624C73.0683 26.7542 73.4494 26.7118 73.7804 26.543C74.1115 26.3742 74.3696 26.0906 74.5067 25.7453C74.5898 25.2644 74.48 24.7702 74.201 24.3697C74.0686 24.1353 73.8648 23.794 73.6916 23.4934L71.2766 24.869Z" fill="white"/>
<path d="M79.7288 31.3037C80.169 32.0568 80.3754 32.9238 80.3219 33.7945C80.2685 34.6652 79.9575 35.5004 79.4285 36.194C78.8995 36.8877 78.1764 37.4085 77.3508 37.6905C76.5253 37.9724 75.6346 38.0026 74.7918 37.7774C73.9491 37.5522 73.1922 37.0817 72.6173 36.4255C72.0425 35.7694 71.6755 34.9572 71.5631 34.0921C71.4506 33.2271 71.5978 32.3481 71.9858 31.5668C72.3738 30.7855 72.9852 30.1371 73.7424 29.7039C74.2352 29.3959 74.786 29.1926 75.3607 29.1065C75.9354 29.0204 76.5217 29.0534 77.0831 29.2035C77.6445 29.3535 78.1691 29.6173 78.6242 29.9786C79.0793 30.3399 79.4553 30.7909 79.7288 31.3037ZM72.9425 35.2063C73.9156 36.908 75.8567 37.3003 77.5278 36.3424C78.0677 35.9997 78.4951 35.506 78.757 34.9226C79.0189 34.3392 79.1037 33.6918 79.0009 33.0606C78.8982 32.4294 78.6124 31.8423 78.179 31.372C77.7456 30.9018 77.1837 30.5692 76.563 30.4154C75.9423 30.2616 75.2901 30.2934 74.6873 30.5069C74.0845 30.7204 73.5577 31.1061 73.1721 31.6163C72.7866 32.1265 72.5593 32.7387 72.5185 33.3769C72.4776 34.015 72.6251 34.6512 72.9425 35.2063Z" fill="white"/>
<path d="M75.8059 38.1868C75.4153 38.1868 75.0265 38.1354 74.6493 38.034C74.0596 37.8682 73.5087 37.5869 73.0285 37.2064C72.5483 36.826 72.1485 36.3539 71.8523 35.8177C71.5283 35.2911 71.3162 34.7035 71.2292 34.0914C71.1421 33.4793 71.1821 32.8558 71.3465 32.2598C71.5109 31.6638 71.7963 31.1081 72.1848 30.6271C72.5734 30.1462 73.0568 29.7505 73.6049 29.4645C74.6697 28.8335 75.9411 28.6503 77.1407 28.955C77.7383 29.115 78.2973 29.3943 78.7842 29.7761C79.271 30.1578 79.6755 30.6341 79.9734 31.1763C80.603 32.236 80.7862 33.5022 80.4829 34.6969C80.3115 35.2963 80.0229 35.8558 79.6337 36.343C79.2445 36.8301 78.7625 37.2351 78.2157 37.5347C77.4829 37.9582 76.6522 38.183 75.8059 38.1868ZM76.0198 29.3626C75.2692 29.3673 74.533 29.5693 73.8851 29.9485C73.4021 30.2013 72.9764 30.551 72.6346 30.9759C72.2929 31.4007 72.0425 31.8914 71.899 32.4174C71.7556 32.9434 71.7222 33.4933 71.8009 34.0328C71.8797 34.5723 72.0689 35.0897 72.3567 35.5528C72.6174 36.0246 72.9692 36.44 73.3916 36.775C73.814 37.1099 74.2986 37.3577 74.8175 37.5041C75.8886 37.7559 77.0154 37.592 77.9705 37.0454C78.9255 36.4989 79.6377 35.6104 79.9632 34.5593C80.0948 34.0382 80.122 33.4963 80.0433 32.9647C79.9646 32.4331 79.7816 31.9222 79.5047 31.4616C79.2437 30.9847 78.8888 30.5655 78.4616 30.2293C78.0343 29.893 77.5434 29.6468 77.0184 29.5052C76.6935 29.4127 76.3576 29.3648 76.0198 29.3626ZM75.6938 37.1169C75.4314 37.1191 75.1697 37.0901 74.9143 37.0303C74.4478 36.9158 74.01 36.7059 73.6286 36.4139C73.2472 36.1219 72.9303 35.7542 72.698 35.3337C72.4615 34.9262 72.3106 34.4748 72.2546 34.007C72.1985 33.5392 72.2384 33.0649 72.3719 32.6131C72.6742 31.684 73.3105 30.9002 74.1577 30.4136C75.0048 29.9269 76.0025 29.7721 76.9573 29.9791C77.4125 30.0948 77.8396 30.3017 78.2126 30.5872C78.5857 30.8726 78.897 31.2308 79.1277 31.64C79.3632 32.0563 79.5125 32.5157 79.5668 32.9909C79.6211 33.4661 79.5793 33.9473 79.4438 34.406C79.3084 34.8647 79.082 35.2915 78.7783 35.6609C78.4745 36.0303 78.0995 36.3349 77.6757 36.5565C77.0759 36.9146 76.3922 37.108 75.6938 37.1169ZM76.1115 30.4376C75.5198 30.4443 74.9401 30.6059 74.4303 30.9063C73.6982 31.3061 73.1501 31.9747 72.9018 32.771C72.7893 33.1501 72.7557 33.5482 72.803 33.9407C72.8503 34.3333 72.9776 34.712 73.1769 35.0535C73.3663 35.4089 73.6292 35.7199 73.9481 35.9659C74.2669 36.2118 74.6345 36.3871 75.0263 36.48C75.8346 36.6497 76.6772 36.5077 77.3853 36.0826C77.7458 35.8982 78.0652 35.6427 78.3244 35.3314C78.5835 35.0202 78.777 34.6598 78.8931 34.2719C79.0093 33.8839 79.0457 33.4764 79.0002 33.074C78.9547 32.6716 78.8282 32.2826 78.6284 31.9304C78.4371 31.5843 78.1771 31.2811 77.8643 31.0393C77.5515 30.7975 77.1926 30.6222 76.8095 30.5242C76.5816 30.4653 76.347 30.4362 76.1115 30.4376Z" fill="white"/>
<path d="M75.4595 41.3201L82.8673 37.0557C83.1068 37.4735 83.9118 38.8287 84.034 39.0427C85.1906 41.0806 84.5435 42.2575 83.3361 42.9453C82.8599 43.228 82.3021 43.3411 81.7534 43.2661C81.2048 43.1912 80.6977 42.9327 80.3148 42.5327L78.5877 46.8072L77.9559 45.7016L79.6219 41.7175L78.929 40.51L75.9588 42.2117L75.4595 41.3201ZM82.5515 38.4568L79.7952 40.0362L80.4218 41.1265C80.9313 41.9875 81.9146 42.5123 82.796 42.0079C83.5602 41.5697 83.922 40.8004 83.1679 39.4605C83.0355 39.2414 82.7603 38.7727 82.5515 38.4466V38.4568Z" fill="white"/>
<path d="M78.6488 47.4339L77.6604 45.7119L79.3264 41.7277L78.8169 40.882L75.8466 42.5836L75.0468 41.1978L82.959 36.6635L83.1017 36.908C83.229 37.1322 83.5296 37.6366 83.7895 38.0798C84.0493 38.5231 84.2072 38.7931 84.2633 38.895C84.7956 39.672 84.9989 40.6281 84.8288 41.5545C84.7242 41.9035 84.5497 42.2276 84.3158 42.507C84.0819 42.7864 83.7936 43.0153 83.4685 43.1797C82.999 43.4582 82.4568 43.5895 81.9119 43.5568C81.367 43.5241 80.8444 43.3289 80.4116 42.9963L78.6488 47.4339ZM78.2871 45.6711L78.5622 46.1806L80.2333 42.0487L80.5339 42.3544C80.8747 42.7074 81.3247 42.9352 81.811 43.0008C82.2973 43.0664 82.7915 42.9661 83.2137 42.7161C83.4744 42.5889 83.7065 42.4099 83.8957 42.19C84.0849 41.9702 84.2273 41.714 84.3142 41.4373C84.4425 40.6522 84.2598 39.8481 83.8047 39.1956L83.3309 38.3906C83.1424 38.0645 82.9284 37.713 82.7807 37.4582L75.8416 41.4271L76.081 41.8449L79.0462 40.1432L79.948 41.7175L78.2871 45.6711ZM82.0674 42.4665C81.6744 42.4424 81.2942 42.3178 80.9632 42.1046C80.6322 41.8914 80.3616 41.5967 80.1772 41.2488L79.4079 39.9089L82.6482 38.0543L82.7909 38.2887C83.0049 38.6351 83.3004 39.0886 83.4125 39.3077C84.4008 41.0348 83.5398 41.8551 82.9386 42.2117C82.6773 42.3766 82.3763 42.4681 82.0674 42.4766V42.4665ZM80.1772 40.1177L80.6612 40.9686C81.0637 41.6666 81.8993 42.176 82.6533 41.743C83.1373 41.4679 83.6723 40.9431 82.9233 39.6032C82.8215 39.4197 82.6329 39.0937 82.4546 38.8135L80.1772 40.1177Z" fill="white"/>
<path d="M86.1075 42.6855L89.6025 48.7993L88.7517 49.3088L87.264 46.7105L80.6866 50.4755L80.1771 49.5737L86.7494 45.8087L85.2618 43.2103L86.1075 42.6855Z" fill="white"/>
<path d="M80.5796 50.822L79.8103 49.4311L86.3877 45.6711L84.9 43.0677L86.2349 42.3035L89.9999 48.886L88.6651 49.6553L87.1723 47.0569L80.5796 50.822ZM80.5796 49.6451L80.8191 50.0527L87.3965 46.2876L88.8791 48.886L89.2408 48.6822L86.0311 43.0779L85.6693 43.2868L87.157 45.8851L80.5796 49.6451Z" fill="white"/>
<path d="M4.00962 72.3985H5.47184L9.50184 81.3705H7.70846L6.72007 79.0778H2.66969L1.68129 81.3705H0L4.00962 72.3985ZM3.30654 77.6258H6.08321L4.70252 74.4364L3.30654 77.6258Z" fill="white"/>
<path d="M10.2762 74.737C10.2762 73.3869 11.3869 72.2609 13.2312 72.2609C13.7241 72.2354 14.2172 72.3073 14.6823 72.4726C15.1474 72.6378 15.5753 72.8931 15.9417 73.2239L15.0501 74.4008C14.8308 74.1798 14.5684 74.0065 14.2791 73.8917C13.9898 73.7768 13.6799 73.7229 13.3688 73.7333C12.5383 73.7333 12.039 74.1307 12.039 74.7217C12.039 76.5813 16.334 75.9904 16.334 78.9759C16.334 80.5044 14.938 81.5233 13.165 81.5233C11.9422 81.5233 10.5208 81.0138 10.0623 80.1121L11.0303 79.0218C11.3004 79.3369 11.6346 79.5907 12.0107 79.7664C12.3867 79.9421 12.7958 80.0357 13.2109 80.0407C13.9955 80.0407 14.5916 79.6688 14.5916 78.9861C14.5966 77.2182 10.2762 77.6564 10.2762 74.737Z" fill="white"/>
<path d="M17.6535 74.737C17.6535 73.3869 18.7642 72.2609 20.6034 72.2609C21.0963 72.2354 21.5894 72.3073 22.0545 72.4726C22.5196 72.6378 22.9475 72.8931 23.3139 73.2239L22.4223 74.4008C22.203 74.1798 21.9405 74.0065 21.6512 73.8917C21.362 73.7768 21.0521 73.7229 20.741 73.7333C19.9156 73.7333 19.4112 74.1307 19.4112 74.7217C19.4112 76.5813 23.7062 75.9904 23.7062 78.9759C23.7062 80.5044 22.3102 81.5233 20.5372 81.5233C19.3195 81.5233 17.8981 81.0138 17.4344 80.1121L18.3617 79.0218C18.6323 79.3364 18.9666 79.5899 19.3425 79.7655C19.7184 79.9412 20.1274 80.035 20.5423 80.0407C21.332 80.0407 21.9281 79.6688 21.9281 78.9861C21.9281 77.2182 17.6535 77.6564 17.6535 74.737Z" fill="white"/>
<path d="M29.6977 72.2609C32.5151 72.2609 34.6447 74.0951 34.6447 76.887C34.6447 79.5771 32.5151 81.5131 29.6977 81.5131C26.8802 81.5131 24.7863 79.679 24.7863 76.887C24.7863 74.2836 26.7834 72.2609 29.6977 72.2609ZM29.6977 80.0407C30.1195 80.0647 30.5417 79.9999 30.9369 79.8503C31.332 79.7007 31.6914 79.4698 31.9916 79.1725C32.2918 78.8751 32.5262 78.518 32.6796 78.1243C32.8329 77.7306 32.9019 77.3091 32.8819 76.887C32.8491 76.0665 32.5 75.2906 31.9079 74.7217C31.3157 74.1528 30.5264 73.8351 29.7053 73.8351C28.8842 73.8351 28.0949 74.1528 27.5027 74.7217C26.9106 75.2906 26.5615 76.0665 26.5287 76.887C26.5232 77.304 26.6015 77.7178 26.759 78.104C26.9164 78.4901 27.1499 78.8406 27.4455 79.1348C27.7411 79.4289 28.0927 79.6607 28.4796 79.8163C28.8665 79.972 29.2807 80.0483 29.6977 80.0407Z" fill="white"/>
<path d="M43.6371 80.4993C42.7787 81.2043 41.69 81.5672 40.5802 81.5183C37.6813 81.5183 35.6892 79.6841 35.6892 76.8922C35.6892 74.3142 37.4113 72.2661 40.5395 72.2661C41.5792 72.2249 42.6007 72.5473 43.4282 73.1781L42.6793 74.3448C42.0454 73.9273 41.2981 73.7156 40.5395 73.7385C40.1235 73.7205 39.7085 73.7902 39.3213 73.9432C38.9341 74.0962 38.5834 74.3291 38.2922 74.6266C38.0009 74.9241 37.7756 75.2795 37.6308 75.6699C37.4861 76.0603 37.4252 76.4767 37.452 76.8922C37.452 78.762 38.792 80.0459 40.7331 80.0459C41.5388 80.048 42.3248 79.7967 42.9799 79.3275L43.6371 80.4993Z" fill="white"/>
<path d="M45.3591 72.3985H47.0302V81.3654H45.3591V72.3985Z" fill="white"/>
<path d="M52.5124 72.3985H53.9797L57.9893 81.3909H56.2163L55.2228 79.0982H51.147L50.1586 81.3909H48.4773L52.5124 72.3985ZM51.7889 77.6054H54.5656L53.2053 74.4364L51.7889 77.6054Z" fill="white"/>
<path d="M57.2505 72.3985H65.071V73.8709H62.0141V81.3654H60.3481V73.876H57.2912L57.2505 72.3985Z" fill="white"/>
<path d="M66.5638 72.3985H68.2299V81.3654H66.5638V72.3985Z" fill="white"/>
<path d="M75.169 72.2609C77.9864 72.2609 80.116 74.0951 80.116 76.887C80.116 79.5771 77.9864 81.5131 75.169 81.5131C72.3515 81.5131 70.2372 79.679 70.2372 76.887C70.2372 74.2836 72.2547 72.2609 75.169 72.2609ZM75.169 80.0407C75.5908 80.0647 76.013 79.9999 76.4082 79.8503C76.8033 79.7007 77.1627 79.4698 77.4629 79.1725C77.7631 78.8751 77.9975 78.518 78.1509 78.1243C78.3042 77.7306 78.3732 77.3091 78.3532 76.887C78.3204 76.0665 77.9713 75.2906 77.3792 74.7217C76.787 74.1528 75.9977 73.8351 75.1766 73.8351C74.3555 73.8351 73.5662 74.1528 72.974 74.7217C72.3819 75.2906 72.0329 76.0665 72 76.887C71.9945 77.304 72.0728 77.7178 72.2303 78.104C72.3877 78.4901 72.6212 78.8406 72.9168 79.1348C73.2124 79.4289 73.5641 79.6607 73.9509 79.8163C74.3378 79.972 74.752 80.0483 75.169 80.0407Z" fill="white"/>
<path d="M88.6702 81.3705L83.4531 75.1599V81.3705H81.8992V72.3985H83.2238L88.4409 78.6397V72.3985H89.9999V81.3654L88.6702 81.3705Z" fill="white"/>
<path d="M65.0353 48.0453C64.8825 47.76 64.7857 47.5613 64.6736 47.3626C57.3472 34.4557 50.0192 21.5488 42.6895 8.64197C42.5997 8.51538 42.5516 8.36406 42.5516 8.20891C42.5516 8.05376 42.5997 7.90243 42.6895 7.77585C44.1024 5.3609 45.5035 2.93917 46.8927 0.510637C46.9691 0.383266 47.0506 0.260989 47.1729 0.0775757L79.5912 56.4212H38.4709C38.5576 56.2531 38.6289 56.1053 38.7104 55.9677C40.142 53.4917 41.5737 51.0207 42.9901 48.5344C43.0533 48.3922 43.1597 48.2734 43.294 48.1948C43.4284 48.1162 43.584 48.0817 43.739 48.0963C50.6374 48.0963 57.5392 48.0759 64.4443 48.0351L65.0353 48.0453Z" fill="white"/>
<path d="M61.7542 46.0277H61.2448C58.3407 46.0277 55.4367 46.0277 52.5326 46.0277C52.3924 46.0401 52.2518 46.0085 52.1303 45.9372C52.0089 45.866 51.9127 45.7588 51.855 45.6303C48.4143 39.683 44.9549 33.7322 41.4769 27.7781L41.1406 27.2024C41.0387 27.3552 40.9572 27.4724 40.8859 27.5947C33.3455 40.4268 25.8103 53.2624 18.2801 66.1013C18.1966 66.2889 18.0562 66.4454 17.8789 66.5487C17.7015 66.652 17.4961 66.6969 17.2917 66.677C14.5711 66.6465 11.8505 66.677 9.14003 66.677H8.52356L41.1304 10.3997C48.0135 22.2808 54.8457 34.1109 61.7542 46.0277Z" fill="white"/>
<path d="M20.5321 67.2425L41.0948 31.5788C41.1967 31.7418 41.2782 31.8488 41.3393 31.9609C42.7812 34.4472 44.2077 36.9436 45.6649 39.4197C45.7704 39.5687 45.827 39.7467 45.827 39.9292C45.827 40.1117 45.7704 40.2897 45.6649 40.4387C42.2343 46.3928 38.8123 52.3555 35.3988 58.3266C35.3173 58.4642 35.2408 58.6119 35.1186 58.8361C35.3529 58.8361 35.5109 58.8361 35.6688 58.8361C50.5864 58.9414 65.5024 59.045 80.4166 59.1469C80.5646 59.1315 80.7136 59.1625 80.8432 59.2355C80.9728 59.3085 81.0765 59.42 81.1401 59.5544C82.531 62 83.9473 64.4302 85.3484 66.8655C85.4197 66.9827 85.4758 67.105 85.5471 67.2425H20.5321Z" fill="white"/>
</svg>
