<svg width="58" height="59" viewBox="0 0 58 59" fill="none" xmlns="http://www.w3.org/2000/svg">
<g opacity="0.8">
<path d="M29 3.6875C14.9871 3.6875 3.625 15.2455 3.625 29.5C3.625 43.7545 14.9871 55.3125 29 55.3125C43.0129 55.3125 54.375 43.7545 54.375 29.5C54.375 15.2455 43.0129 3.6875 29 3.6875ZM37.1619 29.8976L24.7916 39.0529C24.7238 39.1025 24.6438 39.1321 24.5606 39.1385C24.4773 39.1448 24.3939 39.1277 24.3196 39.089C24.2452 39.0503 24.1828 38.9915 24.1392 38.9191C24.0956 38.8466 24.0724 38.7634 24.0723 38.6784V20.3792C24.072 20.2941 24.0949 20.2105 24.1384 20.1378C24.182 20.0652 24.2445 20.0062 24.3189 19.9674C24.3934 19.9286 24.477 19.9115 24.5605 19.9181C24.6439 19.9247 24.7239 19.9547 24.7916 20.0047L37.1619 29.1543C37.2204 29.1963 37.268 29.252 37.3009 29.3167C37.3338 29.3814 37.351 29.4531 37.351 29.5259C37.351 29.5987 37.3338 29.6705 37.3009 29.7352C37.268 29.7998 37.2204 29.8555 37.1619 29.8976Z" fill="white"/>
</g>
</svg>
