<svg width="865" height="132" viewBox="0 0 865 132" fill="none" xmlns="http://www.w3.org/2000/svg">
<path fill-rule="evenodd" clip-rule="evenodd" d="M277.773 15.0846H364.378C363.076 13.3411 361.578 11.8103 359.883 10.4924C356.268 7.6441 351.695 5.6354 346.164 4.46631H296.885C289.559 5.98715 283.738 8.92495 279.423 13.2797C278.849 13.854 278.299 14.4557 277.773 15.0846ZM403.503 15.0846H483.217C482.475 14.1191 481.671 13.2077 480.805 12.3506C476.997 8.50325 472.119 5.87515 466.171 4.46631H406.355C404.454 5.71026 403.503 7.90478 403.503 11.0499V15.0846ZM551.143 15.0846H573.099L570.742 9.37746C569.917 7.11672 568.655 5.47967 566.956 4.46631H557.516C555.842 5.47649 554.49 7.11355 553.461 9.37746L551.143 15.0846ZM643.401 15.0846H731.982C731.877 14.9777 731.772 14.8716 731.666 14.7663C726.527 9.586 719.444 6.15268 710.418 4.46631H646.252C644.351 5.71026 643.401 7.90478 643.401 11.0499V15.0846ZM777.322 15.0846H858.915C859.399 13.9817 859.641 12.6368 859.641 11.0499C859.641 7.90478 858.69 5.71026 856.789 4.46631H780.174C778.273 5.71026 777.322 7.90478 777.322 11.0499V15.0846ZM237.096 12.3506C237.962 13.2077 238.767 14.1191 239.509 15.0846H159.795V11.0499C159.795 7.90478 160.746 5.71026 162.647 4.46631H222.462C228.41 5.87515 233.288 8.50325 237.096 12.3506ZM122.143 11.0499V15.0846H106.534V11.0499C106.534 8.44837 107.185 6.49725 108.485 5.1965C108.757 4.92471 109.057 4.68131 109.386 4.46631H119.292C119.62 4.68131 119.92 4.92471 120.192 5.1965C121.493 6.49725 122.143 8.44837 122.143 11.0499ZM32.206 11.0499V15.0846H16.597V11.0499C16.597 8.44837 17.2474 6.49725 18.5482 5.1965C18.82 4.92471 19.1201 4.68131 19.4487 4.46631H29.3543C29.6829 4.68131 29.9831 4.92471 30.2549 5.1965C31.5556 6.49725 32.206 8.44837 32.206 11.0499ZM352.741 25.703C351.782 24.024 350.539 22.7322 349.013 21.8275C345.73 19.8454 340.465 18.8543 333.218 18.8543H310.734C304.168 18.7924 298.996 19.5357 295.218 21.0842C292.743 22.1155 290.734 23.6551 289.193 25.703H272.004C273.393 21.5656 275.316 18.0262 277.773 15.0847H364.378C366.57 18.0206 368.206 21.5601 369.285 25.703H352.741ZM573.099 15.0847L577.484 25.703H546.83L551.143 15.0847H573.099ZM792.931 18.8543V25.703H777.322V15.0847H858.915C857.812 17.5978 855.452 18.8543 851.836 18.8543H792.931ZM731.982 15.0847C734.848 18.0122 737.164 21.5516 738.93 25.703H720.606C718.983 24.0911 717.033 22.7992 714.756 21.8275C710.172 19.8454 703.916 18.8543 695.988 18.8543H659.01V25.703H643.401V15.0847H731.982ZM483.217 15.0847C485.533 18.0966 487.248 21.6361 488.362 25.703H471.612C471.096 24.837 470.506 24.0717 469.841 23.407C466.868 20.3719 461.851 18.8543 454.79 18.8543H419.112V25.703H403.503V15.0847H483.217ZM159.795 15.0847H239.509C241.825 18.0966 243.54 21.6361 244.654 25.703H227.904C227.388 24.837 226.798 24.0717 226.133 23.407C223.16 20.3719 218.143 18.8543 211.082 18.8543H175.404V25.703H159.795V15.0847ZM106.534 15.0847H122.143V25.703H106.534V15.0847ZM16.597 15.0847H32.206V25.703H16.597V15.0847ZM360.317 33.6667C360.689 35.9661 361.465 37.7358 362.645 38.9758H374.519C375.699 37.7104 376.172 35.9407 375.939 33.6667L370.63 33.6667C370.613 33.5014 370.592 33.3333 370.568 33.1626C370.312 30.49 369.884 28.0035 369.285 25.703H352.741C353.883 27.7024 354.622 30.2509 354.959 33.3484L354.972 33.435C354.978 33.4769 354.984 33.5186 354.991 33.5601C354.996 33.5958 355.002 33.6313 355.008 33.6667L360.317 33.6667ZM782.632 33.6667V38.9758H798.241V33.6667L792.931 33.6667V25.703H777.322V33.6667L782.632 33.6667ZM741.477 33.6667C740.819 30.8003 739.97 28.1457 738.931 25.703H720.606C722.293 27.379 723.626 29.4009 724.604 31.7689C724.866 32.373 725.11 33.0056 725.336 33.6667L730.646 33.6667C731.195 35.2689 731.644 37.0386 731.991 38.9758H747.756C747.499 37.132 747.176 35.3622 746.787 33.6667L741.477 33.6667ZM643.401 33.6667V25.703H659.01V33.6667L664.319 33.6667V38.9758H648.71V33.6667L643.401 33.6667ZM580.773 33.6667L577.484 25.703H546.83L543.596 33.6667L548.905 33.6667L546.749 38.9758H562.601L564.695 33.6667H569.291L571.473 38.9758H588.275L586.082 33.6667L580.773 33.6667ZM559.386 33.6667L561.637 27.9596L563.982 33.6667H559.386ZM489.724 33.6667C489.49 30.819 489.036 28.1644 488.362 25.703H471.612C472.85 27.7792 473.66 30.4338 474.043 33.6667L479.353 33.6667C479.524 35.1166 479.61 36.6828 479.61 38.3654V38.9758H495.219V38.3654C495.219 36.7447 495.157 35.1785 495.033 33.6667L489.724 33.6667ZM403.503 33.6667V25.703H419.112V33.6667L424.422 33.6667V38.9758H408.813V33.6667L403.503 33.6667ZM287.227 29.1674C286.686 30.4891 286.239 31.9889 285.887 33.6667L291.196 33.6667C290.859 35.2731 290.608 37.0428 290.445 38.9758H274.811C274.945 37.1328 275.145 35.363 275.41 33.6667L270.101 33.6667C270.549 30.8032 271.183 28.1487 272.004 25.703H289.193C288.421 26.73 287.765 27.8848 287.227 29.1674ZM244.654 25.703C245.328 28.1644 245.782 30.819 246.016 33.6667L251.325 33.6667C251.449 35.1785 251.511 36.7447 251.511 38.3654V38.9758H235.902V38.3654C235.902 36.6828 235.816 35.1166 235.644 33.6667L230.335 33.6667C229.952 30.4338 229.142 27.7792 227.904 25.703H244.654ZM175.404 25.703V33.6667L180.713 33.6667V38.9758H165.104V33.6667L159.795 33.6667V25.703H175.404ZM122.143 33.6667V25.703H106.534V33.6667H111.844V38.9758H127.453V33.6667H122.143ZM32.206 33.6667V25.703H16.597V33.6667H21.9064V38.9758H37.5154V33.6667H32.206ZM390.23 68.1762L411.467 68.1762V76.1399H479.386C483.862 74.3221 487.561 71.6675 490.481 68.1762L469.245 68.1762C469.42 67.9669 469.592 67.7546 469.762 67.5393C474.345 61.655 476.637 53.7886 476.637 43.9401V38.9758H461.028V43.9401C461.028 51.0013 459.542 56.0184 456.568 58.9915C453.595 61.9647 448.578 63.4513 441.517 63.4513H405.839V38.9758H390.23V68.1762ZM764.049 68.1762L785.286 68.1762V76.1399H800.895V73.4855H837.873C842.165 73.4855 844.686 71.7157 845.438 68.1762L824.202 68.1762C824.361 67.4244 824.441 66.5927 824.441 65.6811C824.441 60.4781 821.84 57.8766 816.637 57.8766H779.658V38.9758H764.049V68.1762ZM729.914 50.4438C729.914 46.3466 729.667 42.524 729.174 38.9758H713.409C714.006 42.3041 714.305 46.1268 714.305 50.4438V68.1762H729.914V50.4438ZM630.128 68.1762V38.9758H645.737V68.1762H630.128ZM581.751 68.1762L569.692 38.9758H552.89L564.889 68.1762H581.751ZM516.307 68.1762L528.167 38.9758H544.019L532.503 68.1762H516.307ZM108.87 38.9758H93.2614V68.1762H108.87V38.9758ZM18.9332 38.9758H3.32422V68.1762H18.9332V38.9758ZM146.522 38.9758V68.1762L167.759 68.1762V76.1399H235.813C239.39 74.6667 242.472 72.636 245.06 70.0478C245.659 69.4495 246.227 68.8256 246.767 68.1762L225.53 68.1762C230.463 62.2366 232.929 54.1579 232.929 43.9401V38.9758H217.32V43.9401C217.32 51.0013 215.833 56.0184 212.86 58.9915C209.887 61.9647 204.87 63.4513 197.809 63.4513H162.131V38.9758H146.522ZM256.023 44.8692V68.1762H271.632V44.8692C271.632 42.76 271.709 40.7956 271.863 38.9758H256.229C256.092 40.8634 256.023 42.8278 256.023 44.8692ZM355.937 38.9758C355.895 39.0208 355.852 39.0651 355.809 39.1087C354.446 40.4714 352.464 41.1528 349.862 41.1528C347.376 41.1528 345.443 40.4271 344.062 38.9758H355.937ZM379.089 74.7863C379.089 71.6187 378.125 69.4153 376.197 68.1762L354.96 68.1762C353.721 67.38 352.084 66.9818 350.048 66.9818L327.75 66.796C325.562 66.796 323.834 67.2561 322.566 68.1762L343.803 68.1762C342.055 69.4441 341.182 71.5855 341.182 74.6004C341.182 75.1418 341.21 75.6549 341.266 76.1399H379.089V74.7863ZM751.15 68.1762V76.1399H735.541V68.1762H751.15ZM651.365 68.1762V76.1399H666.973V68.1762H651.365ZM602.988 68.1762L606.277 76.1399H589.398L586.125 68.1762H602.988ZM537.544 68.1762L534.309 76.1399H550.599L553.739 68.1762H537.544ZM277.26 68.1762V76.1399H292.869V68.1762H277.26ZM130.107 68.1762V76.1399H114.498V68.1762H130.107ZM40.1698 68.1762V76.1399H24.5609V68.1762H40.1698ZM427.076 89.4129V79.0603H453.091L459.311 89.4129L456.656 89.4129L459.846 94.722L454.536 94.722L459.321 102.686H477.706L472.932 94.722L478.241 94.722L475.058 89.4129L477.712 89.4129L471.116 78.4099C474.117 77.9167 476.874 77.1601 479.386 76.14H411.467V89.4129L408.813 89.4129V94.722L403.503 94.722V102.686H419.112V94.722L424.422 94.722V89.4129L427.076 89.4129ZM609.103 89.4129L611.758 89.4129L606.277 76.14H589.398L592.735 84.2632H547.395L550.599 76.14H534.309L528.919 89.4129L526.264 89.4129L524.108 94.722L518.798 94.722L515.564 102.686H532.193L533.299 99.8721H591.182L592.342 102.686H609.275L605.987 94.722L611.296 94.722L609.103 89.4129ZM800.895 89.4129V76.14H785.286V89.4129L782.632 89.4129V94.722L777.322 94.722V102.686H792.931V94.722L798.24 94.722V89.4129L800.895 89.4129ZM751.15 82.0334V76.14H735.541V82.0334C735.541 84.6755 735.431 87.1354 735.211 89.4129L732.557 89.4129C732.373 91.3089 732.114 93.0786 731.778 94.722L726.469 94.722C725.997 97.0282 725.376 99.0856 724.604 100.894C724.344 101.515 724.059 102.112 723.749 102.686H740.46C741.226 100.211 741.831 97.5564 742.274 94.722L747.583 94.722C747.85 93.0173 748.058 91.2476 748.208 89.4129L750.862 89.4129C751.054 87.0601 751.15 84.6002 751.15 82.0334ZM651.365 89.4129V76.14H666.974V89.4129L664.319 89.4129V94.722L659.01 94.722V102.686H643.401V94.722L648.71 94.722V89.4129L651.365 89.4129ZM379.089 89.4129V76.14H341.266C341.751 80.3167 344.325 82.405 348.986 82.405L363.48 82.5909V89.4129L360.826 89.4129V91.3243C360.826 92.5111 360.799 93.6436 360.746 94.722L355.437 94.722C355.285 97.8251 354.914 100.48 354.323 102.686H370.221C370.655 100.213 370.933 97.558 371.054 94.722L376.364 94.722C376.411 93.617 376.435 92.4844 376.435 91.3243V89.4129L379.089 89.4129ZM277.278 89.4129C277.266 88.8181 277.26 88.2164 277.26 87.608V76.14H292.869V87.608C292.869 88.2219 292.875 88.8235 292.888 89.4129L290.234 89.4129C290.277 91.3091 290.388 93.0788 290.568 94.722L285.259 94.722C285.6 97.8287 286.186 100.483 287.018 102.686H270.875C270.289 100.209 269.866 97.5545 269.606 94.722L274.916 94.722C274.759 93.0168 274.662 91.2471 274.624 89.4129L277.278 89.4129ZM219.045 79.0603C225.498 79.0603 231.087 78.0869 235.813 76.14H167.759V89.4129L165.104 89.4129V94.722L159.795 94.722V102.686H175.404V94.722L180.713 94.722V89.4129L183.368 89.4129V79.0603H219.045ZM130.107 87.608V76.14H114.498V87.608C114.498 88.2219 114.491 88.8235 114.477 89.4129H111.823C111.778 91.3091 111.662 93.0788 111.475 94.722L106.166 94.722C105.811 97.8287 105.202 100.483 104.336 102.686H120.564C121.15 100.209 121.573 97.5545 121.833 94.722L127.142 94.722C127.298 93.0168 127.396 91.2471 127.434 89.4129H130.088C130.101 88.8181 130.107 88.2164 130.107 87.608ZM40.1699 87.608V76.14H24.5609V87.608C24.5609 88.2164 24.5671 88.818 24.5795 89.4129H21.925C21.9633 91.2471 22.0606 93.0168 22.217 94.722L16.9078 94.722C17.1676 97.5545 17.5903 100.209 18.1759 102.686H34.3198C33.4876 100.483 32.9012 97.8287 32.5604 94.722L37.8696 94.722C37.6894 93.0788 37.5779 91.3091 37.5352 89.4129H40.1898C40.1765 88.8235 40.1699 88.2219 40.1699 87.608ZM279.423 119.105C275.337 114.981 272.488 109.509 270.875 102.686H287.018C287.087 102.866 287.156 103.043 287.228 103.217C288.838 106.995 291.532 109.69 295.311 111.3C299.089 112.849 304.292 113.623 310.92 113.623H333.218C338.979 113.623 343.469 113.004 346.69 111.765C349.973 110.464 352.265 108.203 353.565 104.982C353.849 104.28 354.102 103.515 354.323 102.686H370.221C368.901 110.208 366.137 116.053 361.927 120.22C355.795 126.228 346.226 129.232 333.218 129.232H310.92C296.735 129.232 286.236 125.856 279.423 119.105ZM175.404 102.686H159.795V121.427C159.795 126.63 162.397 129.232 167.6 129.232C172.803 129.232 175.404 126.63 175.404 121.427V102.686ZM120.564 102.686H104.336C104.265 102.866 104.193 103.043 104.119 103.217C102.57 106.995 99.9068 109.69 96.1284 111.3C92.35 112.849 87.1471 113.623 80.5195 113.623H58.221C51.5934 113.623 46.3904 112.849 42.612 111.3C38.8337 109.69 36.1393 106.995 34.5288 103.217C34.4575 103.043 34.3879 102.866 34.3198 102.686H18.1759C19.7892 109.509 22.6386 114.981 26.7244 119.105C33.5378 125.856 44.0367 129.232 58.221 129.232H80.5195C94.7657 129.232 105.265 125.856 112.016 119.105C116.102 114.981 118.951 109.509 120.564 102.686ZM792.931 113.623V102.686H777.322V121.427C777.322 126.63 779.924 129.232 785.127 129.232H851.836C857.039 129.232 859.641 126.63 859.641 121.427C859.641 116.224 857.039 113.623 851.836 113.623H792.931ZM643.401 121.427V102.686H659.01V113.623H695.988C703.916 113.623 710.172 112.663 714.756 110.743C718.772 109.029 721.77 106.344 723.749 102.686H740.46C738.556 108.836 735.656 113.875 731.758 117.804C724.202 125.423 712.278 129.232 695.988 129.232H651.205C646.002 129.232 643.401 126.63 643.401 121.427ZM403.503 121.427V102.686H419.112V121.427C419.112 126.63 416.511 129.232 411.308 129.232C406.105 129.232 403.503 126.63 403.503 121.427ZM477.706 102.686H459.321L473.929 127.002C475.23 129.046 476.81 130.316 478.668 130.811C480.526 131.307 482.477 130.904 484.521 129.604C488.857 126.878 489.848 123.348 487.494 119.012L477.706 102.686ZM532.193 102.686H515.564L509.235 118.268C507.253 123.162 508.74 126.568 513.695 128.489C518.464 130.471 521.809 129.046 523.729 124.215L532.193 102.686ZM609.275 102.686H592.342L601.217 124.215C603.137 128.984 606.543 130.409 611.437 128.489C616.268 126.568 617.693 123.162 615.711 118.268L609.275 102.686Z" fill="white"/>
</svg>
