<svg width="27" height="27" viewBox="0 0 27 27" fill="none" xmlns="http://www.w3.org/2000/svg">
<g clip-path="url(#clip0)">
<path d="M14.9257 10.716C17.4058 10.716 19.8161 8.81085 19.8161 5.61694C19.8161 2.92021 17.6219 0.726562 14.9257 0.726562H5.61913C3.12202 0.726562 0.72876 2.64654 0.72876 5.82566C0.72876 8.26401 2.52218 10.291 4.85921 10.6573V13.9072C4.85921 14.6016 5.72203 14.9345 6.18654 14.4123L9.47956 10.716H14.9257ZM14.9054 4.78001C15.4257 4.78001 15.8472 5.20151 15.8472 5.7213C15.8472 6.24109 15.4257 6.66259 14.9054 6.66259C14.3856 6.66259 13.9641 6.24109 13.9641 5.7213C13.9641 5.20151 14.3856 4.78001 14.9054 4.78001ZM5.63889 6.66259C5.1191 6.66259 4.6976 6.24109 4.6976 5.7213C4.6976 5.20151 5.1191 4.78001 5.63889 4.78001C6.15919 4.78001 6.58069 5.20151 6.58069 5.7213C6.58069 6.24109 6.15919 6.66259 5.63889 6.66259ZM10.2724 4.78001C10.7922 4.78001 11.2137 5.20151 11.2137 5.7213C11.2137 6.24109 10.7922 6.66259 10.2724 6.66259C9.75262 6.66259 9.33112 6.24109 9.33112 5.7213C9.33112 5.20151 9.75262 4.78001 10.2724 4.78001Z" fill="white"/>
<path d="M21.7721 12.7249H12.4656C9.76935 12.7249 7.5752 14.919 7.5752 17.6157C7.5752 20.7655 9.94515 22.7148 12.4656 22.7148H17.9117L21.2047 26.4111C21.6652 26.9288 22.532 26.6043 22.532 25.9055V22.6556C24.8691 22.2893 26.6625 20.2623 26.6625 17.824C26.6625 14.6809 24.2989 12.7249 21.7721 12.7249ZM12.4858 18.6613C11.9655 18.6613 11.544 18.2398 11.544 17.7195C11.544 17.1998 11.9655 16.7782 12.4858 16.7782C13.0056 16.7782 13.4271 17.1998 13.4271 17.7195C13.4271 18.2398 13.0056 18.6613 12.4858 18.6613ZM17.1188 18.6613C16.5991 18.6613 16.1776 18.2398 16.1776 17.7195C16.1776 17.1998 16.5991 16.7782 17.1188 16.7782C17.6386 16.7782 18.0601 17.1998 18.0601 17.7195C18.0601 18.2398 17.6386 18.6613 17.1188 18.6613ZM21.7524 18.6613C21.2321 18.6613 20.8106 18.2398 20.8106 17.7195C20.8106 17.1998 21.2321 16.7782 21.7524 16.7782C22.2722 16.7782 22.6937 17.1998 22.6937 17.7195C22.6937 18.2398 22.2722 18.6613 21.7524 18.6613Z" fill="white"/>
</g>
<defs>
<clipPath id="clip0">
<rect width="25.9388" height="25.9388" fill="white" transform="translate(0.726074 0.726562)"/>
</clipPath>
</defs>
</svg>
