<svg width="24" height="25" viewBox="0 0 24 25" fill="none" xmlns="http://www.w3.org/2000/svg">
<path d="M9.06032 21.7468H14.9379C14.9379 22.4956 14.6282 23.2138 14.0771 23.7433C13.526 24.2728 12.7785 24.5703 11.9991 24.5703C11.2197 24.5703 10.4722 24.2728 9.92107 23.7433C9.36994 23.2138 9.06032 22.4956 9.06032 21.7468ZM22.2848 18.2174C22.2848 18.779 22.0526 19.3176 21.6392 19.7148C21.2259 20.1119 20.6653 20.335 20.0807 20.335H3.91746C3.3329 20.335 2.77228 20.1119 2.35894 19.7148C1.94559 19.3176 1.71338 18.779 1.71338 18.2174C1.71338 17.6557 1.94559 17.1171 2.35894 16.72C2.77228 16.3228 3.3329 16.0997 3.91746 16.0997H4.65215V10.4527C4.65238 8.82566 5.23745 7.24865 6.30843 5.98835C7.37941 4.72805 8.87056 3.8618 10.5297 3.53611V1.98208C10.5297 1.60765 10.6845 1.24857 10.9601 0.983809C11.2356 0.719052 11.6094 0.570312 11.9991 0.570312C12.3888 0.570312 12.7625 0.719052 13.0381 0.983809C13.3137 1.24857 13.4685 1.60765 13.4685 1.98208V3.53611C15.1276 3.8618 16.6188 4.72805 17.6898 5.98835C18.7607 7.24865 19.3458 8.82566 19.346 10.4527V16.0997H20.0807C20.6653 16.0997 21.2259 16.3228 21.6392 16.72C22.0526 17.1171 22.2848 17.6557 22.2848 18.2174Z" fill="#55A4FF"/>
</svg>
