<svg width="25" height="25" viewBox="0 0 25 25" fill="none" xmlns="http://www.w3.org/2000/svg">
<path d="M10.207 18.5571C11.982 18.5568 13.7058 17.9626 15.104 16.8691L19.5 21.2651L20.914 19.8511L16.518 15.4551C17.612 14.0568 18.2066 12.3326 18.207 10.5571C18.207 6.14613 14.618 2.55713 10.207 2.55713C5.79603 2.55713 2.20703 6.14613 2.20703 10.5571C2.20703 14.9681 5.79603 18.5571 10.207 18.5571ZM10.207 4.55713C13.516 4.55713 16.207 7.24813 16.207 10.5571C16.207 13.8661 13.516 16.5571 10.207 16.5571C6.89803 16.5571 4.20703 13.8661 4.20703 10.5571C4.20703 7.24813 6.89803 4.55713 10.207 4.55713Z" fill="white"/>
</svg>
