<svg width="22" height="20" viewBox="0 0 22 20" fill="none" xmlns="http://www.w3.org/2000/svg">
<path d="M9.76269 1.18983C10.3585 0.320475 11.6415 0.320475 12.2373 1.18983L14.4176 4.37109C14.7426 4.84542 15.2213 5.19318 15.7729 5.35577L19.4721 6.44625C20.4831 6.74425 20.8795 7.96445 20.2368 8.79975L17.885 11.8564C17.5344 12.3121 17.3515 12.8748 17.3673 13.4496L17.4734 17.3048C17.5024 18.3583 16.4644 19.1125 15.4714 18.7594L11.8376 17.4672C11.2958 17.2745 10.7042 17.2745 10.1624 17.4672L6.52862 18.7594C5.53561 19.1125 4.49764 18.3583 4.52662 17.3048L4.63265 13.4496C4.64846 12.8748 4.46563 12.3121 4.11497 11.8564L1.76316 8.79975C1.12046 7.96445 1.51693 6.74425 2.52785 6.44625L6.22714 5.35577C6.77871 5.19318 7.25736 4.84541 7.58244 4.37109L9.76269 1.18983Z" stroke="#55A4FF"/>
</svg>
