<svg width="104" height="80" viewBox="0 0 104 80" fill="none" xmlns="http://www.w3.org/2000/svg">
<g clip-path="url(#clip0)">
<path d="M74.0784 48.1311L61.6978 43.9787V43.2802C65.7427 40.2772 68.3755 35.4349 68.3755 29.98V11.7726C68.3755 10.6422 67.4698 9.72548 66.353 9.72548H47.5184C41.0546 9.72548 35.7959 15.0479 35.7959 21.5902V29.98C35.7959 35.4349 38.4285 40.2772 42.4735 43.28V43.9787L30.093 48.1311C25.2044 49.7707 21.9199 54.3743 21.9199 59.587V77.8357C21.9199 78.9662 22.8256 79.8829 23.9425 79.8829H43.1866C44.3035 79.8829 45.2092 78.9662 45.2092 77.8357C45.2092 76.7053 44.3035 75.7886 43.1866 75.7886H35.5008V63.0962C35.5008 61.9658 34.5951 61.0491 33.4782 61.0491C32.3613 61.0491 31.4556 61.9658 31.4556 63.0962V75.7886H25.9651V59.587C25.9651 56.1429 28.1351 53.1008 31.3654 52.0174L42.6203 48.2425V48.466C42.6203 53.7487 46.8665 58.0465 52.086 58.0465C57.3055 58.0465 61.5517 53.7487 61.5517 48.466V48.2429L72.8062 52.0176C76.0365 53.101 78.2065 56.1429 78.2065 59.5872V75.7886H72.7164V63.0962C72.7164 61.9658 71.8107 61.0491 70.6938 61.0491C69.577 61.0491 68.6712 61.9658 68.6712 63.0962V75.7886H59.5291C58.4123 75.7886 57.5066 76.7053 57.5066 77.8357C57.5066 78.9662 58.4123 79.8829 59.5291 79.8829H80.2291C81.346 79.8829 82.2517 78.9662 82.2517 77.8357V59.587C82.2515 54.3745 78.967 49.7707 74.0784 48.1311ZM39.8411 21.5902C39.8409 17.3055 43.2851 13.8198 47.5182 13.8198H64.3302V24.1512C62.8895 24.7612 61.3305 25.0853 59.7577 25.0853C56.0661 25.0853 52.6513 23.3843 50.3891 20.419C50.006 19.917 49.415 19.6229 48.7882 19.6229C48.1616 19.6229 47.5704 19.917 47.1873 20.4188C45.3449 22.8336 42.7386 24.4093 39.8411 24.9115V21.5902ZM57.5063 48.4662C57.5063 51.4913 55.0748 53.9522 52.0858 53.9522C49.097 53.9522 46.6653 51.4913 46.6653 48.466V45.5257C48.362 46.1335 50.1856 46.4678 52.0854 46.4678C53.9856 46.4678 55.8094 46.1335 57.5063 45.5255V48.4662ZM52.0852 42.3733C45.3334 42.3733 39.8409 36.8138 39.8409 29.98V29.0469C43.2182 28.6152 46.3352 27.1113 48.788 24.7272C51.724 27.581 55.61 29.1796 59.7575 29.1796C61.3092 29.1796 62.8523 28.946 64.33 28.4975V29.98C64.33 36.8138 58.837 42.3733 52.0852 42.3733Z" fill="#55A4FF"/>
<path d="M52.2009 76.3884C51.8249 76.0074 51.3031 75.7886 50.7711 75.7886C50.2392 75.7886 49.7174 76.0074 49.3412 76.3884C48.965 76.7694 48.7485 77.2973 48.7485 77.8357C48.7485 78.3741 48.9647 78.9023 49.3412 79.2829C49.7174 79.6636 50.2392 79.8829 50.7711 79.8829C51.3031 79.8829 51.8249 79.6638 52.2009 79.2829C52.5771 78.9023 52.7937 78.3741 52.7937 77.8357C52.7937 77.2973 52.5773 76.7692 52.2009 76.3884Z" fill="#55A4FF"/>
</g>
<defs>
<clipPath id="clip0">
<rect width="103.557" height="79.6589" fill="white" transform="translate(0.307617 0.223999)"/>
</clipPath>
</defs>
</svg>
