<svg width="18" height="18" viewBox="0 0 18 18" fill="none" xmlns="http://www.w3.org/2000/svg">
<g clip-path="url(#clip0)">
<path d="M16.763 5.09039C16.584 4.97972 16.3605 4.96961 16.1722 5.06367L12.1936 7.05326V5.60704C12.1936 4.60109 11.3781 3.78561 10.3722 3.78561H1.87221C0.866261 3.78561 0.0507812 4.60109 0.0507812 5.60704V12.8927C0.0507812 13.8987 0.866261 14.7142 1.87221 14.7142H10.3722C11.3781 14.7142 12.1936 13.8987 12.1936 12.8927V11.4465L16.1722 13.4392C16.4722 13.5891 16.8368 13.4674 16.9867 13.1675C17.0294 13.0822 17.0513 12.9881 17.0508 12.8927V5.60704C17.0509 5.39658 16.942 5.2011 16.763 5.09039ZM6.12222 11.6785C4.78094 11.6785 3.69364 10.5912 3.69364 9.2499C3.69364 7.90862 4.78094 6.82131 6.12222 6.82131C7.46349 6.82131 8.5508 7.90862 8.5508 9.2499C8.5508 10.5912 7.46346 11.6785 6.12222 11.6785Z" fill="#55A4FF"/>
</g>
<defs>
<clipPath id="clip0">
<rect width="17" height="17" fill="white" transform="translate(0.0507812 0.749939)"/>
</clipPath>
</defs>
</svg>
